# MagicaVoxel @ Ephtracy

# group
g Grass-2

# material
mtllib Grass-2.mtl
usemtl palette

# normals
vn -1 0 0
vn 1 0 0
vn 0 0 1
vn 0 0 -1
vn 0 -1 0
vn 0 1 0

# texcoords
vt 0.537109 0.5
vt 0.900391 0.5
vt 0.904297 0.5

# verts
v -10 0 10
v -10 0 -10
v -10 1 10
v -10 1 -10
v -10 2 9
v -10 2 -10
v -10 3 10
v -10 3 9
v -9 2 5
v -9 2 4
v -9 2 2
v -9 2 1
v -9 2 -4
v -9 2 -5
v -9 2 -8
v -9 2 -9
v -9 3 2
v -9 3 1
v -9 4 5
v -9 4 4
v -9 5 -4
v -9 5 -5
v -9 5 -8
v -9 5 -9
v -8 2 8
v -8 2 7
v -8 2 -1
v -8 2 -2
v -8 4 -1
v -8 4 -2
v -8 5 8
v -8 5 7
v -6 2 3
v -6 2 2
v -6 2 -3
v -6 2 -4
v -6 2 -6
v -6 2 -7
v -6 3 -3
v -6 3 -4
v -6 4 -6
v -6 4 -7
v -6 5 3
v -6 5 2
v -5 2 8
v -5 2 7
v -5 3 8
v -5 3 7
v -4 2 -0
v -4 2 -1
v -4 5 -0
v -4 5 -1
v -3 2 7
v -3 2 6
v -3 2 -4
v -3 2 -5
v -3 3 -4
v -3 3 -5
v -3 4 7
v -3 4 6
v -2 2 4
v -2 2 3
v -2 2 -3
v -2 2 -4
v -2 2 -7
v -2 2 -8
v -2 3 -3
v -2 3 -4
v -2 5 4
v -2 5 3
v -2 5 -7
v -2 5 -8
v 0 2 9
v 0 2 8
v 0 2 1
v 0 2 -0
v 0 4 9
v 0 4 8
v 0 5 1
v 0 5 -0
v 2 2 -6
v 2 2 -7
v 2 2 -8
v 2 3 -6
v 2 3 -7
v 2 4 -7
v 2 4 -8
v 3 2 6
v 3 2 5
v 3 2 -2
v 3 2 -3
v 3 3 6
v 3 3 5
v 3 3 -2
v 3 3 -3
v 4 2 9
v 4 2 8
v 4 2 2
v 4 2 1
v 4 3 9
v 4 3 8
v 4 5 2
v 4 5 1
v 6 2 5
v 6 2 4
v 6 2 -4
v 6 2 -5
v 6 3 5
v 6 3 4
v 6 5 -4
v 6 5 -5
v 7 2 9
v 7 2 8
v 7 2 2
v 7 2 1
v 7 2 -3
v 7 2 -4
v 7 2 -8
v 7 2 -9
v 7 3 -3
v 7 3 -4
v 7 3 -8
v 7 3 -9
v 7 4 2
v 7 4 1
v 7 5 9
v 7 5 8
v 8 2 6
v 8 2 5
v 8 5 6
v 8 5 5
v -9 2 10
v -9 2 9
v -9 3 10
v -9 3 9
v -8 2 5
v -8 2 4
v -8 2 2
v -8 2 1
v -8 2 -4
v -8 2 -5
v -8 2 -8
v -8 2 -9
v -8 3 2
v -8 3 1
v -8 4 5
v -8 4 4
v -8 5 -4
v -8 5 -5
v -8 5 -8
v -8 5 -9
v -7 2 8
v -7 2 7
v -7 2 -1
v -7 2 -2
v -7 4 -1
v -7 4 -2
v -7 5 8
v -7 5 7
v -5 2 3
v -5 2 2
v -5 2 -3
v -5 2 -4
v -5 2 -6
v -5 2 -7
v -5 3 -3
v -5 3 -4
v -5 4 -6
v -5 4 -7
v -5 5 3
v -5 5 2
v -4 2 8
v -4 2 7
v -4 3 8
v -4 3 7
v -3 2 -0
v -3 2 -1
v -3 5 -0
v -3 5 -1
v -2 2 7
v -2 2 6
v -2 2 -4
v -2 2 -5
v -2 3 -4
v -2 3 -5
v -2 4 7
v -2 4 6
v -1 2 4
v -1 2 3
v -1 2 -3
v -1 2 -4
v -1 2 -7
v -1 2 -8
v -1 3 -3
v -1 3 -4
v -1 5 4
v -1 5 3
v -1 5 -7
v -1 5 -8
v 1 2 9
v 1 2 8
v 1 2 1
v 1 2 -0
v 1 4 9
v 1 4 8
v 1 5 1
v 1 5 -0
v 3 2 -6
v 3 2 -7
v 3 2 -8
v 3 3 -6
v 3 3 -7
v 3 4 -7
v 3 4 -8
v 4 2 6
v 4 2 5
v 4 2 -2
v 4 2 -3
v 4 3 6
v 4 3 5
v 4 3 -2
v 4 3 -3
v 5 2 9
v 5 2 8
v 5 2 2
v 5 2 1
v 5 3 9
v 5 3 8
v 5 5 2
v 5 5 1
v 7 2 5
v 7 2 4
v 7 2 -4
v 7 2 -5
v 7 3 5
v 7 3 4
v 7 3 -4
v 7 5 -4
v 7 5 -5
v 8 2 9
v 8 2 8
v 8 2 2
v 8 2 1
v 8 2 -3
v 8 2 -4
v 8 2 -8
v 8 2 -9
v 8 3 -3
v 8 3 -4
v 8 3 -8
v 8 3 -9
v 8 4 2
v 8 4 1
v 8 5 9
v 8 5 8
v 9 2 6
v 9 2 5
v 9 5 6
v 9 5 5
v 10 0 10
v 10 0 -10
v 10 1 10
v 10 1 -10
v 10 2 10
v 10 2 -10
v -10 0 10
v -10 1 10
v -10 3 10
v -9 2 10
v -9 3 10
v 10 0 10
v 10 1 10
v 10 2 10
v 0 2 9
v 0 4 9
v 1 2 9
v 1 4 9
v 4 2 9
v 4 3 9
v 5 2 9
v 5 3 9
v 7 2 9
v 7 5 9
v 8 2 9
v 8 5 9
v -8 2 8
v -8 5 8
v -7 2 8
v -7 5 8
v -5 2 8
v -5 3 8
v -4 2 8
v -4 3 8
v -3 2 7
v -3 4 7
v -2 2 7
v -2 4 7
v 3 2 6
v 3 3 6
v 4 2 6
v 4 3 6
v 8 2 6
v 8 5 6
v 9 2 6
v 9 5 6
v -9 2 5
v -9 4 5
v -8 2 5
v -8 4 5
v 6 2 5
v 6 3 5
v 7 2 5
v 7 3 5
v -2 2 4
v -2 5 4
v -1 2 4
v -1 5 4
v -6 2 3
v -6 5 3
v -5 2 3
v -5 5 3
v -9 2 2
v -9 3 2
v -8 2 2
v -8 3 2
v 4 2 2
v 4 5 2
v 5 2 2
v 5 5 2
v 7 2 2
v 7 4 2
v 8 2 2
v 8 4 2
v 0 2 1
v 0 5 1
v 1 2 1
v 1 5 1
v -4 2 -0
v -4 5 -0
v -3 2 -0
v -3 5 -0
v -8 2 -1
v -8 4 -1
v -7 2 -1
v -7 4 -1
v 3 2 -2
v 3 3 -2
v 4 2 -2
v 4 3 -2
v -6 2 -3
v -6 3 -3
v -5 2 -3
v -5 3 -3
v -2 2 -3
v -2 3 -3
v -1 2 -3
v -1 3 -3
v 7 2 -3
v 7 3 -3
v 8 2 -3
v 8 3 -3
v -9 2 -4
v -9 5 -4
v -8 2 -4
v -8 5 -4
v -3 2 -4
v -3 3 -4
v -2 2 -4
v -2 3 -4
v 6 2 -4
v 6 5 -4
v 7 2 -4
v 7 3 -4
v 7 5 -4
v -6 2 -6
v -6 4 -6
v -5 2 -6
v -5 4 -6
v 2 2 -6
v 2 3 -6
v 3 2 -6
v 3 3 -6
v -2 2 -7
v -2 5 -7
v -1 2 -7
v -1 5 -7
v 2 3 -7
v 2 4 -7
v 3 3 -7
v 3 4 -7
v -9 2 -8
v -9 5 -8
v -8 2 -8
v -8 5 -8
v 7 2 -8
v 7 3 -8
v 8 2 -8
v 8 3 -8
v -10 2 9
v -10 3 9
v -9 2 9
v -9 3 9
v 0 2 8
v 0 4 8
v 1 2 8
v 1 4 8
v 4 2 8
v 4 3 8
v 5 2 8
v 5 3 8
v 7 2 8
v 7 5 8
v 8 2 8
v 8 5 8
v -8 2 7
v -8 5 7
v -7 2 7
v -7 5 7
v -5 2 7
v -5 3 7
v -4 2 7
v -4 3 7
v -3 2 6
v -3 4 6
v -2 2 6
v -2 4 6
v 3 2 5
v 3 3 5
v 4 2 5
v 4 3 5
v 8 2 5
v 8 5 5
v 9 2 5
v 9 5 5
v -9 2 4
v -9 4 4
v -8 2 4
v -8 4 4
v 6 2 4
v 6 3 4
v 7 2 4
v 7 3 4
v -2 2 3
v -2 5 3
v -1 2 3
v -1 5 3
v -6 2 2
v -6 5 2
v -5 2 2
v -5 5 2
v -9 2 1
v -9 3 1
v -8 2 1
v -8 3 1
v 4 2 1
v 4 5 1
v 5 2 1
v 5 5 1
v 7 2 1
v 7 4 1
v 8 2 1
v 8 4 1
v 0 2 -0
v 0 5 -0
v 1 2 -0
v 1 5 -0
v -4 2 -1
v -4 5 -1
v -3 2 -1
v -3 5 -1
v -8 2 -2
v -8 4 -2
v -7 2 -2
v -7 4 -2
v 3 2 -3
v 3 3 -3
v 4 2 -3
v 4 3 -3
v -6 2 -4
v -6 3 -4
v -5 2 -4
v -5 3 -4
v -2 2 -4
v -2 3 -4
v -1 2 -4
v -1 3 -4
v 7 2 -4
v 7 3 -4
v 8 2 -4
v 8 3 -4
v -9 2 -5
v -9 5 -5
v -8 2 -5
v -8 5 -5
v -3 2 -5
v -3 3 -5
v -2 2 -5
v -2 3 -5
v 6 2 -5
v 6 5 -5
v 7 2 -5
v 7 5 -5
v -6 2 -7
v -6 4 -7
v -5 2 -7
v -5 4 -7
v -2 2 -8
v -2 5 -8
v -1 2 -8
v -1 5 -8
v 2 2 -8
v 2 4 -8
v 3 2 -8
v 3 4 -8
v -9 2 -9
v -9 5 -9
v -8 2 -9
v -8 5 -9
v 7 2 -9
v 7 3 -9
v 8 2 -9
v 8 3 -9
v -10 0 -10
v -10 1 -10
v -10 2 -10
v 10 0 -10
v 10 1 -10
v 10 2 -10
v -10 0 10
v 10 0 10
v -10 0 -10
v 10 0 -10
v -9 2 10
v 10 2 10
v -10 2 9
v -9 2 9
v 0 2 9
v 1 2 9
v 4 2 9
v 5 2 9
v 7 2 9
v 8 2 9
v -8 2 8
v -7 2 8
v -5 2 8
v -4 2 8
v 0 2 8
v 1 2 8
v 4 2 8
v 5 2 8
v 7 2 8
v 8 2 8
v -8 2 7
v -7 2 7
v -5 2 7
v -4 2 7
v -3 2 7
v -2 2 7
v -3 2 6
v -2 2 6
v 3 2 6
v 4 2 6
v 8 2 6
v 9 2 6
v -9 2 5
v -8 2 5
v 3 2 5
v 4 2 5
v 6 2 5
v 7 2 5
v 8 2 5
v 9 2 5
v -9 2 4
v -8 2 4
v -2 2 4
v -1 2 4
v 6 2 4
v 7 2 4
v -6 2 3
v -5 2 3
v -2 2 3
v -1 2 3
v -9 2 2
v -8 2 2
v -6 2 2
v -5 2 2
v 4 2 2
v 5 2 2
v 7 2 2
v 8 2 2
v -9 2 1
v -8 2 1
v 0 2 1
v 1 2 1
v 4 2 1
v 5 2 1
v 7 2 1
v 8 2 1
v -4 2 -0
v -3 2 -0
v 0 2 -0
v 1 2 -0
v -8 2 -1
v -7 2 -1
v -4 2 -1
v -3 2 -1
v -8 2 -2
v -7 2 -2
v 3 2 -2
v 4 2 -2
v -6 2 -3
v -5 2 -3
v -2 2 -3
v -1 2 -3
v 3 2 -3
v 4 2 -3
v 7 2 -3
v 8 2 -3
v -9 2 -4
v -8 2 -4
v -6 2 -4
v -5 2 -4
v -3 2 -4
v -2 2 -4
v -1 2 -4
v 6 2 -4
v 7 2 -4
v 8 2 -4
v -9 2 -5
v -8 2 -5
v -3 2 -5
v -2 2 -5
v 6 2 -5
v 7 2 -5
v -6 2 -6
v -5 2 -6
v 2 2 -6
v 3 2 -6
v -6 2 -7
v -5 2 -7
v -2 2 -7
v -1 2 -7
v 2 2 -7
v 3 2 -7
v -9 2 -8
v -8 2 -8
v -2 2 -8
v -1 2 -8
v 2 2 -8
v 3 2 -8
v 7 2 -8
v 8 2 -8
v -9 2 -9
v -8 2 -9
v 7 2 -9
v 8 2 -9
v -10 2 -10
v 10 2 -10
v -10 3 10
v -9 3 10
v -10 3 9
v -9 3 9
v 4 3 9
v 5 3 9
v -5 3 8
v -4 3 8
v 4 3 8
v 5 3 8
v -5 3 7
v -4 3 7
v 3 3 6
v 4 3 6
v 3 3 5
v 4 3 5
v 6 3 5
v 7 3 5
v 6 3 4
v 7 3 4
v -9 3 2
v -8 3 2
v -9 3 1
v -8 3 1
v 3 3 -2
v 4 3 -2
v -6 3 -3
v -5 3 -3
v -2 3 -3
v -1 3 -3
v 3 3 -3
v 4 3 -3
v 7 3 -3
v 8 3 -3
v -6 3 -4
v -5 3 -4
v -3 3 -4
v -2 3 -4
v -1 3 -4
v 7 3 -4
v 8 3 -4
v -3 3 -5
v -2 3 -5
v 2 3 -6
v 3 3 -6
v 2 3 -7
v 3 3 -7
v 7 3 -8
v 8 3 -8
v 7 3 -9
v 8 3 -9
v 0 4 9
v 1 4 9
v 0 4 8
v 1 4 8
v -3 4 7
v -2 4 7
v -3 4 6
v -2 4 6
v -9 4 5
v -8 4 5
v -9 4 4
v -8 4 4
v 7 4 2
v 8 4 2
v 7 4 1
v 8 4 1
v -8 4 -1
v -7 4 -1
v -8 4 -2
v -7 4 -2
v -6 4 -6
v -5 4 -6
v -6 4 -7
v -5 4 -7
v 2 4 -7
v 3 4 -7
v 2 4 -8
v 3 4 -8
v 7 5 9
v 8 5 9
v -8 5 8
v -7 5 8
v 7 5 8
v 8 5 8
v -8 5 7
v -7 5 7
v 8 5 6
v 9 5 6
v 8 5 5
v 9 5 5
v -2 5 4
v -1 5 4
v -6 5 3
v -5 5 3
v -2 5 3
v -1 5 3
v -6 5 2
v -5 5 2
v 4 5 2
v 5 5 2
v 0 5 1
v 1 5 1
v 4 5 1
v 5 5 1
v -4 5 -0
v -3 5 -0
v 0 5 -0
v 1 5 -0
v -4 5 -1
v -3 5 -1
v -9 5 -4
v -8 5 -4
v 6 5 -4
v 7 5 -4
v -9 5 -5
v -8 5 -5
v 6 5 -5
v 7 5 -5
v -2 5 -7
v -1 5 -7
v -9 5 -8
v -8 5 -8
v -2 5 -8
v -1 5 -8
v -9 5 -9
v -8 5 -9

# faces
f 3/1/1 2/1/1 1/1/1
f 4/1/1 2/1/1 3/1/1
f 5/3/1 4/3/1 3/3/1
f 6/3/1 4/3/1 5/3/1
f 7/3/1 5/3/1 3/3/1
f 8/3/1 5/3/1 7/3/1
f 17/3/1 12/3/1 11/3/1
f 18/3/1 12/3/1 17/3/1
f 19/2/1 10/2/1 9/2/1
f 20/2/1 10/2/1 19/2/1
f 21/2/1 14/2/1 13/2/1
f 22/2/1 14/2/1 21/2/1
f 23/2/1 16/2/1 15/2/1
f 24/2/1 16/2/1 23/2/1
f 29/2/1 28/2/1 27/2/1
f 30/2/1 28/2/1 29/2/1
f 31/2/1 26/2/1 25/2/1
f 32/2/1 26/2/1 31/2/1
f 39/3/1 36/3/1 35/3/1
f 40/3/1 36/3/1 39/3/1
f 41/2/1 38/2/1 37/2/1
f 42/2/1 38/2/1 41/2/1
f 43/2/1 34/2/1 33/2/1
f 44/2/1 34/2/1 43/2/1
f 47/3/1 46/3/1 45/3/1
f 48/3/1 46/3/1 47/3/1
f 51/2/1 50/2/1 49/2/1
f 52/2/1 50/2/1 51/2/1
f 57/2/1 56/2/1 55/2/1
f 58/2/1 56/2/1 57/2/1
f 59/2/1 54/2/1 53/2/1
f 60/2/1 54/2/1 59/2/1
f 67/3/1 64/3/1 63/3/1
f 68/3/1 64/3/1 67/3/1
f 69/2/1 62/2/1 61/2/1
f 70/2/1 62/2/1 69/2/1
f 71/2/1 66/2/1 65/2/1
f 72/2/1 66/2/1 71/2/1
f 77/2/1 74/2/1 73/2/1
f 78/2/1 74/2/1 77/2/1
f 79/2/1 76/2/1 75/2/1
f 80/2/1 76/2/1 79/2/1
f 84/3/1 82/3/1 81/3/1
f 85/2/1 83/2/1 82/2/1
f 85/3/1 82/3/1 84/3/1
f 86/2/1 83/2/1 85/2/1
f 87/2/1 83/2/1 86/2/1
f 92/2/1 89/2/1 88/2/1
f 93/2/1 89/2/1 92/2/1
f 94/2/1 91/2/1 90/2/1
f 95/2/1 91/2/1 94/2/1
f 100/3/1 97/3/1 96/3/1
f 101/3/1 97/3/1 100/3/1
f 102/2/1 99/2/1 98/2/1
f 103/2/1 99/2/1 102/2/1
f 108/3/1 105/3/1 104/3/1
f 109/3/1 105/3/1 108/3/1
f 110/2/1 107/2/1 106/2/1
f 111/2/1 107/2/1 110/2/1
f 120/3/1 117/3/1 116/3/1
f 121/3/1 117/3/1 120/3/1
f 122/2/1 119/2/1 118/2/1
f 123/2/1 119/2/1 122/2/1
f 124/2/1 115/2/1 114/2/1
f 125/2/1 115/2/1 124/2/1
f 126/2/1 113/2/1 112/2/1
f 127/2/1 113/2/1 126/2/1
f 130/2/1 129/2/1 128/2/1
f 131/2/1 129/2/1 130/2/1
f 132/3/2 133/3/2 134/3/2
f 134/3/2 133/3/2 135/3/2
f 138/3/2 139/3/2 144/3/2
f 144/3/2 139/3/2 145/3/2
f 136/2/2 137/2/2 146/2/2
f 146/2/2 137/2/2 147/2/2
f 140/2/2 141/2/2 148/2/2
f 148/2/2 141/2/2 149/2/2
f 142/2/2 143/2/2 150/2/2
f 150/2/2 143/2/2 151/2/2
f 154/2/2 155/2/2 156/2/2
f 156/2/2 155/2/2 157/2/2
f 152/2/2 153/2/2 158/2/2
f 158/2/2 153/2/2 159/2/2
f 162/3/2 163/3/2 166/3/2
f 166/3/2 163/3/2 167/3/2
f 164/2/2 165/2/2 168/2/2
f 168/2/2 165/2/2 169/2/2
f 160/2/2 161/2/2 170/2/2
f 170/2/2 161/2/2 171/2/2
f 172/3/2 173/3/2 174/3/2
f 174/3/2 173/3/2 175/3/2
f 176/2/2 177/2/2 178/2/2
f 178/2/2 177/2/2 179/2/2
f 182/2/2 183/2/2 184/2/2
f 184/2/2 183/2/2 185/2/2
f 180/2/2 181/2/2 186/2/2
f 186/2/2 181/2/2 187/2/2
f 190/3/2 191/3/2 194/3/2
f 194/3/2 191/3/2 195/3/2
f 188/2/2 189/2/2 196/2/2
f 196/2/2 189/2/2 197/2/2
f 192/2/2 193/2/2 198/2/2
f 198/2/2 193/2/2 199/2/2
f 200/2/2 201/2/2 204/2/2
f 204/2/2 201/2/2 205/2/2
f 202/2/2 203/2/2 206/2/2
f 206/2/2 203/2/2 207/2/2
f 208/3/2 209/3/2 211/3/2
f 209/2/2 210/2/2 212/2/2
f 211/3/2 209/3/2 212/3/2
f 212/2/2 210/2/2 213/2/2
f 213/2/2 210/2/2 214/2/2
f 215/2/2 216/2/2 219/2/2
f 219/2/2 216/2/2 220/2/2
f 217/2/2 218/2/2 221/2/2
f 221/2/2 218/2/2 222/2/2
f 223/3/2 224/3/2 227/3/2
f 227/3/2 224/3/2 228/3/2
f 225/2/2 226/2/2 229/2/2
f 229/2/2 226/2/2 230/2/2
f 231/3/2 232/3/2 235/3/2
f 235/3/2 232/3/2 236/3/2
f 233/2/2 234/2/2 237/2/2
f 237/2/2 234/2/2 238/2/2
f 238/2/2 234/2/2 239/2/2
f 244/3/2 245/3/2 248/3/2
f 248/3/2 245/3/2 249/3/2
f 246/2/2 247/2/2 250/2/2
f 250/2/2 247/2/2 251/2/2
f 242/2/2 243/2/2 252/2/2
f 252/2/2 243/2/2 253/2/2
f 240/2/2 241/2/2 254/2/2
f 254/2/2 241/2/2 255/2/2
f 256/2/2 257/2/2 258/2/2
f 258/2/2 257/2/2 259/2/2
f 260/1/2 261/1/2 262/1/2
f 262/1/2 261/1/2 263/1/2
f 262/3/2 263/3/2 264/3/2
f 264/3/2 263/3/2 265/3/2
f 269/3/3 268/3/3 267/3/3
f 270/3/3 268/3/3 269/3/3
f 271/1/3 267/1/3 266/1/3
f 272/3/3 269/3/3 267/3/3
f 272/1/3 267/1/3 271/1/3
f 273/3/3 269/3/3 272/3/3
f 276/2/3 275/2/3 274/2/3
f 277/2/3 275/2/3 276/2/3
f 280/3/3 279/3/3 278/3/3
f 281/3/3 279/3/3 280/3/3
f 284/2/3 283/2/3 282/2/3
f 285/2/3 283/2/3 284/2/3
f 288/2/3 287/2/3 286/2/3
f 289/2/3 287/2/3 288/2/3
f 292/3/3 291/3/3 290/3/3
f 293/3/3 291/3/3 292/3/3
f 296/2/3 295/2/3 294/2/3
f 297/2/3 295/2/3 296/2/3
f 300/2/3 299/2/3 298/2/3
f 301/2/3 299/2/3 300/2/3
f 304/2/3 303/2/3 302/2/3
f 305/2/3 303/2/3 304/2/3
f 308/2/3 307/2/3 306/2/3
f 309/2/3 307/2/3 308/2/3
f 312/3/3 311/3/3 310/3/3
f 313/3/3 311/3/3 312/3/3
f 316/2/3 315/2/3 314/2/3
f 317/2/3 315/2/3 316/2/3
f 320/2/3 319/2/3 318/2/3
f 321/2/3 319/2/3 320/2/3
f 324/3/3 323/3/3 322/3/3
f 325/3/3 323/3/3 324/3/3
f 328/2/3 327/2/3 326/2/3
f 329/2/3 327/2/3 328/2/3
f 332/2/3 331/2/3 330/2/3
f 333/2/3 331/2/3 332/2/3
f 336/2/3 335/2/3 334/2/3
f 337/2/3 335/2/3 336/2/3
f 340/2/3 339/2/3 338/2/3
f 341/2/3 339/2/3 340/2/3
f 344/2/3 343/2/3 342/2/3
f 345/2/3 343/2/3 344/2/3
f 348/2/3 347/2/3 346/2/3
f 349/2/3 347/2/3 348/2/3
f 352/3/3 351/3/3 350/3/3
f 353/3/3 351/3/3 352/3/3
f 356/3/3 355/3/3 354/3/3
f 357/3/3 355/3/3 356/3/3
f 360/3/3 359/3/3 358/3/3
f 361/3/3 359/3/3 360/3/3
f 364/2/3 363/2/3 362/2/3
f 365/2/3 363/2/3 364/2/3
f 368/2/3 367/2/3 366/2/3
f 369/2/3 367/2/3 368/2/3
f 372/2/3 371/2/3 370/2/3
f 373/2/3 371/2/3 372/2/3
f 374/2/3 371/2/3 373/2/3
f 377/2/3 376/2/3 375/2/3
f 378/2/3 376/2/3 377/2/3
f 381/3/3 380/3/3 379/3/3
f 382/3/3 380/3/3 381/3/3
f 385/2/3 384/2/3 383/2/3
f 386/2/3 384/2/3 385/2/3
f 389/2/3 388/2/3 387/2/3
f 390/2/3 388/2/3 389/2/3
f 393/2/3 392/2/3 391/2/3
f 394/2/3 392/2/3 393/2/3
f 397/2/3 396/2/3 395/2/3
f 398/2/3 396/2/3 397/2/3
f 399/3/4 400/3/4 401/3/4
f 401/3/4 400/3/4 402/3/4
f 403/2/4 404/2/4 405/2/4
f 405/2/4 404/2/4 406/2/4
f 407/3/4 408/3/4 409/3/4
f 409/3/4 408/3/4 410/3/4
f 411/2/4 412/2/4 413/2/4
f 413/2/4 412/2/4 414/2/4
f 415/2/4 416/2/4 417/2/4
f 417/2/4 416/2/4 418/2/4
f 419/3/4 420/3/4 421/3/4
f 421/3/4 420/3/4 422/3/4
f 423/2/4 424/2/4 425/2/4
f 425/2/4 424/2/4 426/2/4
f 427/2/4 428/2/4 429/2/4
f 429/2/4 428/2/4 430/2/4
f 431/2/4 432/2/4 433/2/4
f 433/2/4 432/2/4 434/2/4
f 435/2/4 436/2/4 437/2/4
f 437/2/4 436/2/4 438/2/4
f 439/3/4 440/3/4 441/3/4
f 441/3/4 440/3/4 442/3/4
f 443/2/4 444/2/4 445/2/4
f 445/2/4 444/2/4 446/2/4
f 447/2/4 448/2/4 449/2/4
f 449/2/4 448/2/4 450/2/4
f 451/3/4 452/3/4 453/3/4
f 453/3/4 452/3/4 454/3/4
f 455/2/4 456/2/4 457/2/4
f 457/2/4 456/2/4 458/2/4
f 459/2/4 460/2/4 461/2/4
f 461/2/4 460/2/4 462/2/4
f 463/2/4 464/2/4 465/2/4
f 465/2/4 464/2/4 466/2/4
f 467/2/4 468/2/4 469/2/4
f 469/2/4 468/2/4 470/2/4
f 471/2/4 472/2/4 473/2/4
f 473/2/4 472/2/4 474/2/4
f 475/2/4 476/2/4 477/2/4
f 477/2/4 476/2/4 478/2/4
f 479/3/4 480/3/4 481/3/4
f 481/3/4 480/3/4 482/3/4
f 483/3/4 484/3/4 485/3/4
f 485/3/4 484/3/4 486/3/4
f 487/3/4 488/3/4 489/3/4
f 489/3/4 488/3/4 490/3/4
f 491/2/4 492/2/4 493/2/4
f 493/2/4 492/2/4 494/2/4
f 495/2/4 496/2/4 497/2/4
f 497/2/4 496/2/4 498/2/4
f 499/2/4 500/2/4 501/2/4
f 501/2/4 500/2/4 502/2/4
f 503/2/4 504/2/4 505/2/4
f 505/2/4 504/2/4 506/2/4
f 507/2/4 508/2/4 509/2/4
f 509/2/4 508/2/4 510/2/4
f 511/2/4 512/2/4 513/2/4
f 513/2/4 512/2/4 514/2/4
f 515/2/4 516/2/4 517/2/4
f 517/2/4 516/2/4 518/2/4
f 519/2/4 520/2/4 521/2/4
f 521/2/4 520/2/4 522/2/4
f 523/1/4 524/1/4 526/1/4
f 524/3/4 525/3/4 527/3/4
f 526/1/4 524/1/4 527/1/4
f 527/3/4 525/3/4 528/3/4
f 531/1/5 530/1/5 529/1/5
f 532/1/5 530/1/5 531/1/5
f 533/3/6 534/3/6 536/3/6
f 536/3/6 534/3/6 537/3/6
f 537/3/6 534/3/6 538/3/6
f 538/3/6 534/3/6 539/3/6
f 539/3/6 534/3/6 540/3/6
f 540/3/6 534/3/6 541/3/6
f 541/3/6 534/3/6 542/3/6
f 535/3/6 536/3/6 543/3/6
f 536/3/6 537/3/6 543/3/6
f 543/3/6 537/3/6 544/3/6
f 544/3/6 537/3/6 545/3/6
f 545/3/6 537/3/6 546/3/6
f 546/3/6 537/3/6 547/3/6
f 538/3/6 539/3/6 548/3/6
f 548/3/6 539/3/6 549/3/6
f 540/3/6 541/3/6 550/3/6
f 550/3/6 541/3/6 551/3/6
f 542/3/6 534/3/6 552/3/6
f 535/3/6 543/3/6 553/3/6
f 544/3/6 545/3/6 554/3/6
f 554/3/6 545/3/6 555/3/6
f 550/3/6 551/3/6 556/3/6
f 548/3/6 549/3/6 556/3/6
f 546/3/6 547/3/6 556/3/6
f 551/3/6 552/3/6 556/3/6
f 549/3/6 550/3/6 556/3/6
f 547/3/6 548/3/6 556/3/6
f 556/3/6 552/3/6 557/3/6
f 557/3/6 552/3/6 558/3/6
f 554/3/6 555/3/6 559/3/6
f 553/3/6 554/3/6 559/3/6
f 556/3/6 557/3/6 559/3/6
f 555/3/6 556/3/6 559/3/6
f 558/3/6 552/3/6 560/3/6
f 560/3/6 552/3/6 561/3/6
f 561/3/6 552/3/6 562/3/6
f 552/3/6 534/3/6 563/3/6
f 562/3/6 552/3/6 563/3/6
f 563/3/6 534/3/6 564/3/6
f 553/3/6 559/3/6 565/3/6
f 535/3/6 553/3/6 565/3/6
f 560/3/6 561/3/6 565/3/6
f 559/3/6 560/3/6 565/3/6
f 565/3/6 561/3/6 566/3/6
f 566/3/6 561/3/6 567/3/6
f 562/3/6 563/3/6 568/3/6
f 568/3/6 563/3/6 569/3/6
f 569/3/6 563/3/6 570/3/6
f 570/3/6 563/3/6 571/3/6
f 564/3/6 534/3/6 572/3/6
f 535/3/6 565/3/6 573/3/6
f 566/3/6 567/3/6 574/3/6
f 567/3/6 568/3/6 574/3/6
f 568/3/6 569/3/6 574/3/6
f 574/3/6 569/3/6 575/3/6
f 575/3/6 569/3/6 576/3/6
f 576/3/6 569/3/6 577/3/6
f 570/3/6 571/3/6 578/3/6
f 571/3/6 572/3/6 578/3/6
f 573/3/6 574/3/6 579/3/6
f 574/3/6 575/3/6 579/3/6
f 579/3/6 575/3/6 580/3/6
f 580/3/6 575/3/6 581/3/6
f 576/3/6 577/3/6 582/3/6
f 577/3/6 578/3/6 582/3/6
f 535/3/6 573/3/6 583/3/6
f 573/3/6 579/3/6 583/3/6
f 583/3/6 579/3/6 584/3/6
f 584/3/6 579/3/6 585/3/6
f 580/3/6 581/3/6 586/3/6
f 581/3/6 582/3/6 586/3/6
f 582/3/6 578/3/6 587/3/6
f 586/3/6 582/3/6 587/3/6
f 587/3/6 578/3/6 588/3/6
f 578/3/6 572/3/6 589/3/6
f 588/3/6 578/3/6 589/3/6
f 589/3/6 572/3/6 590/3/6
f 535/3/6 583/3/6 591/3/6
f 584/3/6 585/3/6 592/3/6
f 585/3/6 586/3/6 592/3/6
f 586/3/6 587/3/6 592/3/6
f 592/3/6 587/3/6 593/3/6
f 593/3/6 587/3/6 594/3/6
f 594/3/6 587/3/6 595/3/6
f 588/3/6 589/3/6 596/3/6
f 596/3/6 589/3/6 597/3/6
f 590/3/6 572/3/6 598/3/6
f 591/3/6 592/3/6 599/3/6
f 592/3/6 593/3/6 599/3/6
f 599/3/6 593/3/6 600/3/6
f 600/3/6 593/3/6 601/3/6
f 596/3/6 597/3/6 602/3/6
f 594/3/6 595/3/6 602/3/6
f 597/3/6 598/3/6 602/3/6
f 595/3/6 596/3/6 602/3/6
f 591/3/6 599/3/6 603/3/6
f 603/3/6 599/3/6 604/3/6
f 604/3/6 599/3/6 605/3/6
f 600/3/6 601/3/6 606/3/6
f 601/3/6 602/3/6 606/3/6
f 591/3/6 603/3/6 607/3/6
f 604/3/6 605/3/6 608/3/6
f 605/3/6 606/3/6 608/3/6
f 602/3/6 598/3/6 609/3/6
f 606/3/6 602/3/6 609/3/6
f 608/3/6 606/3/6 609/3/6
f 609/3/6 598/3/6 610/3/6
f 607/3/6 608/3/6 611/3/6
f 608/3/6 609/3/6 611/3/6
f 611/3/6 609/3/6 612/3/6
f 612/3/6 609/3/6 613/3/6
f 613/3/6 609/3/6 614/3/6
f 614/3/6 609/3/6 615/3/6
f 610/3/6 598/3/6 616/3/6
f 616/3/6 598/3/6 617/3/6
f 598/3/6 572/3/6 618/3/6
f 617/3/6 598/3/6 618/3/6
f 535/3/6 591/3/6 619/3/6
f 591/3/6 607/3/6 619/3/6
f 607/3/6 611/3/6 619/3/6
f 619/3/6 611/3/6 620/3/6
f 620/3/6 611/3/6 621/3/6
f 612/3/6 613/3/6 622/3/6
f 622/3/6 613/3/6 623/3/6
f 623/3/6 613/3/6 624/3/6
f 615/3/6 616/3/6 625/3/6
f 614/3/6 615/3/6 625/3/6
f 616/3/6 617/3/6 625/3/6
f 625/3/6 617/3/6 626/3/6
f 626/3/6 617/3/6 627/3/6
f 618/3/6 572/3/6 628/3/6
f 535/3/6 619/3/6 629/3/6
f 622/3/6 623/3/6 630/3/6
f 621/3/6 622/3/6 630/3/6
f 620/3/6 621/3/6 630/3/6
f 630/3/6 623/3/6 631/3/6
f 624/3/6 625/3/6 632/3/6
f 625/3/6 626/3/6 632/3/6
f 632/3/6 626/3/6 633/3/6
f 627/3/6 628/3/6 634/3/6
f 632/3/6 633/3/6 635/3/6
f 633/3/6 634/3/6 635/3/6
f 630/3/6 631/3/6 635/3/6
f 629/3/6 630/3/6 635/3/6
f 631/3/6 632/3/6 635/3/6
f 635/3/6 634/3/6 636/3/6
f 636/3/6 634/3/6 637/3/6
f 637/3/6 634/3/6 638/3/6
f 629/3/6 635/3/6 639/3/6
f 636/3/6 637/3/6 640/3/6
f 640/3/6 637/3/6 641/3/6
f 641/3/6 637/3/6 642/3/6
f 642/3/6 637/3/6 643/3/6
f 638/3/6 634/3/6 644/3/6
f 535/3/6 629/3/6 645/3/6
f 629/3/6 639/3/6 645/3/6
f 639/3/6 640/3/6 645/3/6
f 640/3/6 641/3/6 645/3/6
f 645/3/6 641/3/6 646/3/6
f 646/3/6 641/3/6 647/3/6
f 642/3/6 643/3/6 648/3/6
f 648/3/6 643/3/6 649/3/6
f 644/3/6 634/3/6 650/3/6
f 634/3/6 628/3/6 651/3/6
f 650/3/6 634/3/6 651/3/6
f 628/3/6 572/3/6 652/3/6
f 651/3/6 628/3/6 652/3/6
f 535/3/6 645/3/6 653/3/6
f 649/3/6 650/3/6 654/3/6
f 650/3/6 651/3/6 654/3/6
f 647/3/6 648/3/6 654/3/6
f 648/3/6 649/3/6 654/3/6
f 646/3/6 647/3/6 654/3/6
f 654/3/6 651/3/6 655/3/6
f 652/3/6 572/3/6 656/3/6
f 535/3/6 653/3/6 657/3/6
f 655/3/6 656/3/6 657/3/6
f 654/3/6 655/3/6 657/3/6
f 653/3/6 654/3/6 657/3/6
f 656/3/6 572/3/6 658/3/6
f 657/3/6 656/3/6 658/3/6
f 572/3/6 534/3/6 658/3/6
f 659/3/6 660/3/6 661/3/6
f 661/3/6 660/3/6 662/3/6
f 663/3/6 664/3/6 667/3/6
f 667/3/6 664/3/6 668/3/6
f 665/3/6 666/3/6 669/3/6
f 669/3/6 666/3/6 670/3/6
f 671/2/6 672/2/6 673/2/6
f 673/2/6 672/2/6 674/2/6
f 675/3/6 676/3/6 677/3/6
f 677/3/6 676/3/6 678/3/6
f 679/3/6 680/3/6 681/3/6
f 681/3/6 680/3/6 682/3/6
f 683/2/6 684/2/6 689/2/6
f 689/2/6 684/2/6 690/2/6
f 685/3/6 686/3/6 693/3/6
f 693/3/6 686/3/6 694/3/6
f 687/3/6 688/3/6 696/3/6
f 696/3/6 688/3/6 697/3/6
f 691/3/6 692/3/6 698/3/6
f 698/3/6 692/3/6 699/3/6
f 695/2/6 696/2/6 700/2/6
f 700/2/6 696/2/6 701/2/6
f 702/3/6 703/3/6 704/3/6
f 704/3/6 703/3/6 705/3/6
f 706/2/6 707/2/6 708/2/6
f 708/2/6 707/2/6 709/2/6
f 710/2/6 711/2/6 712/2/6
f 712/2/6 711/2/6 713/2/6
f 714/2/6 715/2/6 716/2/6
f 716/2/6 715/2/6 717/2/6
f 718/2/6 719/2/6 720/2/6
f 720/2/6 719/2/6 721/2/6
f 722/2/6 723/2/6 724/2/6
f 724/2/6 723/2/6 725/2/6
f 726/2/6 727/2/6 728/2/6
f 728/2/6 727/2/6 729/2/6
f 730/2/6 731/2/6 732/2/6
f 732/2/6 731/2/6 733/2/6
f 734/2/6 735/2/6 736/2/6
f 736/2/6 735/2/6 737/2/6
f 738/2/6 739/2/6 742/2/6
f 742/2/6 739/2/6 743/2/6
f 740/2/6 741/2/6 744/2/6
f 744/2/6 741/2/6 745/2/6
f 746/2/6 747/2/6 748/2/6
f 748/2/6 747/2/6 749/2/6
f 750/2/6 751/2/6 754/2/6
f 754/2/6 751/2/6 755/2/6
f 752/2/6 753/2/6 756/2/6
f 756/2/6 753/2/6 757/2/6
f 758/2/6 759/2/6 762/2/6
f 762/2/6 759/2/6 763/2/6
f 760/2/6 761/2/6 766/2/6
f 766/2/6 761/2/6 767/2/6
f 764/2/6 765/2/6 768/2/6
f 768/2/6 765/2/6 769/2/6
f 770/2/6 771/2/6 774/2/6
f 774/2/6 771/2/6 775/2/6
f 772/2/6 773/2/6 776/2/6
f 776/2/6 773/2/6 777/2/6
f 778/2/6 779/2/6 782/2/6
f 782/2/6 779/2/6 783/2/6
f 780/2/6 781/2/6 784/2/6
f 784/2/6 781/2/6 785/2/6
