# MagicaVoxel @ Ephtracy

# group
o 

# material
mtllib Female2-0.mtl
usemtl palette

# normals
vn -1 0 0
vn 1 0 0
vn 0 0 1
vn 0 0 -1
vn 0 -1 0
vn 0 1 0

# texcoords
vt 0.0332031 0.5
vt 0.0605469 0.5
vt 0.853516 0.5
vt 0.865234 0.5
vt 0.869141 0.5
vt 0.873047 0.5
vt 0.955078 0.5
vt 0.978516 0.5
vt 0.994141 0.5

# verts
v 7.7 1.2 -1.9
v 7.7 1.2 -2
v 7.7 1.3 -1.9
v 7.7 1.3 -2
v 7.7 1.4 -1.9
v 7.7 1.4 -2
v 7.7 1.6 -1.9
v 7.7 1.6 -2
v 7.7 1.8 -1.9
v 7.7 1.8 -2
v 7.7 1.9 -1.9
v 7.7 1.9 -2
v 7.8 1.2 -1.8
v 7.8 1.2 -1.9
v 7.8 1.2 -2
v 7.8 1.2 -2.1
v 7.8 1.3 -1.8
v 7.8 1.3 -1.9
v 7.8 1.3 -2
v 7.8 1.4 -1.8
v 7.8 1.4 -1.9
v 7.8 1.4 -2
v 7.8 1.5 -1.8
v 7.8 1.5 -1.9
v 7.8 1.6 -1.8
v 7.8 1.6 -1.9
v 7.8 1.6 -2
v 7.8 1.6 -2.1
v 7.8 1.7 -1.8
v 7.8 1.7 -2.1
v 7.8 1.7 -2.2
v 7.8 1.8 -1.8
v 7.8 1.8 -1.9
v 7.8 1.8 -2
v 7.8 1.9 -1.8
v 7.8 1.9 -1.9
v 7.8 1.9 -2
v 7.8 1.9 -2.1
v 7.8 2 -1.8
v 7.8 2 -2.2
v 7.9 1 -1.9
v 7.9 1 -2
v 7.9 1.1 -1.9
v 7.9 1.1 -2
v 7.9 1.2 -1.9
v 7.9 1.2 -2
v 7.9 1.6 -1.9
v 7.9 1.6 -2.1
v 7.9 1.6 -2.4
v 7.9 1.6 -2.5
v 7.9 1.7 -1.9
v 7.9 1.7 -2.1
v 7.9 1.7 -2.3
v 7.9 1.7 -2.4
v 7.9 1.7 -2.5
v 7.9 1.8 -2.2
v 7.9 1.8 -2.3
v 7.9 1.9 -2.3
v 7.9 1.9 -2.4
v 7.9 2 -1.8
v 7.9 2 -2.1
v 7.9 2 -2.2
v 7.9 2 -2.3
v 7.9 2.1 -1.8
v 7.9 2.1 -2.1
v 8.1 1 -1.9
v 8.1 1 -2
v 8.1 1.1 -1.9
v 8.1 1.1 -2
v 8.1 1.2 -1.9
v 8.1 1.2 -2
v 8.1 1.6 -1.9
v 8.1 1.6 -2.1
v 8.1 1.6 -2.4
v 8.1 1.6 -2.5
v 8.1 1.7 -1.9
v 8.1 1.7 -2.1
v 8.1 1.7 -2.3
v 8.1 1.7 -2.4
v 8.1 1.7 -2.5
v 8.1 1.8 -2.2
v 8.1 1.8 -2.3
v 8.1 1.9 -2.3
v 8.1 1.9 -2.4
v 8.1 2 -1.8
v 8.1 2 -2.1
v 8.1 2 -2.2
v 8.1 2 -2.3
v 8.1 2.1 -1.8
v 8.1 2.1 -2.1
v 8.2 1.2 -1.8
v 8.2 1.2 -1.9
v 8.2 1.2 -2
v 8.2 1.2 -2.1
v 8.2 1.3 -1.8
v 8.2 1.3 -1.9
v 8.2 1.3 -2
v 8.2 1.4 -1.8
v 8.2 1.4 -1.9
v 8.2 1.4 -2
v 8.2 1.5 -1.8
v 8.2 1.5 -1.9
v 8.2 1.6 -1.8
v 8.2 1.6 -1.9
v 8.2 1.6 -2
v 8.2 1.6 -2.1
v 8.2 1.7 -1.8
v 8.2 1.7 -2.1
v 8.2 1.7 -2.2
v 8.2 1.8 -1.8
v 8.2 1.8 -1.9
v 8.2 1.8 -2
v 8.2 1.9 -1.8
v 8.2 1.9 -1.9
v 8.2 1.9 -2
v 8.2 1.9 -2.1
v 8.2 2 -1.8
v 8.2 2 -2.2
v 8.3 1.2 -1.9
v 8.3 1.2 -2
v 8.3 1.3 -1.9
v 8.3 1.3 -2
v 8.3 1.4 -1.9
v 8.3 1.4 -2
v 8.3 1.6 -1.9
v 8.3 1.6 -2
v 8.3 1.8 -1.9
v 8.3 1.8 -2
v 8.3 1.9 -1.9
v 8.3 1.9 -2
v 7.8 1.2 -1.8
v 7.8 1.3 -1.8
v 7.8 1.4 -1.8
v 7.8 1.5 -1.8
v 7.8 1.6 -1.8
v 7.8 1.7 -1.8
v 7.8 1.8 -1.8
v 7.8 1.9 -1.8
v 7.8 2 -1.8
v 7.9 1.2 -1.8
v 7.9 1.3 -1.8
v 7.9 1.4 -1.8
v 7.9 1.5 -1.8
v 7.9 1.6 -1.8
v 7.9 1.8 -1.8
v 7.9 1.9 -1.8
v 7.9 2 -1.8
v 7.9 2.1 -1.8
v 8.1 1.2 -1.8
v 8.1 1.3 -1.8
v 8.1 1.4 -1.8
v 8.1 1.5 -1.8
v 8.1 1.6 -1.8
v 8.1 1.8 -1.8
v 8.1 1.9 -1.8
v 8.1 2 -1.8
v 8.1 2.1 -1.8
v 8.2 1.2 -1.8
v 8.2 1.3 -1.8
v 8.2 1.4 -1.8
v 8.2 1.5 -1.8
v 8.2 1.6 -1.8
v 8.2 1.7 -1.8
v 8.2 1.8 -1.8
v 8.2 1.9 -1.8
v 8.2 2 -1.8
v 7.7 1.2 -1.9
v 7.7 1.3 -1.9
v 7.7 1.4 -1.9
v 7.7 1.6 -1.9
v 7.7 1.8 -1.9
v 7.7 1.9 -1.9
v 7.8 1.2 -1.9
v 7.8 1.3 -1.9
v 7.8 1.4 -1.9
v 7.8 1.5 -1.9
v 7.8 1.6 -1.9
v 7.8 1.8 -1.9
v 7.8 1.9 -1.9
v 7.9 1 -1.9
v 7.9 1.1 -1.9
v 7.9 1.2 -1.9
v 7.9 1.6 -1.9
v 7.9 1.7 -1.9
v 8.1 1 -1.9
v 8.1 1.1 -1.9
v 8.1 1.2 -1.9
v 8.1 1.6 -1.9
v 8.1 1.7 -1.9
v 8.2 1.2 -1.9
v 8.2 1.3 -1.9
v 8.2 1.4 -1.9
v 8.2 1.5 -1.9
v 8.2 1.6 -1.9
v 8.2 1.8 -1.9
v 8.2 1.9 -1.9
v 8.3 1.2 -1.9
v 8.3 1.3 -1.9
v 8.3 1.4 -1.9
v 8.3 1.6 -1.9
v 8.3 1.8 -1.9
v 8.3 1.9 -1.9
v 7.9 1.7 -2.3
v 7.9 1.8 -2.3
v 8.1 1.7 -2.3
v 8.1 1.8 -2.3
v 7.9 1.6 -2.4
v 7.9 1.7 -2.4
v 8.1 1.6 -2.4
v 8.1 1.7 -2.4
v 7.7 1.2 -2
v 7.7 1.3 -2
v 7.7 1.4 -2
v 7.7 1.6 -2
v 7.7 1.8 -2
v 7.7 1.9 -2
v 7.8 1.2 -2
v 7.8 1.3 -2
v 7.8 1.4 -2
v 7.8 1.6 -2
v 7.8 1.8 -2
v 7.8 1.9 -2
v 7.9 1 -2
v 7.9 1.1 -2
v 7.9 1.2 -2
v 8.1 1 -2
v 8.1 1.1 -2
v 8.1 1.2 -2
v 8.2 1.2 -2
v 8.2 1.3 -2
v 8.2 1.4 -2
v 8.2 1.6 -2
v 8.2 1.8 -2
v 8.2 1.9 -2
v 8.3 1.2 -2
v 8.3 1.3 -2
v 8.3 1.4 -2
v 8.3 1.6 -2
v 8.3 1.8 -2
v 8.3 1.9 -2
v 7.8 1.2 -2.1
v 7.8 1.6 -2.1
v 7.9 1.6 -2.1
v 7.9 1.7 -2.1
v 7.9 2 -2.1
v 7.9 2.1 -2.1
v 8.1 1.6 -2.1
v 8.1 1.7 -2.1
v 8.1 2 -2.1
v 8.1 2.1 -2.1
v 8.2 1.2 -2.1
v 8.2 1.6 -2.1
v 7.8 1.7 -2.2
v 7.8 2 -2.2
v 7.9 1.8 -2.2
v 7.9 2 -2.2
v 8.1 1.8 -2.2
v 8.1 2 -2.2
v 8.2 1.7 -2.2
v 8.2 2 -2.2
v 7.9 1.9 -2.3
v 7.9 2 -2.3
v 8.1 1.9 -2.3
v 8.1 2 -2.3
v 7.9 1.7 -2.4
v 7.9 1.9 -2.4
v 8.1 1.7 -2.4
v 8.1 1.9 -2.4
v 7.9 1.6 -2.5
v 7.9 1.7 -2.5
v 8.1 1.6 -2.5
v 8.1 1.7 -2.5
v 7.9 1 -1.9
v 8.1 1 -1.9
v 7.9 1 -2
v 8.1 1 -2
v 7.8 1.2 -1.8
v 7.9 1.2 -1.8
v 8.1 1.2 -1.8
v 8.2 1.2 -1.8
v 7.7 1.2 -1.9
v 7.8 1.2 -1.9
v 7.9 1.2 -1.9
v 8.1 1.2 -1.9
v 8.2 1.2 -1.9
v 8.3 1.2 -1.9
v 7.7 1.2 -2
v 7.8 1.2 -2
v 7.9 1.2 -2
v 8.1 1.2 -2
v 8.2 1.2 -2
v 8.3 1.2 -2
v 7.8 1.2 -2.1
v 8.2 1.2 -2.1
v 7.9 1.6 -2.4
v 8.1 1.6 -2.4
v 7.9 1.6 -2.5
v 8.1 1.6 -2.5
v 7.8 1.7 -1.8
v 8.2 1.7 -1.8
v 7.9 1.7 -1.9
v 8.1 1.7 -1.9
v 7.8 1.7 -2.1
v 7.9 1.7 -2.1
v 8.1 1.7 -2.1
v 8.2 1.7 -2.1
v 7.8 1.7 -2.2
v 8.2 1.7 -2.2
v 7.9 1.7 -2.3
v 8.1 1.7 -2.3
v 7.9 1.7 -2.4
v 8.1 1.7 -2.4
v 7.7 1.8 -1.9
v 7.8 1.8 -1.9
v 8.2 1.8 -1.9
v 8.3 1.8 -1.9
v 7.7 1.8 -2
v 7.8 1.8 -2
v 8.2 1.8 -2
v 8.3 1.8 -2
v 7.9 1.8 -2.2
v 8.1 1.8 -2.2
v 7.9 1.8 -2.3
v 8.1 1.8 -2.3
v 7.8 1.6 -1.8
v 7.9 1.6 -1.8
v 8.1 1.6 -1.8
v 8.2 1.6 -1.8
v 7.7 1.6 -1.9
v 7.8 1.6 -1.9
v 7.9 1.6 -1.9
v 8.1 1.6 -1.9
v 8.2 1.6 -1.9
v 8.3 1.6 -1.9
v 7.7 1.6 -2
v 7.8 1.6 -2
v 8.2 1.6 -2
v 8.3 1.6 -2
v 7.8 1.6 -2.1
v 7.9 1.6 -2.1
v 8.1 1.6 -2.1
v 8.2 1.6 -2.1
v 7.9 1.7 -2.4
v 8.1 1.7 -2.4
v 7.9 1.7 -2.5
v 8.1 1.7 -2.5
v 7.7 1.9 -1.9
v 7.8 1.9 -1.9
v 8.2 1.9 -1.9
v 8.3 1.9 -1.9
v 7.7 1.9 -2
v 7.8 1.9 -2
v 8.2 1.9 -2
v 8.3 1.9 -2
v 7.9 1.9 -2.3
v 8.1 1.9 -2.3
v 7.9 1.9 -2.4
v 8.1 1.9 -2.4
v 7.8 2 -1.8
v 7.9 2 -1.8
v 8.1 2 -1.8
v 8.2 2 -1.8
v 7.9 2 -2.1
v 8.1 2 -2.1
v 7.8 2 -2.2
v 7.9 2 -2.2
v 8.1 2 -2.2
v 8.2 2 -2.2
v 7.9 2 -2.3
v 8.1 2 -2.3
v 7.9 2.1 -1.8
v 8.1 2.1 -1.8
v 7.9 2.1 -2.1
v 8.1 2.1 -2.1

# faces
f 3/1/1 2/1/1 1/1/1
f 4/1/1 2/1/1 3/1/1
f 5/5/1 4/5/1 3/5/1
f 6/5/1 4/5/1 5/5/1
f 7/4/1 6/4/1 5/4/1
f 8/4/1 6/4/1 7/4/1
f 11/2/1 10/2/1 9/2/1
f 12/2/1 10/2/1 11/2/1
f 17/5/1 14/5/1 13/5/1
f 18/5/1 14/5/1 17/5/1
f 19/4/1 16/4/1 15/4/1
f 20/4/1 18/4/1 17/4/1
f 21/4/1 18/4/1 20/4/1
f 22/4/1 16/4/1 19/4/1
f 23/5/1 21/5/1 20/5/1
f 24/5/1 21/5/1 23/5/1
f 25/4/1 24/4/1 23/4/1
f 26/4/1 24/4/1 25/4/1
f 27/4/1 16/4/1 22/4/1
f 28/4/1 16/4/1 27/4/1
f 32/1/1 30/1/1 29/1/1
f 33/1/1 30/1/1 32/1/1
f 34/1/1 30/1/1 33/1/1
f 35/7/1 33/7/1 32/7/1
f 36/7/1 33/7/1 35/7/1
f 37/1/1 30/1/1 34/1/1
f 38/9/1 31/9/1 30/9/1
f 38/1/1 30/1/1 37/1/1
f 39/9/1 37/9/1 36/9/1
f 39/9/1 36/9/1 35/9/1
f 39/9/1 38/9/1 37/9/1
f 40/9/1 31/9/1 38/9/1
f 40/9/1 38/9/1 39/9/1
f 43/7/1 42/7/1 41/7/1
f 44/7/1 42/7/1 43/7/1
f 45/1/1 44/1/1 43/1/1
f 46/1/1 44/1/1 45/1/1
f 51/1/1 48/1/1 47/1/1
f 52/1/1 48/1/1 51/1/1
f 54/9/1 50/9/1 49/9/1
f 55/9/1 50/9/1 54/9/1
f 57/9/1 54/9/1 53/9/1
f 58/9/1 54/9/1 57/9/1
f 58/4/1 57/4/1 56/4/1
f 59/9/1 54/9/1 58/9/1
f 62/4/1 58/4/1 56/4/1
f 63/4/1 58/4/1 62/4/1
f 64/9/1 61/9/1 60/9/1
f 65/9/1 61/9/1 64/9/1
f 66/7/2 67/7/2 68/7/2
f 68/7/2 67/7/2 69/7/2
f 68/1/2 69/1/2 70/1/2
f 70/1/2 69/1/2 71/1/2
f 72/1/2 73/1/2 76/1/2
f 76/1/2 73/1/2 77/1/2
f 74/9/2 75/9/2 79/9/2
f 79/9/2 75/9/2 80/9/2
f 78/9/2 79/9/2 82/9/2
f 82/9/2 79/9/2 83/9/2
f 81/4/2 82/4/2 83/4/2
f 83/9/2 79/9/2 84/9/2
f 81/4/2 83/4/2 87/4/2
f 87/4/2 83/4/2 88/4/2
f 85/9/2 86/9/2 89/9/2
f 89/9/2 86/9/2 90/9/2
f 91/5/2 92/5/2 95/5/2
f 95/5/2 92/5/2 96/5/2
f 93/4/2 94/4/2 97/4/2
f 95/4/2 96/4/2 98/4/2
f 98/4/2 96/4/2 99/4/2
f 97/4/2 94/4/2 100/4/2
f 98/5/2 99/5/2 101/5/2
f 101/5/2 99/5/2 102/5/2
f 101/4/2 102/4/2 103/4/2
f 103/4/2 102/4/2 104/4/2
f 100/4/2 94/4/2 105/4/2
f 105/4/2 94/4/2 106/4/2
f 107/1/2 108/1/2 110/1/2
f 110/1/2 108/1/2 111/1/2
f 111/1/2 108/1/2 112/1/2
f 110/7/2 111/7/2 113/7/2
f 113/7/2 111/7/2 114/7/2
f 112/1/2 108/1/2 115/1/2
f 108/9/2 109/9/2 116/9/2
f 115/1/2 108/1/2 116/1/2
f 114/9/2 115/9/2 117/9/2
f 113/9/2 114/9/2 117/9/2
f 115/9/2 116/9/2 117/9/2
f 116/9/2 109/9/2 118/9/2
f 117/9/2 116/9/2 118/9/2
f 119/1/2 120/1/2 121/1/2
f 121/1/2 120/1/2 122/1/2
f 121/5/2 122/5/2 123/5/2
f 123/5/2 122/5/2 124/5/2
f 123/4/2 124/4/2 125/4/2
f 125/4/2 124/4/2 126/4/2
f 127/2/2 128/2/2 129/2/2
f 129/2/2 128/2/2 130/2/2
f 140/5/3 132/5/3 131/5/3
f 141/4/3 133/4/3 132/4/3
f 141/5/3 132/5/3 140/5/3
f 142/5/3 134/5/3 133/5/3
f 142/4/3 133/4/3 141/4/3
f 143/4/3 135/4/3 134/4/3
f 143/5/3 134/5/3 142/5/3
f 144/4/3 135/4/3 143/4/3
f 145/1/3 137/1/3 136/1/3
f 145/7/3 138/7/3 137/7/3
f 146/9/3 139/9/3 138/9/3
f 146/7/3 138/7/3 145/7/3
f 147/9/3 139/9/3 146/9/3
f 149/4/3 141/4/3 140/4/3
f 150/6/3 142/6/3 141/6/3
f 150/4/3 141/4/3 149/4/3
f 151/4/3 143/4/3 142/4/3
f 151/6/3 142/6/3 150/6/3
f 152/3/3 144/3/3 143/3/3
f 152/4/3 143/4/3 151/4/3
f 153/3/3 144/3/3 152/3/3
f 154/1/3 145/1/3 136/1/3
f 154/1/3 146/1/3 145/1/3
f 155/9/3 148/9/3 147/9/3
f 155/1/3 146/1/3 154/1/3
f 155/9/3 147/9/3 146/9/3
f 156/9/3 148/9/3 155/9/3
f 157/9/3 148/9/3 156/9/3
f 158/5/3 150/5/3 149/5/3
f 159/4/3 151/4/3 150/4/3
f 159/5/3 150/5/3 158/5/3
f 160/5/3 152/5/3 151/5/3
f 160/4/3 151/4/3 159/4/3
f 161/4/3 153/4/3 152/4/3
f 161/5/3 152/5/3 160/5/3
f 162/4/3 153/4/3 161/4/3
f 163/1/3 154/1/3 136/1/3
f 164/7/3 155/7/3 154/7/3
f 164/1/3 154/1/3 163/1/3
f 165/9/3 156/9/3 155/9/3
f 165/7/3 155/7/3 164/7/3
f 166/9/3 156/9/3 165/9/3
f 173/1/3 168/1/3 167/1/3
f 174/5/3 169/5/3 168/5/3
f 174/1/3 168/1/3 173/1/3
f 175/4/3 170/4/3 169/4/3
f 175/5/3 169/5/3 174/5/3
f 176/4/3 170/4/3 175/4/3
f 177/4/3 170/4/3 176/4/3
f 178/2/3 172/2/3 171/2/3
f 179/2/3 172/2/3 178/2/3
f 185/7/3 181/7/3 180/7/3
f 186/1/3 182/1/3 181/1/3
f 186/7/3 181/7/3 185/7/3
f 187/1/3 182/1/3 186/1/3
f 188/1/3 184/1/3 183/1/3
f 189/1/3 184/1/3 188/1/3
f 197/1/3 191/1/3 190/1/3
f 198/5/3 192/5/3 191/5/3
f 198/1/3 191/1/3 197/1/3
f 199/4/3 194/4/3 193/4/3
f 199/5/3 192/5/3 198/5/3
f 199/4/3 193/4/3 192/4/3
f 200/4/3 194/4/3 199/4/3
f 201/2/3 196/2/3 195/2/3
f 202/2/3 196/2/3 201/2/3
f 205/9/3 204/9/3 203/9/3
f 206/9/3 204/9/3 205/9/3
f 209/9/3 208/9/3 207/9/3
f 210/9/3 208/9/3 209/9/3
f 211/1/4 212/1/4 217/1/4
f 212/5/4 213/5/4 218/5/4
f 217/1/4 212/1/4 218/1/4
f 213/4/4 214/4/4 219/4/4
f 218/5/4 213/5/4 219/5/4
f 219/4/4 214/4/4 220/4/4
f 215/2/4 216/2/4 221/2/4
f 221/2/4 216/2/4 222/2/4
f 223/7/4 224/7/4 226/7/4
f 224/1/4 225/1/4 227/1/4
f 226/7/4 224/7/4 227/7/4
f 227/1/4 225/1/4 228/1/4
f 229/1/4 230/1/4 235/1/4
f 230/5/4 231/5/4 236/5/4
f 235/1/4 230/1/4 236/1/4
f 231/4/4 232/4/4 237/4/4
f 236/5/4 231/5/4 237/5/4
f 237/4/4 232/4/4 238/4/4
f 233/2/4 234/2/4 239/2/4
f 239/2/4 234/2/4 240/2/4
f 241/4/4 242/4/4 243/4/4
f 241/4/4 243/4/4 247/4/4
f 243/1/4 244/1/4 247/1/4
f 247/1/4 244/1/4 248/1/4
f 245/9/4 246/9/4 249/9/4
f 249/9/4 246/9/4 250/9/4
f 241/4/4 247/4/4 251/4/4
f 251/4/4 247/4/4 252/4/4
f 253/9/4 254/9/4 255/9/4
f 255/9/4 254/9/4 256/9/4
f 253/9/4 255/9/4 257/9/4
f 253/9/4 257/9/4 259/9/4
f 257/9/4 258/9/4 259/9/4
f 259/9/4 258/9/4 260/9/4
f 261/4/4 262/4/4 263/4/4
f 263/4/4 262/4/4 264/4/4
f 265/9/4 266/9/4 267/9/4
f 267/9/4 266/9/4 268/9/4
f 269/9/4 270/9/4 271/9/4
f 271/9/4 270/9/4 272/9/4
f 275/7/5 274/7/5 273/7/5
f 276/7/5 274/7/5 275/7/5
f 282/5/5 278/5/5 277/5/5
f 283/4/5 279/4/5 278/4/5
f 283/5/5 278/5/5 282/5/5
f 284/5/5 280/5/5 279/5/5
f 284/4/5 279/4/5 283/4/5
f 285/5/5 280/5/5 284/5/5
f 287/1/5 282/1/5 281/1/5
f 288/4/5 283/4/5 282/4/5
f 288/1/5 282/1/5 287/1/5
f 289/4/5 283/4/5 288/4/5
f 290/4/5 285/4/5 284/4/5
f 291/1/5 286/1/5 285/1/5
f 291/4/5 285/4/5 290/4/5
f 292/1/5 286/1/5 291/1/5
f 293/4/5 290/4/5 289/4/5
f 293/4/5 289/4/5 288/4/5
f 293/4/5 291/4/5 290/4/5
f 294/4/5 291/4/5 293/4/5
f 297/9/5 296/9/5 295/9/5
f 298/9/5 296/9/5 297/9/5
f 301/1/5 300/1/5 299/1/5
f 302/1/5 300/1/5 301/1/5
f 303/1/5 301/1/5 299/1/5
f 304/1/5 301/1/5 303/1/5
f 305/1/5 300/1/5 302/1/5
f 306/1/5 300/1/5 305/1/5
f 307/9/5 304/9/5 303/9/5
f 307/9/5 305/9/5 304/9/5
f 307/9/5 306/9/5 305/9/5
f 308/9/5 306/9/5 307/9/5
f 311/9/5 310/9/5 309/9/5
f 312/9/5 310/9/5 311/9/5
f 317/2/5 314/2/5 313/2/5
f 318/2/5 314/2/5 317/2/5
f 319/2/5 316/2/5 315/2/5
f 320/2/5 316/2/5 319/2/5
f 323/4/5 322/4/5 321/4/5
f 324/4/5 322/4/5 323/4/5
f 325/4/6 326/4/6 330/4/6
f 326/3/6 327/3/6 331/3/6
f 330/4/6 326/4/6 331/4/6
f 327/4/6 328/4/6 332/4/6
f 331/3/6 327/3/6 332/3/6
f 332/4/6 328/4/6 333/4/6
f 330/4/6 331/4/6 335/4/6
f 329/4/6 330/4/6 335/4/6
f 335/4/6 331/4/6 336/4/6
f 333/4/6 334/4/6 337/4/6
f 332/4/6 333/4/6 337/4/6
f 337/4/6 334/4/6 338/4/6
f 336/4/6 331/4/6 339/4/6
f 339/4/6 331/4/6 340/4/6
f 332/4/6 337/4/6 341/4/6
f 341/4/6 337/4/6 342/4/6
f 343/9/6 344/9/6 345/9/6
f 345/9/6 344/9/6 346/9/6
f 347/2/6 348/2/6 351/2/6
f 351/2/6 348/2/6 352/2/6
f 349/2/6 350/2/6 353/2/6
f 353/2/6 350/2/6 354/2/6
f 355/9/6 356/9/6 357/9/6
f 357/9/6 356/9/6 358/9/6
f 359/9/6 360/9/6 363/9/6
f 361/9/6 362/9/6 364/9/6
f 359/9/6 363/9/6 365/9/6
f 363/9/6 364/9/6 365/9/6
f 365/9/6 364/9/6 366/9/6
f 364/9/6 362/9/6 367/9/6
f 366/9/6 364/9/6 367/9/6
f 367/9/6 362/9/6 368/9/6
f 366/4/6 367/4/6 369/4/6
f 369/4/6 367/4/6 370/4/6
f 371/9/6 372/9/6 373/9/6
f 373/9/6 372/9/6 374/9/6
