# MagicaVoxel @ Ephtracy

# group
o 

# material
mtllib Female2-4.mtl
usemtl palette

# normals
vn -1 0 0
vn 1 0 0
vn 0 0 1
vn 0 0 -1
vn 0 -1 0
vn 0 1 0

# texcoords
vt 0.0332031 0.5
vt 0.0371094 0.5
vt 0.0605469 0.5
vt 0.830078 0.5
vt 0.833984 0.5
vt 0.955078 0.5
vt 0.978516 0.5

# verts
v 5.7 1.2 0.1
v 5.7 1.2 0
v 5.7 1.3 0.1
v 5.7 1.3 0
v 5.7 1.4 0.1
v 5.7 1.4 0
v 5.7 1.5 0.1
v 5.7 1.5 0
v 5.7 1.6 0.1
v 5.7 1.6 0
v 5.7 1.8 0.1
v 5.7 1.8 0
v 5.7 1.9 0.1
v 5.7 1.9 0
v 5.8 1.2 0.2
v 5.8 1.2 0.1
v 5.8 1.2 0
v 5.8 1.2 -0.1
v 5.8 1.3 0.2
v 5.8 1.3 0.1
v 5.8 1.3 0
v 5.8 1.3 -0.1
v 5.8 1.4 0.1
v 5.8 1.4 0
v 5.8 1.4 -0.1
v 5.8 1.5 0.2
v 5.8 1.5 0.1
v 5.8 1.5 0
v 5.8 1.6 0.2
v 5.8 1.6 0.1
v 5.8 1.6 0
v 5.8 1.6 -0.1
v 5.8 1.7 0.2
v 5.8 1.7 -0.1
v 5.8 1.7 -0.2
v 5.8 1.8 0.2
v 5.8 1.8 0.1
v 5.8 1.8 0
v 5.8 1.9 0.2
v 5.8 1.9 0.1
v 5.8 1.9 0
v 5.8 1.9 -0.1
v 5.8 2 0.2
v 5.8 2 -0.2
v 5.9 1 0.1
v 5.9 1 0
v 5.9 1.1 0.1
v 5.9 1.1 0
v 5.9 1.2 0.1
v 5.9 1.2 0
v 5.9 1.6 0.1
v 5.9 1.6 -0.1
v 5.9 1.6 -0.4
v 5.9 1.6 -0.5
v 5.9 1.7 0.1
v 5.9 1.7 -0.1
v 5.9 1.7 -0.3
v 5.9 1.7 -0.4
v 5.9 1.7 -0.5
v 5.9 1.8 -0.2
v 5.9 1.8 -0.3
v 5.9 1.9 -0.3
v 5.9 1.9 -0.4
v 5.9 2 0.2
v 5.9 2 -0.1
v 5.9 2 -0.2
v 5.9 2 -0.3
v 5.9 2.1 0.2
v 5.9 2.1 -0.1
v 6.1 1 0.1
v 6.1 1 0
v 6.1 1.1 0.1
v 6.1 1.1 0
v 6.1 1.2 0.1
v 6.1 1.2 0
v 6.1 1.6 0.1
v 6.1 1.6 -0.1
v 6.1 1.6 -0.4
v 6.1 1.6 -0.5
v 6.1 1.7 0.1
v 6.1 1.7 -0.1
v 6.1 1.7 -0.3
v 6.1 1.7 -0.4
v 6.1 1.7 -0.5
v 6.1 1.8 -0.2
v 6.1 1.8 -0.3
v 6.1 1.9 -0.3
v 6.1 1.9 -0.4
v 6.1 2 0.2
v 6.1 2 -0.1
v 6.1 2 -0.2
v 6.1 2 -0.3
v 6.1 2.1 0.2
v 6.1 2.1 -0.1
v 6.2 1.2 0.2
v 6.2 1.2 0.1
v 6.2 1.2 0
v 6.2 1.2 -0.1
v 6.2 1.3 0.2
v 6.2 1.3 0.1
v 6.2 1.3 0
v 6.2 1.4 0.1
v 6.2 1.4 0
v 6.2 1.4 -0.1
v 6.2 1.5 0.2
v 6.2 1.5 0.1
v 6.2 1.5 0
v 6.2 1.5 -0.1
v 6.2 1.6 0.2
v 6.2 1.6 0.1
v 6.2 1.6 0
v 6.2 1.6 -0.1
v 6.2 1.7 0.2
v 6.2 1.7 -0.1
v 6.2 1.7 -0.2
v 6.2 1.8 0.2
v 6.2 1.8 0.1
v 6.2 1.8 0
v 6.2 1.9 0.2
v 6.2 1.9 0.1
v 6.2 1.9 0
v 6.2 1.9 -0.1
v 6.2 2 0.2
v 6.2 2 -0.2
v 6.3 1.2 0.1
v 6.3 1.2 0
v 6.3 1.3 0.1
v 6.3 1.3 0
v 6.3 1.4 0.1
v 6.3 1.4 0
v 6.3 1.5 0.1
v 6.3 1.5 0
v 6.3 1.6 0.1
v 6.3 1.6 0
v 6.3 1.8 0.1
v 6.3 1.8 0
v 6.3 1.9 0.1
v 6.3 1.9 0
v 5.8 1.2 0.2
v 5.8 1.3 0.2
v 5.8 1.5 0.2
v 5.8 1.6 0.2
v 5.8 1.7 0.2
v 5.8 1.8 0.2
v 5.8 1.9 0.2
v 5.8 2 0.2
v 5.9 1.2 0.2
v 5.9 1.3 0.2
v 5.9 1.4 0.2
v 5.9 1.5 0.2
v 5.9 1.6 0.2
v 5.9 1.8 0.2
v 5.9 1.9 0.2
v 5.9 2 0.2
v 5.9 2.1 0.2
v 6 1.3 0.2
v 6 1.4 0.2
v 6 1.5 0.2
v 6.1 1.2 0.2
v 6.1 1.3 0.2
v 6.1 1.4 0.2
v 6.1 1.5 0.2
v 6.1 1.6 0.2
v 6.1 1.8 0.2
v 6.1 1.9 0.2
v 6.1 2 0.2
v 6.1 2.1 0.2
v 6.2 1.2 0.2
v 6.2 1.3 0.2
v 6.2 1.5 0.2
v 6.2 1.6 0.2
v 6.2 1.7 0.2
v 6.2 1.8 0.2
v 6.2 1.9 0.2
v 6.2 2 0.2
v 5.7 1.2 0.1
v 5.7 1.3 0.1
v 5.7 1.4 0.1
v 5.7 1.5 0.1
v 5.7 1.6 0.1
v 5.7 1.8 0.1
v 5.7 1.9 0.1
v 5.8 1.2 0.1
v 5.8 1.3 0.1
v 5.8 1.4 0.1
v 5.8 1.5 0.1
v 5.8 1.6 0.1
v 5.8 1.8 0.1
v 5.8 1.9 0.1
v 5.9 1 0.1
v 5.9 1.1 0.1
v 5.9 1.2 0.1
v 5.9 1.6 0.1
v 5.9 1.7 0.1
v 6.1 1 0.1
v 6.1 1.1 0.1
v 6.1 1.2 0.1
v 6.1 1.6 0.1
v 6.1 1.7 0.1
v 6.2 1.2 0.1
v 6.2 1.3 0.1
v 6.2 1.4 0.1
v 6.2 1.5 0.1
v 6.2 1.6 0.1
v 6.2 1.8 0.1
v 6.2 1.9 0.1
v 6.3 1.2 0.1
v 6.3 1.3 0.1
v 6.3 1.4 0.1
v 6.3 1.5 0.1
v 6.3 1.6 0.1
v 6.3 1.8 0.1
v 6.3 1.9 0.1
v 5.9 1.7 -0.3
v 5.9 1.8 -0.3
v 6.1 1.7 -0.3
v 6.1 1.8 -0.3
v 5.9 1.6 -0.4
v 5.9 1.7 -0.4
v 6.1 1.6 -0.4
v 6.1 1.7 -0.4
v 5.7 1.2 0
v 5.7 1.3 0
v 5.7 1.4 0
v 5.7 1.5 0
v 5.7 1.6 0
v 5.7 1.8 0
v 5.7 1.9 0
v 5.8 1.2 0
v 5.8 1.3 0
v 5.8 1.4 0
v 5.8 1.5 0
v 5.8 1.6 0
v 5.8 1.8 0
v 5.8 1.9 0
v 5.9 1 0
v 5.9 1.1 0
v 5.9 1.2 0
v 6 1.2 0
v 6.1 1 0
v 6.1 1.1 0
v 6.1 1.2 0
v 6.2 1.2 0
v 6.2 1.3 0
v 6.2 1.4 0
v 6.2 1.5 0
v 6.2 1.6 0
v 6.2 1.8 0
v 6.2 1.9 0
v 6.3 1.2 0
v 6.3 1.3 0
v 6.3 1.4 0
v 6.3 1.5 0
v 6.3 1.6 0
v 6.3 1.8 0
v 6.3 1.9 0
v 5.8 1.2 -0.1
v 5.8 1.3 -0.1
v 5.8 1.4 -0.1
v 5.8 1.6 -0.1
v 5.9 1.2 -0.1
v 5.9 1.3 -0.1
v 5.9 1.4 -0.1
v 5.9 1.6 -0.1
v 5.9 1.7 -0.1
v 5.9 2 -0.1
v 5.9 2.1 -0.1
v 6 1.2 -0.1
v 6 1.3 -0.1
v 6 1.4 -0.1
v 6.1 1.3 -0.1
v 6.1 1.4 -0.1
v 6.1 1.5 -0.1
v 6.1 1.6 -0.1
v 6.1 1.7 -0.1
v 6.1 2 -0.1
v 6.1 2.1 -0.1
v 6.2 1.2 -0.1
v 6.2 1.4 -0.1
v 6.2 1.5 -0.1
v 6.2 1.6 -0.1
v 5.8 1.7 -0.2
v 5.8 2 -0.2
v 5.9 1.8 -0.2
v 5.9 2 -0.2
v 6.1 1.8 -0.2
v 6.1 2 -0.2
v 6.2 1.7 -0.2
v 6.2 2 -0.2
v 5.9 1.9 -0.3
v 5.9 2 -0.3
v 6.1 1.9 -0.3
v 6.1 2 -0.3
v 5.9 1.7 -0.4
v 5.9 1.9 -0.4
v 6.1 1.7 -0.4
v 6.1 1.9 -0.4
v 5.9 1.6 -0.5
v 5.9 1.7 -0.5
v 6.1 1.6 -0.5
v 6.1 1.7 -0.5
v 5.9 1 0.1
v 6.1 1 0.1
v 5.9 1 0
v 6.1 1 0
v 5.8 1.2 0.2
v 5.9 1.2 0.2
v 6.1 1.2 0.2
v 6.2 1.2 0.2
v 5.7 1.2 0.1
v 5.8 1.2 0.1
v 5.9 1.2 0.1
v 6.1 1.2 0.1
v 6.2 1.2 0.1
v 6.3 1.2 0.1
v 5.7 1.2 0
v 5.8 1.2 0
v 5.9 1.2 0
v 6 1.2 0
v 6.1 1.2 0
v 6.2 1.2 0
v 6.3 1.2 0
v 5.8 1.2 -0.1
v 5.9 1.2 -0.1
v 6 1.2 -0.1
v 6.2 1.2 -0.1
v 5.9 1.6 -0.4
v 6.1 1.6 -0.4
v 5.9 1.6 -0.5
v 6.1 1.6 -0.5
v 5.8 1.7 0.2
v 6.2 1.7 0.2
v 5.9 1.7 0.1
v 6.1 1.7 0.1
v 5.8 1.7 -0.1
v 5.9 1.7 -0.1
v 6.1 1.7 -0.1
v 6.2 1.7 -0.1
v 5.8 1.7 -0.2
v 6.2 1.7 -0.2
v 5.9 1.7 -0.3
v 6.1 1.7 -0.3
v 5.9 1.7 -0.4
v 6.1 1.7 -0.4
v 5.7 1.8 0.1
v 5.8 1.8 0.1
v 6.2 1.8 0.1
v 6.3 1.8 0.1
v 5.7 1.8 0
v 5.8 1.8 0
v 6.2 1.8 0
v 6.3 1.8 0
v 5.9 1.8 -0.2
v 6.1 1.8 -0.2
v 5.9 1.8 -0.3
v 6.1 1.8 -0.3
v 5.8 1.6 0.2
v 5.9 1.6 0.2
v 6.1 1.6 0.2
v 6.2 1.6 0.2
v 5.7 1.6 0.1
v 5.8 1.6 0.1
v 5.9 1.6 0.1
v 6.1 1.6 0.1
v 6.2 1.6 0.1
v 6.3 1.6 0.1
v 5.7 1.6 0
v 5.8 1.6 0
v 6.2 1.6 0
v 6.3 1.6 0
v 5.8 1.6 -0.1
v 5.9 1.6 -0.1
v 6.1 1.6 -0.1
v 6.2 1.6 -0.1
v 5.9 1.7 -0.4
v 6.1 1.7 -0.4
v 5.9 1.7 -0.5
v 6.1 1.7 -0.5
v 5.7 1.9 0.1
v 5.8 1.9 0.1
v 6.2 1.9 0.1
v 6.3 1.9 0.1
v 5.7 1.9 0
v 5.8 1.9 0
v 6.2 1.9 0
v 6.3 1.9 0
v 5.9 1.9 -0.3
v 6.1 1.9 -0.3
v 5.9 1.9 -0.4
v 6.1 1.9 -0.4
v 5.8 2 0.2
v 5.9 2 0.2
v 6.1 2 0.2
v 6.2 2 0.2
v 5.9 2 -0.1
v 6.1 2 -0.1
v 5.8 2 -0.2
v 5.9 2 -0.2
v 6.1 2 -0.2
v 6.2 2 -0.2
v 5.9 2 -0.3
v 6.1 2 -0.3
v 5.9 2.1 0.2
v 6.1 2.1 0.2
v 5.9 2.1 -0.1
v 6.1 2.1 -0.1

# faces
f 3/1/1 2/1/1 1/1/1
f 4/1/1 2/1/1 3/1/1
f 5/5/1 4/5/1 3/5/1
f 6/5/1 4/5/1 5/5/1
f 7/4/1 6/4/1 5/4/1
f 8/4/1 6/4/1 7/4/1
f 9/5/1 8/5/1 7/5/1
f 10/5/1 8/5/1 9/5/1
f 13/3/1 12/3/1 11/3/1
f 14/3/1 12/3/1 13/3/1
f 19/4/1 16/4/1 15/4/1
f 20/4/1 16/4/1 19/4/1
f 21/5/1 18/5/1 17/5/1
f 22/5/1 18/5/1 21/5/1
f 23/5/1 20/5/1 19/5/1
f 24/4/1 22/4/1 21/4/1
f 25/4/1 22/4/1 24/4/1
f 26/5/1 23/5/1 19/5/1
f 27/5/1 23/5/1 26/5/1
f 28/5/1 25/5/1 24/5/1
f 29/4/1 27/4/1 26/4/1
f 30/4/1 27/4/1 29/4/1
f 31/5/1 25/5/1 28/5/1
f 32/5/1 25/5/1 31/5/1
f 36/1/1 34/1/1 33/1/1
f 37/1/1 34/1/1 36/1/1
f 38/1/1 34/1/1 37/1/1
f 39/6/1 37/6/1 36/6/1
f 40/6/1 37/6/1 39/6/1
f 41/1/1 34/1/1 38/1/1
f 42/2/1 35/2/1 34/2/1
f 42/1/1 34/1/1 41/1/1
f 43/2/1 41/2/1 40/2/1
f 43/2/1 40/2/1 39/2/1
f 43/2/1 42/2/1 41/2/1
f 44/2/1 35/2/1 42/2/1
f 44/2/1 42/2/1 43/2/1
f 47/6/1 46/6/1 45/6/1
f 48/6/1 46/6/1 47/6/1
f 49/1/1 48/1/1 47/1/1
f 50/1/1 48/1/1 49/1/1
f 55/1/1 52/1/1 51/1/1
f 56/1/1 52/1/1 55/1/1
f 58/2/1 54/2/1 53/2/1
f 59/2/1 54/2/1 58/2/1
f 61/2/1 58/2/1 57/2/1
f 62/2/1 58/2/1 61/2/1
f 62/6/1 61/6/1 60/6/1
f 63/2/1 58/2/1 62/2/1
f 66/6/1 62/6/1 60/6/1
f 67/6/1 62/6/1 66/6/1
f 68/2/1 65/2/1 64/2/1
f 69/2/1 65/2/1 68/2/1
f 70/6/2 71/6/2 72/6/2
f 72/6/2 71/6/2 73/6/2
f 72/1/2 73/1/2 74/1/2
f 74/1/2 73/1/2 75/1/2
f 76/1/2 77/1/2 80/1/2
f 80/1/2 77/1/2 81/1/2
f 78/2/2 79/2/2 83/2/2
f 83/2/2 79/2/2 84/2/2
f 82/2/2 83/2/2 86/2/2
f 86/2/2 83/2/2 87/2/2
f 85/6/2 86/6/2 87/6/2
f 87/2/2 83/2/2 88/2/2
f 85/6/2 87/6/2 91/6/2
f 91/6/2 87/6/2 92/6/2
f 89/2/2 90/2/2 93/2/2
f 93/2/2 90/2/2 94/2/2
f 95/4/2 96/4/2 99/4/2
f 99/4/2 96/4/2 100/4/2
f 97/5/2 98/5/2 101/5/2
f 99/5/2 100/5/2 102/5/2
f 101/5/2 98/5/2 103/5/2
f 103/5/2 98/5/2 104/5/2
f 99/5/2 102/5/2 105/5/2
f 105/5/2 102/5/2 106/5/2
f 103/4/2 104/4/2 107/4/2
f 107/4/2 104/4/2 108/4/2
f 105/4/2 106/4/2 109/4/2
f 109/4/2 106/4/2 110/4/2
f 107/5/2 108/5/2 111/5/2
f 111/5/2 108/5/2 112/5/2
f 113/1/2 114/1/2 116/1/2
f 116/1/2 114/1/2 117/1/2
f 117/1/2 114/1/2 118/1/2
f 116/6/2 117/6/2 119/6/2
f 119/6/2 117/6/2 120/6/2
f 118/1/2 114/1/2 121/1/2
f 114/2/2 115/2/2 122/2/2
f 121/1/2 114/1/2 122/1/2
f 120/2/2 121/2/2 123/2/2
f 119/2/2 120/2/2 123/2/2
f 121/2/2 122/2/2 123/2/2
f 122/2/2 115/2/2 124/2/2
f 123/2/2 122/2/2 124/2/2
f 125/1/2 126/1/2 127/1/2
f 127/1/2 126/1/2 128/1/2
f 127/4/2 128/4/2 129/4/2
f 129/4/2 128/4/2 130/4/2
f 129/5/2 130/5/2 131/5/2
f 131/5/2 130/5/2 132/5/2
f 131/4/2 132/4/2 133/4/2
f 133/4/2 132/4/2 134/4/2
f 135/3/2 136/3/2 137/3/2
f 137/3/2 136/3/2 138/3/2
f 147/4/3 140/4/3 139/4/3
f 148/5/3 141/5/3 140/5/3
f 148/4/3 140/4/3 147/4/3
f 149/5/3 141/5/3 148/5/3
f 150/4/3 142/4/3 141/4/3
f 150/5/3 141/5/3 149/5/3
f 151/4/3 142/4/3 150/4/3
f 152/1/3 144/1/3 143/1/3
f 152/6/3 145/6/3 144/6/3
f 153/2/3 146/2/3 145/2/3
f 153/6/3 145/6/3 152/6/3
f 154/2/3 146/2/3 153/2/3
f 156/4/3 149/4/3 148/4/3
f 156/5/3 148/5/3 147/5/3
f 157/5/3 151/5/3 150/5/3
f 157/4/3 149/4/3 156/4/3
f 157/5/3 150/5/3 149/5/3
f 158/5/3 151/5/3 157/5/3
f 159/5/3 156/5/3 147/5/3
f 159/5/3 157/5/3 156/5/3
f 160/5/3 157/5/3 159/5/3
f 161/4/3 158/4/3 157/4/3
f 161/5/3 157/5/3 160/5/3
f 162/5/3 151/5/3 158/5/3
f 162/4/3 158/4/3 161/4/3
f 163/5/3 151/5/3 162/5/3
f 164/1/3 152/1/3 143/1/3
f 164/1/3 153/1/3 152/1/3
f 165/2/3 155/2/3 154/2/3
f 165/1/3 153/1/3 164/1/3
f 165/2/3 154/2/3 153/2/3
f 166/2/3 155/2/3 165/2/3
f 167/2/3 155/2/3 166/2/3
f 168/4/3 160/4/3 159/4/3
f 169/5/3 161/5/3 160/5/3
f 169/4/3 160/4/3 168/4/3
f 169/5/3 162/5/3 161/5/3
f 170/4/3 163/4/3 162/4/3
f 170/5/3 162/5/3 169/5/3
f 171/4/3 163/4/3 170/4/3
f 172/1/3 164/1/3 143/1/3
f 173/6/3 165/6/3 164/6/3
f 173/1/3 164/1/3 172/1/3
f 174/2/3 166/2/3 165/2/3
f 174/6/3 165/6/3 173/6/3
f 175/2/3 166/2/3 174/2/3
f 183/1/3 177/1/3 176/1/3
f 184/5/3 178/5/3 177/5/3
f 184/1/3 177/1/3 183/1/3
f 185/4/3 179/4/3 178/4/3
f 185/5/3 178/5/3 184/5/3
f 186/5/3 180/5/3 179/5/3
f 186/4/3 179/4/3 185/4/3
f 187/5/3 180/5/3 186/5/3
f 188/3/3 182/3/3 181/3/3
f 189/3/3 182/3/3 188/3/3
f 195/6/3 191/6/3 190/6/3
f 196/1/3 192/1/3 191/1/3
f 196/6/3 191/6/3 195/6/3
f 197/1/3 192/1/3 196/1/3
f 198/1/3 194/1/3 193/1/3
f 199/1/3 194/1/3 198/1/3
f 207/1/3 201/1/3 200/1/3
f 208/4/3 202/4/3 201/4/3
f 208/1/3 201/1/3 207/1/3
f 209/5/3 203/5/3 202/5/3
f 209/4/3 202/4/3 208/4/3
f 210/4/3 204/4/3 203/4/3
f 210/5/3 203/5/3 209/5/3
f 211/4/3 204/4/3 210/4/3
f 212/3/3 206/3/3 205/3/3
f 213/3/3 206/3/3 212/3/3
f 216/2/3 215/2/3 214/2/3
f 217/2/3 215/2/3 216/2/3
f 220/2/3 219/2/3 218/2/3
f 221/2/3 219/2/3 220/2/3
f 222/1/4 223/1/4 229/1/4
f 223/5/4 224/5/4 230/5/4
f 229/1/4 223/1/4 230/1/4
f 224/4/4 225/4/4 231/4/4
f 230/5/4 224/5/4 231/5/4
f 225/5/4 226/5/4 232/5/4
f 231/4/4 225/4/4 232/4/4
f 232/5/4 226/5/4 233/5/4
f 227/3/4 228/3/4 234/3/4
f 234/3/4 228/3/4 235/3/4
f 237/1/4 238/1/4 239/1/4
f 236/6/4 237/6/4 240/6/4
f 237/1/4 239/1/4 241/1/4
f 240/6/4 237/6/4 241/6/4
f 241/1/4 239/1/4 242/1/4
f 243/1/4 244/1/4 250/1/4
f 244/4/4 245/4/4 251/4/4
f 250/1/4 244/1/4 251/1/4
f 245/5/4 246/5/4 252/5/4
f 251/4/4 245/4/4 252/4/4
f 246/4/4 247/4/4 253/4/4
f 252/5/4 246/5/4 253/5/4
f 253/4/4 247/4/4 254/4/4
f 248/3/4 249/3/4 255/3/4
f 255/3/4 249/3/4 256/3/4
f 257/5/4 258/5/4 261/5/4
f 258/4/4 259/4/4 262/4/4
f 261/5/4 258/5/4 262/5/4
f 259/5/4 260/5/4 263/5/4
f 262/4/4 259/4/4 263/4/4
f 263/5/4 260/5/4 264/5/4
f 261/4/4 262/4/4 268/4/4
f 262/5/4 263/5/4 269/5/4
f 268/4/4 262/4/4 269/4/4
f 263/5/4 264/5/4 269/5/4
f 269/5/4 264/5/4 270/5/4
f 268/5/4 269/5/4 271/5/4
f 269/4/4 270/4/4 271/4/4
f 270/5/4 264/5/4 272/5/4
f 271/4/4 270/4/4 272/4/4
f 272/5/4 264/5/4 273/5/4
f 264/1/4 265/1/4 274/1/4
f 273/5/4 264/5/4 274/5/4
f 274/1/4 265/1/4 275/1/4
f 266/2/4 267/2/4 276/2/4
f 276/2/4 267/2/4 277/2/4
f 268/5/4 271/5/4 278/5/4
f 271/5/4 272/5/4 278/5/4
f 272/4/4 273/4/4 279/4/4
f 278/5/4 272/5/4 279/5/4
f 273/5/4 274/5/4 280/5/4
f 279/4/4 273/4/4 280/4/4
f 280/5/4 274/5/4 281/5/4
f 282/2/4 283/2/4 284/2/4
f 284/2/4 283/2/4 285/2/4
f 282/2/4 284/2/4 286/2/4
f 282/2/4 286/2/4 288/2/4
f 286/2/4 287/2/4 288/2/4
f 288/2/4 287/2/4 289/2/4
f 290/6/4 291/6/4 292/6/4
f 292/6/4 291/6/4 293/6/4
f 294/2/4 295/2/4 296/2/4
f 296/2/4 295/2/4 297/2/4
f 298/2/4 299/2/4 300/2/4
f 300/2/4 299/2/4 301/2/4
f 304/6/5 303/6/5 302/6/5
f 305/6/5 303/6/5 304/6/5
f 311/4/5 307/4/5 306/4/5
f 312/5/5 308/5/5 307/5/5
f 312/4/5 307/4/5 311/4/5
f 313/4/5 309/4/5 308/4/5
f 313/5/5 308/5/5 312/5/5
f 314/4/5 309/4/5 313/4/5
f 316/1/5 311/1/5 310/1/5
f 317/5/5 312/5/5 311/5/5
f 317/1/5 311/1/5 316/1/5
f 318/5/5 312/5/5 317/5/5
f 320/4/5 314/4/5 313/4/5
f 321/1/5 315/1/5 314/1/5
f 321/4/5 314/4/5 320/4/5
f 322/1/5 315/1/5 321/1/5
f 323/5/5 318/5/5 317/5/5
f 324/4/5 319/4/5 318/4/5
f 324/5/5 318/5/5 323/5/5
f 325/5/5 320/5/5 319/5/5
f 325/4/5 319/4/5 324/4/5
f 325/5/5 321/5/5 320/5/5
f 326/5/5 321/5/5 325/5/5
f 329/2/5 328/2/5 327/2/5
f 330/2/5 328/2/5 329/2/5
f 333/1/5 332/1/5 331/1/5
f 334/1/5 332/1/5 333/1/5
f 335/1/5 333/1/5 331/1/5
f 336/1/5 333/1/5 335/1/5
f 337/1/5 332/1/5 334/1/5
f 338/1/5 332/1/5 337/1/5
f 339/2/5 336/2/5 335/2/5
f 339/2/5 337/2/5 336/2/5
f 339/2/5 338/2/5 337/2/5
f 340/2/5 338/2/5 339/2/5
f 343/2/5 342/2/5 341/2/5
f 344/2/5 342/2/5 343/2/5
f 349/3/5 346/3/5 345/3/5
f 350/3/5 346/3/5 349/3/5
f 351/3/5 348/3/5 347/3/5
f 352/3/5 348/3/5 351/3/5
f 355/6/5 354/6/5 353/6/5
f 356/6/5 354/6/5 355/6/5
f 357/4/6 358/4/6 362/4/6
f 358/5/6 359/5/6 363/5/6
f 362/4/6 358/4/6 363/4/6
f 359/4/6 360/4/6 364/4/6
f 363/5/6 359/5/6 364/5/6
f 364/4/6 360/4/6 365/4/6
f 362/5/6 363/5/6 367/5/6
f 361/5/6 362/5/6 367/5/6
f 367/5/6 363/5/6 368/5/6
f 365/4/6 366/4/6 369/4/6
f 364/5/6 365/5/6 369/5/6
f 369/4/6 366/4/6 370/4/6
f 368/5/6 363/5/6 371/5/6
f 371/5/6 363/5/6 372/5/6
f 364/5/6 369/5/6 373/5/6
f 373/5/6 369/5/6 374/5/6
f 375/2/6 376/2/6 377/2/6
f 377/2/6 376/2/6 378/2/6
f 379/3/6 380/3/6 383/3/6
f 383/3/6 380/3/6 384/3/6
f 381/3/6 382/3/6 385/3/6
f 385/3/6 382/3/6 386/3/6
f 387/2/6 388/2/6 389/2/6
f 389/2/6 388/2/6 390/2/6
f 391/2/6 392/2/6 395/2/6
f 393/2/6 394/2/6 396/2/6
f 391/2/6 395/2/6 397/2/6
f 395/2/6 396/2/6 397/2/6
f 397/2/6 396/2/6 398/2/6
f 396/2/6 394/2/6 399/2/6
f 398/2/6 396/2/6 399/2/6
f 399/2/6 394/2/6 400/2/6
f 398/6/6 399/6/6 401/6/6
f 401/6/6 399/6/6 402/6/6
f 403/2/6 404/2/6 405/2/6
f 405/2/6 404/2/6 406/2/6
