# MagicaVoxel @ Ephtracy

# group
o 

# material
mtllib Female2-3.mtl
usemtl palette

# normals
vn -1 0 0
vn 1 0 0
vn 0 0 1
vn 0 0 -1
vn 0 -1 0
vn 0 1 0

# texcoords
vt 0.0332031 0.5
vt 0.0371094 0.5
vt 0.0605469 0.5
vt 0.853516 0.5
vt 0.861328 0.5
vt 0.865234 0.5
vt 0.869141 0.5
vt 0.873047 0.5
vt 0.955078 0.5
vt 0.978516 0.5

# verts
v 7.7 1.2 0.1
v 7.7 1.2 0
v 7.7 1.3 0.1
v 7.7 1.3 0
v 7.7 1.4 0.1
v 7.7 1.4 0
v 7.7 1.6 0.1
v 7.7 1.6 0
v 7.7 1.8 0.1
v 7.7 1.8 0
v 7.7 1.9 0.1
v 7.7 1.9 0
v 7.8 1.2 0.2
v 7.8 1.2 0.1
v 7.8 1.2 0
v 7.8 1.2 -0.1
v 7.8 1.3 0.2
v 7.8 1.3 0.1
v 7.8 1.3 0
v 7.8 1.4 0.2
v 7.8 1.4 0.1
v 7.8 1.4 0
v 7.8 1.5 0.2
v 7.8 1.5 0.1
v 7.8 1.6 0.2
v 7.8 1.6 0.1
v 7.8 1.6 0
v 7.8 1.6 -0.1
v 7.8 1.7 0.2
v 7.8 1.7 -0.1
v 7.8 1.7 -0.2
v 7.8 1.8 0.2
v 7.8 1.8 0.1
v 7.8 1.8 0
v 7.8 1.9 0.2
v 7.8 1.9 0.1
v 7.8 1.9 0
v 7.8 1.9 -0.1
v 7.8 2 0.2
v 7.8 2 -0.2
v 7.9 1 0.1
v 7.9 1 0
v 7.9 1.1 0.1
v 7.9 1.1 0
v 7.9 1.2 0.1
v 7.9 1.2 0
v 7.9 1.6 0.1
v 7.9 1.6 0
v 7.9 1.6 -0.1
v 7.9 1.6 -0.4
v 7.9 1.6 -0.5
v 7.9 1.7 0.1
v 7.9 1.7 -0.1
v 7.9 1.7 -0.3
v 7.9 1.7 -0.4
v 7.9 1.7 -0.5
v 7.9 1.8 -0.2
v 7.9 1.8 -0.3
v 7.9 1.9 -0.3
v 7.9 1.9 -0.4
v 7.9 2 0.2
v 7.9 2 -0.1
v 7.9 2 -0.2
v 7.9 2 -0.3
v 7.9 2.1 0.2
v 7.9 2.1 -0.1
v 8.1 1 0.1
v 8.1 1 0
v 8.1 1.1 0.1
v 8.1 1.1 0
v 8.1 1.2 0.1
v 8.1 1.2 0
v 8.1 1.6 0.1
v 8.1 1.6 0
v 8.1 1.6 -0.1
v 8.1 1.6 -0.4
v 8.1 1.6 -0.5
v 8.1 1.7 0.1
v 8.1 1.7 -0.1
v 8.1 1.7 -0.3
v 8.1 1.7 -0.4
v 8.1 1.7 -0.5
v 8.1 1.8 -0.2
v 8.1 1.8 -0.3
v 8.1 1.9 -0.3
v 8.1 1.9 -0.4
v 8.1 2 0.2
v 8.1 2 -0.1
v 8.1 2 -0.2
v 8.1 2 -0.3
v 8.1 2.1 0.2
v 8.1 2.1 -0.1
v 8.2 1.2 0.2
v 8.2 1.2 0.1
v 8.2 1.2 0
v 8.2 1.2 -0.1
v 8.2 1.3 0.2
v 8.2 1.3 0.1
v 8.2 1.3 0
v 8.2 1.4 0.2
v 8.2 1.4 0.1
v 8.2 1.4 0
v 8.2 1.5 0.2
v 8.2 1.5 0.1
v 8.2 1.6 0.2
v 8.2 1.6 0.1
v 8.2 1.6 0
v 8.2 1.6 -0.1
v 8.2 1.7 0.2
v 8.2 1.7 -0.1
v 8.2 1.7 -0.2
v 8.2 1.8 0.2
v 8.2 1.8 0.1
v 8.2 1.8 0
v 8.2 1.9 0.2
v 8.2 1.9 0.1
v 8.2 1.9 0
v 8.2 1.9 -0.1
v 8.2 2 0.2
v 8.2 2 -0.2
v 8.3 1.2 0.1
v 8.3 1.2 0
v 8.3 1.3 0.1
v 8.3 1.3 0
v 8.3 1.4 0.1
v 8.3 1.4 0
v 8.3 1.6 0.1
v 8.3 1.6 0
v 8.3 1.8 0.1
v 8.3 1.8 0
v 8.3 1.9 0.1
v 8.3 1.9 0
v 7.8 1.2 0.2
v 7.8 1.3 0.2
v 7.8 1.4 0.2
v 7.8 1.5 0.2
v 7.8 1.6 0.2
v 7.8 1.7 0.2
v 7.8 1.8 0.2
v 7.8 1.9 0.2
v 7.8 2 0.2
v 7.9 1.2 0.2
v 7.9 1.3 0.2
v 7.9 1.4 0.2
v 7.9 1.5 0.2
v 7.9 1.6 0.2
v 7.9 1.8 0.2
v 7.9 1.9 0.2
v 7.9 2 0.2
v 7.9 2.1 0.2
v 8.1 1.2 0.2
v 8.1 1.3 0.2
v 8.1 1.4 0.2
v 8.1 1.5 0.2
v 8.1 1.6 0.2
v 8.1 1.8 0.2
v 8.1 1.9 0.2
v 8.1 2 0.2
v 8.1 2.1 0.2
v 8.2 1.2 0.2
v 8.2 1.3 0.2
v 8.2 1.4 0.2
v 8.2 1.5 0.2
v 8.2 1.6 0.2
v 8.2 1.7 0.2
v 8.2 1.8 0.2
v 8.2 1.9 0.2
v 8.2 2 0.2
v 7.7 1.2 0.1
v 7.7 1.3 0.1
v 7.7 1.4 0.1
v 7.7 1.6 0.1
v 7.7 1.8 0.1
v 7.7 1.9 0.1
v 7.8 1.2 0.1
v 7.8 1.3 0.1
v 7.8 1.4 0.1
v 7.8 1.5 0.1
v 7.8 1.6 0.1
v 7.8 1.8 0.1
v 7.8 1.9 0.1
v 7.9 1 0.1
v 7.9 1.1 0.1
v 7.9 1.2 0.1
v 7.9 1.6 0.1
v 7.9 1.7 0.1
v 8.1 1 0.1
v 8.1 1.1 0.1
v 8.1 1.2 0.1
v 8.1 1.6 0.1
v 8.1 1.7 0.1
v 8.2 1.2 0.1
v 8.2 1.3 0.1
v 8.2 1.4 0.1
v 8.2 1.5 0.1
v 8.2 1.6 0.1
v 8.2 1.8 0.1
v 8.2 1.9 0.1
v 8.3 1.2 0.1
v 8.3 1.3 0.1
v 8.3 1.4 0.1
v 8.3 1.6 0.1
v 8.3 1.8 0.1
v 8.3 1.9 0.1
v 7.9 1.7 -0.3
v 7.9 1.8 -0.3
v 8.1 1.7 -0.3
v 8.1 1.8 -0.3
v 7.9 1.6 -0.4
v 7.9 1.7 -0.4
v 8.1 1.6 -0.4
v 8.1 1.7 -0.4
v 7.7 1.2 0
v 7.7 1.3 0
v 7.7 1.4 0
v 7.7 1.6 0
v 7.7 1.8 0
v 7.7 1.9 0
v 7.8 1.2 0
v 7.8 1.3 0
v 7.8 1.4 0
v 7.8 1.6 0
v 7.8 1.8 0
v 7.8 1.9 0
v 7.9 1 0
v 7.9 1.1 0
v 7.9 1.2 0
v 8.1 1 0
v 8.1 1.1 0
v 8.1 1.2 0
v 8.2 1.2 0
v 8.2 1.3 0
v 8.2 1.4 0
v 8.2 1.6 0
v 8.2 1.8 0
v 8.2 1.9 0
v 8.3 1.2 0
v 8.3 1.3 0
v 8.3 1.4 0
v 8.3 1.6 0
v 8.3 1.8 0
v 8.3 1.9 0
v 7.8 1.2 -0.1
v 7.8 1.6 -0.1
v 7.9 1.6 -0.1
v 7.9 1.7 -0.1
v 7.9 2 -0.1
v 7.9 2.1 -0.1
v 8.1 1.6 -0.1
v 8.1 1.7 -0.1
v 8.1 2 -0.1
v 8.1 2.1 -0.1
v 8.2 1.2 -0.1
v 8.2 1.6 -0.1
v 7.8 1.7 -0.2
v 7.8 2 -0.2
v 7.9 1.8 -0.2
v 7.9 2 -0.2
v 8.1 1.8 -0.2
v 8.1 2 -0.2
v 8.2 1.7 -0.2
v 8.2 2 -0.2
v 7.9 1.9 -0.3
v 7.9 2 -0.3
v 8.1 1.9 -0.3
v 8.1 2 -0.3
v 7.9 1.7 -0.4
v 7.9 1.9 -0.4
v 8.1 1.7 -0.4
v 8.1 1.9 -0.4
v 7.9 1.6 -0.5
v 7.9 1.7 -0.5
v 8.1 1.6 -0.5
v 8.1 1.7 -0.5
v 7.9 1 0.1
v 8.1 1 0.1
v 7.9 1 0
v 8.1 1 0
v 7.8 1.2 0.2
v 7.9 1.2 0.2
v 8.1 1.2 0.2
v 8.2 1.2 0.2
v 7.7 1.2 0.1
v 7.8 1.2 0.1
v 7.9 1.2 0.1
v 8.1 1.2 0.1
v 8.2 1.2 0.1
v 8.3 1.2 0.1
v 7.7 1.2 0
v 7.8 1.2 0
v 7.9 1.2 0
v 8.1 1.2 0
v 8.2 1.2 0
v 8.3 1.2 0
v 7.8 1.2 -0.1
v 8.2 1.2 -0.1
v 7.9 1.6 -0.4
v 8.1 1.6 -0.4
v 7.9 1.6 -0.5
v 8.1 1.6 -0.5
v 7.8 1.7 0.2
v 8.2 1.7 0.2
v 7.9 1.7 0.1
v 8.1 1.7 0.1
v 7.8 1.7 -0.1
v 7.9 1.7 -0.1
v 8.1 1.7 -0.1
v 8.2 1.7 -0.1
v 7.8 1.7 -0.2
v 8.2 1.7 -0.2
v 7.9 1.7 -0.3
v 8.1 1.7 -0.3
v 7.9 1.7 -0.4
v 8.1 1.7 -0.4
v 7.7 1.8 0.1
v 7.8 1.8 0.1
v 8.2 1.8 0.1
v 8.3 1.8 0.1
v 7.7 1.8 0
v 7.8 1.8 0
v 8.2 1.8 0
v 8.3 1.8 0
v 7.9 1.8 -0.2
v 8.1 1.8 -0.2
v 7.9 1.8 -0.3
v 8.1 1.8 -0.3
v 7.8 1.6 0.2
v 7.9 1.6 0.2
v 8.1 1.6 0.2
v 8.2 1.6 0.2
v 7.7 1.6 0.1
v 7.8 1.6 0.1
v 7.9 1.6 0.1
v 8.1 1.6 0.1
v 8.2 1.6 0.1
v 8.3 1.6 0.1
v 7.7 1.6 0
v 7.8 1.6 0
v 7.9 1.6 0
v 8.1 1.6 0
v 8.2 1.6 0
v 8.3 1.6 0
v 7.8 1.6 -0.1
v 7.9 1.6 -0.1
v 8.1 1.6 -0.1
v 8.2 1.6 -0.1
v 7.9 1.7 -0.4
v 8.1 1.7 -0.4
v 7.9 1.7 -0.5
v 8.1 1.7 -0.5
v 7.7 1.9 0.1
v 7.8 1.9 0.1
v 8.2 1.9 0.1
v 8.3 1.9 0.1
v 7.7 1.9 0
v 7.8 1.9 0
v 8.2 1.9 0
v 8.3 1.9 0
v 7.9 1.9 -0.3
v 8.1 1.9 -0.3
v 7.9 1.9 -0.4
v 8.1 1.9 -0.4
v 7.8 2 0.2
v 7.9 2 0.2
v 8.1 2 0.2
v 8.2 2 0.2
v 7.9 2 -0.1
v 8.1 2 -0.1
v 7.8 2 -0.2
v 7.9 2 -0.2
v 8.1 2 -0.2
v 8.2 2 -0.2
v 7.9 2 -0.3
v 8.1 2 -0.3
v 7.9 2.1 0.2
v 8.1 2.1 0.2
v 7.9 2.1 -0.1
v 8.1 2.1 -0.1

# faces
f 3/1/1 2/1/1 1/1/1
f 4/1/1 2/1/1 3/1/1
f 5/8/1 4/8/1 3/8/1
f 6/8/1 4/8/1 5/8/1
f 7/6/1 6/6/1 5/6/1
f 8/6/1 6/6/1 7/6/1
f 11/3/1 10/3/1 9/3/1
f 12/3/1 10/3/1 11/3/1
f 17/8/1 14/8/1 13/8/1
f 18/8/1 14/8/1 17/8/1
f 19/6/1 16/6/1 15/6/1
f 20/6/1 18/6/1 17/6/1
f 21/6/1 18/6/1 20/6/1
f 22/6/1 16/6/1 19/6/1
f 23/8/1 21/8/1 20/8/1
f 24/8/1 21/8/1 23/8/1
f 25/6/1 24/6/1 23/6/1
f 26/6/1 24/6/1 25/6/1
f 27/6/1 16/6/1 22/6/1
f 28/6/1 16/6/1 27/6/1
f 32/1/1 30/1/1 29/1/1
f 33/1/1 30/1/1 32/1/1
f 34/1/1 30/1/1 33/1/1
f 35/9/1 33/9/1 32/9/1
f 36/9/1 33/9/1 35/9/1
f 37/1/1 30/1/1 34/1/1
f 38/2/1 31/2/1 30/2/1
f 38/1/1 30/1/1 37/1/1
f 39/2/1 37/2/1 36/2/1
f 39/2/1 36/2/1 35/2/1
f 39/2/1 38/2/1 37/2/1
f 40/2/1 31/2/1 38/2/1
f 40/2/1 38/2/1 39/2/1
f 43/9/1 42/9/1 41/9/1
f 44/9/1 42/9/1 43/9/1
f 45/1/1 44/1/1 43/1/1
f 46/1/1 44/1/1 45/1/1
f 52/1/1 48/1/1 47/1/1
f 52/1/1 49/1/1 48/1/1
f 53/1/1 49/1/1 52/1/1
f 55/2/1 51/2/1 50/2/1
f 56/2/1 51/2/1 55/2/1
f 58/2/1 55/2/1 54/2/1
f 59/2/1 55/2/1 58/2/1
f 59/6/1 58/6/1 57/6/1
f 60/2/1 55/2/1 59/2/1
f 63/6/1 59/6/1 57/6/1
f 64/6/1 59/6/1 63/6/1
f 65/2/1 62/2/1 61/2/1
f 66/2/1 62/2/1 65/2/1
f 67/9/2 68/9/2 69/9/2
f 69/9/2 68/9/2 70/9/2
f 69/1/2 70/1/2 71/1/2
f 71/1/2 70/1/2 72/1/2
f 73/1/2 74/1/2 78/1/2
f 74/1/2 75/1/2 78/1/2
f 78/1/2 75/1/2 79/1/2
f 76/2/2 77/2/2 81/2/2
f 81/2/2 77/2/2 82/2/2
f 80/2/2 81/2/2 84/2/2
f 84/2/2 81/2/2 85/2/2
f 83/6/2 84/6/2 85/6/2
f 85/2/2 81/2/2 86/2/2
f 83/6/2 85/6/2 89/6/2
f 89/6/2 85/6/2 90/6/2
f 87/2/2 88/2/2 91/2/2
f 91/2/2 88/2/2 92/2/2
f 93/8/2 94/8/2 97/8/2
f 97/8/2 94/8/2 98/8/2
f 95/6/2 96/6/2 99/6/2
f 97/6/2 98/6/2 100/6/2
f 100/6/2 98/6/2 101/6/2
f 99/6/2 96/6/2 102/6/2
f 100/8/2 101/8/2 103/8/2
f 103/8/2 101/8/2 104/8/2
f 103/6/2 104/6/2 105/6/2
f 105/6/2 104/6/2 106/6/2
f 102/6/2 96/6/2 107/6/2
f 107/6/2 96/6/2 108/6/2
f 109/1/2 110/1/2 112/1/2
f 112/1/2 110/1/2 113/1/2
f 113/1/2 110/1/2 114/1/2
f 112/9/2 113/9/2 115/9/2
f 115/9/2 113/9/2 116/9/2
f 114/1/2 110/1/2 117/1/2
f 110/2/2 111/2/2 118/2/2
f 117/1/2 110/1/2 118/1/2
f 116/2/2 117/2/2 119/2/2
f 115/2/2 116/2/2 119/2/2
f 117/2/2 118/2/2 119/2/2
f 118/2/2 111/2/2 120/2/2
f 119/2/2 118/2/2 120/2/2
f 121/1/2 122/1/2 123/1/2
f 123/1/2 122/1/2 124/1/2
f 123/8/2 124/8/2 125/8/2
f 125/8/2 124/8/2 126/8/2
f 125/6/2 126/6/2 127/6/2
f 127/6/2 126/6/2 128/6/2
f 129/3/2 130/3/2 131/3/2
f 131/3/2 130/3/2 132/3/2
f 142/8/3 134/8/3 133/8/3
f 143/6/3 135/6/3 134/6/3
f 143/8/3 134/8/3 142/8/3
f 144/8/3 136/8/3 135/8/3
f 144/6/3 135/6/3 143/6/3
f 145/6/3 137/6/3 136/6/3
f 145/8/3 136/8/3 144/8/3
f 146/6/3 137/6/3 145/6/3
f 147/1/3 139/1/3 138/1/3
f 147/9/3 140/9/3 139/9/3
f 148/2/3 141/2/3 140/2/3
f 148/9/3 140/9/3 147/9/3
f 149/2/3 141/2/3 148/2/3
f 151/6/3 143/6/3 142/6/3
f 152/5/3 144/5/3 143/5/3
f 152/6/3 143/6/3 151/6/3
f 153/6/3 145/6/3 144/6/3
f 153/5/3 144/5/3 152/5/3
f 154/4/3 146/4/3 145/4/3
f 154/6/3 145/6/3 153/6/3
f 155/4/3 146/4/3 154/4/3
f 156/1/3 147/1/3 138/1/3
f 156/1/3 148/1/3 147/1/3
f 157/2/3 150/2/3 149/2/3
f 157/1/3 148/1/3 156/1/3
f 157/2/3 149/2/3 148/2/3
f 158/2/3 150/2/3 157/2/3
f 159/2/3 150/2/3 158/2/3
f 160/8/3 152/8/3 151/8/3
f 161/6/3 153/6/3 152/6/3
f 161/8/3 152/8/3 160/8/3
f 162/8/3 154/8/3 153/8/3
f 162/6/3 153/6/3 161/6/3
f 163/6/3 155/6/3 154/6/3
f 163/8/3 154/8/3 162/8/3
f 164/6/3 155/6/3 163/6/3
f 165/1/3 156/1/3 138/1/3
f 166/9/3 157/9/3 156/9/3
f 166/1/3 156/1/3 165/1/3
f 167/2/3 158/2/3 157/2/3
f 167/9/3 157/9/3 166/9/3
f 168/2/3 158/2/3 167/2/3
f 175/1/3 170/1/3 169/1/3
f 176/8/3 171/8/3 170/8/3
f 176/1/3 170/1/3 175/1/3
f 177/6/3 172/6/3 171/6/3
f 177/8/3 171/8/3 176/8/3
f 178/6/3 172/6/3 177/6/3
f 179/6/3 172/6/3 178/6/3
f 180/3/3 174/3/3 173/3/3
f 181/3/3 174/3/3 180/3/3
f 187/9/3 183/9/3 182/9/3
f 188/1/3 184/1/3 183/1/3
f 188/9/3 183/9/3 187/9/3
f 189/1/3 184/1/3 188/1/3
f 190/1/3 186/1/3 185/1/3
f 191/1/3 186/1/3 190/1/3
f 199/1/3 193/1/3 192/1/3
f 200/8/3 194/8/3 193/8/3
f 200/1/3 193/1/3 199/1/3
f 201/6/3 196/6/3 195/6/3
f 201/8/3 194/8/3 200/8/3
f 201/6/3 195/6/3 194/6/3
f 202/6/3 196/6/3 201/6/3
f 203/3/3 198/3/3 197/3/3
f 204/3/3 198/3/3 203/3/3
f 207/2/3 206/2/3 205/2/3
f 208/2/3 206/2/3 207/2/3
f 211/2/3 210/2/3 209/2/3
f 212/2/3 210/2/3 211/2/3
f 213/1/4 214/1/4 219/1/4
f 214/8/4 215/8/4 220/8/4
f 219/1/4 214/1/4 220/1/4
f 215/6/4 216/6/4 221/6/4
f 220/8/4 215/8/4 221/8/4
f 221/6/4 216/6/4 222/6/4
f 217/3/4 218/3/4 223/3/4
f 223/3/4 218/3/4 224/3/4
f 225/9/4 226/9/4 228/9/4
f 226/1/4 227/1/4 229/1/4
f 228/9/4 226/9/4 229/9/4
f 229/1/4 227/1/4 230/1/4
f 231/1/4 232/1/4 237/1/4
f 232/8/4 233/8/4 238/8/4
f 237/1/4 232/1/4 238/1/4
f 233/6/4 234/6/4 239/6/4
f 238/8/4 233/8/4 239/8/4
f 239/6/4 234/6/4 240/6/4
f 235/3/4 236/3/4 241/3/4
f 241/3/4 236/3/4 242/3/4
f 243/6/4 244/6/4 245/6/4
f 243/6/4 245/6/4 249/6/4
f 245/1/4 246/1/4 249/1/4
f 249/1/4 246/1/4 250/1/4
f 247/2/4 248/2/4 251/2/4
f 251/2/4 248/2/4 252/2/4
f 243/6/4 249/6/4 253/6/4
f 253/6/4 249/6/4 254/6/4
f 255/2/4 256/2/4 257/2/4
f 257/2/4 256/2/4 258/2/4
f 255/2/4 257/2/4 259/2/4
f 255/2/4 259/2/4 261/2/4
f 259/2/4 260/2/4 261/2/4
f 261/2/4 260/2/4 262/2/4
f 263/6/4 264/6/4 265/6/4
f 265/6/4 264/6/4 266/6/4
f 267/2/4 268/2/4 269/2/4
f 269/2/4 268/2/4 270/2/4
f 271/2/4 272/2/4 273/2/4
f 273/2/4 272/2/4 274/2/4
f 277/9/5 276/9/5 275/9/5
f 278/9/5 276/9/5 277/9/5
f 284/8/5 280/8/5 279/8/5
f 285/6/5 281/6/5 280/6/5
f 285/8/5 280/8/5 284/8/5
f 286/8/5 282/8/5 281/8/5
f 286/6/5 281/6/5 285/6/5
f 287/8/5 282/8/5 286/8/5
f 289/1/5 284/1/5 283/1/5
f 290/6/5 285/6/5 284/6/5
f 290/1/5 284/1/5 289/1/5
f 291/6/5 285/6/5 290/6/5
f 292/6/5 287/6/5 286/6/5
f 293/1/5 288/1/5 287/1/5
f 293/6/5 287/6/5 292/6/5
f 294/1/5 288/1/5 293/1/5
f 295/6/5 292/6/5 291/6/5
f 295/6/5 291/6/5 290/6/5
f 295/6/5 293/6/5 292/6/5
f 296/6/5 293/6/5 295/6/5
f 299/2/5 298/2/5 297/2/5
f 300/2/5 298/2/5 299/2/5
f 303/1/5 302/1/5 301/1/5
f 304/1/5 302/1/5 303/1/5
f 305/1/5 303/1/5 301/1/5
f 306/1/5 303/1/5 305/1/5
f 307/1/5 302/1/5 304/1/5
f 308/1/5 302/1/5 307/1/5
f 309/2/5 306/2/5 305/2/5
f 309/2/5 307/2/5 306/2/5
f 309/2/5 308/2/5 307/2/5
f 310/2/5 308/2/5 309/2/5
f 313/2/5 312/2/5 311/2/5
f 314/2/5 312/2/5 313/2/5
f 319/3/5 316/3/5 315/3/5
f 320/3/5 316/3/5 319/3/5
f 321/3/5 318/3/5 317/3/5
f 322/3/5 318/3/5 321/3/5
f 325/6/5 324/6/5 323/6/5
f 326/6/5 324/6/5 325/6/5
f 327/6/6 328/6/6 332/6/6
f 328/4/6 329/4/6 333/4/6
f 332/6/6 328/6/6 333/6/6
f 329/6/6 330/6/6 334/6/6
f 333/4/6 329/4/6 334/4/6
f 334/6/6 330/6/6 335/6/6
f 331/6/6 332/6/6 337/6/6
f 332/7/6 333/7/6 338/7/6
f 337/6/6 332/6/6 338/6/6
f 338/7/6 333/7/6 339/7/6
f 334/7/6 335/7/6 340/7/6
f 335/6/6 336/6/6 341/6/6
f 340/7/6 335/7/6 341/7/6
f 341/6/6 336/6/6 342/6/6
f 338/6/6 339/6/6 343/6/6
f 343/6/6 339/6/6 344/6/6
f 340/6/6 341/6/6 345/6/6
f 345/6/6 341/6/6 346/6/6
f 347/2/6 348/2/6 349/2/6
f 349/2/6 348/2/6 350/2/6
f 351/3/6 352/3/6 355/3/6
f 355/3/6 352/3/6 356/3/6
f 353/3/6 354/3/6 357/3/6
f 357/3/6 354/3/6 358/3/6
f 359/2/6 360/2/6 361/2/6
f 361/2/6 360/2/6 362/2/6
f 363/2/6 364/2/6 367/2/6
f 365/2/6 366/2/6 368/2/6
f 363/2/6 367/2/6 369/2/6
f 367/2/6 368/2/6 369/2/6
f 369/2/6 368/2/6 370/2/6
f 368/2/6 366/2/6 371/2/6
f 370/2/6 368/2/6 371/2/6
f 371/2/6 366/2/6 372/2/6
f 370/6/6 371/6/6 373/6/6
f 373/6/6 371/6/6 374/6/6
f 375/2/6 376/2/6 377/2/6
f 377/2/6 376/2/6 378/2/6
