# MagicaVoxel @ Ephtracy

# group
o 

# material
mtllib Female2-5.mtl
usemtl palette

# normals
vn -1 0 0
vn 1 0 0
vn 0 0 1
vn 0 0 -1
vn 0 -1 0
vn 0 1 0

# texcoords
vt 0.0332031 0.5
vt 0.0371094 0.5
vt 0.0605469 0.5
vt 0.904297 0.5
vt 0.912109 0.5
vt 0.955078 0.5
vt 0.958984 0.5
vt 0.978516 0.5
vt 0.994141 0.5

# verts
v 3.7 1.2 0.1
v 3.7 1.2 0
v 3.7 1.3 0.1
v 3.7 1.3 0
v 3.7 1.6 0.1
v 3.7 1.6 0
v 3.7 1.8 0.1
v 3.7 1.8 0
v 3.7 1.9 0.1
v 3.7 1.9 0
v 3.8 1.2 0.2
v 3.8 1.2 0.1
v 3.8 1.2 0
v 3.8 1.2 -0.1
v 3.8 1.3 0.1
v 3.8 1.3 0
v 3.8 1.6 0.2
v 3.8 1.6 0.1
v 3.8 1.6 0
v 3.8 1.6 -0.1
v 3.8 1.7 0.2
v 3.8 1.7 -0.1
v 3.8 1.7 -0.2
v 3.8 1.8 0.2
v 3.8 1.8 0.1
v 3.8 1.8 0
v 3.8 1.9 0.2
v 3.8 1.9 0.1
v 3.8 1.9 0
v 3.8 1.9 -0.1
v 3.8 2 0.2
v 3.8 2 -0.2
v 3.9 1 0.1
v 3.9 1 0
v 3.9 1.1 0.1
v 3.9 1.1 0
v 3.9 1.2 0.1
v 3.9 1.2 0
v 3.9 1.6 0.1
v 3.9 1.6 -0.1
v 3.9 1.6 -0.4
v 3.9 1.6 -0.5
v 3.9 1.7 0.1
v 3.9 1.7 -0.1
v 3.9 1.7 -0.3
v 3.9 1.7 -0.4
v 3.9 1.7 -0.5
v 3.9 1.8 -0.2
v 3.9 1.8 -0.3
v 3.9 1.9 -0.3
v 3.9 1.9 -0.4
v 3.9 2 0.2
v 3.9 2 -0.1
v 3.9 2 -0.2
v 3.9 2 -0.3
v 3.9 2.1 0.2
v 3.9 2.1 -0.1
v 4.1 1 0.1
v 4.1 1 0
v 4.1 1.1 0.1
v 4.1 1.1 0
v 4.1 1.2 0.1
v 4.1 1.2 0
v 4.1 1.6 0.1
v 4.1 1.6 -0.1
v 4.1 1.6 -0.4
v 4.1 1.6 -0.5
v 4.1 1.7 0.1
v 4.1 1.7 -0.1
v 4.1 1.7 -0.3
v 4.1 1.7 -0.4
v 4.1 1.7 -0.5
v 4.1 1.8 -0.2
v 4.1 1.8 -0.3
v 4.1 1.9 -0.3
v 4.1 1.9 -0.4
v 4.1 2 0.2
v 4.1 2 -0.1
v 4.1 2 -0.2
v 4.1 2 -0.3
v 4.1 2.1 0.2
v 4.1 2.1 -0.1
v 4.2 1.2 0.2
v 4.2 1.2 0.1
v 4.2 1.2 0
v 4.2 1.2 -0.1
v 4.2 1.3 0.1
v 4.2 1.3 0
v 4.2 1.6 0.2
v 4.2 1.6 0.1
v 4.2 1.6 0
v 4.2 1.6 -0.1
v 4.2 1.7 0.2
v 4.2 1.7 -0.1
v 4.2 1.7 -0.2
v 4.2 1.8 0.2
v 4.2 1.8 0.1
v 4.2 1.8 0
v 4.2 1.9 0.2
v 4.2 1.9 0.1
v 4.2 1.9 0
v 4.2 1.9 -0.1
v 4.2 2 0.2
v 4.2 2 -0.2
v 4.3 1.2 0.1
v 4.3 1.2 0
v 4.3 1.3 0.1
v 4.3 1.3 0
v 4.3 1.6 0.1
v 4.3 1.6 0
v 4.3 1.8 0.1
v 4.3 1.8 0
v 4.3 1.9 0.1
v 4.3 1.9 0
v 3.8 1.2 0.2
v 3.8 1.6 0.2
v 3.8 1.7 0.2
v 3.8 1.8 0.2
v 3.8 1.9 0.2
v 3.8 2 0.2
v 3.9 1.2 0.2
v 3.9 1.6 0.2
v 3.9 1.8 0.2
v 3.9 1.9 0.2
v 3.9 2 0.2
v 3.9 2.1 0.2
v 4.1 1.2 0.2
v 4.1 1.6 0.2
v 4.1 1.8 0.2
v 4.1 1.9 0.2
v 4.1 2 0.2
v 4.1 2.1 0.2
v 4.2 1.2 0.2
v 4.2 1.6 0.2
v 4.2 1.7 0.2
v 4.2 1.8 0.2
v 4.2 1.9 0.2
v 4.2 2 0.2
v 3.7 1.2 0.1
v 3.7 1.3 0.1
v 3.7 1.6 0.1
v 3.7 1.8 0.1
v 3.7 1.9 0.1
v 3.8 1.2 0.1
v 3.8 1.3 0.1
v 3.8 1.6 0.1
v 3.8 1.8 0.1
v 3.8 1.9 0.1
v 3.9 1 0.1
v 3.9 1.1 0.1
v 3.9 1.2 0.1
v 3.9 1.6 0.1
v 3.9 1.7 0.1
v 4.1 1 0.1
v 4.1 1.1 0.1
v 4.1 1.2 0.1
v 4.1 1.6 0.1
v 4.1 1.7 0.1
v 4.2 1.2 0.1
v 4.2 1.3 0.1
v 4.2 1.6 0.1
v 4.2 1.8 0.1
v 4.2 1.9 0.1
v 4.3 1.2 0.1
v 4.3 1.3 0.1
v 4.3 1.6 0.1
v 4.3 1.8 0.1
v 4.3 1.9 0.1
v 3.9 1.7 -0.3
v 3.9 1.8 -0.3
v 4.1 1.7 -0.3
v 4.1 1.8 -0.3
v 3.9 1.6 -0.4
v 3.9 1.7 -0.4
v 4.1 1.6 -0.4
v 4.1 1.7 -0.4
v 3.7 1.2 0
v 3.7 1.3 0
v 3.7 1.6 0
v 3.7 1.8 0
v 3.7 1.9 0
v 3.8 1.2 0
v 3.8 1.3 0
v 3.8 1.6 0
v 3.8 1.8 0
v 3.8 1.9 0
v 3.9 1 0
v 3.9 1.1 0
v 3.9 1.2 0
v 4.1 1 0
v 4.1 1.1 0
v 4.1 1.2 0
v 4.2 1.2 0
v 4.2 1.3 0
v 4.2 1.6 0
v 4.2 1.8 0
v 4.2 1.9 0
v 4.3 1.2 0
v 4.3 1.3 0
v 4.3 1.6 0
v 4.3 1.8 0
v 4.3 1.9 0
v 3.8 1.2 -0.1
v 3.8 1.6 -0.1
v 3.9 1.6 -0.1
v 3.9 1.7 -0.1
v 3.9 2 -0.1
v 3.9 2.1 -0.1
v 4.1 1.6 -0.1
v 4.1 1.7 -0.1
v 4.1 2 -0.1
v 4.1 2.1 -0.1
v 4.2 1.2 -0.1
v 4.2 1.6 -0.1
v 3.8 1.7 -0.2
v 3.8 2 -0.2
v 3.9 1.8 -0.2
v 3.9 2 -0.2
v 4.1 1.8 -0.2
v 4.1 2 -0.2
v 4.2 1.7 -0.2
v 4.2 2 -0.2
v 3.9 1.9 -0.3
v 3.9 2 -0.3
v 4.1 1.9 -0.3
v 4.1 2 -0.3
v 3.9 1.7 -0.4
v 3.9 1.9 -0.4
v 4.1 1.7 -0.4
v 4.1 1.9 -0.4
v 3.9 1.6 -0.5
v 3.9 1.7 -0.5
v 4.1 1.6 -0.5
v 4.1 1.7 -0.5
v 3.9 1 0.1
v 4.1 1 0.1
v 3.9 1 0
v 4.1 1 0
v 3.8 1.2 0.2
v 3.9 1.2 0.2
v 4.1 1.2 0.2
v 4.2 1.2 0.2
v 3.7 1.2 0.1
v 3.8 1.2 0.1
v 3.9 1.2 0.1
v 4.1 1.2 0.1
v 4.2 1.2 0.1
v 4.3 1.2 0.1
v 3.7 1.2 0
v 3.8 1.2 0
v 3.9 1.2 0
v 4.1 1.2 0
v 4.2 1.2 0
v 4.3 1.2 0
v 3.8 1.2 -0.1
v 4.2 1.2 -0.1
v 3.9 1.6 -0.4
v 4.1 1.6 -0.4
v 3.9 1.6 -0.5
v 4.1 1.6 -0.5
v 3.8 1.7 0.2
v 4.2 1.7 0.2
v 3.9 1.7 0.1
v 4.1 1.7 0.1
v 3.8 1.7 -0.1
v 3.9 1.7 -0.1
v 4.1 1.7 -0.1
v 4.2 1.7 -0.1
v 3.8 1.7 -0.2
v 4.2 1.7 -0.2
v 3.9 1.7 -0.3
v 4.1 1.7 -0.3
v 3.9 1.7 -0.4
v 4.1 1.7 -0.4
v 3.7 1.8 0.1
v 3.8 1.8 0.1
v 4.2 1.8 0.1
v 4.3 1.8 0.1
v 3.7 1.8 0
v 3.8 1.8 0
v 4.2 1.8 0
v 4.3 1.8 0
v 3.9 1.8 -0.2
v 4.1 1.8 -0.2
v 3.9 1.8 -0.3
v 4.1 1.8 -0.3
v 3.8 1.6 0.2
v 3.9 1.6 0.2
v 4.1 1.6 0.2
v 4.2 1.6 0.2
v 3.7 1.6 0.1
v 3.8 1.6 0.1
v 3.9 1.6 0.1
v 4.1 1.6 0.1
v 4.2 1.6 0.1
v 4.3 1.6 0.1
v 3.7 1.6 0
v 3.8 1.6 0
v 4.2 1.6 0
v 4.3 1.6 0
v 3.8 1.6 -0.1
v 3.9 1.6 -0.1
v 4.1 1.6 -0.1
v 4.2 1.6 -0.1
v 3.9 1.7 -0.4
v 4.1 1.7 -0.4
v 3.9 1.7 -0.5
v 4.1 1.7 -0.5
v 3.7 1.9 0.1
v 3.8 1.9 0.1
v 4.2 1.9 0.1
v 4.3 1.9 0.1
v 3.7 1.9 0
v 3.8 1.9 0
v 4.2 1.9 0
v 4.3 1.9 0
v 3.9 1.9 -0.3
v 4.1 1.9 -0.3
v 3.9 1.9 -0.4
v 4.1 1.9 -0.4
v 3.8 2 0.2
v 3.9 2 0.2
v 4.1 2 0.2
v 4.2 2 0.2
v 3.9 2 -0.1
v 4.1 2 -0.1
v 3.8 2 -0.2
v 3.9 2 -0.2
v 4.1 2 -0.2
v 4.2 2 -0.2
v 3.9 2 -0.3
v 4.1 2 -0.3
v 3.9 2.1 0.2
v 4.1 2.1 0.2
v 3.9 2.1 -0.1
v 4.1 2.1 -0.1

# faces
f 3/1/1 2/1/1 1/1/1
f 4/1/1 2/1/1 3/1/1
f 5/4/1 4/4/1 3/4/1
f 6/4/1 4/4/1 5/4/1
f 9/3/1 8/3/1 7/3/1
f 10/3/1 8/3/1 9/3/1
f 15/4/1 12/4/1 11/4/1
f 16/4/1 14/4/1 13/4/1
f 17/4/1 15/4/1 11/4/1
f 18/4/1 15/4/1 17/4/1
f 19/4/1 14/4/1 16/4/1
f 20/4/1 14/4/1 19/4/1
f 24/1/1 22/1/1 21/1/1
f 25/1/1 22/1/1 24/1/1
f 26/1/1 22/1/1 25/1/1
f 27/6/1 25/6/1 24/6/1
f 28/6/1 25/6/1 27/6/1
f 29/1/1 22/1/1 26/1/1
f 30/2/1 23/2/1 22/2/1
f 30/1/1 22/1/1 29/1/1
f 31/2/1 29/2/1 28/2/1
f 31/2/1 28/2/1 27/2/1
f 31/2/1 30/2/1 29/2/1
f 32/2/1 23/2/1 30/2/1
f 32/2/1 30/2/1 31/2/1
f 35/9/1 34/9/1 33/9/1
f 36/9/1 34/9/1 35/9/1
f 37/5/1 36/5/1 35/5/1
f 38/5/1 36/5/1 37/5/1
f 43/1/1 40/1/1 39/1/1
f 44/1/1 40/1/1 43/1/1
f 46/2/1 42/2/1 41/2/1
f 47/2/1 42/2/1 46/2/1
f 49/2/1 46/2/1 45/2/1
f 50/2/1 46/2/1 49/2/1
f 50/4/1 49/4/1 48/4/1
f 51/2/1 46/2/1 50/2/1
f 54/4/1 50/4/1 48/4/1
f 55/4/1 50/4/1 54/4/1
f 56/2/1 53/2/1 52/2/1
f 57/2/1 53/2/1 56/2/1
f 58/9/2 59/9/2 60/9/2
f 60/9/2 59/9/2 61/9/2
f 60/5/2 61/5/2 62/5/2
f 62/5/2 61/5/2 63/5/2
f 64/1/2 65/1/2 68/1/2
f 68/1/2 65/1/2 69/1/2
f 66/2/2 67/2/2 71/2/2
f 71/2/2 67/2/2 72/2/2
f 70/2/2 71/2/2 74/2/2
f 74/2/2 71/2/2 75/2/2
f 73/4/2 74/4/2 75/4/2
f 75/2/2 71/2/2 76/2/2
f 73/4/2 75/4/2 79/4/2
f 79/4/2 75/4/2 80/4/2
f 77/2/2 78/2/2 81/2/2
f 81/2/2 78/2/2 82/2/2
f 83/4/2 84/4/2 87/4/2
f 85/4/2 86/4/2 88/4/2
f 83/4/2 87/4/2 89/4/2
f 89/4/2 87/4/2 90/4/2
f 88/4/2 86/4/2 91/4/2
f 91/4/2 86/4/2 92/4/2
f 93/1/2 94/1/2 96/1/2
f 96/1/2 94/1/2 97/1/2
f 97/1/2 94/1/2 98/1/2
f 96/6/2 97/6/2 99/6/2
f 99/6/2 97/6/2 100/6/2
f 98/1/2 94/1/2 101/1/2
f 94/2/2 95/2/2 102/2/2
f 101/1/2 94/1/2 102/1/2
f 100/2/2 101/2/2 103/2/2
f 99/2/2 100/2/2 103/2/2
f 101/2/2 102/2/2 103/2/2
f 102/2/2 95/2/2 104/2/2
f 103/2/2 102/2/2 104/2/2
f 105/1/2 106/1/2 107/1/2
f 107/1/2 106/1/2 108/1/2
f 107/4/2 108/4/2 109/4/2
f 109/4/2 108/4/2 110/4/2
f 111/3/2 112/3/2 113/3/2
f 113/3/2 112/3/2 114/3/2
f 121/4/3 116/4/3 115/4/3
f 122/4/3 116/4/3 121/4/3
f 123/1/3 118/1/3 117/1/3
f 123/6/3 119/6/3 118/6/3
f 124/2/3 120/2/3 119/2/3
f 124/6/3 119/6/3 123/6/3
f 125/2/3 120/2/3 124/2/3
f 127/7/3 122/7/3 121/7/3
f 128/7/3 122/7/3 127/7/3
f 129/1/3 123/1/3 117/1/3
f 129/1/3 124/1/3 123/1/3
f 130/2/3 126/2/3 125/2/3
f 130/1/3 124/1/3 129/1/3
f 130/2/3 125/2/3 124/2/3
f 131/2/3 126/2/3 130/2/3
f 132/2/3 126/2/3 131/2/3
f 133/4/3 128/4/3 127/4/3
f 134/4/3 128/4/3 133/4/3
f 135/1/3 129/1/3 117/1/3
f 136/6/3 130/6/3 129/6/3
f 136/1/3 129/1/3 135/1/3
f 137/2/3 131/2/3 130/2/3
f 137/6/3 130/6/3 136/6/3
f 138/2/3 131/2/3 137/2/3
f 144/1/3 140/1/3 139/1/3
f 145/4/3 141/4/3 140/4/3
f 145/1/3 140/1/3 144/1/3
f 146/4/3 141/4/3 145/4/3
f 147/3/3 143/3/3 142/3/3
f 148/3/3 143/3/3 147/3/3
f 154/9/3 150/9/3 149/9/3
f 155/5/3 151/5/3 150/5/3
f 155/9/3 150/9/3 154/9/3
f 156/5/3 151/5/3 155/5/3
f 157/1/3 153/1/3 152/1/3
f 158/1/3 153/1/3 157/1/3
f 164/1/3 160/1/3 159/1/3
f 165/4/3 161/4/3 160/4/3
f 165/1/3 160/1/3 164/1/3
f 166/4/3 161/4/3 165/4/3
f 167/3/3 163/3/3 162/3/3
f 168/3/3 163/3/3 167/3/3
f 171/2/3 170/2/3 169/2/3
f 172/2/3 170/2/3 171/2/3
f 175/2/3 174/2/3 173/2/3
f 176/2/3 174/2/3 175/2/3
f 177/1/4 178/1/4 182/1/4
f 178/4/4 179/4/4 183/4/4
f 182/1/4 178/1/4 183/1/4
f 183/4/4 179/4/4 184/4/4
f 180/3/4 181/3/4 185/3/4
f 185/3/4 181/3/4 186/3/4
f 187/9/4 188/9/4 190/9/4
f 188/5/4 189/5/4 191/5/4
f 190/9/4 188/9/4 191/9/4
f 191/5/4 189/5/4 192/5/4
f 193/1/4 194/1/4 198/1/4
f 194/4/4 195/4/4 199/4/4
f 198/1/4 194/1/4 199/1/4
f 199/4/4 195/4/4 200/4/4
f 196/3/4 197/3/4 201/3/4
f 201/3/4 197/3/4 202/3/4
f 203/4/4 204/4/4 205/4/4
f 203/4/4 205/4/4 209/4/4
f 205/1/4 206/1/4 209/1/4
f 209/1/4 206/1/4 210/1/4
f 207/2/4 208/2/4 211/2/4
f 211/2/4 208/2/4 212/2/4
f 203/4/4 209/4/4 213/4/4
f 213/4/4 209/4/4 214/4/4
f 215/2/4 216/2/4 217/2/4
f 217/2/4 216/2/4 218/2/4
f 215/2/4 217/2/4 219/2/4
f 215/2/4 219/2/4 221/2/4
f 219/2/4 220/2/4 221/2/4
f 221/2/4 220/2/4 222/2/4
f 223/4/4 224/4/4 225/4/4
f 225/4/4 224/4/4 226/4/4
f 227/2/4 228/2/4 229/2/4
f 229/2/4 228/2/4 230/2/4
f 231/2/4 232/2/4 233/2/4
f 233/2/4 232/2/4 234/2/4
f 237/9/5 236/9/5 235/9/5
f 238/9/5 236/9/5 237/9/5
f 244/4/5 240/4/5 239/4/5
f 245/7/5 241/7/5 240/7/5
f 245/4/5 240/4/5 244/4/5
f 246/4/5 242/4/5 241/4/5
f 246/7/5 241/7/5 245/7/5
f 247/4/5 242/4/5 246/4/5
f 249/1/5 244/1/5 243/1/5
f 250/4/5 245/4/5 244/4/5
f 250/1/5 244/1/5 249/1/5
f 251/4/5 245/4/5 250/4/5
f 252/4/5 247/4/5 246/4/5
f 253/1/5 248/1/5 247/1/5
f 253/4/5 247/4/5 252/4/5
f 254/1/5 248/1/5 253/1/5
f 255/4/5 252/4/5 251/4/5
f 255/4/5 251/4/5 250/4/5
f 255/4/5 253/4/5 252/4/5
f 256/4/5 253/4/5 255/4/5
f 259/2/5 258/2/5 257/2/5
f 260/2/5 258/2/5 259/2/5
f 263/1/5 262/1/5 261/1/5
f 264/1/5 262/1/5 263/1/5
f 265/1/5 263/1/5 261/1/5
f 266/1/5 263/1/5 265/1/5
f 267/1/5 262/1/5 264/1/5
f 268/1/5 262/1/5 267/1/5
f 269/2/5 266/2/5 265/2/5
f 269/2/5 267/2/5 266/2/5
f 269/2/5 268/2/5 267/2/5
f 270/2/5 268/2/5 269/2/5
f 273/2/5 272/2/5 271/2/5
f 274/2/5 272/2/5 273/2/5
f 279/3/5 276/3/5 275/3/5
f 280/3/5 276/3/5 279/3/5
f 281/3/5 278/3/5 277/3/5
f 282/3/5 278/3/5 281/3/5
f 285/4/5 284/4/5 283/4/5
f 286/4/5 284/4/5 285/4/5
f 287/4/6 288/4/6 292/4/6
f 288/7/6 289/7/6 293/7/6
f 292/4/6 288/4/6 293/4/6
f 289/4/6 290/4/6 294/4/6
f 293/7/6 289/7/6 294/7/6
f 294/4/6 290/4/6 295/4/6
f 292/4/6 293/4/6 297/4/6
f 291/4/6 292/4/6 297/4/6
f 297/4/6 293/4/6 298/4/6
f 295/4/6 296/4/6 299/4/6
f 294/4/6 295/4/6 299/4/6
f 299/4/6 296/4/6 300/4/6
f 298/4/6 293/4/6 301/4/6
f 301/4/6 293/4/6 302/4/6
f 294/4/6 299/4/6 303/4/6
f 303/4/6 299/4/6 304/4/6
f 305/2/6 306/2/6 307/2/6
f 307/2/6 306/2/6 308/2/6
f 309/3/6 310/3/6 313/3/6
f 313/3/6 310/3/6 314/3/6
f 311/3/6 312/3/6 315/3/6
f 315/3/6 312/3/6 316/3/6
f 317/2/6 318/2/6 319/2/6
f 319/2/6 318/2/6 320/2/6
f 321/2/6 322/2/6 325/2/6
f 323/2/6 324/2/6 326/2/6
f 321/2/6 325/2/6 327/2/6
f 325/2/6 326/2/6 327/2/6
f 327/2/6 326/2/6 328/2/6
f 326/2/6 324/2/6 329/2/6
f 328/2/6 326/2/6 329/2/6
f 329/2/6 324/2/6 330/2/6
f 328/4/6 329/4/6 331/4/6
f 331/4/6 329/4/6 332/4/6
f 333/2/6 334/2/6 335/2/6
f 335/2/6 334/2/6 336/2/6
