# MagicaVoxel @ Ephtracy

# group
o 

# material
mtllib cactus-1.mtl
usemtl palette

# normals
vn -1 0 0
vn 1 0 0
vn 0 0 1
vn 0 0 -1
vn 0 -1 0
vn 0 1 0

# texcoords
vt 0.896484 0.5
vt 0.900391 0.5
vt 0.904297 0.5

# verts
v 0.5 2 0.1
v 0.5 2 -0.1
v 0.5 2.1 0.2
v 0.5 2.1 0.1
v 0.5 2.1 -0.1
v 0.5 2.1 -0.2
v 0.5 2.2 -0.1
v 0.5 2.2 -0.2
v 0.5 2.3 0.2
v 0.5 2.3 0.1
v 0.5 2.3 -0.1
v 0.5 2.3 -0.2
v 0.5 2.4 0.1
v 0.5 2.4 -0.1
v 0.6 2.1 0
v 0.6 2.1 -0.1
v 0.6 2.2 0.3
v 0.6 2.2 0.2
v 0.6 2.2 0
v 0.6 2.2 -0.1
v 0.6 2.3 0.3
v 0.6 2.3 0.2
v 0.6 2.3 0.1
v 0.6 2.3 -0.1
v 0.6 2.3 -0.2
v 0.6 2.4 0.2
v 0.6 2.4 0.1
v 0.6 2.4 -0.1
v 0.6 2.4 -0.2
v 0.6 2.5 0.1
v 0.6 2.5 -0.1
v 0.7 2.1 0.1
v 0.7 2.1 0
v 0.7 2.2 0.1
v 0.7 2.2 0
v 0.7 2.2 -0.1
v 0.7 2.3 0.1
v 0.7 2.3 -0.1
v 0.7 2.4 0.2
v 0.7 2.4 0.1
v 0.7 2.4 -0.1
v 0.7 2.4 -0.2
v 0.7 2.5 0.2
v 0.7 2.5 0.1
v 0.7 2.5 -0.1
v 0.7 2.5 -0.2
v 0.7 2.9 0
v 0.7 2.9 -0.1
v 0.7 3 0.1
v 0.7 3 0
v 0.7 3 -0.1
v 0.8 2.2 0.3
v 0.8 2.2 0.2
v 0.8 2.3 0.3
v 0.8 2.3 0.2
v 0.8 2.5 0.3
v 0.8 2.5 0.2
v 0.8 2.5 0.1
v 0.8 2.5 -0.1
v 0.8 2.5 -0.2
v 0.8 2.6 0.3
v 0.8 2.6 0.2
v 0.8 2.6 0.1
v 0.8 2.9 0.3
v 0.8 2.9 0.2
v 0.8 2.9 0.1
v 0.8 2.9 -0.1
v 0.8 3 0.3
v 0.8 3 0.1
v 0.8 3 0
v 0.8 3 -0.1
v 0.8 3 -0.2
v 0.8 3.2 0.1
v 0.8 3.2 -0.1
v 0.9 2.4 0.3
v 0.9 2.4 0.2
v 0.9 2.4 -0.2
v 0.9 2.4 -0.3
v 0.9 2.5 0.3
v 0.9 2.5 0.2
v 0.9 2.5 -0.2
v 0.9 2.5 -0.3
v 0.9 2.8 -0.2
v 0.9 2.8 -0.3
v 0.9 2.9 -0.2
v 0.9 2.9 -0.3
v 0.7 2.2 0.3
v 0.7 2.2 0.2
v 0.7 2.3 0.3
v 0.7 2.3 0.2
v 0.8 2 0.1
v 0.8 2 -0.1
v 0.8 2.1 0.2
v 0.8 2.1 0.1
v 0.8 2.1 -0.1
v 0.8 2.1 -0.2
v 0.8 2.2 0.2
v 0.8 2.2 0.1
v 0.8 2.2 -0.1
v 0.8 2.2 -0.2
v 0.9 2.1 0.1
v 0.9 2.1 -0.1
v 0.9 2.2 0.3
v 0.9 2.2 0.1
v 0.9 2.2 -0.1
v 0.9 2.2 -0.2
v 0.9 2.3 0.3
v 0.9 2.3 0.2
v 0.9 2.3 0.1
v 0.9 2.3 -0.1
v 0.9 2.3 -0.2
v 0.9 2.5 0.3
v 0.9 2.5 0.2
v 0.9 2.6 0.3
v 0.9 2.6 0.2
v 0.9 2.9 0.3
v 0.9 2.9 0.2
v 0.9 3 0.3
v 0.9 3 0.2
v 1 2.2 0.1
v 1 2.2 -0.1
v 1 2.3 0.2
v 1 2.3 0.1
v 1 2.3 -0.1
v 1 2.3 -0.2
v 1 2.4 0.3
v 1 2.4 0.2
v 1 2.4 0.1
v 1 2.4 -0.1
v 1 2.4 -0.2
v 1 2.4 -0.3
v 1 2.5 0.3
v 1 2.5 0.2
v 1 2.5 0.1
v 1 2.5 -0.1
v 1 2.5 -0.2
v 1 2.5 -0.3
v 1 2.8 -0.1
v 1 2.8 -0.2
v 1 2.8 -0.3
v 1 2.9 -0.1
v 1 2.9 -0.2
v 1 2.9 -0.3
v 1 3 0.2
v 1 3 0.1
v 1 3 -0.1
v 1 3 -0.2
v 1 3.2 0.1
v 1 3.2 -0.1
v 1.1 2.3 0.1
v 1.1 2.3 -0.1
v 1.1 2.4 0.1
v 1.1 2.4 0
v 1.1 2.5 0.1
v 1.1 2.5 0
v 1.1 2.8 0
v 1.1 2.8 -0.1
v 1.1 2.9 0
v 1.1 2.9 -0.1
v 1.1 3 0.1
v 1.1 3 -0.1
v 1.2 2.4 0.1
v 1.2 2.4 0
v 1.2 2.5 0.1
v 1.2 2.5 0
v 1.2 2.8 0
v 1.2 2.8 -0.1
v 1.2 2.9 0
v 1.2 2.9 -0.1
v 0.6 2.2 0.3
v 0.6 2.3 0.3
v 0.7 2.2 0.3
v 0.7 2.3 0.3
v 0.8 2.2 0.3
v 0.8 2.3 0.3
v 0.8 2.5 0.3
v 0.8 2.6 0.3
v 0.8 2.9 0.3
v 0.8 3 0.3
v 0.9 2.2 0.3
v 0.9 2.3 0.3
v 0.9 2.4 0.3
v 0.9 2.5 0.3
v 0.9 2.6 0.3
v 0.9 2.9 0.3
v 0.9 3 0.3
v 1 2.4 0.3
v 1 2.5 0.3
v 0.5 2.1 0.2
v 0.5 2.3 0.2
v 0.6 2.1 0.2
v 0.6 2.2 0.2
v 0.6 2.3 0.2
v 0.6 2.4 0.2
v 0.7 2.1 0.2
v 0.7 2.2 0.2
v 0.7 2.3 0.2
v 0.7 2.4 0.2
v 0.7 2.5 0.2
v 0.8 2.1 0.2
v 0.8 2.2 0.2
v 0.8 2.3 0.2
v 0.8 2.5 0.2
v 0.8 2.6 0.2
v 0.8 2.9 0.2
v 0.9 2.3 0.2
v 0.9 2.4 0.2
v 0.9 2.5 0.2
v 0.9 2.6 0.2
v 0.9 2.9 0.2
v 0.9 3 0.2
v 1 2.3 0.2
v 1 2.4 0.2
v 1 2.5 0.2
v 1 3 0.2
v 0.5 2 0.1
v 0.5 2.1 0.1
v 0.5 2.3 0.1
v 0.5 2.4 0.1
v 0.6 2 0.1
v 0.6 2.1 0.1
v 0.6 2.3 0.1
v 0.6 2.4 0.1
v 0.6 2.5 0.1
v 0.7 2 0.1
v 0.7 2.1 0.1
v 0.7 2.4 0.1
v 0.7 2.5 0.1
v 0.7 3 0.1
v 0.8 2 0.1
v 0.8 2.1 0.1
v 0.8 2.2 0.1
v 0.8 2.5 0.1
v 0.8 2.6 0.1
v 0.8 2.9 0.1
v 0.8 3 0.1
v 0.8 3.2 0.1
v 0.9 2.1 0.1
v 0.9 2.2 0.1
v 0.9 2.3 0.1
v 0.9 3 0.1
v 0.9 3.2 0.1
v 1 2.2 0.1
v 1 2.3 0.1
v 1 2.4 0.1
v 1 2.5 0.1
v 1 3 0.1
v 1 3.2 0.1
v 1.1 2.3 0.1
v 1.1 2.4 0.1
v 1.1 2.5 0.1
v 1.1 3 0.1
v 1.2 2.4 0.1
v 1.2 2.5 0.1
v 0.6 2.1 0
v 0.6 2.2 0
v 0.7 2.1 0
v 0.7 2.2 0
v 1.1 2.8 0
v 1.1 2.9 0
v 1.2 2.8 0
v 1.2 2.9 0
v 0.5 2.1 -0.1
v 0.5 2.2 -0.1
v 0.5 2.3 -0.1
v 0.6 2.1 -0.1
v 0.6 2.2 -0.1
v 0.6 2.3 -0.1
v 0.7 2.2 -0.1
v 0.7 2.3 -0.1
v 0.5 2.1 0.1
v 0.5 2.3 0.1
v 0.6 2.1 0.1
v 0.6 2.2 0.1
v 0.6 2.3 0.1
v 0.7 2.1 0.1
v 0.7 2.2 0.1
v 0.7 2.3 0.1
v 1.1 2.4 0
v 1.1 2.5 0
v 1.2 2.4 0
v 1.2 2.5 0
v 0.5 2 -0.1
v 0.5 2.1 -0.1
v 0.5 2.3 -0.1
v 0.5 2.4 -0.1
v 0.6 2 -0.1
v 0.6 2.1 -0.1
v 0.6 2.3 -0.1
v 0.6 2.4 -0.1
v 0.6 2.5 -0.1
v 0.7 2 -0.1
v 0.7 2.1 -0.1
v 0.7 2.4 -0.1
v 0.7 2.5 -0.1
v 0.7 2.9 -0.1
v 0.7 3 -0.1
v 0.8 2 -0.1
v 0.8 2.1 -0.1
v 0.8 2.2 -0.1
v 0.8 2.5 -0.1
v 0.8 2.9 -0.1
v 0.8 3 -0.1
v 0.8 3.2 -0.1
v 0.9 2.1 -0.1
v 0.9 2.2 -0.1
v 0.9 2.3 -0.1
v 0.9 3 -0.1
v 0.9 3.2 -0.1
v 1 2.2 -0.1
v 1 2.3 -0.1
v 1 2.4 -0.1
v 1 2.5 -0.1
v 1 2.8 -0.1
v 1 2.9 -0.1
v 1 3 -0.1
v 1 3.2 -0.1
v 1.1 2.3 -0.1
v 1.1 2.8 -0.1
v 1.1 2.9 -0.1
v 1.1 3 -0.1
v 1.2 2.8 -0.1
v 1.2 2.9 -0.1
v 0.5 2.1 -0.2
v 0.5 2.2 -0.2
v 0.5 2.3 -0.2
v 0.6 2.1 -0.2
v 0.6 2.2 -0.2
v 0.6 2.3 -0.2
v 0.6 2.4 -0.2
v 0.7 2.1 -0.2
v 0.7 2.3 -0.2
v 0.7 2.4 -0.2
v 0.7 2.5 -0.2
v 0.8 2.1 -0.2
v 0.8 2.2 -0.2
v 0.8 2.3 -0.2
v 0.8 2.4 -0.2
v 0.8 2.5 -0.2
v 0.8 3 -0.2
v 0.9 2.2 -0.2
v 0.9 2.3 -0.2
v 0.9 2.4 -0.2
v 0.9 2.5 -0.2
v 0.9 2.8 -0.2
v 0.9 2.9 -0.2
v 0.9 3 -0.2
v 1 2.3 -0.2
v 1 2.4 -0.2
v 1 2.5 -0.2
v 1 2.8 -0.2
v 1 2.9 -0.2
v 1 3 -0.2
v 0.9 2.4 -0.3
v 0.9 2.5 -0.3
v 0.9 2.8 -0.3
v 0.9 2.9 -0.3
v 1 2.4 -0.3
v 1 2.5 -0.3
v 1 2.8 -0.3
v 1 2.9 -0.3
v 0.5 2 0.1
v 0.6 2 0.1
v 0.7 2 0.1
v 0.8 2 0.1
v 0.5 2 -0.1
v 0.6 2 -0.1
v 0.7 2 -0.1
v 0.8 2 -0.1
v 0.5 2.1 0.2
v 0.6 2.1 0.2
v 0.7 2.1 0.2
v 0.8 2.1 0.2
v 0.5 2.1 0.1
v 0.6 2.1 0.1
v 0.7 2.1 0.1
v 0.8 2.1 0.1
v 0.9 2.1 0.1
v 0.5 2.1 -0.1
v 0.6 2.1 -0.1
v 0.7 2.1 -0.1
v 0.8 2.1 -0.1
v 0.9 2.1 -0.1
v 0.5 2.1 -0.2
v 0.6 2.1 -0.2
v 0.7 2.1 -0.2
v 0.8 2.1 -0.2
v 0.6 2.2 0.3
v 0.7 2.2 0.3
v 0.8 2.2 0.3
v 0.9 2.2 0.3
v 0.6 2.2 0.2
v 0.7 2.2 0.2
v 0.8 2.2 0.2
v 0.8 2.2 0.1
v 0.9 2.2 0.1
v 1 2.2 0.1
v 0.8 2.2 -0.1
v 0.9 2.2 -0.1
v 1 2.2 -0.1
v 0.8 2.2 -0.2
v 0.9 2.2 -0.2
v 0.9 2.3 0.2
v 1 2.3 0.2
v 0.5 2.3 0.1
v 0.6 2.3 0.1
v 0.7 2.3 0.1
v 0.9 2.3 0.1
v 1 2.3 0.1
v 1.1 2.3 0.1
v 0.5 2.3 -0.1
v 0.6 2.3 -0.1
v 0.7 2.3 -0.1
v 0.9 2.3 -0.1
v 1 2.3 -0.1
v 1.1 2.3 -0.1
v 0.9 2.3 -0.2
v 1 2.3 -0.2
v 0.9 2.4 0.3
v 1 2.4 0.3
v 0.9 2.4 0.2
v 1 2.4 0.2
v 1.1 2.4 0.1
v 1.2 2.4 0.1
v 1.1 2.4 0
v 1.2 2.4 0
v 0.9 2.4 -0.2
v 1 2.4 -0.2
v 0.9 2.4 -0.3
v 1 2.4 -0.3
v 0.8 2.5 0.3
v 0.9 2.5 0.3
v 0.8 2.5 0.2
v 0.9 2.5 0.2
v 1.1 2.8 0
v 1.2 2.8 0
v 1.1 2.8 -0.1
v 1.2 2.8 -0.1
v 0.9 2.8 -0.2
v 1 2.8 -0.2
v 0.9 2.8 -0.3
v 1 2.8 -0.3
v 0.8 2.9 0.3
v 0.9 2.9 0.3
v 0.8 2.9 0.2
v 0.9 2.9 0.2
v 0.5 2.1 0.1
v 0.6 2.1 0.1
v 0.7 2.1 0.1
v 0.6 2.1 0
v 0.7 2.1 0
v 0.5 2.1 -0.1
v 0.6 2.1 -0.1
v 0.6 2.2 0
v 0.7 2.2 0
v 0.6 2.2 -0.1
v 0.7 2.2 -0.1
v 0.6 2.3 0.3
v 0.7 2.3 0.3
v 0.8 2.3 0.3
v 0.9 2.3 0.3
v 0.5 2.3 0.2
v 0.6 2.3 0.2
v 0.7 2.3 0.2
v 0.8 2.3 0.2
v 0.9 2.3 0.2
v 0.5 2.3 0.1
v 0.6 2.3 0.1
v 0.5 2.3 -0.1
v 0.6 2.3 -0.1
v 0.5 2.3 -0.2
v 0.6 2.3 -0.2
v 0.6 2.4 0.2
v 0.7 2.4 0.2
v 0.5 2.4 0.1
v 0.6 2.4 0.1
v 0.7 2.4 0.1
v 0.5 2.4 -0.1
v 0.6 2.4 -0.1
v 0.7 2.4 -0.1
v 0.6 2.4 -0.2
v 0.7 2.4 -0.2
v 0.9 2.5 0.3
v 1 2.5 0.3
v 0.7 2.5 0.2
v 0.8 2.5 0.2
v 0.9 2.5 0.2
v 1 2.5 0.2
v 0.6 2.5 0.1
v 0.7 2.5 0.1
v 0.8 2.5 0.1
v 1.1 2.5 0.1
v 1.2 2.5 0.1
v 1.1 2.5 0
v 1.2 2.5 0
v 0.6 2.5 -0.1
v 0.7 2.5 -0.1
v 0.8 2.5 -0.1
v 0.7 2.5 -0.2
v 0.8 2.5 -0.2
v 0.9 2.5 -0.2
v 1 2.5 -0.2
v 0.9 2.5 -0.3
v 1 2.5 -0.3
v 0.8 2.6 0.3
v 0.9 2.6 0.3
v 0.8 2.6 0.2
v 0.9 2.6 0.2
v 1.1 2.9 0
v 1.2 2.9 0
v 1.1 2.9 -0.1
v 1.2 2.9 -0.1
v 0.9 2.9 -0.2
v 1 2.9 -0.2
v 0.9 2.9 -0.3
v 1 2.9 -0.3
v 0.8 3 0.3
v 0.9 3 0.3
v 0.9 3 0.2
v 1 3 0.2
v 0.7 3 0.1
v 0.8 3 0.1
v 0.9 3 0.1
v 1 3 0.1
v 1.1 3 0.1
v 0.7 3 0
v 0.8 3 0
v 0.7 3 -0.1
v 0.8 3 -0.1
v 0.9 3 -0.1
v 1 3 -0.1
v 1.1 3 -0.1
v 0.8 3 -0.2
v 0.9 3 -0.2
v 1 3 -0.2
v 0.8 3.2 0.1
v 0.9 3.2 0.1
v 1 3.2 0.1
v 0.8 3.2 -0.1
v 0.9 3.2 -0.1
v 1 3.2 -0.1

# faces
f 4/2/1 2/2/1 1/2/1
f 5/2/1 2/2/1 4/2/1
f 7/2/1 6/2/1 5/2/1
f 8/2/1 6/2/1 7/2/1
f 9/2/1 4/2/1 3/2/1
f 10/2/1 4/2/1 9/2/1
f 11/1/1 8/1/1 7/1/1
f 12/1/1 8/1/1 11/1/1
f 13/2/1 11/2/1 10/2/1
f 14/2/1 11/2/1 13/2/1
f 19/3/1 16/3/1 15/3/1
f 20/3/1 16/3/1 19/3/1
f 21/1/1 18/1/1 17/1/1
f 22/1/1 18/1/1 21/1/1
f 26/3/1 23/3/1 22/3/1
f 27/3/1 23/3/1 26/3/1
f 28/3/1 25/3/1 24/3/1
f 29/3/1 25/3/1 28/3/1
f 30/3/1 28/3/1 27/3/1
f 31/3/1 28/3/1 30/3/1
f 34/3/1 33/3/1 32/3/1
f 35/3/1 33/3/1 34/3/1
f 37/3/1 35/3/1 34/3/1
f 37/3/1 36/3/1 35/3/1
f 38/3/1 36/3/1 37/3/1
f 43/2/1 40/2/1 39/2/1
f 44/2/1 40/2/1 43/2/1
f 45/2/1 42/2/1 41/2/1
f 46/2/1 42/2/1 45/2/1
f 47/2/1 45/2/1 44/2/1
f 48/2/1 45/2/1 47/2/1
f 49/2/1 47/2/1 44/2/1
f 50/1/1 48/1/1 47/1/1
f 50/2/1 47/2/1 49/2/1
f 51/1/1 48/1/1 50/1/1
f 54/1/1 53/1/1 52/1/1
f 55/1/1 53/1/1 54/1/1
f 61/1/1 57/1/1 56/1/1
f 61/1/1 58/1/1 57/1/1
f 62/1/1 58/1/1 61/1/1
f 63/1/1 58/1/1 62/1/1
f 65/3/1 63/3/1 62/3/1
f 66/3/1 63/3/1 65/3/1
f 67/3/1 60/3/1 59/3/1
f 68/1/1 66/1/1 65/1/1
f 68/1/1 65/1/1 64/1/1
f 69/1/1 66/1/1 68/1/1
f 71/3/1 60/3/1 67/3/1
f 72/3/1 60/3/1 71/3/1
f 73/3/1 70/3/1 69/3/1
f 73/3/1 71/3/1 70/3/1
f 74/3/1 71/3/1 73/3/1
f 79/1/1 76/1/1 75/1/1
f 80/1/1 76/1/1 79/1/1
f 81/1/1 78/1/1 77/1/1
f 82/1/1 78/1/1 81/1/1
f 85/1/1 84/1/1 83/1/1
f 86/1/1 84/1/1 85/1/1
f 87/1/2 88/1/2 89/1/2
f 89/1/2 88/1/2 90/1/2
f 91/2/2 92/2/2 94/2/2
f 94/2/2 92/2/2 95/2/2
f 93/2/2 94/2/2 97/2/2
f 97/2/2 94/2/2 98/2/2
f 95/2/2 96/2/2 99/2/2
f 99/2/2 96/2/2 100/2/2
f 101/3/2 102/3/2 104/3/2
f 104/3/2 102/3/2 105/3/2
f 103/1/2 104/1/2 107/1/2
f 107/1/2 104/1/2 108/1/2
f 108/1/2 104/1/2 109/1/2
f 105/3/2 106/3/2 110/3/2
f 110/3/2 106/3/2 111/3/2
f 112/1/2 113/1/2 114/1/2
f 114/1/2 113/1/2 115/1/2
f 116/1/2 117/1/2 118/1/2
f 118/1/2 117/1/2 119/1/2
f 120/2/2 121/2/2 123/2/2
f 123/2/2 121/2/2 124/2/2
f 122/2/2 123/2/2 127/2/2
f 127/2/2 123/2/2 128/2/2
f 124/2/2 125/2/2 129/2/2
f 129/2/2 125/2/2 130/2/2
f 127/1/2 128/1/2 132/1/2
f 126/1/2 127/1/2 132/1/2
f 132/1/2 128/1/2 133/1/2
f 133/1/2 128/1/2 134/1/2
f 130/1/2 131/1/2 135/1/2
f 129/1/2 130/1/2 135/1/2
f 135/1/2 131/1/2 136/1/2
f 136/1/2 131/1/2 137/1/2
f 135/2/2 136/2/2 138/2/2
f 138/2/2 136/2/2 139/2/2
f 138/1/2 139/1/2 141/1/2
f 139/1/2 140/1/2 141/1/2
f 141/1/2 140/1/2 142/1/2
f 142/1/2 140/1/2 143/1/2
f 133/2/2 134/2/2 144/2/2
f 144/2/2 134/2/2 145/2/2
f 141/2/2 142/2/2 146/2/2
f 146/2/2 142/2/2 147/2/2
f 145/2/2 146/2/2 148/2/2
f 148/2/2 146/2/2 149/2/2
f 150/3/2 151/3/2 152/3/2
f 152/3/2 151/3/2 153/3/2
f 153/3/2 151/3/2 155/3/2
f 155/3/2 151/3/2 156/3/2
f 154/3/2 155/3/2 156/3/2
f 156/3/2 151/3/2 157/3/2
f 154/3/2 156/3/2 158/3/2
f 154/3/2 158/3/2 160/3/2
f 158/3/2 159/3/2 160/3/2
f 160/3/2 159/3/2 161/3/2
f 162/1/2 163/1/2 164/1/2
f 164/1/2 163/1/2 165/1/2
f 166/1/2 167/1/2 168/1/2
f 168/1/2 167/1/2 169/1/2
f 172/1/3 171/1/3 170/1/3
f 173/1/3 171/1/3 172/1/3
f 180/1/3 175/1/3 174/1/3
f 181/1/3 175/1/3 180/1/3
f 183/1/3 177/1/3 176/1/3
f 184/1/3 177/1/3 183/1/3
f 185/1/3 179/1/3 178/1/3
f 186/1/3 179/1/3 185/1/3
f 187/1/3 183/1/3 182/1/3
f 188/1/3 183/1/3 187/1/3
f 191/2/3 190/2/3 189/2/3
f 192/2/3 190/2/3 191/2/3
f 193/2/3 190/2/3 192/2/3
f 195/3/3 192/3/3 191/3/3
f 196/3/3 192/3/3 195/3/3
f 197/3/3 194/3/3 193/3/3
f 198/3/3 194/3/3 197/3/3
f 200/2/3 196/2/3 195/2/3
f 200/2/3 199/2/3 198/2/3
f 200/2/3 198/2/3 197/2/3
f 200/2/3 197/2/3 196/2/3
f 201/2/3 199/2/3 200/2/3
f 202/2/3 199/2/3 201/2/3
f 203/2/3 199/2/3 202/2/3
f 206/3/3 203/3/3 202/3/3
f 207/3/3 203/3/3 206/3/3
f 208/3/3 203/3/3 207/3/3
f 209/3/3 205/3/3 204/3/3
f 210/3/3 205/3/3 209/3/3
f 212/2/3 207/2/3 206/2/3
f 213/2/3 207/2/3 212/2/3
f 214/2/3 211/2/3 210/2/3
f 214/2/3 210/2/3 209/2/3
f 214/2/3 209/2/3 208/2/3
f 215/2/3 211/2/3 214/2/3
f 220/2/3 217/2/3 216/2/3
f 221/2/3 217/2/3 220/2/3
f 222/2/3 219/2/3 218/2/3
f 223/2/3 219/2/3 222/2/3
f 225/3/3 221/3/3 220/3/3
f 226/3/3 221/3/3 225/3/3
f 227/3/3 224/3/3 223/3/3
f 228/3/3 224/3/3 227/3/3
f 230/2/3 226/2/3 225/2/3
f 231/2/3 226/2/3 230/2/3
f 233/2/3 229/2/3 228/2/3
f 234/2/3 229/2/3 233/2/3
f 235/2/3 229/2/3 234/2/3
f 236/2/3 229/2/3 235/2/3
f 238/3/3 232/3/3 231/3/3
f 239/3/3 232/3/3 238/3/3
f 241/3/3 237/3/3 236/3/3
f 242/3/3 237/3/3 241/3/3
f 243/2/3 240/2/3 239/2/3
f 244/2/3 240/2/3 243/2/3
f 247/2/3 242/2/3 241/2/3
f 248/2/3 242/2/3 247/2/3
f 249/3/3 245/3/3 244/3/3
f 250/1/3 246/1/3 245/1/3
f 250/3/3 245/3/3 249/3/3
f 251/3/3 247/3/3 246/3/3
f 251/1/3 246/1/3 250/1/3
f 252/3/3 247/3/3 251/3/3
f 253/1/3 251/1/3 250/1/3
f 254/1/3 251/1/3 253/1/3
f 257/3/3 256/3/3 255/3/3
f 258/3/3 256/3/3 257/3/3
f 261/1/3 260/1/3 259/1/3
f 262/1/3 260/1/3 261/1/3
f 266/2/3 264/2/3 263/2/3
f 267/1/3 265/1/3 264/1/3
f 267/2/3 264/2/3 266/2/3
f 268/1/3 265/1/3 267/1/3
f 269/3/3 268/3/3 267/3/3
f 270/3/3 268/3/3 269/3/3
f 271/2/4 272/2/4 273/2/4
f 273/2/4 272/2/4 274/2/4
f 274/2/4 272/2/4 275/2/4
f 273/3/4 274/3/4 276/3/4
f 274/1/4 275/1/4 277/1/4
f 276/3/4 274/3/4 277/3/4
f 277/1/4 275/1/4 278/1/4
f 279/1/4 280/1/4 281/1/4
f 281/1/4 280/1/4 282/1/4
f 283/2/4 284/2/4 287/2/4
f 287/2/4 284/2/4 288/2/4
f 285/2/4 286/2/4 289/2/4
f 289/2/4 286/2/4 290/2/4
f 287/3/4 288/3/4 292/3/4
f 292/3/4 288/3/4 293/3/4
f 290/3/4 291/3/4 294/3/4
f 294/3/4 291/3/4 295/3/4
f 292/2/4 293/2/4 298/2/4
f 298/2/4 293/2/4 299/2/4
f 295/2/4 296/2/4 301/2/4
f 296/1/4 297/1/4 302/1/4
f 301/2/4 296/2/4 302/2/4
f 302/1/4 297/1/4 303/1/4
f 299/3/4 300/3/4 305/3/4
f 305/3/4 300/3/4 306/3/4
f 303/3/4 304/3/4 308/3/4
f 308/3/4 304/3/4 309/3/4
f 306/2/4 307/2/4 310/2/4
f 310/2/4 307/2/4 311/2/4
f 308/2/4 309/2/4 316/2/4
f 316/2/4 309/2/4 317/2/4
f 311/3/4 312/3/4 318/3/4
f 312/3/4 313/3/4 318/3/4
f 313/3/4 314/3/4 318/3/4
f 314/1/4 315/1/4 319/1/4
f 318/3/4 314/3/4 319/3/4
f 315/3/4 316/3/4 320/3/4
f 319/1/4 315/1/4 320/1/4
f 320/3/4 316/3/4 321/3/4
f 319/1/4 320/1/4 322/1/4
f 322/1/4 320/1/4 323/1/4
f 324/2/4 325/2/4 327/2/4
f 325/1/4 326/1/4 328/1/4
f 327/2/4 325/2/4 328/2/4
f 328/1/4 326/1/4 329/1/4
f 327/3/4 328/3/4 331/3/4
f 329/3/4 330/3/4 331/3/4
f 328/3/4 329/3/4 331/3/4
f 331/3/4 330/3/4 332/3/4
f 332/3/4 330/3/4 333/3/4
f 331/2/4 332/2/4 335/2/4
f 335/2/4 332/2/4 336/2/4
f 332/1/4 333/1/4 337/1/4
f 336/2/4 332/2/4 337/2/4
f 333/2/4 334/2/4 338/2/4
f 337/1/4 333/1/4 338/1/4
f 338/2/4 334/2/4 339/2/4
f 336/3/4 337/3/4 341/3/4
f 339/3/4 340/3/4 341/3/4
f 338/3/4 339/3/4 341/3/4
f 337/3/4 338/3/4 341/3/4
f 341/3/4 340/3/4 342/3/4
f 342/3/4 340/3/4 343/3/4
f 343/3/4 340/3/4 344/3/4
f 344/3/4 340/3/4 345/3/4
f 345/3/4 340/3/4 346/3/4
f 346/3/4 340/3/4 347/3/4
f 342/2/4 343/2/4 348/2/4
f 348/2/4 343/2/4 349/2/4
f 344/2/4 345/2/4 350/2/4
f 350/2/4 345/2/4 351/2/4
f 346/2/4 347/2/4 352/2/4
f 352/2/4 347/2/4 353/2/4
f 354/1/4 355/1/4 358/1/4
f 358/1/4 355/1/4 359/1/4
f 356/1/4 357/1/4 360/1/4
f 360/1/4 357/1/4 361/1/4
f 366/2/5 363/2/5 362/2/5
f 367/3/5 364/3/5 363/3/5
f 367/2/5 363/2/5 366/2/5
f 368/2/5 365/2/5 364/2/5
f 368/3/5 364/3/5 367/3/5
f 369/2/5 365/2/5 368/2/5
f 374/2/5 371/2/5 370/2/5
f 375/3/5 372/3/5 371/3/5
f 375/2/5 371/2/5 374/2/5
f 376/2/5 373/2/5 372/2/5
f 376/3/5 372/3/5 375/3/5
f 377/2/5 373/2/5 376/2/5
f 382/3/5 378/3/5 377/3/5
f 383/3/5 378/3/5 382/3/5
f 384/2/5 380/2/5 379/2/5
f 385/3/5 381/3/5 380/3/5
f 385/2/5 380/2/5 384/2/5
f 386/2/5 382/2/5 381/2/5
f 386/3/5 381/3/5 385/3/5
f 387/2/5 382/2/5 386/2/5
f 392/1/5 389/1/5 388/1/5
f 393/1/5 389/1/5 392/1/5
f 394/1/5 391/1/5 390/1/5
f 395/1/5 391/1/5 394/1/5
f 396/1/5 391/1/5 395/1/5
f 399/2/5 397/2/5 396/2/5
f 400/2/5 397/2/5 399/2/5
f 401/3/5 399/3/5 398/3/5
f 402/3/5 399/3/5 401/3/5
f 408/2/5 404/2/5 403/2/5
f 409/2/5 404/2/5 408/2/5
f 411/2/5 406/2/5 405/2/5
f 412/3/5 407/3/5 406/3/5
f 412/2/5 406/2/5 411/2/5
f 413/3/5 407/3/5 412/3/5
f 415/3/5 410/3/5 409/3/5
f 416/3/5 410/3/5 415/3/5
f 417/2/5 415/2/5 414/2/5
f 418/2/5 415/2/5 417/2/5
f 421/1/5 420/1/5 419/1/5
f 422/1/5 420/1/5 421/1/5
f 425/1/5 424/1/5 423/1/5
f 426/1/5 424/1/5 425/1/5
f 429/1/5 428/1/5 427/1/5
f 430/1/5 428/1/5 429/1/5
f 433/1/5 432/1/5 431/1/5
f 434/1/5 432/1/5 433/1/5
f 437/1/5 436/1/5 435/1/5
f 438/1/5 436/1/5 437/1/5
f 441/1/5 440/1/5 439/1/5
f 442/1/5 440/1/5 441/1/5
f 445/1/5 444/1/5 443/1/5
f 446/1/5 444/1/5 445/1/5
f 447/2/6 448/2/6 450/2/6
f 448/3/6 449/3/6 450/3/6
f 450/3/6 449/3/6 451/3/6
f 447/2/6 450/2/6 452/2/6
f 452/2/6 450/2/6 453/2/6
f 454/3/6 455/3/6 456/3/6
f 456/3/6 455/3/6 457/3/6
f 458/1/6 459/1/6 463/1/6
f 463/1/6 459/1/6 464/1/6
f 460/1/6 461/1/6 465/1/6
f 465/1/6 461/1/6 466/1/6
f 462/2/6 463/2/6 467/2/6
f 467/2/6 463/2/6 468/2/6
f 469/1/6 470/1/6 471/1/6
f 471/1/6 470/1/6 472/1/6
f 473/3/6 474/3/6 476/3/6
f 476/3/6 474/3/6 477/3/6
f 475/2/6 476/2/6 478/2/6
f 478/2/6 476/2/6 479/2/6
f 479/3/6 480/3/6 481/3/6
f 481/3/6 480/3/6 482/3/6
f 483/1/6 484/1/6 487/1/6
f 487/1/6 484/1/6 488/1/6
f 485/2/6 486/2/6 490/2/6
f 490/2/6 486/2/6 491/2/6
f 492/1/6 493/1/6 494/1/6
f 494/1/6 493/1/6 495/1/6
f 489/3/6 490/3/6 496/3/6
f 496/3/6 490/3/6 497/3/6
f 497/2/6 498/2/6 499/2/6
f 499/2/6 498/2/6 500/2/6
f 501/1/6 502/1/6 503/1/6
f 503/1/6 502/1/6 504/1/6
f 505/1/6 506/1/6 507/1/6
f 507/1/6 506/1/6 508/1/6
f 509/1/6 510/1/6 511/1/6
f 511/1/6 510/1/6 512/1/6
f 513/1/6 514/1/6 515/1/6
f 515/1/6 514/1/6 516/1/6
f 517/1/6 518/1/6 519/1/6
f 517/1/6 519/1/6 522/1/6
f 519/2/6 520/2/6 523/2/6
f 522/1/6 519/1/6 523/1/6
f 523/2/6 520/2/6 524/2/6
f 521/2/6 522/2/6 526/2/6
f 526/2/6 522/2/6 527/2/6
f 526/1/6 527/1/6 528/1/6
f 528/1/6 527/1/6 529/1/6
f 524/3/6 525/3/6 531/3/6
f 531/3/6 525/3/6 532/3/6
f 529/3/6 530/3/6 533/3/6
f 530/2/6 531/2/6 534/2/6
f 533/3/6 530/3/6 534/3/6
f 534/2/6 531/2/6 535/2/6
f 536/3/6 537/3/6 539/3/6
f 537/2/6 538/2/6 540/2/6
f 539/3/6 537/3/6 540/3/6
f 540/2/6 538/2/6 541/2/6
