# MagicaVoxel @ Ephtracy

# group
o 

# material
mtllib cactus-0.mtl
usemtl palette

# normals
vn -1 0 0
vn 1 0 0
vn 0 0 1
vn 0 0 -1
vn 0 -1 0
vn 0 1 0

# texcoords
vt 0.896484 0.5
vt 0.900391 0.5
vt 0.904297 0.5

# verts
v -1.1 2.7 0.1
v -1.1 2.7 0
v -1.1 2.8 0.1
v -1.1 2.8 0
v -1.1 3 0
v -1.1 3 -0.1
v -1.1 3.1 0
v -1.1 3.1 -0.1
v -1 2.7 0
v -1 2.7 -0.1
v -1 2.8 0.1
v -1 2.8 0
v -1 3 0
v -1 3 -0.1
v -1 3.1 0.1
v -1 3.1 0
v -0.9 2.6 0.1
v -0.9 2.6 -0.1
v -0.9 2.7 0.2
v -0.9 2.7 0.1
v -0.9 2.7 -0.1
v -0.9 2.7 -0.2
v -0.9 3 0.3
v -0.9 3 0.2
v -0.9 3 0.1
v -0.9 3 -0.1
v -0.9 3 -0.2
v -0.9 3 -0.3
v -0.9 3.1 0.3
v -0.9 3.1 0.1
v -0.9 3.1 0
v -0.9 3.1 -0.1
v -0.9 3.1 -0.3
v -0.9 3.2 0.1
v -0.9 3.2 -0.1
v -0.8 2.5 0.1
v -0.8 2.5 -0.1
v -0.8 2.6 0.1
v -0.8 2.6 -0.1
v -0.8 2.8 0.3
v -0.8 2.8 0.2
v -0.8 2.9 0.3
v -0.8 2.9 0.2
v -0.7 2.3 0.1
v -0.7 2.3 0
v -0.7 2.4 0.1
v -0.7 2.4 0
v -0.7 2.4 -0.1
v -0.7 2.5 0.1
v -0.7 2.5 -0.1
v -0.7 2.6 0.2
v -0.7 2.6 0.1
v -0.7 2.6 -0.1
v -0.7 2.6 -0.2
v -0.7 2.7 0.2
v -0.7 2.7 0.1
v -0.7 2.7 0
v -0.7 2.7 -0.1
v -0.7 2.7 -0.2
v -0.7 2.8 0.1
v -0.7 2.8 0
v -0.7 2.8 -0.1
v -0.7 2.9 0.1
v -0.7 2.9 0
v -0.7 2.9 -0.1
v -0.7 3 0
v -0.7 3 -0.1
v -0.7 3.1 0.1
v -0.7 3.1 -0.1
v -0.6 2.5 0.2
v -0.6 2.5 0.1
v -0.6 2.5 -0.1
v -0.6 2.5 -0.3
v -0.6 2.6 0.2
v -0.6 2.6 0.1
v -0.6 2.6 -0.1
v -0.6 2.6 -0.2
v -0.6 2.6 -0.3
v -0.6 2.7 0
v -0.6 2.7 -0.1
v -0.6 2.8 0
v -0.6 2.8 -0.1
v -0.5 2.5 0.3
v -0.5 2.5 0.2
v -0.5 2.6 0.3
v -0.5 2.6 0.2
v -0.5 2.6 -0.2
v -0.5 2.6 -0.3
v -0.5 2.7 -0.2
v -0.5 2.7 -0.3
v -0.9 2.7 0
v -0.9 2.7 -0.1
v -0.9 2.8 0.1
v -0.9 2.8 0
v -0.9 3 0.1
v -0.9 3 0
v -0.9 3 -0.1
v -0.9 3.1 0.1
v -0.9 3.1 0
v -0.8 2.7 0.1
v -0.8 2.7 0
v -0.8 2.8 0.1
v -0.8 2.8 0
v -0.8 3 0.3
v -0.8 3 0.2
v -0.8 3 0
v -0.8 3 -0.1
v -0.8 3 -0.2
v -0.8 3 -0.3
v -0.8 3.1 0.3
v -0.8 3.1 0.2
v -0.8 3.1 0
v -0.8 3.1 -0.1
v -0.8 3.1 -0.2
v -0.8 3.1 -0.3
v -0.7 2.6 0
v -0.7 2.6 -0.1
v -0.7 2.7 0
v -0.7 2.7 -0.1
v -0.7 2.8 0.3
v -0.7 2.8 0.2
v -0.7 2.8 0.1
v -0.7 2.8 -0.1
v -0.7 2.8 -0.2
v -0.7 2.9 0.3
v -0.7 2.9 0.2
v -0.7 2.9 0.1
v -0.7 2.9 -0.1
v -0.7 3 -0.1
v -0.7 3.1 0.2
v -0.7 3.1 0.1
v -0.7 3.1 -0.1
v -0.7 3.1 -0.2
v -0.7 3.2 0.1
v -0.7 3.2 -0.1
v -0.6 2.3 0.1
v -0.6 2.3 0
v -0.6 2.4 0.1
v -0.6 2.4 0
v -0.6 2.5 0.1
v -0.6 2.5 -0.1
v -0.6 2.6 0.1
v -0.6 2.6 0
v -0.6 2.6 -0.1
v -0.6 2.7 0.2
v -0.6 2.7 0.1
v -0.6 2.7 0
v -0.6 2.7 -0.1
v -0.6 2.7 -0.2
v -0.6 2.8 0.2
v -0.6 2.8 0.1
v -0.6 2.8 -0.1
v -0.6 2.8 -0.2
v -0.6 2.9 0.1
v -0.6 2.9 0
v -0.6 2.9 -0.1
v -0.6 3 0
v -0.6 3 -0.1
v -0.6 3.1 0.1
v -0.6 3.1 -0.1
v -0.5 2.5 -0.2
v -0.5 2.5 -0.3
v -0.5 2.6 -0.2
v -0.5 2.6 -0.3
v -0.5 2.8 0.1
v -0.5 2.8 -0.1
v -0.5 2.9 0.1
v -0.5 2.9 -0.1
v -0.4 2.5 0.3
v -0.4 2.5 0.2
v -0.4 2.6 0.3
v -0.4 2.6 0.2
v -0.4 2.6 -0.2
v -0.4 2.6 -0.3
v -0.4 2.7 -0.2
v -0.4 2.7 -0.3
v -0.3 2.4 0.1
v -0.3 2.4 -0.1
v -0.3 2.5 0.2
v -0.3 2.5 0.1
v -0.3 2.5 -0.1
v -0.3 2.5 -0.2
v -0.3 2.7 0.2
v -0.3 2.7 0.1
v -0.3 2.7 0
v -0.3 2.7 -0.1
v -0.3 2.7 -0.2
v -0.3 2.8 0.1
v -0.3 2.8 0
v -0.3 2.8 -0.1
v -0.9 3 0.3
v -0.9 3.1 0.3
v -0.8 2.8 0.3
v -0.8 2.9 0.3
v -0.8 3 0.3
v -0.8 3.1 0.3
v -0.7 2.8 0.3
v -0.7 2.9 0.3
v -0.5 2.5 0.3
v -0.5 2.6 0.3
v -0.4 2.5 0.3
v -0.4 2.6 0.3
v -0.9 2.7 0.2
v -0.9 3 0.2
v -0.8 2.7 0.2
v -0.8 2.8 0.2
v -0.8 2.9 0.2
v -0.8 3 0.2
v -0.8 3.1 0.2
v -0.7 2.6 0.2
v -0.7 2.7 0.2
v -0.7 2.8 0.2
v -0.7 2.9 0.2
v -0.7 3.1 0.2
v -0.6 2.5 0.2
v -0.6 2.6 0.2
v -0.6 2.7 0.2
v -0.6 2.8 0.2
v -0.5 2.5 0.2
v -0.5 2.6 0.2
v -0.5 2.7 0.2
v -0.4 2.5 0.2
v -0.4 2.6 0.2
v -0.4 2.7 0.2
v -0.3 2.5 0.2
v -0.3 2.7 0.2
v -1.1 2.7 0.1
v -1.1 2.8 0.1
v -1 2.7 0.1
v -1 2.8 0.1
v -1 3.1 0.1
v -0.9 2.6 0.1
v -0.9 2.7 0.1
v -0.9 3 0.1
v -0.9 3.1 0.1
v -0.9 3.2 0.1
v -0.8 2.5 0.1
v -0.8 2.6 0.1
v -0.8 2.7 0.1
v -0.8 3.1 0.1
v -0.8 3.2 0.1
v -0.7 2.3 0.1
v -0.7 2.4 0.1
v -0.7 2.5 0.1
v -0.7 2.6 0.1
v -0.7 2.7 0.1
v -0.7 2.8 0.1
v -0.7 2.9 0.1
v -0.7 3.1 0.1
v -0.7 3.2 0.1
v -0.6 2.3 0.1
v -0.6 2.4 0.1
v -0.6 2.5 0.1
v -0.6 2.6 0.1
v -0.6 2.7 0.1
v -0.6 2.8 0.1
v -0.6 2.9 0.1
v -0.6 3.1 0.1
v -0.5 2.4 0.1
v -0.5 2.5 0.1
v -0.5 2.7 0.1
v -0.5 2.8 0.1
v -0.5 2.9 0.1
v -0.4 2.4 0.1
v -0.4 2.5 0.1
v -0.4 2.7 0.1
v -0.4 2.8 0.1
v -0.3 2.4 0.1
v -0.3 2.5 0.1
v -0.3 2.7 0.1
v -0.3 2.8 0.1
v -1.1 3 0
v -1.1 3.1 0
v -1 3 0
v -1 3.1 0
v -0.9 3 0
v -0.9 3.1 0
v -0.8 3 0
v -0.8 3.1 0
v -0.9 2.7 -0.1
v -0.9 3 -0.1
v -0.8 2.7 -0.1
v -0.8 3 -0.1
v -0.8 3.1 -0.1
v -0.7 2.6 -0.1
v -0.7 2.7 -0.1
v -0.7 2.8 -0.1
v -0.7 2.9 -0.1
v -0.7 3 -0.1
v -0.7 3.1 -0.1
v -0.6 2.5 -0.1
v -0.6 2.6 -0.1
v -0.6 2.7 -0.1
v -0.6 2.8 -0.1
v -0.5 2.5 -0.1
v -0.5 2.6 -0.1
v -0.5 2.7 -0.1
v -0.4 2.5 -0.1
v -0.4 2.6 -0.1
v -0.4 2.7 -0.1
v -0.3 2.5 -0.1
v -0.3 2.7 -0.1
v -0.9 2.8 0.1
v -0.9 3 0.1
v -0.9 3.1 0.1
v -0.8 2.7 0.1
v -0.8 2.8 0.1
v -0.8 2.9 0.1
v -0.8 3 0.1
v -0.8 3.1 0.1
v -0.7 2.7 0.1
v -0.7 2.8 0.1
v -0.7 2.9 0.1
v -0.7 3.1 0.1
v -0.6 2.5 0.1
v -0.6 2.6 0.1
v -0.6 2.7 0.1
v -0.5 2.5 0.1
v -0.5 2.7 0.1
v -0.4 2.5 0.1
v -0.4 2.7 0.1
v -0.3 2.5 0.1
v -0.3 2.7 0.1
v -1.1 2.7 0
v -1.1 2.8 0
v -1 2.7 0
v -1 2.8 0
v -0.9 2.7 0
v -0.9 2.8 0
v -0.8 2.7 0
v -0.8 2.8 0
v -0.7 2.3 0
v -0.7 2.4 0
v -0.7 2.6 0
v -0.7 2.7 0
v -0.7 2.8 0
v -0.6 2.3 0
v -0.6 2.4 0
v -0.6 2.6 0
v -0.6 2.7 0
v -0.6 2.8 0
v -1.1 3 -0.1
v -1.1 3.1 -0.1
v -1 2.7 -0.1
v -1 3 -0.1
v -0.9 2.6 -0.1
v -0.9 2.7 -0.1
v -0.9 3 -0.1
v -0.9 3.1 -0.1
v -0.9 3.2 -0.1
v -0.8 2.5 -0.1
v -0.8 2.6 -0.1
v -0.8 2.7 -0.1
v -0.8 3.1 -0.1
v -0.8 3.2 -0.1
v -0.7 2.4 -0.1
v -0.7 2.5 -0.1
v -0.7 2.6 -0.1
v -0.7 2.7 -0.1
v -0.7 2.8 -0.1
v -0.7 2.9 -0.1
v -0.7 3 -0.1
v -0.7 3.1 -0.1
v -0.7 3.2 -0.1
v -0.6 2.4 -0.1
v -0.6 2.5 -0.1
v -0.6 2.6 -0.1
v -0.6 2.7 -0.1
v -0.6 2.8 -0.1
v -0.6 2.9 -0.1
v -0.6 3 -0.1
v -0.6 3.1 -0.1
v -0.5 2.4 -0.1
v -0.5 2.5 -0.1
v -0.5 2.7 -0.1
v -0.5 2.8 -0.1
v -0.5 2.9 -0.1
v -0.4 2.4 -0.1
v -0.4 2.5 -0.1
v -0.4 2.7 -0.1
v -0.4 2.8 -0.1
v -0.3 2.4 -0.1
v -0.3 2.5 -0.1
v -0.3 2.7 -0.1
v -0.3 2.8 -0.1
v -0.9 2.7 -0.2
v -0.9 3 -0.2
v -0.8 2.7 -0.2
v -0.8 3 -0.2
v -0.8 3.1 -0.2
v -0.7 2.6 -0.2
v -0.7 2.7 -0.2
v -0.7 2.8 -0.2
v -0.7 3.1 -0.2
v -0.6 2.6 -0.2
v -0.6 2.7 -0.2
v -0.6 2.8 -0.2
v -0.5 2.5 -0.2
v -0.5 2.6 -0.2
v -0.5 2.7 -0.2
v -0.4 2.5 -0.2
v -0.4 2.6 -0.2
v -0.4 2.7 -0.2
v -0.3 2.5 -0.2
v -0.3 2.7 -0.2
v -0.9 3 -0.3
v -0.9 3.1 -0.3
v -0.8 3 -0.3
v -0.8 3.1 -0.3
v -0.6 2.5 -0.3
v -0.6 2.6 -0.3
v -0.5 2.5 -0.3
v -0.5 2.6 -0.3
v -0.5 2.7 -0.3
v -0.4 2.6 -0.3
v -0.4 2.7 -0.3
v -0.7 2.3 0.1
v -0.6 2.3 0.1
v -0.7 2.3 0
v -0.6 2.3 0
v -0.6 2.4 0.1
v -0.5 2.4 0.1
v -0.4 2.4 0.1
v -0.3 2.4 0.1
v -0.7 2.4 0
v -0.6 2.4 0
v -0.7 2.4 -0.1
v -0.6 2.4 -0.1
v -0.5 2.4 -0.1
v -0.4 2.4 -0.1
v -0.3 2.4 -0.1
v -0.5 2.5 0.3
v -0.4 2.5 0.3
v -0.6 2.5 0.2
v -0.5 2.5 0.2
v -0.4 2.5 0.2
v -0.3 2.5 0.2
v -0.8 2.5 0.1
v -0.7 2.5 0.1
v -0.6 2.5 0.1
v -0.5 2.5 0.1
v -0.4 2.5 0.1
v -0.3 2.5 0.1
v -0.8 2.5 -0.1
v -0.7 2.5 -0.1
v -0.6 2.5 -0.1
v -0.5 2.5 -0.1
v -0.4 2.5 -0.1
v -0.3 2.5 -0.1
v -0.5 2.5 -0.2
v -0.4 2.5 -0.2
v -0.3 2.5 -0.2
v -0.6 2.5 -0.3
v -0.5 2.5 -0.3
v -0.7 2.6 0.2
v -0.6 2.6 0.2
v -0.9 2.6 0.1
v -0.8 2.6 0.1
v -0.7 2.6 0.1
v -0.6 2.6 0.1
v -0.9 2.6 -0.1
v -0.8 2.6 -0.1
v -0.7 2.6 -0.1
v -0.6 2.6 -0.1
v -0.7 2.6 -0.2
v -0.6 2.6 -0.2
v -0.5 2.6 -0.2
v -0.4 2.6 -0.2
v -0.5 2.6 -0.3
v -0.4 2.6 -0.3
v -0.9 2.7 0.2
v -0.8 2.7 0.2
v -0.7 2.7 0.2
v -1.1 2.7 0.1
v -1 2.7 0.1
v -0.9 2.7 0.1
v -0.8 2.7 0.1
v -0.7 2.7 0.1
v -0.6 2.7 0.1
v -0.5 2.7 0.1
v -0.4 2.7 0.1
v -0.3 2.7 0.1
v -1.1 2.7 0
v -1 2.7 0
v -0.6 2.7 0
v -0.4 2.7 0
v -0.3 2.7 0
v -1 2.7 -0.1
v -0.9 2.7 -0.1
v -0.8 2.7 -0.1
v -0.7 2.7 -0.1
v -0.6 2.7 -0.1
v -0.5 2.7 -0.1
v -0.4 2.7 -0.1
v -0.3 2.7 -0.1
v -0.9 2.7 -0.2
v -0.8 2.7 -0.2
v -0.7 2.7 -0.2
v -0.8 2.8 0.3
v -0.7 2.8 0.3
v -0.8 2.8 0.2
v -0.7 2.8 0.2
v -0.7 2.8 0
v -0.6 2.8 0
v -0.7 2.8 -0.1
v -0.6 2.8 -0.1
v -0.9 3 0.3
v -0.8 3 0.3
v -0.9 3 0.2
v -0.8 3 0.2
v -1.1 3 0
v -1 3 0
v -0.9 3 0
v -0.8 3 0
v -1.1 3 -0.1
v -1 3 -0.1
v -0.9 3 -0.1
v -0.8 3 -0.1
v -0.9 3 -0.2
v -0.8 3 -0.2
v -0.9 3 -0.3
v -0.8 3 -0.3
v -0.9 3.1 0.1
v -0.8 3.1 0.1
v -0.7 3.1 0.1
v -0.9 3.1 0
v -0.8 3.1 0
v -0.8 3.1 -0.1
v -0.7 3.1 -0.1
v -0.6 2.5 0.1
v -0.5 2.5 0.1
v -0.4 2.5 0.1
v -0.3 2.5 0.1
v -0.6 2.5 -0.1
v -0.5 2.5 -0.1
v -0.4 2.5 -0.1
v -0.3 2.5 -0.1
v -0.5 2.6 0.3
v -0.4 2.6 0.3
v -0.5 2.6 0.2
v -0.4 2.6 0.2
v -0.7 2.6 0
v -0.6 2.6 0
v -0.7 2.6 -0.1
v -0.6 2.6 -0.1
v -0.6 2.6 -0.2
v -0.5 2.6 -0.2
v -0.6 2.6 -0.3
v -0.5 2.6 -0.3
v -0.6 2.7 0.2
v -0.5 2.7 0.2
v -0.4 2.7 0.2
v -0.3 2.7 0.2
v -0.8 2.7 0.1
v -0.7 2.7 0.1
v -0.6 2.7 0.1
v -0.5 2.7 0.1
v -0.4 2.7 0.1
v -0.3 2.7 0.1
v -0.9 2.7 0
v -0.8 2.7 0
v -0.7 2.7 0
v -0.9 2.7 -0.1
v -0.8 2.7 -0.1
v -0.7 2.7 -0.1
v -0.6 2.7 -0.1
v -0.5 2.7 -0.1
v -0.4 2.7 -0.1
v -0.3 2.7 -0.1
v -0.6 2.7 -0.2
v -0.5 2.7 -0.2
v -0.4 2.7 -0.2
v -0.3 2.7 -0.2
v -0.5 2.7 -0.3
v -0.4 2.7 -0.3
v -0.7 2.8 0.2
v -0.6 2.8 0.2
v -1.1 2.8 0.1
v -1 2.8 0.1
v -0.9 2.8 0.1
v -0.8 2.8 0.1
v -0.7 2.8 0.1
v -0.6 2.8 0.1
v -0.5 2.8 0.1
v -0.4 2.8 0.1
v -0.3 2.8 0.1
v -1.1 2.8 0
v -1 2.8 0
v -0.9 2.8 0
v -0.8 2.8 0
v -0.4 2.8 0
v -0.3 2.8 0
v -0.7 2.8 -0.1
v -0.6 2.8 -0.1
v -0.5 2.8 -0.1
v -0.4 2.8 -0.1
v -0.3 2.8 -0.1
v -0.7 2.8 -0.2
v -0.6 2.8 -0.2
v -0.8 2.9 0.3
v -0.7 2.9 0.3
v -0.8 2.9 0.2
v -0.7 2.9 0.2
v -0.6 2.9 0.1
v -0.5 2.9 0.1
v -0.6 2.9 0
v -0.6 2.9 -0.1
v -0.5 2.9 -0.1
v -0.9 3.1 0.3
v -0.8 3.1 0.3
v -0.8 3.1 0.2
v -0.7 3.1 0.2
v -1 3.1 0.1
v -0.9 3.1 0.1
v -0.8 3.1 0.1
v -0.7 3.1 0.1
v -0.6 3.1 0.1
v -1.1 3.1 0
v -1 3.1 0
v -0.9 3.1 0
v -1.1 3.1 -0.1
v -0.9 3.1 -0.1
v -0.8 3.1 -0.1
v -0.7 3.1 -0.1
v -0.6 3.1 -0.1
v -0.8 3.1 -0.2
v -0.7 3.1 -0.2
v -0.9 3.1 -0.3
v -0.8 3.1 -0.3
v -0.9 3.2 0.1
v -0.8 3.2 0.1
v -0.7 3.2 0.1
v -0.9 3.2 -0.1
v -0.8 3.2 -0.1
v -0.7 3.2 -0.1

# faces
f 3/1/1 2/1/1 1/1/1
f 4/1/1 2/1/1 3/1/1
f 7/1/1 6/1/1 5/1/1
f 8/1/1 6/1/1 7/1/1
f 12/3/1 10/3/1 9/3/1
f 13/3/1 10/3/1 12/3/1
f 13/3/1 12/3/1 11/3/1
f 14/3/1 10/3/1 13/3/1
f 15/3/1 13/3/1 11/3/1
f 16/3/1 13/3/1 15/3/1
f 20/2/1 18/2/1 17/2/1
f 21/2/1 18/2/1 20/2/1
f 24/2/1 20/2/1 19/2/1
f 25/2/1 20/2/1 24/2/1
f 26/2/1 22/2/1 21/2/1
f 27/2/1 22/2/1 26/2/1
f 29/1/1 25/1/1 24/1/1
f 29/1/1 24/1/1 23/1/1
f 30/1/1 25/1/1 29/1/1
f 32/1/1 28/1/1 27/1/1
f 32/1/1 27/1/1 26/1/1
f 33/1/1 28/1/1 32/1/1
f 34/2/1 31/2/1 30/2/1
f 34/2/1 32/2/1 31/2/1
f 35/2/1 32/2/1 34/2/1
f 38/3/1 37/3/1 36/3/1
f 39/3/1 37/3/1 38/3/1
f 42/1/1 41/1/1 40/1/1
f 43/1/1 41/1/1 42/1/1
f 46/1/1 45/1/1 44/1/1
f 47/1/1 45/1/1 46/1/1
f 49/2/1 47/2/1 46/2/1
f 49/2/1 48/2/1 47/2/1
f 50/2/1 48/2/1 49/2/1
f 55/2/1 52/2/1 51/2/1
f 56/2/1 52/2/1 55/2/1
f 58/2/1 54/2/1 53/2/1
f 59/2/1 54/2/1 58/2/1
f 60/3/1 57/3/1 56/3/1
f 61/3/1 57/3/1 60/3/1
f 63/2/1 61/2/1 60/2/1
f 63/2/1 62/2/1 61/2/1
f 64/2/1 62/2/1 63/2/1
f 65/2/1 62/2/1 64/2/1
f 66/2/1 64/2/1 63/2/1
f 66/1/1 65/1/1 64/1/1
f 67/1/1 65/1/1 66/1/1
f 68/2/1 66/2/1 63/2/1
f 68/2/1 67/2/1 66/2/1
f 69/2/1 67/2/1 68/2/1
f 74/3/1 71/3/1 70/3/1
f 75/3/1 71/3/1 74/3/1
f 76/1/1 73/1/1 72/1/1
f 77/1/1 73/1/1 76/1/1
f 78/1/1 73/1/1 77/1/1
f 81/3/1 80/3/1 79/3/1
f 82/3/1 80/3/1 81/3/1
f 85/1/1 84/1/1 83/1/1
f 86/1/1 84/1/1 85/1/1
f 89/1/1 88/1/1 87/1/1
f 90/1/1 88/1/1 89/1/1
f 91/3/2 92/3/2 94/3/2
f 93/3/2 94/3/2 95/3/2
f 94/3/2 92/3/2 96/3/2
f 95/3/2 94/3/2 96/3/2
f 96/3/2 92/3/2 97/3/2
f 95/3/2 96/3/2 98/3/2
f 98/3/2 96/3/2 99/3/2
f 100/3/2 101/3/2 102/3/2
f 102/3/2 101/3/2 103/3/2
f 104/1/2 105/1/2 110/1/2
f 110/1/2 105/1/2 111/1/2
f 106/3/2 107/3/2 112/3/2
f 112/3/2 107/3/2 113/3/2
f 108/1/2 109/1/2 114/1/2
f 114/1/2 109/1/2 115/1/2
f 116/3/2 117/3/2 118/3/2
f 118/3/2 117/3/2 119/3/2
f 121/1/2 122/1/2 125/1/2
f 120/1/2 121/1/2 125/1/2
f 125/1/2 122/1/2 126/1/2
f 126/1/2 122/1/2 127/1/2
f 123/3/2 124/3/2 128/3/2
f 128/3/2 124/3/2 129/3/2
f 126/3/2 127/3/2 130/3/2
f 130/3/2 127/3/2 131/3/2
f 129/3/2 124/3/2 132/3/2
f 132/3/2 124/3/2 133/3/2
f 131/3/2 132/3/2 134/3/2
f 134/3/2 132/3/2 135/3/2
f 136/1/2 137/1/2 138/1/2
f 138/1/2 137/1/2 139/1/2
f 140/2/2 141/2/2 142/2/2
f 142/2/2 141/2/2 143/2/2
f 143/2/2 141/2/2 144/2/2
f 142/3/2 143/3/2 146/3/2
f 146/3/2 143/3/2 147/3/2
f 145/2/2 146/2/2 150/2/2
f 150/2/2 146/2/2 151/2/2
f 148/2/2 149/2/2 152/2/2
f 152/2/2 149/2/2 153/2/2
f 154/2/2 155/2/2 157/2/2
f 155/1/2 156/1/2 157/1/2
f 157/1/2 156/1/2 158/1/2
f 154/2/2 157/2/2 159/2/2
f 157/2/2 158/2/2 159/2/2
f 159/2/2 158/2/2 160/2/2
f 161/1/2 162/1/2 163/1/2
f 163/1/2 162/1/2 164/1/2
f 165/3/2 166/3/2 167/3/2
f 167/3/2 166/3/2 168/3/2
f 169/1/2 170/1/2 171/1/2
f 171/1/2 170/1/2 172/1/2
f 173/1/2 174/1/2 175/1/2
f 175/1/2 174/1/2 176/1/2
f 177/3/2 178/3/2 180/3/2
f 180/3/2 178/3/2 181/3/2
f 179/3/2 180/3/2 183/3/2
f 183/3/2 180/3/2 184/3/2
f 181/3/2 182/3/2 186/3/2
f 186/3/2 182/3/2 187/3/2
f 184/1/2 185/1/2 188/1/2
f 185/3/2 186/3/2 189/3/2
f 188/1/2 185/1/2 189/1/2
f 189/3/2 186/3/2 190/3/2
f 195/1/3 192/1/3 191/1/3
f 196/1/3 192/1/3 195/1/3
f 197/1/3 194/1/3 193/1/3
f 198/1/3 194/1/3 197/1/3
f 201/1/3 200/1/3 199/1/3
f 202/1/3 200/1/3 201/1/3
f 205/2/3 204/2/3 203/2/3
f 206/2/3 204/2/3 205/2/3
f 207/2/3 204/2/3 206/2/3
f 208/2/3 204/2/3 207/2/3
f 211/3/3 206/3/3 205/3/3
f 212/3/3 206/3/3 211/3/3
f 213/3/3 208/3/3 207/3/3
f 213/3/3 209/3/3 208/3/3
f 214/3/3 209/3/3 213/3/3
f 216/2/3 212/2/3 211/2/3
f 216/2/3 211/2/3 210/2/3
f 217/2/3 212/2/3 216/2/3
f 218/2/3 212/2/3 217/2/3
f 219/3/3 216/3/3 215/3/3
f 219/3/3 217/3/3 216/3/3
f 220/3/3 217/3/3 219/3/3
f 221/3/3 217/3/3 220/3/3
f 223/2/3 221/2/3 220/2/3
f 224/2/3 221/2/3 223/2/3
f 225/3/3 223/3/3 222/3/3
f 225/3/3 224/3/3 223/3/3
f 226/3/3 224/3/3 225/3/3
f 229/1/3 228/1/3 227/1/3
f 230/1/3 228/1/3 229/1/3
f 233/3/3 230/3/3 229/3/3
f 233/3/3 231/3/3 230/3/3
f 234/3/3 231/3/3 233/3/3
f 235/3/3 231/3/3 234/3/3
f 238/2/3 233/2/3 232/2/3
f 239/2/3 233/2/3 238/2/3
f 240/2/3 236/2/3 235/2/3
f 241/2/3 236/2/3 240/2/3
f 244/3/3 239/3/3 238/3/3
f 244/3/3 238/3/3 237/3/3
f 245/3/3 239/3/3 244/3/3
f 246/3/3 239/3/3 245/3/3
f 249/3/3 241/3/3 240/3/3
f 250/3/3 241/3/3 249/3/3
f 251/1/3 243/1/3 242/1/3
f 252/2/3 244/2/3 243/2/3
f 252/1/3 243/1/3 251/1/3
f 252/2/3 245/2/3 244/2/3
f 253/2/3 245/2/3 252/2/3
f 254/2/3 245/2/3 253/2/3
f 256/2/3 248/2/3 247/2/3
f 256/2/3 249/2/3 248/2/3
f 257/2/3 249/2/3 256/2/3
f 258/2/3 249/2/3 257/2/3
f 259/3/3 253/3/3 252/3/3
f 260/3/3 253/3/3 259/3/3
f 261/3/3 257/3/3 256/3/3
f 261/3/3 256/3/3 255/3/3
f 262/3/3 257/3/3 261/3/3
f 263/3/3 257/3/3 262/3/3
f 264/2/3 260/2/3 259/2/3
f 265/2/3 260/2/3 264/2/3
f 266/2/3 262/2/3 261/2/3
f 267/2/3 262/2/3 266/2/3
f 268/3/3 265/3/3 264/3/3
f 269/3/3 265/3/3 268/3/3
f 270/1/3 267/1/3 266/1/3
f 271/1/3 267/1/3 270/1/3
f 274/1/3 273/1/3 272/1/3
f 275/1/3 273/1/3 274/1/3
f 278/3/3 277/3/3 276/3/3
f 279/3/3 277/3/3 278/3/3
f 282/2/3 281/2/3 280/2/3
f 283/2/3 281/2/3 282/2/3
f 286/3/3 283/3/3 282/3/3
f 286/3/3 284/3/3 283/3/3
f 287/3/3 284/3/3 286/3/3
f 288/3/3 284/3/3 287/3/3
f 289/3/3 284/3/3 288/3/3
f 290/3/3 284/3/3 289/3/3
f 292/2/3 286/2/3 285/2/3
f 292/2/3 287/2/3 286/2/3
f 293/2/3 287/2/3 292/2/3
f 294/2/3 287/2/3 293/2/3
f 295/1/3 292/1/3 291/1/3
f 296/3/3 293/3/3 292/3/3
f 296/1/3 292/1/3 295/1/3
f 297/3/3 293/3/3 296/3/3
f 298/2/3 296/2/3 295/2/3
f 299/1/3 297/1/3 296/1/3
f 299/2/3 296/2/3 298/2/3
f 300/1/3 297/1/3 299/1/3
f 301/3/3 299/3/3 298/3/3
f 301/3/3 300/3/3 299/3/3
f 302/3/3 300/3/3 301/3/3
f 303/2/4 304/2/4 307/2/4
f 307/2/4 304/2/4 308/2/4
f 304/1/4 305/1/4 309/1/4
f 308/2/4 304/2/4 309/2/4
f 309/1/4 305/1/4 310/1/4
f 306/3/4 307/3/4 311/3/4
f 307/1/4 308/1/4 312/1/4
f 311/3/4 307/3/4 312/3/4
f 308/3/4 309/3/4 313/3/4
f 312/1/4 308/1/4 313/1/4
f 309/3/4 310/3/4 313/3/4
f 313/3/4 310/3/4 314/3/4
f 315/3/4 316/3/4 318/3/4
f 316/3/4 317/3/4 318/3/4
f 318/3/4 317/3/4 319/3/4
f 318/2/4 319/2/4 320/2/4
f 320/2/4 319/2/4 321/2/4
f 320/3/4 321/3/4 322/3/4
f 322/3/4 321/3/4 323/3/4
f 324/1/4 325/1/4 326/1/4
f 326/1/4 325/1/4 327/1/4
f 328/3/4 329/3/4 330/3/4
f 330/3/4 329/3/4 331/3/4
f 332/1/4 333/1/4 337/1/4
f 337/1/4 333/1/4 338/1/4
f 335/3/4 336/3/4 339/3/4
f 334/3/4 335/3/4 339/3/4
f 339/3/4 336/3/4 340/3/4
f 340/3/4 336/3/4 341/3/4
f 342/1/4 343/1/4 345/1/4
f 344/3/4 345/3/4 347/3/4
f 345/1/4 343/1/4 348/1/4
f 347/3/4 345/3/4 348/3/4
f 348/1/4 343/1/4 349/1/4
f 346/2/4 347/2/4 352/2/4
f 352/2/4 347/2/4 353/2/4
f 349/2/4 350/2/4 354/2/4
f 354/2/4 350/2/4 355/2/4
f 352/3/4 353/3/4 357/3/4
f 351/3/4 352/3/4 357/3/4
f 357/3/4 353/3/4 358/3/4
f 358/3/4 353/3/4 359/3/4
f 354/3/4 355/3/4 363/3/4
f 363/3/4 355/3/4 364/3/4
f 356/2/4 357/2/4 365/2/4
f 357/2/4 358/2/4 365/2/4
f 365/2/4 358/2/4 366/2/4
f 366/2/4 358/2/4 367/2/4
f 360/2/4 361/2/4 369/2/4
f 361/1/4 362/1/4 370/1/4
f 369/2/4 361/2/4 370/2/4
f 362/2/4 363/2/4 371/2/4
f 370/1/4 362/1/4 371/1/4
f 371/2/4 363/2/4 372/2/4
f 365/3/4 366/3/4 373/3/4
f 373/3/4 366/3/4 374/3/4
f 368/3/4 369/3/4 375/3/4
f 369/3/4 370/3/4 375/3/4
f 375/3/4 370/3/4 376/3/4
f 376/3/4 370/3/4 377/3/4
f 373/2/4 374/2/4 378/2/4
f 378/2/4 374/2/4 379/2/4
f 375/2/4 376/2/4 380/2/4
f 380/2/4 376/2/4 381/2/4
f 378/3/4 379/3/4 382/3/4
f 382/3/4 379/3/4 383/3/4
f 380/3/4 381/3/4 384/3/4
f 384/3/4 381/3/4 385/3/4
f 386/2/4 387/2/4 388/2/4
f 388/2/4 387/2/4 389/2/4
f 388/3/4 389/3/4 392/3/4
f 389/3/4 390/3/4 392/3/4
f 392/3/4 390/3/4 393/3/4
f 393/3/4 390/3/4 394/3/4
f 391/2/4 392/2/4 395/2/4
f 392/2/4 393/2/4 395/2/4
f 395/2/4 393/2/4 396/2/4
f 396/2/4 393/2/4 397/2/4
f 395/3/4 396/3/4 399/3/4
f 399/3/4 396/3/4 400/3/4
f 398/2/4 399/2/4 401/2/4
f 401/2/4 399/2/4 402/2/4
f 401/3/4 402/3/4 404/3/4
f 402/3/4 403/3/4 404/3/4
f 404/3/4 403/3/4 405/3/4
f 406/1/4 407/1/4 408/1/4
f 408/1/4 407/1/4 409/1/4
f 410/1/4 411/1/4 412/1/4
f 412/1/4 411/1/4 413/1/4
f 413/1/4 414/1/4 415/1/4
f 415/1/4 414/1/4 416/1/4
f 419/1/5 418/1/5 417/1/5
f 420/1/5 418/1/5 419/1/5
f 426/3/5 422/3/5 421/3/5
f 427/2/5 426/2/5 425/2/5
f 428/3/5 422/3/5 426/3/5
f 428/2/5 426/2/5 427/2/5
f 429/2/5 423/2/5 422/2/5
f 429/3/5 422/3/5 428/3/5
f 430/3/5 424/3/5 423/3/5
f 430/2/5 423/2/5 429/2/5
f 431/3/5 424/3/5 430/3/5
f 435/1/5 433/1/5 432/1/5
f 436/1/5 433/1/5 435/1/5
f 440/3/5 435/3/5 434/3/5
f 441/2/5 436/2/5 435/2/5
f 441/3/5 435/3/5 440/3/5
f 442/3/5 437/3/5 436/3/5
f 442/2/5 436/2/5 441/2/5
f 443/3/5 437/3/5 442/3/5
f 444/3/5 439/3/5 438/3/5
f 445/3/5 439/3/5 444/3/5
f 450/1/5 447/1/5 446/1/5
f 450/2/5 448/2/5 447/2/5
f 451/3/5 449/3/5 448/3/5
f 451/2/5 448/2/5 450/2/5
f 452/3/5 449/3/5 451/3/5
f 453/1/5 450/1/5 446/1/5
f 454/1/5 450/1/5 453/1/5
f 459/2/5 456/2/5 455/2/5
f 460/2/5 456/2/5 459/2/5
f 461/2/5 458/2/5 457/2/5
f 462/2/5 458/2/5 461/2/5
f 465/2/5 464/2/5 463/2/5
f 466/2/5 464/2/5 465/2/5
f 469/1/5 468/1/5 467/1/5
f 470/1/5 468/1/5 469/1/5
f 476/2/5 472/2/5 471/2/5
f 477/3/5 473/3/5 472/3/5
f 477/2/5 472/2/5 476/2/5
f 478/3/5 473/3/5 477/3/5
f 483/1/5 475/1/5 474/1/5
f 484/3/5 476/3/5 475/3/5
f 484/1/5 475/1/5 483/1/5
f 485/3/5 480/3/5 479/3/5
f 486/1/5 482/1/5 481/1/5
f 486/2/5 481/2/5 480/2/5
f 487/1/5 482/1/5 486/1/5
f 488/3/5 476/3/5 484/3/5
f 489/3/5 476/3/5 488/3/5
f 492/3/5 480/3/5 485/3/5
f 493/2/5 486/2/5 480/2/5
f 493/3/5 480/3/5 492/3/5
f 494/3/5 487/3/5 486/3/5
f 494/2/5 486/2/5 493/2/5
f 495/3/5 487/3/5 494/3/5
f 496/2/5 490/2/5 489/2/5
f 497/3/5 491/3/5 490/3/5
f 497/2/5 490/2/5 496/2/5
f 498/3/5 491/3/5 497/3/5
f 501/1/5 500/1/5 499/1/5
f 502/1/5 500/1/5 501/1/5
f 505/2/5 504/2/5 503/2/5
f 506/2/5 504/2/5 505/2/5
f 509/1/5 508/1/5 507/1/5
f 510/1/5 508/1/5 509/1/5
f 515/1/5 512/1/5 511/1/5
f 516/1/5 512/1/5 515/1/5
f 517/3/5 514/3/5 513/3/5
f 518/3/5 514/3/5 517/3/5
f 521/1/5 520/1/5 519/1/5
f 522/1/5 520/1/5 521/1/5
f 526/2/5 524/2/5 523/2/5
f 527/3/5 525/3/5 524/3/5
f 527/2/5 524/2/5 526/2/5
f 528/3/5 525/3/5 527/3/5
f 529/3/5 525/3/5 528/3/5
f 530/3/6 531/3/6 534/3/6
f 531/2/6 532/2/6 535/2/6
f 534/3/6 531/3/6 535/3/6
f 532/3/6 533/3/6 536/3/6
f 535/2/6 532/2/6 536/2/6
f 536/3/6 533/3/6 537/3/6
f 538/1/6 539/1/6 540/1/6
f 540/1/6 539/1/6 541/1/6
f 542/2/6 543/2/6 544/2/6
f 544/2/6 543/2/6 545/2/6
f 546/1/6 547/1/6 548/1/6
f 548/1/6 547/1/6 549/1/6
f 550/3/6 551/3/6 556/3/6
f 551/2/6 552/2/6 557/2/6
f 556/3/6 551/3/6 557/3/6
f 552/3/6 553/3/6 558/3/6
f 557/2/6 552/2/6 558/2/6
f 558/3/6 553/3/6 559/3/6
f 554/3/6 555/3/6 561/3/6
f 561/3/6 555/3/6 562/3/6
f 560/2/6 561/2/6 563/2/6
f 561/3/6 562/3/6 564/3/6
f 563/2/6 561/2/6 564/2/6
f 564/3/6 562/3/6 565/3/6
f 566/3/6 567/3/6 570/3/6
f 567/1/6 568/1/6 571/1/6
f 570/3/6 567/3/6 571/3/6
f 568/3/6 569/3/6 572/3/6
f 571/1/6 568/1/6 572/1/6
f 572/3/6 569/3/6 573/3/6
f 571/1/6 572/1/6 574/1/6
f 574/1/6 572/1/6 575/1/6
f 576/2/6 577/2/6 582/2/6
f 582/2/6 577/2/6 583/2/6
f 578/1/6 579/1/6 587/1/6
f 587/1/6 579/1/6 588/1/6
f 580/3/6 581/3/6 589/3/6
f 589/3/6 581/3/6 590/3/6
f 585/1/6 586/1/6 591/1/6
f 584/2/6 585/2/6 591/2/6
f 591/1/6 586/1/6 592/1/6
f 584/2/6 591/2/6 595/2/6
f 591/3/6 592/3/6 596/3/6
f 595/2/6 591/2/6 596/2/6
f 596/3/6 592/3/6 597/3/6
f 593/2/6 594/2/6 598/2/6
f 598/2/6 594/2/6 599/2/6
f 600/1/6 601/1/6 602/1/6
f 602/1/6 601/1/6 603/1/6
f 604/3/6 605/3/6 606/3/6
f 606/3/6 605/3/6 607/3/6
f 607/3/6 605/3/6 608/3/6
f 609/1/6 610/1/6 611/1/6
f 609/1/6 611/1/6 614/1/6
f 611/3/6 612/3/6 615/3/6
f 614/1/6 611/1/6 615/1/6
f 615/3/6 612/3/6 616/3/6
f 613/3/6 614/3/6 619/3/6
f 619/3/6 614/3/6 620/3/6
f 618/1/6 619/1/6 621/1/6
f 619/1/6 620/1/6 621/1/6
f 621/1/6 620/1/6 622/1/6
f 616/2/6 617/2/6 624/2/6
f 624/2/6 617/2/6 625/2/6
f 622/1/6 623/1/6 626/1/6
f 623/3/6 624/3/6 626/3/6
f 626/3/6 624/3/6 627/3/6
f 622/1/6 626/1/6 628/1/6
f 628/1/6 626/1/6 629/1/6
f 630/2/6 631/2/6 633/2/6
f 631/3/6 632/3/6 634/3/6
f 633/2/6 631/2/6 634/2/6
f 634/3/6 632/3/6 635/3/6
