# MagicaVoxel @ Ephtracy

# group
o 

# material
mtllib venus_fly_trap-0.mtl
usemtl palette

# normals
vn -1 0 0
vn 1 0 0
vn 0 0 1
vn 0 0 -1
vn 0 -1 0
vn 0 1 0

# texcoords
vt 0.845703 0.5
vt 0.853516 0.5
vt 0.861328 0.5
vt 0.900391 0.5
vt 0.904297 0.5

# verts
v -0.8 1.4 0.1
v -0.8 1.4 0
v -0.8 1.4 -0.2
v -0.8 1.4 -0.3
v -0.8 1.5 0.1
v -0.8 1.5 0
v -0.8 1.5 -0.2
v -0.8 1.5 -0.3
v -0.8 1.6 0.2
v -0.8 1.6 0.1
v -0.8 1.6 -0.3
v -0.8 1.6 -0.4
v -0.8 1.7 0.2
v -0.8 1.7 0.1
v -0.8 1.7 -0.3
v -0.8 1.7 -0.4
v -0.8 1.9 0.2
v -0.8 1.9 0.1
v -0.8 1.9 -0.3
v -0.8 1.9 -0.4
v -0.8 2 0.2
v -0.8 2 0.1
v -0.8 2 -0.3
v -0.8 2 -0.4
v -0.8 2.1 0.1
v -0.8 2.1 0
v -0.8 2.1 -0.2
v -0.8 2.1 -0.3
v -0.8 2.2 0.1
v -0.8 2.2 0
v -0.8 2.2 -0.2
v -0.8 2.2 -0.3
v -0.7 1.3 0
v -0.7 1.3 -0.1
v -0.7 1.4 0
v -0.7 1.4 -0.1
v -0.7 1.4 -0.2
v -0.7 1.5 0.2
v -0.7 1.5 0.1
v -0.7 1.5 0
v -0.7 1.5 -0.1
v -0.7 1.5 -0.2
v -0.7 1.5 -0.3
v -0.7 1.5 -0.4
v -0.7 1.6 0.2
v -0.7 1.6 0.1
v -0.7 1.6 0
v -0.7 1.6 -0.2
v -0.7 1.6 -0.3
v -0.7 1.6 -0.4
v -0.7 1.7 0.2
v -0.7 1.7 0.1
v -0.7 1.7 -0.3
v -0.7 1.7 -0.4
v -0.7 1.9 0.2
v -0.7 1.9 0.1
v -0.7 1.9 -0.3
v -0.7 1.9 -0.4
v -0.7 2 0.2
v -0.7 2 0.1
v -0.7 2 0
v -0.7 2 -0.2
v -0.7 2 -0.3
v -0.7 2 -0.4
v -0.7 2.1 0.2
v -0.7 2.1 0.1
v -0.7 2.1 0
v -0.7 2.1 -0.1
v -0.7 2.1 -0.2
v -0.7 2.1 -0.3
v -0.7 2.1 -0.4
v -0.7 2.2 0
v -0.7 2.2 -0.1
v -0.7 2.2 -0.2
v -0.7 2.3 0
v -0.7 2.3 -0.1
v -0.6 1.5 0
v -0.6 1.5 -0.1
v -0.6 1.5 -0.2
v -0.6 1.6 0
v -0.6 1.6 -0.1
v -0.6 1.6 -0.2
v -0.6 1.7 0
v -0.6 1.7 -0.1
v -0.6 1.9 0
v -0.6 1.9 -0.1
v -0.6 2 0
v -0.6 2 -0.1
v -0.6 2 -0.2
v -0.6 2.1 0
v -0.6 2.1 -0.1
v -0.6 2.1 -0.2
v -0.5 1.6 -0.1
v -0.5 1.6 -0.2
v -0.5 1.7 0
v -0.5 1.7 -0.1
v -0.5 1.7 -0.2
v -0.5 1.9 0
v -0.5 1.9 -0.1
v -0.5 1.9 -0.2
v -0.5 2 -0.1
v -0.5 2 -0.2
v -0.1 1.3 -0.1
v -0.1 1.3 -0.2
v -0.1 1.7 -0.1
v -0.1 1.7 -0.2
v -0.6 1.3 0
v -0.6 1.3 -0.1
v -0.6 1.4 0.1
v -0.6 1.4 0
v -0.6 1.4 -0.1
v -0.6 1.4 -0.2
v -0.6 1.4 -0.3
v -0.6 1.5 0.2
v -0.6 1.5 0.1
v -0.6 1.5 0
v -0.6 1.5 -0.2
v -0.6 1.5 -0.3
v -0.6 1.5 -0.4
v -0.6 1.7 0.2
v -0.6 1.7 0.1
v -0.6 1.7 -0.3
v -0.6 1.7 -0.4
v -0.6 1.9 0.2
v -0.6 1.9 0.1
v -0.6 1.9 -0.3
v -0.6 1.9 -0.4
v -0.6 2.1 0.2
v -0.6 2.1 0.1
v -0.6 2.1 0
v -0.6 2.1 -0.2
v -0.6 2.1 -0.3
v -0.6 2.1 -0.4
v -0.6 2.2 0.1
v -0.6 2.2 0
v -0.6 2.2 -0.1
v -0.6 2.2 -0.2
v -0.6 2.2 -0.3
v -0.6 2.3 0
v -0.6 2.3 -0.1
v -0.5 1.4 0
v -0.5 1.4 -0.1
v -0.5 1.5 0.1
v -0.5 1.5 0
v -0.5 1.5 -0.1
v -0.5 1.5 -0.2
v -0.5 1.5 -0.3
v -0.5 1.6 0.1
v -0.5 1.6 0
v -0.5 1.6 -0.2
v -0.5 1.6 -0.3
v -0.5 1.7 0.2
v -0.5 1.7 0.1
v -0.5 1.7 -0.3
v -0.5 1.7 -0.4
v -0.5 1.9 0.2
v -0.5 1.9 0.1
v -0.5 1.9 -0.3
v -0.5 1.9 -0.4
v -0.5 2 0.1
v -0.5 2 0
v -0.5 2 -0.2
v -0.5 2 -0.3
v -0.5 2.1 0.1
v -0.5 2.1 0
v -0.5 2.1 -0.1
v -0.5 2.1 -0.2
v -0.5 2.1 -0.3
v -0.5 2.2 0
v -0.5 2.2 -0.1
v -0.4 1.4 -0.1
v -0.4 1.4 -0.2
v -0.4 1.5 0
v -0.4 1.5 -0.1
v -0.4 1.5 -0.2
v -0.4 1.6 0.1
v -0.4 1.6 0
v -0.4 1.6 -0.1
v -0.4 1.6 -0.2
v -0.4 1.6 -0.3
v -0.4 1.7 0.1
v -0.4 1.7 0
v -0.4 1.7 -0.2
v -0.4 1.7 -0.3
v -0.4 1.9 0.1
v -0.4 1.9 0
v -0.4 1.9 -0.2
v -0.4 1.9 -0.3
v -0.4 2 0.1
v -0.4 2 0
v -0.4 2 -0.1
v -0.4 2 -0.2
v -0.4 2 -0.3
v -0.4 2.1 0
v -0.4 2.1 -0.1
v -0.4 2.1 -0.2
v -0.4 2.2 -0.1
v -0.4 2.2 -0.2
v -0.3 1.5 -0.1
v -0.3 1.5 -0.2
v -0.3 1.6 0
v -0.3 1.6 -0.1
v -0.3 1.7 0.1
v -0.3 1.7 0
v -0.3 1.7 -0.1
v -0.3 1.7 -0.2
v -0.3 1.7 -0.3
v -0.3 1.9 0.1
v -0.3 1.9 0
v -0.3 1.9 -0.1
v -0.3 1.9 -0.2
v -0.3 1.9 -0.3
v -0.3 2 0
v -0.3 2 -0.1
v -0.3 2.1 -0.1
v -0.3 2.1 -0.2
v -0.2 1.8 -0.1
v -0.2 1.8 -0.2
v -0.2 1.9 -0.1
v -0.2 1.9 -0.2
v -0.1 1.7 -0.1
v -0.1 1.7 -0.2
v -0.1 1.8 -0.1
v -0.1 1.8 -0.2
v 0 1.3 -0.1
v 0 1.3 -0.2
v 0 1.7 -0.1
v 0 1.7 -0.2
v -0.8 1.6 0.2
v -0.8 1.7 0.2
v -0.8 1.9 0.2
v -0.8 2 0.2
v -0.7 1.5 0.2
v -0.7 1.6 0.2
v -0.7 1.7 0.2
v -0.7 1.9 0.2
v -0.7 2 0.2
v -0.7 2.1 0.2
v -0.6 1.5 0.2
v -0.6 1.7 0.2
v -0.6 1.9 0.2
v -0.6 2.1 0.2
v -0.5 1.7 0.2
v -0.5 1.9 0.2
v -0.8 1.4 0.1
v -0.8 1.5 0.1
v -0.8 2.1 0.1
v -0.8 2.2 0.1
v -0.7 1.5 0.1
v -0.7 2.1 0.1
v -0.6 1.4 0.1
v -0.6 1.5 0.1
v -0.6 1.7 0.1
v -0.6 1.9 0.1
v -0.6 2.1 0.1
v -0.6 2.2 0.1
v -0.5 1.5 0.1
v -0.5 1.6 0.1
v -0.5 1.7 0.1
v -0.5 1.9 0.1
v -0.5 2 0.1
v -0.5 2.1 0.1
v -0.4 1.6 0.1
v -0.4 1.7 0.1
v -0.4 1.9 0.1
v -0.4 2 0.1
v -0.3 1.7 0.1
v -0.3 1.9 0.1
v -0.7 1.3 0
v -0.7 1.4 0
v -0.7 2.2 0
v -0.7 2.3 0
v -0.6 1.3 0
v -0.6 1.4 0
v -0.6 1.5 0
v -0.6 2.1 0
v -0.6 2.2 0
v -0.6 2.3 0
v -0.5 1.4 0
v -0.5 1.5 0
v -0.5 1.6 0
v -0.5 2 0
v -0.5 2.1 0
v -0.5 2.2 0
v -0.4 1.5 0
v -0.4 1.6 0
v -0.4 1.7 0
v -0.4 1.9 0
v -0.4 2 0
v -0.4 2.1 0
v -0.3 1.6 0
v -0.3 1.7 0
v -0.3 1.9 0
v -0.3 2 0
v -0.5 1.4 -0.1
v -0.5 1.5 -0.1
v -0.5 2.1 -0.1
v -0.5 2.2 -0.1
v -0.4 1.4 -0.1
v -0.4 1.5 -0.1
v -0.4 1.6 -0.1
v -0.4 2 -0.1
v -0.4 2.1 -0.1
v -0.4 2.2 -0.1
v -0.3 1.5 -0.1
v -0.3 1.6 -0.1
v -0.3 1.7 -0.1
v -0.3 1.9 -0.1
v -0.3 2 -0.1
v -0.3 2.1 -0.1
v -0.2 1.8 -0.1
v -0.2 1.9 -0.1
v -0.1 1.3 -0.1
v -0.1 1.7 -0.1
v -0.1 1.8 -0.1
v 0 1.3 -0.1
v 0 1.7 -0.1
v -0.8 1.4 -0.2
v -0.8 1.5 -0.2
v -0.8 2.1 -0.2
v -0.8 2.2 -0.2
v -0.7 1.4 -0.2
v -0.7 1.5 -0.2
v -0.7 1.6 -0.2
v -0.7 2 -0.2
v -0.7 2.1 -0.2
v -0.7 2.2 -0.2
v -0.6 1.5 -0.2
v -0.6 1.6 -0.2
v -0.6 1.7 -0.2
v -0.6 1.9 -0.2
v -0.6 2 -0.2
v -0.6 2.1 -0.2
v -0.5 1.6 -0.2
v -0.5 1.7 -0.2
v -0.5 1.9 -0.2
v -0.5 2 -0.2
v -0.8 1.6 -0.3
v -0.8 1.7 -0.3
v -0.8 1.9 -0.3
v -0.8 2 -0.3
v -0.7 1.6 -0.3
v -0.7 1.7 -0.3
v -0.7 1.9 -0.3
v -0.7 2 -0.3
v -0.8 1.6 0.1
v -0.8 1.7 0.1
v -0.8 1.9 0.1
v -0.8 2 0.1
v -0.7 1.6 0.1
v -0.7 1.7 0.1
v -0.7 1.9 0.1
v -0.7 2 0.1
v -0.8 1.4 0
v -0.8 1.5 0
v -0.8 2.1 0
v -0.8 2.2 0
v -0.7 1.4 0
v -0.7 1.5 0
v -0.7 1.6 0
v -0.7 2 0
v -0.7 2.1 0
v -0.7 2.2 0
v -0.6 1.5 0
v -0.6 1.6 0
v -0.6 1.7 0
v -0.6 1.9 0
v -0.6 2 0
v -0.6 2.1 0
v -0.5 1.7 0
v -0.5 1.9 0
v -0.7 1.3 -0.1
v -0.7 1.4 -0.1
v -0.7 2.2 -0.1
v -0.7 2.3 -0.1
v -0.6 1.3 -0.1
v -0.6 1.4 -0.1
v -0.6 1.6 -0.1
v -0.6 1.7 -0.1
v -0.6 1.9 -0.1
v -0.6 2 -0.1
v -0.6 2.2 -0.1
v -0.6 2.3 -0.1
v -0.5 1.6 -0.1
v -0.5 1.7 -0.1
v -0.5 1.9 -0.1
v -0.5 2 -0.1
v -0.6 1.4 -0.2
v -0.6 1.5 -0.2
v -0.6 2.1 -0.2
v -0.6 2.2 -0.2
v -0.5 1.5 -0.2
v -0.5 1.6 -0.2
v -0.5 2 -0.2
v -0.5 2.1 -0.2
v -0.4 1.4 -0.2
v -0.4 1.5 -0.2
v -0.4 1.6 -0.2
v -0.4 1.7 -0.2
v -0.4 1.9 -0.2
v -0.4 2 -0.2
v -0.4 2.1 -0.2
v -0.4 2.2 -0.2
v -0.3 1.5 -0.2
v -0.3 1.7 -0.2
v -0.3 1.9 -0.2
v -0.3 2.1 -0.2
v -0.2 1.8 -0.2
v -0.2 1.9 -0.2
v -0.1 1.3 -0.2
v -0.1 1.7 -0.2
v -0.1 1.8 -0.2
v 0 1.3 -0.2
v 0 1.7 -0.2
v -0.8 1.4 -0.3
v -0.8 1.5 -0.3
v -0.8 2.1 -0.3
v -0.8 2.2 -0.3
v -0.7 1.5 -0.3
v -0.7 2.1 -0.3
v -0.6 1.4 -0.3
v -0.6 1.5 -0.3
v -0.6 1.7 -0.3
v -0.6 1.9 -0.3
v -0.6 2.1 -0.3
v -0.6 2.2 -0.3
v -0.5 1.5 -0.3
v -0.5 1.6 -0.3
v -0.5 1.7 -0.3
v -0.5 1.9 -0.3
v -0.5 2 -0.3
v -0.5 2.1 -0.3
v -0.4 1.6 -0.3
v -0.4 1.7 -0.3
v -0.4 1.9 -0.3
v -0.4 2 -0.3
v -0.3 1.7 -0.3
v -0.3 1.9 -0.3
v -0.8 1.6 -0.4
v -0.8 1.7 -0.4
v -0.8 1.9 -0.4
v -0.8 2 -0.4
v -0.7 1.5 -0.4
v -0.7 1.6 -0.4
v -0.7 1.7 -0.4
v -0.7 1.9 -0.4
v -0.7 2 -0.4
v -0.7 2.1 -0.4
v -0.6 1.5 -0.4
v -0.6 1.7 -0.4
v -0.6 1.9 -0.4
v -0.6 2.1 -0.4
v -0.5 1.7 -0.4
v -0.5 1.9 -0.4
v -0.7 1.3 0
v -0.6 1.3 0
v -0.7 1.3 -0.1
v -0.6 1.3 -0.1
v -0.1 1.3 -0.1
v 0 1.3 -0.1
v -0.1 1.3 -0.2
v 0 1.3 -0.2
v -0.8 1.4 0.1
v -0.6 1.4 0.1
v -0.8 1.4 0
v -0.7 1.4 0
v -0.6 1.4 0
v -0.5 1.4 0
v -0.7 1.4 -0.1
v -0.6 1.4 -0.1
v -0.5 1.4 -0.1
v -0.4 1.4 -0.1
v -0.8 1.4 -0.2
v -0.7 1.4 -0.2
v -0.6 1.4 -0.2
v -0.4 1.4 -0.2
v -0.8 1.4 -0.3
v -0.6 1.4 -0.3
v -0.7 1.5 0.2
v -0.6 1.5 0.2
v -0.7 1.5 0.1
v -0.6 1.5 0.1
v -0.5 1.5 0.1
v -0.6 1.5 0
v -0.5 1.5 0
v -0.4 1.5 0
v -0.5 1.5 -0.1
v -0.4 1.5 -0.1
v -0.3 1.5 -0.1
v -0.6 1.5 -0.2
v -0.5 1.5 -0.2
v -0.4 1.5 -0.2
v -0.3 1.5 -0.2
v -0.7 1.5 -0.3
v -0.6 1.5 -0.3
v -0.5 1.5 -0.3
v -0.7 1.5 -0.4
v -0.6 1.5 -0.4
v -0.8 1.6 0.2
v -0.7 1.6 0.2
v -0.8 1.6 0.1
v -0.7 1.6 0.1
v -0.5 1.6 0.1
v -0.4 1.6 0.1
v -0.5 1.6 0
v -0.4 1.6 0
v -0.3 1.6 0
v -0.4 1.6 -0.1
v -0.3 1.6 -0.1
v -0.5 1.6 -0.2
v -0.4 1.6 -0.2
v -0.8 1.6 -0.3
v -0.7 1.6 -0.3
v -0.5 1.6 -0.3
v -0.4 1.6 -0.3
v -0.8 1.6 -0.4
v -0.7 1.6 -0.4
v -0.6 1.7 0.2
v -0.5 1.7 0.2
v -0.6 1.7 0.1
v -0.5 1.7 0.1
v -0.4 1.7 0.1
v -0.3 1.7 0.1
v -0.4 1.7 0
v -0.3 1.7 0
v -0.3 1.7 -0.1
v -0.1 1.7 -0.1
v -0.4 1.7 -0.2
v -0.3 1.7 -0.2
v -0.1 1.7 -0.2
v -0.6 1.7 -0.3
v -0.5 1.7 -0.3
v -0.4 1.7 -0.3
v -0.3 1.7 -0.3
v -0.6 1.7 -0.4
v -0.5 1.7 -0.4
v -0.8 1.9 0.2
v -0.7 1.9 0.2
v -0.8 1.9 0.1
v -0.7 1.9 0.1
v -0.6 1.9 0
v -0.5 1.9 0
v -0.6 1.9 -0.1
v -0.5 1.9 -0.1
v -0.8 1.9 -0.3
v -0.7 1.9 -0.3
v -0.8 1.9 -0.4
v -0.7 1.9 -0.4
v -0.6 2 -0.1
v -0.5 2 -0.1
v -0.6 2 -0.2
v -0.5 2 -0.2
v -0.8 2.1 0.1
v -0.7 2.1 0.1
v -0.8 2.1 0
v -0.7 2.1 0
v -0.6 2.1 0
v -0.7 2.1 -0.1
v -0.6 2.1 -0.1
v -0.8 2.1 -0.2
v -0.7 2.1 -0.2
v -0.6 2.1 -0.2
v -0.8 2.1 -0.3
v -0.7 2.1 -0.3
v -0.8 1.5 0.1
v -0.7 1.5 0.1
v -0.8 1.5 0
v -0.7 1.5 0
v -0.6 1.5 0
v -0.7 1.5 -0.1
v -0.6 1.5 -0.1
v -0.8 1.5 -0.2
v -0.7 1.5 -0.2
v -0.6 1.5 -0.2
v -0.8 1.5 -0.3
v -0.7 1.5 -0.3
v -0.6 1.6 -0.1
v -0.5 1.6 -0.1
v -0.6 1.6 -0.2
v -0.5 1.6 -0.2
v -0.8 1.7 0.2
v -0.7 1.7 0.2
v -0.8 1.7 0.1
v -0.7 1.7 0.1
v -0.6 1.7 0
v -0.5 1.7 0
v -0.6 1.7 -0.1
v -0.5 1.7 -0.1
v -0.1 1.7 -0.1
v 0 1.7 -0.1
v -0.1 1.7 -0.2
v 0 1.7 -0.2
v -0.8 1.7 -0.3
v -0.7 1.7 -0.3
v -0.8 1.7 -0.4
v -0.7 1.7 -0.4
v -0.2 1.8 -0.1
v -0.1 1.8 -0.1
v -0.2 1.8 -0.2
v -0.1 1.8 -0.2
v -0.6 1.9 0.2
v -0.5 1.9 0.2
v -0.6 1.9 0.1
v -0.5 1.9 0.1
v -0.4 1.9 0.1
v -0.3 1.9 0.1
v -0.4 1.9 0
v -0.3 1.9 0
v -0.3 1.9 -0.1
v -0.2 1.9 -0.1
v -0.4 1.9 -0.2
v -0.3 1.9 -0.2
v -0.2 1.9 -0.2
v -0.6 1.9 -0.3
v -0.5 1.9 -0.3
v -0.4 1.9 -0.3
v -0.3 1.9 -0.3
v -0.6 1.9 -0.4
v -0.5 1.9 -0.4
v -0.8 2 0.2
v -0.7 2 0.2
v -0.8 2 0.1
v -0.7 2 0.1
v -0.5 2 0.1
v -0.4 2 0.1
v -0.5 2 0
v -0.4 2 0
v -0.3 2 0
v -0.4 2 -0.1
v -0.3 2 -0.1
v -0.5 2 -0.2
v -0.4 2 -0.2
v -0.8 2 -0.3
v -0.7 2 -0.3
v -0.5 2 -0.3
v -0.4 2 -0.3
v -0.8 2 -0.4
v -0.7 2 -0.4
v -0.7 2.1 0.2
v -0.6 2.1 0.2
v -0.7 2.1 0.1
v -0.6 2.1 0.1
v -0.5 2.1 0.1
v -0.6 2.1 0
v -0.5 2.1 0
v -0.4 2.1 0
v -0.5 2.1 -0.1
v -0.4 2.1 -0.1
v -0.3 2.1 -0.1
v -0.6 2.1 -0.2
v -0.5 2.1 -0.2
v -0.4 2.1 -0.2
v -0.3 2.1 -0.2
v -0.7 2.1 -0.3
v -0.6 2.1 -0.3
v -0.5 2.1 -0.3
v -0.7 2.1 -0.4
v -0.6 2.1 -0.4
v -0.8 2.2 0.1
v -0.6 2.2 0.1
v -0.8 2.2 0
v -0.7 2.2 0
v -0.6 2.2 0
v -0.5 2.2 0
v -0.7 2.2 -0.1
v -0.6 2.2 -0.1
v -0.5 2.2 -0.1
v -0.4 2.2 -0.1
v -0.8 2.2 -0.2
v -0.7 2.2 -0.2
v -0.6 2.2 -0.2
v -0.4 2.2 -0.2
v -0.8 2.2 -0.3
v -0.6 2.2 -0.3
v -0.7 2.3 0
v -0.6 2.3 0
v -0.7 2.3 -0.1
v -0.6 2.3 -0.1

# faces
f 5/5/1 2/5/1 1/5/1
f 6/5/1 2/5/1 5/5/1
f 7/5/1 4/5/1 3/5/1
f 8/5/1 4/5/1 7/5/1
f 13/5/1 10/5/1 9/5/1
f 14/5/1 10/5/1 13/5/1
f 15/5/1 12/5/1 11/5/1
f 16/5/1 12/5/1 15/5/1
f 21/5/1 18/5/1 17/5/1
f 22/5/1 18/5/1 21/5/1
f 23/5/1 20/5/1 19/5/1
f 24/5/1 20/5/1 23/5/1
f 29/5/1 26/5/1 25/5/1
f 30/5/1 26/5/1 29/5/1
f 31/5/1 28/5/1 27/5/1
f 32/5/1 28/5/1 31/5/1
f 35/5/1 34/5/1 33/5/1
f 36/5/1 34/5/1 35/5/1
f 40/1/1 36/1/1 35/1/1
f 41/4/1 37/4/1 36/4/1
f 41/1/1 36/1/1 40/1/1
f 42/4/1 37/4/1 41/4/1
f 45/5/1 39/5/1 38/5/1
f 46/2/1 40/2/1 39/2/1
f 46/5/1 39/5/1 45/5/1
f 47/2/1 40/2/1 46/2/1
f 48/2/1 43/2/1 42/2/1
f 49/5/1 44/5/1 43/5/1
f 49/2/1 43/2/1 48/2/1
f 50/5/1 44/5/1 49/5/1
f 52/3/1 47/3/1 46/3/1
f 53/3/1 49/3/1 48/3/1
f 55/5/1 52/5/1 51/5/1
f 56/3/1 47/3/1 52/3/1
f 56/5/1 52/5/1 55/5/1
f 57/5/1 54/5/1 53/5/1
f 57/3/1 53/3/1 48/3/1
f 58/5/1 54/5/1 57/5/1
f 60/3/1 47/3/1 56/3/1
f 61/3/1 47/3/1 60/3/1
f 62/3/1 57/3/1 48/3/1
f 63/3/1 57/3/1 62/3/1
f 65/5/1 60/5/1 59/5/1
f 66/2/1 61/2/1 60/2/1
f 66/5/1 60/5/1 65/5/1
f 67/2/1 61/2/1 66/2/1
f 69/2/1 63/2/1 62/2/1
f 70/5/1 64/5/1 63/5/1
f 70/2/1 63/2/1 69/2/1
f 71/5/1 64/5/1 70/5/1
f 72/1/1 68/1/1 67/1/1
f 73/4/1 69/4/1 68/4/1
f 73/1/1 68/1/1 72/1/1
f 74/4/1 69/4/1 73/4/1
f 75/5/1 73/5/1 72/5/1
f 76/5/1 73/5/1 75/5/1
f 80/1/1 78/1/1 77/1/1
f 81/4/1 79/4/1 78/4/1
f 81/1/1 78/1/1 80/1/1
f 82/4/1 79/4/1 81/4/1
f 83/2/1 81/2/1 80/2/1
f 84/2/1 81/2/1 83/2/1
f 87/2/1 86/2/1 85/2/1
f 88/2/1 86/2/1 87/2/1
f 90/1/1 88/1/1 87/1/1
f 91/4/1 89/4/1 88/4/1
f 91/1/1 88/1/1 90/1/1
f 92/4/1 89/4/1 91/4/1
f 96/4/1 94/4/1 93/4/1
f 97/4/1 94/4/1 96/4/1
f 98/1/1 96/1/1 95/1/1
f 99/4/1 97/4/1 96/4/1
f 99/1/1 96/1/1 98/1/1
f 100/4/1 97/4/1 99/4/1
f 101/4/1 100/4/1 99/4/1
f 102/4/1 100/4/1 101/4/1
f 105/5/1 104/5/1 103/5/1
f 106/5/1 104/5/1 105/5/1
f 107/5/2 108/5/2 110/5/2
f 110/5/2 108/5/2 111/5/2
f 109/5/2 110/5/2 115/5/2
f 115/5/2 110/5/2 116/5/2
f 112/5/2 113/5/2 117/5/2
f 117/5/2 113/5/2 118/5/2
f 114/5/2 115/5/2 120/5/2
f 120/5/2 115/5/2 121/5/2
f 118/5/2 119/5/2 122/5/2
f 122/5/2 119/5/2 123/5/2
f 124/5/2 125/5/2 128/5/2
f 128/5/2 125/5/2 129/5/2
f 126/5/2 127/5/2 132/5/2
f 132/5/2 127/5/2 133/5/2
f 129/5/2 130/5/2 134/5/2
f 134/5/2 130/5/2 135/5/2
f 131/5/2 132/5/2 137/5/2
f 137/5/2 132/5/2 138/5/2
f 135/5/2 136/5/2 139/5/2
f 139/5/2 136/5/2 140/5/2
f 141/5/2 142/5/2 144/5/2
f 144/5/2 142/5/2 145/5/2
f 143/5/2 144/5/2 148/5/2
f 148/5/2 144/5/2 149/5/2
f 146/5/2 147/5/2 150/5/2
f 150/5/2 147/5/2 151/5/2
f 152/5/2 153/5/2 156/5/2
f 156/5/2 153/5/2 157/5/2
f 154/5/2 155/5/2 158/5/2
f 158/5/2 155/5/2 159/5/2
f 160/5/2 161/5/2 164/5/2
f 164/5/2 161/5/2 165/5/2
f 162/5/2 163/5/2 167/5/2
f 167/5/2 163/5/2 168/5/2
f 165/5/2 166/5/2 169/5/2
f 169/5/2 166/5/2 170/5/2
f 171/5/2 172/5/2 174/5/2
f 174/5/2 172/5/2 175/5/2
f 173/5/2 174/5/2 177/5/2
f 177/5/2 174/5/2 178/5/2
f 176/5/2 177/5/2 181/5/2
f 181/5/2 177/5/2 182/5/2
f 179/5/2 180/5/2 183/5/2
f 183/5/2 180/5/2 184/5/2
f 185/5/2 186/5/2 189/5/2
f 189/5/2 186/5/2 190/5/2
f 187/5/2 188/5/2 192/5/2
f 192/5/2 188/5/2 193/5/2
f 190/5/2 191/5/2 194/5/2
f 194/5/2 191/5/2 195/5/2
f 195/5/2 196/5/2 197/5/2
f 197/5/2 196/5/2 198/5/2
f 199/5/2 200/5/2 202/5/2
f 201/5/2 202/5/2 204/5/2
f 202/5/2 200/5/2 205/5/2
f 204/5/2 202/5/2 205/5/2
f 205/5/2 200/5/2 206/5/2
f 203/5/2 204/5/2 208/5/2
f 204/5/2 205/5/2 208/5/2
f 208/5/2 205/5/2 209/5/2
f 209/5/2 205/5/2 210/5/2
f 206/5/2 207/5/2 211/5/2
f 211/5/2 207/5/2 212/5/2
f 209/5/2 210/5/2 213/5/2
f 210/5/2 211/5/2 213/5/2
f 213/5/2 211/5/2 214/5/2
f 214/5/2 211/5/2 215/5/2
f 215/5/2 211/5/2 216/5/2
f 217/5/2 218/5/2 219/5/2
f 219/5/2 218/5/2 220/5/2
f 221/5/2 222/5/2 223/5/2
f 223/5/2 222/5/2 224/5/2
f 225/5/2 226/5/2 227/5/2
f 227/5/2 226/5/2 228/5/2
f 234/5/3 230/5/3 229/5/3
f 235/5/3 230/5/3 234/5/3
f 236/5/3 232/5/3 231/5/3
f 237/5/3 232/5/3 236/5/3
f 239/5/3 235/5/3 234/5/3
f 239/5/3 238/5/3 237/5/3
f 239/5/3 237/5/3 236/5/3
f 239/5/3 236/5/3 235/5/3
f 239/5/3 234/5/3 233/5/3
f 240/5/3 238/5/3 239/5/3
f 241/5/3 238/5/3 240/5/3
f 242/5/3 238/5/3 241/5/3
f 243/5/3 241/5/3 240/5/3
f 244/5/3 241/5/3 243/5/3
f 249/5/3 246/5/3 245/5/3
f 250/5/3 248/5/3 247/5/3
f 251/5/3 249/5/3 245/5/3
f 252/5/3 249/5/3 251/5/3
f 255/5/3 248/5/3 250/5/3
f 256/5/3 248/5/3 255/5/3
f 257/5/3 253/5/3 252/5/3
f 258/5/3 253/5/3 257/5/3
f 259/5/3 253/5/3 258/5/3
f 260/5/3 255/5/3 254/5/3
f 261/5/3 255/5/3 260/5/3
f 262/5/3 255/5/3 261/5/3
f 263/5/3 259/5/3 258/5/3
f 263/5/3 261/5/3 260/5/3
f 263/5/3 260/5/3 259/5/3
f 264/5/3 261/5/3 263/5/3
f 265/5/3 261/5/3 264/5/3
f 266/5/3 261/5/3 265/5/3
f 267/5/3 265/5/3 264/5/3
f 268/5/3 265/5/3 267/5/3
f 273/5/3 270/5/3 269/5/3
f 274/5/3 270/5/3 273/5/3
f 277/5/3 272/5/3 271/5/3
f 278/5/3 272/5/3 277/5/3
f 279/5/3 275/5/3 274/5/3
f 280/5/3 275/5/3 279/5/3
f 283/5/3 277/5/3 276/5/3
f 284/5/3 277/5/3 283/5/3
f 285/5/3 281/5/3 280/5/3
f 286/5/3 281/5/3 285/5/3
f 289/5/3 283/5/3 282/5/3
f 290/5/3 283/5/3 289/5/3
f 291/5/3 287/5/3 286/5/3
f 292/5/3 287/5/3 291/5/3
f 293/5/3 289/5/3 288/5/3
f 294/5/3 289/5/3 293/5/3
f 299/5/3 296/5/3 295/5/3
f 300/5/3 296/5/3 299/5/3
f 303/5/3 298/5/3 297/5/3
f 304/5/3 298/5/3 303/5/3
f 305/5/3 301/5/3 300/5/3
f 306/5/3 301/5/3 305/5/3
f 309/5/3 303/5/3 302/5/3
f 310/5/3 303/5/3 309/5/3
f 311/5/3 308/5/3 307/5/3
f 312/5/3 308/5/3 311/5/3
f 314/5/3 311/5/3 307/5/3
f 315/5/3 311/5/3 314/5/3
f 316/5/3 314/5/3 313/5/3
f 317/5/3 314/5/3 316/5/3
f 322/5/3 319/5/3 318/5/3
f 323/5/3 319/5/3 322/5/3
f 326/5/3 321/5/3 320/5/3
f 327/5/3 321/5/3 326/5/3
f 328/2/3 324/2/3 323/2/3
f 329/3/3 325/3/3 324/3/3
f 329/2/3 324/2/3 328/2/3
f 330/3/3 325/3/3 329/3/3
f 331/3/3 325/3/3 330/3/3
f 332/2/3 326/2/3 325/2/3
f 332/3/3 325/3/3 331/3/3
f 333/2/3 326/2/3 332/2/3
f 334/5/3 330/5/3 329/5/3
f 335/2/3 331/2/3 330/2/3
f 335/5/3 330/5/3 334/5/3
f 336/5/3 332/5/3 331/5/3
f 336/2/3 331/2/3 335/2/3
f 337/5/3 332/5/3 336/5/3
f 342/5/3 339/5/3 338/5/3
f 343/5/3 339/5/3 342/5/3
f 344/5/3 341/5/3 340/5/3
f 345/5/3 341/5/3 344/5/3
f 346/5/4 347/5/4 350/5/4
f 350/5/4 347/5/4 351/5/4
f 348/5/4 349/5/4 352/5/4
f 352/5/4 349/5/4 353/5/4
f 354/5/4 355/5/4 358/5/4
f 358/5/4 355/5/4 359/5/4
f 356/5/4 357/5/4 362/5/4
f 362/5/4 357/5/4 363/5/4
f 359/2/4 360/2/4 364/2/4
f 360/3/4 361/3/4 365/3/4
f 364/2/4 360/2/4 365/2/4
f 365/3/4 361/3/4 366/3/4
f 366/3/4 361/3/4 367/3/4
f 361/2/4 362/2/4 368/2/4
f 367/3/4 361/3/4 368/3/4
f 368/2/4 362/2/4 369/2/4
f 366/2/4 367/2/4 370/2/4
f 370/2/4 367/2/4 371/2/4
f 372/5/4 373/5/4 376/5/4
f 376/5/4 373/5/4 377/5/4
f 374/5/4 375/5/4 382/5/4
f 382/5/4 375/5/4 383/5/4
f 378/2/4 379/2/4 384/2/4
f 384/2/4 379/2/4 385/2/4
f 380/2/4 381/2/4 386/2/4
f 386/2/4 381/2/4 387/2/4
f 388/5/4 389/5/4 392/5/4
f 390/5/4 391/5/4 395/5/4
f 392/5/4 393/5/4 396/5/4
f 388/5/4 392/5/4 396/5/4
f 396/5/4 393/5/4 397/5/4
f 397/5/4 393/5/4 398/5/4
f 394/5/4 395/5/4 401/5/4
f 395/5/4 391/5/4 402/5/4
f 401/5/4 395/5/4 402/5/4
f 402/5/4 391/5/4 403/5/4
f 398/5/4 399/5/4 404/5/4
f 397/5/4 398/5/4 404/5/4
f 404/5/4 399/5/4 405/5/4
f 400/5/4 401/5/4 406/5/4
f 401/5/4 402/5/4 406/5/4
f 406/5/4 402/5/4 407/5/4
f 405/5/4 406/5/4 408/5/4
f 408/5/4 406/5/4 409/5/4
f 405/5/4 408/5/4 411/5/4
f 411/5/4 408/5/4 412/5/4
f 410/5/4 411/5/4 413/5/4
f 413/5/4 411/5/4 414/5/4
f 415/5/4 416/5/4 419/5/4
f 417/5/4 418/5/4 420/5/4
f 415/5/4 419/5/4 421/5/4
f 421/5/4 419/5/4 422/5/4
f 420/5/4 418/5/4 425/5/4
f 425/5/4 418/5/4 426/5/4
f 422/5/4 423/5/4 427/5/4
f 427/5/4 423/5/4 428/5/4
f 428/5/4 423/5/4 429/5/4
f 424/5/4 425/5/4 430/5/4
f 430/5/4 425/5/4 431/5/4
f 431/5/4 425/5/4 432/5/4
f 428/5/4 429/5/4 433/5/4
f 430/5/4 431/5/4 433/5/4
f 429/5/4 430/5/4 433/5/4
f 433/5/4 431/5/4 434/5/4
f 434/5/4 431/5/4 435/5/4
f 435/5/4 431/5/4 436/5/4
f 434/5/4 435/5/4 437/5/4
f 437/5/4 435/5/4 438/5/4
f 439/5/4 440/5/4 444/5/4
f 444/5/4 440/5/4 445/5/4
f 441/5/4 442/5/4 446/5/4
f 446/5/4 442/5/4 447/5/4
f 444/5/4 445/5/4 449/5/4
f 447/5/4 448/5/4 449/5/4
f 446/5/4 447/5/4 449/5/4
f 445/5/4 446/5/4 449/5/4
f 443/5/4 444/5/4 449/5/4
f 449/5/4 448/5/4 450/5/4
f 450/5/4 448/5/4 451/5/4
f 451/5/4 448/5/4 452/5/4
f 450/5/4 451/5/4 453/5/4
f 453/5/4 451/5/4 454/5/4
f 457/5/5 456/5/5 455/5/5
f 458/5/5 456/5/5 457/5/5
f 461/5/5 460/5/5 459/5/5
f 462/5/5 460/5/5 461/5/5
f 465/5/5 464/5/5 463/5/5
f 466/5/5 464/5/5 465/5/5
f 467/5/5 464/5/5 466/5/5
f 470/5/5 468/5/5 467/5/5
f 471/5/5 468/5/5 470/5/5
f 474/4/5 470/4/5 469/4/5
f 475/5/5 472/5/5 471/5/5
f 475/5/5 471/5/5 470/5/5
f 475/4/5 470/4/5 474/4/5
f 476/5/5 472/5/5 475/5/5
f 477/5/5 474/5/5 473/5/5
f 477/5/5 475/5/5 474/5/5
f 478/5/5 475/5/5 477/5/5
f 481/5/5 480/5/5 479/5/5
f 482/5/5 480/5/5 481/5/5
f 484/5/5 483/5/5 482/5/5
f 485/5/5 483/5/5 484/5/5
f 487/5/5 486/5/5 485/5/5
f 488/5/5 486/5/5 487/5/5
f 492/5/5 489/5/5 488/5/5
f 493/5/5 489/5/5 492/5/5
f 495/5/5 491/5/5 490/5/5
f 496/5/5 491/5/5 495/5/5
f 497/5/5 495/5/5 494/5/5
f 498/5/5 495/5/5 497/5/5
f 501/5/5 500/5/5 499/5/5
f 502/5/5 500/5/5 501/5/5
f 505/5/5 504/5/5 503/5/5
f 506/5/5 504/5/5 505/5/5
f 508/5/5 507/5/5 506/5/5
f 509/5/5 507/5/5 508/5/5
f 514/5/5 511/5/5 510/5/5
f 515/5/5 511/5/5 514/5/5
f 516/5/5 513/5/5 512/5/5
f 517/5/5 513/5/5 516/5/5
f 520/5/5 519/5/5 518/5/5
f 521/5/5 519/5/5 520/5/5
f 524/5/5 523/5/5 522/5/5
f 525/5/5 523/5/5 524/5/5
f 529/5/5 527/5/5 526/5/5
f 530/5/5 527/5/5 529/5/5
f 533/5/5 529/5/5 528/5/5
f 534/5/5 529/5/5 533/5/5
f 535/5/5 532/5/5 531/5/5
f 536/5/5 532/5/5 535/5/5
f 539/5/5 538/5/5 537/5/5
f 540/5/5 538/5/5 539/5/5
f 543/2/5 542/2/5 541/2/5
f 544/2/5 542/2/5 543/2/5
f 547/5/5 546/5/5 545/5/5
f 548/5/5 546/5/5 547/5/5
f 551/4/5 550/4/5 549/4/5
f 552/4/5 550/4/5 551/4/5
f 555/5/5 554/5/5 553/5/5
f 556/5/5 554/5/5 555/5/5
f 558/1/5 557/1/5 556/1/5
f 559/1/5 557/1/5 558/1/5
f 561/4/5 559/4/5 558/4/5
f 562/4/5 559/4/5 561/4/5
f 563/5/5 561/5/5 560/5/5
f 564/5/5 561/5/5 563/5/5
f 565/5/6 566/5/6 567/5/6
f 567/5/6 566/5/6 568/5/6
f 568/1/6 569/1/6 570/1/6
f 570/1/6 569/1/6 571/1/6
f 570/4/6 571/4/6 573/4/6
f 573/4/6 571/4/6 574/4/6
f 572/5/6 573/5/6 575/5/6
f 575/5/6 573/5/6 576/5/6
f 577/4/6 578/4/6 579/4/6
f 579/4/6 578/4/6 580/4/6
f 581/5/6 582/5/6 583/5/6
f 583/5/6 582/5/6 584/5/6
f 585/2/6 586/2/6 587/2/6
f 587/2/6 586/2/6 588/2/6
f 589/5/6 590/5/6 591/5/6
f 591/5/6 590/5/6 592/5/6
f 593/5/6 594/5/6 595/5/6
f 595/5/6 594/5/6 596/5/6
f 597/5/6 598/5/6 599/5/6
f 599/5/6 598/5/6 600/5/6
f 601/5/6 602/5/6 603/5/6
f 603/5/6 602/5/6 604/5/6
f 605/5/6 606/5/6 607/5/6
f 607/5/6 606/5/6 608/5/6
f 609/5/6 610/5/6 612/5/6
f 612/5/6 610/5/6 613/5/6
f 611/5/6 612/5/6 616/5/6
f 616/5/6 612/5/6 617/5/6
f 614/5/6 615/5/6 618/5/6
f 618/5/6 615/5/6 619/5/6
f 620/5/6 621/5/6 622/5/6
f 622/5/6 621/5/6 623/5/6
f 624/5/6 625/5/6 626/5/6
f 626/5/6 625/5/6 627/5/6
f 627/5/6 628/5/6 629/5/6
f 629/5/6 628/5/6 630/5/6
f 631/5/6 632/5/6 635/5/6
f 635/5/6 632/5/6 636/5/6
f 633/5/6 634/5/6 637/5/6
f 637/5/6 634/5/6 638/5/6
f 639/5/6 640/5/6 641/5/6
f 641/5/6 640/5/6 642/5/6
f 642/5/6 643/5/6 644/5/6
f 644/5/6 643/5/6 645/5/6
f 645/5/6 646/5/6 647/5/6
f 647/5/6 646/5/6 648/5/6
f 648/5/6 649/5/6 652/5/6
f 652/5/6 649/5/6 653/5/6
f 650/5/6 651/5/6 655/5/6
f 655/5/6 651/5/6 656/5/6
f 654/5/6 655/5/6 657/5/6
f 657/5/6 655/5/6 658/5/6
f 659/5/6 660/5/6 661/5/6
f 661/5/6 660/5/6 662/5/6
f 662/5/6 660/5/6 663/5/6
f 663/5/6 664/5/6 666/5/6
f 666/5/6 664/5/6 667/5/6
f 665/4/6 666/4/6 670/4/6
f 667/5/6 668/5/6 671/5/6
f 666/5/6 667/5/6 671/5/6
f 670/4/6 666/4/6 671/4/6
f 671/5/6 668/5/6 672/5/6
f 669/5/6 670/5/6 673/5/6
f 670/5/6 671/5/6 673/5/6
f 673/5/6 671/5/6 674/5/6
f 675/5/6 676/5/6 677/5/6
f 677/5/6 676/5/6 678/5/6
