# MagicaVoxel @ Ephtracy

# group
o 

# material
mtllib Female1-5.mtl
usemtl palette

# normals
vn -1 0 0
vn 1 0 0
vn 0 0 1
vn 0 0 -1
vn 0 -1 0
vn 0 1 0

# texcoords
vt 0.0332031 0.5
vt 0.0371094 0.5
vt 0.0527344 0.5
vt 0.0605469 0.5
vt 0.943359 0.5
vt 0.955078 0.5
vt 0.958984 0.5
vt 0.978516 0.5
vt 0.994141 0.5

# verts
v 3.6 1.6 -2.98023e-008
v 3.6 1.6 -0.1
v 3.6 1.9 -2.98023e-008
v 3.6 1.9 -0.1
v 3.7 1.2 0.1
v 3.7 1.2 -2.98023e-008
v 3.7 1.3 0.1
v 3.7 1.3 -2.98023e-008
v 3.7 1.4 -0.1
v 3.7 1.4 -0.2
v 3.7 1.5 0.2
v 3.7 1.5 0.1
v 3.7 1.5 -2.98023e-008
v 3.7 1.5 -0.1
v 3.7 1.6 0.1
v 3.7 1.6 -2.98023e-008
v 3.7 1.6 -0.1
v 3.7 1.8 0.1
v 3.7 1.8 -2.98023e-008
v 3.7 1.9 0.1
v 3.7 1.9 -2.98023e-008
v 3.7 1.9 -0.1
v 3.7 1.9 -0.2
v 3.7 2 0.2
v 3.7 2 -0.1
v 3.8 1.2 0.2
v 3.8 1.2 0.1
v 3.8 1.2 -2.98023e-008
v 3.8 1.2 -0.1
v 3.8 1.3 0.1
v 3.8 1.3 -2.98023e-008
v 3.8 1.4 -0.1
v 3.8 1.5 0.2
v 3.8 1.5 0.1
v 3.8 1.5 -2.98023e-008
v 3.8 1.5 -0.1
v 3.8 1.5 -0.2
v 3.8 1.5 -0.3
v 3.8 1.8 -0.2
v 3.8 1.8 -0.3
v 3.8 1.9 0.3
v 3.8 1.9 0.2
v 3.8 1.9 -0.1
v 3.8 1.9 -0.2
v 3.8 2 0.3
v 3.8 2 0.2
v 3.8 2 0.1
v 3.8 2 -2.98023e-008
v 3.8 2 -0.1
v 3.8 2 -0.2
v 3.8 2.1 0.1
v 3.8 2.1 -2.98023e-008
v 3.9 1 0.1
v 3.9 1 -2.98023e-008
v 3.9 1.1 0.1
v 3.9 1.1 -2.98023e-008
v 3.9 1.2 0.1
v 3.9 1.2 -2.98023e-008
v 3.9 1.6 0.1
v 3.9 1.6 -0.1
v 3.9 1.7 0.1
v 3.9 1.7 -0.1
v 3.9 1.8 -0.2
v 3.9 1.8 -0.3
v 3.9 1.9 -0.2
v 3.9 1.9 -0.3
v 3.9 2 0.2
v 3.9 2 0.1
v 3.9 2 -2.98023e-008
v 3.9 2 -0.1
v 3.9 2.1 0.2
v 3.9 2.1 0.1
v 3.9 2.1 -2.98023e-008
v 3.9 2.1 -0.1
v 4.2 1.6 0.2
v 4.2 1.6 -0.1
v 4.2 1.7 0.2
v 4.2 1.7 -0.1
v 3.8 1.6 0.2
v 3.8 1.6 -0.1
v 3.8 1.7 0.2
v 3.8 1.7 -0.1
v 4.1 1 0.1
v 4.1 1 -2.98023e-008
v 4.1 1.1 0.1
v 4.1 1.1 -2.98023e-008
v 4.1 1.2 0.1
v 4.1 1.2 -2.98023e-008
v 4.1 1.6 0.1
v 4.1 1.6 -0.1
v 4.1 1.7 0.1
v 4.1 1.7 -0.1
v 4.1 1.8 -0.2
v 4.1 1.8 -0.3
v 4.1 1.9 -0.2
v 4.1 1.9 -0.3
v 4.1 2 0.2
v 4.1 2 0.1
v 4.1 2 -2.98023e-008
v 4.1 2 -0.1
v 4.1 2.1 0.2
v 4.1 2.1 0.1
v 4.1 2.1 -2.98023e-008
v 4.1 2.1 -0.1
v 4.2 1.2 0.2
v 4.2 1.2 0.1
v 4.2 1.2 -2.98023e-008
v 4.2 1.2 -0.1
v 4.2 1.3 0.1
v 4.2 1.3 -2.98023e-008
v 4.2 1.4 -0.1
v 4.2 1.5 0.2
v 4.2 1.5 0.1
v 4.2 1.5 -2.98023e-008
v 4.2 1.5 -0.1
v 4.2 1.5 -0.2
v 4.2 1.5 -0.3
v 4.2 1.8 -0.2
v 4.2 1.8 -0.3
v 4.2 1.9 0.3
v 4.2 1.9 0.2
v 4.2 1.9 -0.1
v 4.2 1.9 -0.2
v 4.2 2 0.3
v 4.2 2 0.2
v 4.2 2 0.1
v 4.2 2 -2.98023e-008
v 4.2 2 -0.1
v 4.2 2 -0.2
v 4.2 2.1 0.1
v 4.2 2.1 -2.98023e-008
v 4.3 1.2 0.1
v 4.3 1.2 -2.98023e-008
v 4.3 1.3 0.1
v 4.3 1.3 -2.98023e-008
v 4.3 1.4 -0.1
v 4.3 1.4 -0.2
v 4.3 1.5 0.2
v 4.3 1.5 0.1
v 4.3 1.5 -2.98023e-008
v 4.3 1.5 -0.1
v 4.3 1.6 0.1
v 4.3 1.6 -2.98023e-008
v 4.3 1.6 -0.1
v 4.3 1.8 0.1
v 4.3 1.8 -2.98023e-008
v 4.3 1.9 0.1
v 4.3 1.9 -2.98023e-008
v 4.3 1.9 -0.1
v 4.3 1.9 -0.2
v 4.3 2 0.2
v 4.3 2 -0.1
v 4.4 1.6 -2.98023e-008
v 4.4 1.6 -0.1
v 4.4 1.9 -2.98023e-008
v 4.4 1.9 -0.1
v 3.8 1.9 0.3
v 3.8 2 0.3
v 4.2 1.9 0.3
v 4.2 2 0.3
v 3.7 1.5 0.2
v 3.7 2 0.2
v 3.8 1.2 0.2
v 3.8 1.5 0.2
v 3.8 1.6 0.2
v 3.8 1.7 0.2
v 3.8 1.8 0.2
v 3.8 1.9 0.2
v 3.8 2 0.2
v 3.9 1.2 0.2
v 3.9 1.6 0.2
v 3.9 1.8 0.2
v 3.9 1.9 0.2
v 3.9 2 0.2
v 3.9 2.1 0.2
v 4.1 1.2 0.2
v 4.1 1.6 0.2
v 4.1 1.8 0.2
v 4.1 1.9 0.2
v 4.1 2 0.2
v 4.1 2.1 0.2
v 4.2 1.2 0.2
v 4.2 1.5 0.2
v 4.2 1.6 0.2
v 4.2 1.7 0.2
v 4.2 1.8 0.2
v 4.2 1.9 0.2
v 4.2 2 0.2
v 4.3 1.5 0.2
v 4.3 2 0.2
v 3.7 1.2 0.1
v 3.7 1.3 0.1
v 3.7 1.5 0.1
v 3.8 1.2 0.1
v 3.8 1.3 0.1
v 3.8 1.5 0.1
v 3.8 2 0.1
v 3.8 2.1 0.1
v 3.9 1 0.1
v 3.9 1.1 0.1
v 3.9 1.2 0.1
v 3.9 1.6 0.1
v 3.9 1.7 0.1
v 3.9 2 0.1
v 3.9 2.1 0.1
v 4.1 1 0.1
v 4.1 1.1 0.1
v 4.1 1.2 0.1
v 4.1 1.6 0.1
v 4.1 1.7 0.1
v 4.1 2 0.1
v 4.1 2.1 0.1
v 4.2 1.2 0.1
v 4.2 1.3 0.1
v 4.2 1.5 0.1
v 4.2 2 0.1
v 4.2 2.1 0.1
v 4.3 1.2 0.1
v 4.3 1.3 0.1
v 4.3 1.5 0.1
v 3.6 1.6 -2.98023e-008
v 3.6 1.9 -2.98023e-008
v 3.7 1.6 -2.98023e-008
v 3.7 1.8 -2.98023e-008
v 3.7 1.9 -2.98023e-008
v 4.3 1.6 -2.98023e-008
v 4.3 1.8 -2.98023e-008
v 4.3 1.9 -2.98023e-008
v 4.4 1.6 -2.98023e-008
v 4.4 1.9 -2.98023e-008
v 3.7 1.4 -0.1
v 3.7 1.5 -0.1
v 3.8 1.4 -0.1
v 3.8 1.5 -0.1
v 3.8 1.6 -0.1
v 3.8 1.7 -0.1
v 3.9 1.6 -0.1
v 3.9 1.7 -0.1
v 4.1 1.6 -0.1
v 4.1 1.7 -0.1
v 4.2 1.4 -0.1
v 4.2 1.5 -0.1
v 4.2 1.6 -0.1
v 4.2 1.7 -0.1
v 4.3 1.4 -0.1
v 4.3 1.5 -0.1
v 3.7 1.2 -2.98023e-008
v 3.7 1.3 -2.98023e-008
v 3.7 1.5 -2.98023e-008
v 3.8 1.2 -2.98023e-008
v 3.8 1.3 -2.98023e-008
v 3.8 1.5 -2.98023e-008
v 3.8 2 -2.98023e-008
v 3.8 2.1 -2.98023e-008
v 3.9 1 -2.98023e-008
v 3.9 1.1 -2.98023e-008
v 3.9 1.2 -2.98023e-008
v 3.9 2 -2.98023e-008
v 3.9 2.1 -2.98023e-008
v 4.1 1 -2.98023e-008
v 4.1 1.1 -2.98023e-008
v 4.1 1.2 -2.98023e-008
v 4.1 2 -2.98023e-008
v 4.1 2.1 -2.98023e-008
v 4.2 1.2 -2.98023e-008
v 4.2 1.3 -2.98023e-008
v 4.2 1.5 -2.98023e-008
v 4.2 2 -2.98023e-008
v 4.2 2.1 -2.98023e-008
v 4.3 1.2 -2.98023e-008
v 4.3 1.3 -2.98023e-008
v 4.3 1.5 -2.98023e-008
v 3.6 1.6 -0.1
v 3.6 1.9 -0.1
v 3.7 1.6 -0.1
v 3.7 1.9 -0.1
v 3.7 2 -0.1
v 3.8 1.2 -0.1
v 3.8 1.4 -0.1
v 3.8 1.9 -0.1
v 3.8 2 -0.1
v 3.9 2 -0.1
v 3.9 2.1 -0.1
v 4.1 2 -0.1
v 4.1 2.1 -0.1
v 4.2 1.2 -0.1
v 4.2 1.4 -0.1
v 4.2 1.9 -0.1
v 4.2 2 -0.1
v 4.3 1.6 -0.1
v 4.3 1.9 -0.1
v 4.3 2 -0.1
v 4.4 1.6 -0.1
v 4.4 1.9 -0.1
v 3.7 1.4 -0.2
v 3.7 1.9 -0.2
v 3.8 1.5 -0.2
v 3.8 1.8 -0.2
v 3.8 1.9 -0.2
v 3.8 2 -0.2
v 3.9 1.8 -0.2
v 3.9 1.9 -0.2
v 4.1 1.8 -0.2
v 4.1 1.9 -0.2
v 4.2 1.5 -0.2
v 4.2 1.8 -0.2
v 4.2 1.9 -0.2
v 4.2 2 -0.2
v 4.3 1.4 -0.2
v 4.3 1.9 -0.2
v 3.8 1.5 -0.3
v 3.8 1.8 -0.3
v 3.9 1.8 -0.3
v 3.9 1.9 -0.3
v 4.1 1.8 -0.3
v 4.1 1.9 -0.3
v 4.2 1.5 -0.3
v 4.2 1.8 -0.3
v 3.9 1 0.1
v 4.1 1 0.1
v 3.9 1 -2.98023e-008
v 4.1 1 -2.98023e-008
v 3.8 1.2 0.2
v 3.9 1.2 0.2
v 4.1 1.2 0.2
v 4.2 1.2 0.2
v 3.7 1.2 0.1
v 3.8 1.2 0.1
v 3.9 1.2 0.1
v 4.1 1.2 0.1
v 4.2 1.2 0.1
v 4.3 1.2 0.1
v 3.7 1.2 -2.98023e-008
v 3.8 1.2 -2.98023e-008
v 3.9 1.2 -2.98023e-008
v 4.1 1.2 -2.98023e-008
v 4.2 1.2 -2.98023e-008
v 4.3 1.2 -2.98023e-008
v 3.8 1.2 -0.1
v 4.2 1.2 -0.1
v 3.7 1.4 -0.1
v 3.8 1.4 -0.1
v 4.2 1.4 -0.1
v 4.3 1.4 -0.1
v 3.7 1.4 -0.2
v 4.3 1.4 -0.2
v 3.7 1.5 0.2
v 3.8 1.5 0.2
v 4.2 1.5 0.2
v 4.3 1.5 0.2
v 3.7 1.5 0.1
v 3.8 1.5 0.1
v 4.2 1.5 0.1
v 4.3 1.5 0.1
v 3.7 1.5 -2.98023e-008
v 3.8 1.5 -2.98023e-008
v 4.2 1.5 -2.98023e-008
v 4.3 1.5 -2.98023e-008
v 3.7 1.5 -0.1
v 3.8 1.5 -0.1
v 4.2 1.5 -0.1
v 4.3 1.5 -0.1
v 3.8 1.5 -0.2
v 4.2 1.5 -0.2
v 3.8 1.5 -0.3
v 4.2 1.5 -0.3
v 3.6 1.6 -2.98023e-008
v 3.7 1.6 -2.98023e-008
v 4.3 1.6 -2.98023e-008
v 4.4 1.6 -2.98023e-008
v 3.6 1.6 -0.1
v 3.7 1.6 -0.1
v 4.3 1.6 -0.1
v 4.4 1.6 -0.1
v 3.8 1.7 0.2
v 4.2 1.7 0.2
v 3.9 1.7 0.1
v 4.1 1.7 0.1
v 3.8 1.7 -0.1
v 3.9 1.7 -0.1
v 4.1 1.7 -0.1
v 4.2 1.7 -0.1
v 3.8 1.9 0.3
v 4.2 1.9 0.3
v 3.8 1.9 0.2
v 3.9 1.9 0.2
v 4.1 1.9 0.2
v 4.2 1.9 0.2
v 3.8 1.6 0.2
v 3.9 1.6 0.2
v 4.1 1.6 0.2
v 4.2 1.6 0.2
v 3.9 1.6 0.1
v 4.1 1.6 0.1
v 3.8 1.6 -0.1
v 3.9 1.6 -0.1
v 4.1 1.6 -0.1
v 4.2 1.6 -0.1
v 3.8 1.8 -0.2
v 3.9 1.8 -0.2
v 4.1 1.8 -0.2
v 4.2 1.8 -0.2
v 3.8 1.8 -0.3
v 3.9 1.8 -0.3
v 4.1 1.8 -0.3
v 4.2 1.8 -0.3
v 3.6 1.9 -2.98023e-008
v 3.7 1.9 -2.98023e-008
v 4.3 1.9 -2.98023e-008
v 4.4 1.9 -2.98023e-008
v 3.6 1.9 -0.1
v 3.7 1.9 -0.1
v 3.8 1.9 -0.1
v 4.2 1.9 -0.1
v 4.3 1.9 -0.1
v 4.4 1.9 -0.1
v 3.7 1.9 -0.2
v 3.8 1.9 -0.2
v 3.9 1.9 -0.2
v 4.1 1.9 -0.2
v 4.2 1.9 -0.2
v 4.3 1.9 -0.2
v 3.9 1.9 -0.3
v 4.1 1.9 -0.3
v 3.8 2 0.3
v 4.2 2 0.3
v 3.7 2 0.2
v 3.8 2 0.2
v 3.9 2 0.2
v 4.1 2 0.2
v 4.2 2 0.2
v 4.3 2 0.2
v 3.8 2 0.1
v 3.9 2 0.1
v 4.1 2 0.1
v 4.2 2 0.1
v 3.8 2 -2.98023e-008
v 3.9 2 -2.98023e-008
v 4.1 2 -2.98023e-008
v 4.2 2 -2.98023e-008
v 3.7 2 -0.1
v 3.8 2 -0.1
v 3.9 2 -0.1
v 4.1 2 -0.1
v 4.2 2 -0.1
v 4.3 2 -0.1
v 3.8 2 -0.2
v 4.2 2 -0.2
v 3.9 2.1 0.2
v 4.1 2.1 0.2
v 3.8 2.1 0.1
v 3.9 2.1 0.1
v 4.1 2.1 0.1
v 4.2 2.1 0.1
v 3.8 2.1 -2.98023e-008
v 3.9 2.1 -2.98023e-008
v 4.1 2.1 -2.98023e-008
v 4.2 2.1 -2.98023e-008
v 3.9 2.1 -0.1
v 4.1 2.1 -0.1

# faces
f 3/2/1 2/2/1 1/2/1
f 4/2/1 2/2/1 3/2/1
f 7/1/1 6/1/1 5/1/1
f 8/1/1 6/1/1 7/1/1
f 12/3/1 8/3/1 7/3/1
f 13/3/1 8/3/1 12/3/1
f 14/2/1 10/2/1 9/2/1
f 15/3/1 13/3/1 12/3/1
f 15/2/1 12/2/1 11/2/1
f 16/2/1 14/2/1 13/2/1
f 16/3/1 13/3/1 15/3/1
f 17/2/1 10/2/1 14/2/1
f 17/2/1 14/2/1 16/2/1
f 18/2/1 15/2/1 11/2/1
f 18/2/1 16/2/1 15/2/1
f 19/2/1 16/2/1 18/2/1
f 20/2/1 18/2/1 11/2/1
f 20/4/1 19/4/1 18/4/1
f 21/4/1 19/4/1 20/4/1
f 22/2/1 10/2/1 17/2/1
f 23/2/1 10/2/1 22/2/1
f 24/2/1 21/2/1 20/2/1
f 24/2/1 20/2/1 11/2/1
f 24/2/1 22/2/1 21/2/1
f 25/2/1 22/2/1 24/2/1
f 30/3/1 27/3/1 26/3/1
f 31/3/1 29/3/1 28/3/1
f 32/3/1 29/3/1 31/3/1
f 33/3/1 30/3/1 26/3/1
f 34/3/1 30/3/1 33/3/1
f 35/3/1 32/3/1 31/3/1
f 36/3/1 32/3/1 35/3/1
f 39/2/1 38/2/1 37/2/1
f 40/2/1 38/2/1 39/2/1
f 45/2/1 42/2/1 41/2/1
f 46/2/1 42/2/1 45/2/1
f 49/2/1 44/2/1 43/2/1
f 50/2/1 44/2/1 49/2/1
f 51/2/1 48/2/1 47/2/1
f 52/2/1 48/2/1 51/2/1
f 55/9/1 54/9/1 53/9/1
f 56/9/1 54/9/1 55/9/1
f 57/5/1 56/5/1 55/5/1
f 58/5/1 56/5/1 57/5/1
f 61/1/1 60/1/1 59/1/1
f 62/1/1 60/1/1 61/1/1
f 65/2/1 64/2/1 63/2/1
f 66/2/1 64/2/1 65/2/1
f 71/2/1 68/2/1 67/2/1
f 72/2/1 68/2/1 71/2/1
f 73/2/1 70/2/1 69/2/1
f 74/2/1 70/2/1 73/2/1
f 77/2/1 76/2/1 75/2/1
f 78/2/1 76/2/1 77/2/1
f 79/2/2 80/2/2 81/2/2
f 81/2/2 80/2/2 82/2/2
f 83/9/2 84/9/2 85/9/2
f 85/9/2 84/9/2 86/9/2
f 85/5/2 86/5/2 87/5/2
f 87/5/2 86/5/2 88/5/2
f 89/1/2 90/1/2 91/1/2
f 91/1/2 90/1/2 92/1/2
f 93/2/2 94/2/2 95/2/2
f 95/2/2 94/2/2 96/2/2
f 97/2/2 98/2/2 101/2/2
f 101/2/2 98/2/2 102/2/2
f 99/2/2 100/2/2 103/2/2
f 103/2/2 100/2/2 104/2/2
f 105/3/2 106/3/2 109/3/2
f 107/3/2 108/3/2 110/3/2
f 110/3/2 108/3/2 111/3/2
f 105/3/2 109/3/2 112/3/2
f 112/3/2 109/3/2 113/3/2
f 110/3/2 111/3/2 114/3/2
f 114/3/2 111/3/2 115/3/2
f 116/2/2 117/2/2 118/2/2
f 118/2/2 117/2/2 119/2/2
f 120/2/2 121/2/2 124/2/2
f 124/2/2 121/2/2 125/2/2
f 122/2/2 123/2/2 128/2/2
f 128/2/2 123/2/2 129/2/2
f 126/2/2 127/2/2 130/2/2
f 130/2/2 127/2/2 131/2/2
f 132/1/2 133/1/2 134/1/2
f 134/1/2 133/1/2 135/1/2
f 134/3/2 135/3/2 139/3/2
f 139/3/2 135/3/2 140/3/2
f 136/2/2 137/2/2 141/2/2
f 139/3/2 140/3/2 142/3/2
f 138/2/2 139/2/2 142/2/2
f 140/2/2 141/2/2 143/2/2
f 142/3/2 140/3/2 143/3/2
f 141/2/2 137/2/2 144/2/2
f 143/2/2 141/2/2 144/2/2
f 138/2/2 142/2/2 145/2/2
f 142/2/2 143/2/2 145/2/2
f 145/2/2 143/2/2 146/2/2
f 138/2/2 145/2/2 147/2/2
f 145/4/2 146/4/2 147/4/2
f 147/4/2 146/4/2 148/4/2
f 144/2/2 137/2/2 149/2/2
f 149/2/2 137/2/2 150/2/2
f 147/2/2 148/2/2 151/2/2
f 138/2/2 147/2/2 151/2/2
f 148/2/2 149/2/2 151/2/2
f 151/2/2 149/2/2 152/2/2
f 153/2/2 154/2/2 155/2/2
f 155/2/2 154/2/2 156/2/2
f 159/2/3 158/2/3 157/2/3
f 160/2/3 158/2/3 159/2/3
f 164/2/3 162/2/3 161/2/3
f 165/2/3 162/2/3 164/2/3
f 166/2/3 162/2/3 165/2/3
f 167/2/3 162/2/3 166/2/3
f 168/2/3 162/2/3 167/2/3
f 169/2/3 162/2/3 168/2/3
f 170/3/3 164/3/3 163/3/3
f 170/3/3 165/3/3 164/3/3
f 171/3/3 165/3/3 170/3/3
f 172/6/3 168/6/3 167/6/3
f 172/1/3 167/1/3 166/1/3
f 173/6/3 168/6/3 172/6/3
f 176/7/3 171/7/3 170/7/3
f 177/7/3 171/7/3 176/7/3
f 178/1/3 173/1/3 172/1/3
f 178/1/3 172/1/3 166/1/3
f 179/1/3 173/1/3 178/1/3
f 180/2/3 175/2/3 174/2/3
f 181/2/3 175/2/3 180/2/3
f 182/3/3 177/3/3 176/3/3
f 183/3/3 177/3/3 182/3/3
f 184/3/3 177/3/3 183/3/3
f 185/1/3 178/1/3 166/1/3
f 186/6/3 179/6/3 178/6/3
f 186/1/3 178/1/3 185/1/3
f 187/6/3 179/6/3 186/6/3
f 189/2/3 185/2/3 184/2/3
f 189/2/3 188/2/3 187/2/3
f 189/2/3 187/2/3 186/2/3
f 189/2/3 186/2/3 185/2/3
f 189/2/3 184/2/3 183/2/3
f 190/2/3 188/2/3 189/2/3
f 194/1/3 192/1/3 191/1/3
f 195/3/3 193/3/3 192/3/3
f 195/1/3 192/1/3 194/1/3
f 196/3/3 193/3/3 195/3/3
f 204/2/3 198/2/3 197/2/3
f 205/2/3 198/2/3 204/2/3
f 206/9/3 200/9/3 199/9/3
f 207/5/3 201/5/3 200/5/3
f 207/9/3 200/9/3 206/9/3
f 208/5/3 201/5/3 207/5/3
f 209/1/3 203/1/3 202/1/3
f 210/1/3 203/1/3 209/1/3
f 216/2/3 212/2/3 211/2/3
f 217/2/3 212/2/3 216/2/3
f 218/1/3 214/1/3 213/1/3
f 219/3/3 215/3/3 214/3/3
f 219/1/3 214/1/3 218/1/3
f 220/3/3 215/3/3 219/3/3
f 223/2/3 222/2/3 221/2/3
f 224/2/3 222/2/3 223/2/3
f 225/2/3 222/2/3 224/2/3
f 229/2/3 227/2/3 226/2/3
f 229/2/3 228/2/3 227/2/3
f 230/2/3 228/2/3 229/2/3
f 233/2/3 232/2/3 231/2/3
f 234/2/3 232/2/3 233/2/3
f 237/2/3 236/2/3 235/2/3
f 238/2/3 236/2/3 237/2/3
f 243/2/3 240/2/3 239/2/3
f 244/2/3 240/2/3 243/2/3
f 245/2/3 242/2/3 241/2/3
f 246/2/3 242/2/3 245/2/3
f 247/1/4 248/1/4 250/1/4
f 248/3/4 249/3/4 251/3/4
f 250/1/4 248/1/4 251/1/4
f 251/3/4 249/3/4 252/3/4
f 253/2/4 254/2/4 258/2/4
f 258/2/4 254/2/4 259/2/4
f 255/9/4 256/9/4 260/9/4
f 256/5/4 257/5/4 261/5/4
f 260/9/4 256/9/4 261/9/4
f 261/5/4 257/5/4 262/5/4
f 263/2/4 264/2/4 268/2/4
f 268/2/4 264/2/4 269/2/4
f 265/1/4 266/1/4 270/1/4
f 266/3/4 267/3/4 271/3/4
f 270/1/4 266/1/4 271/1/4
f 271/3/4 267/3/4 272/3/4
f 273/2/4 274/2/4 275/2/4
f 275/2/4 274/2/4 276/2/4
f 276/2/4 277/2/4 280/2/4
f 280/2/4 277/2/4 281/2/4
f 282/2/4 283/2/4 284/2/4
f 284/2/4 283/2/4 285/2/4
f 278/3/4 279/3/4 286/3/4
f 286/3/4 279/3/4 287/3/4
f 288/2/4 289/2/4 291/2/4
f 291/2/4 289/2/4 292/2/4
f 290/2/4 291/2/4 293/2/4
f 293/2/4 291/2/4 294/2/4
f 295/2/4 296/2/4 297/2/4
f 297/2/4 296/2/4 298/2/4
f 298/2/4 296/2/4 299/2/4
f 299/2/4 300/2/4 301/2/4
f 298/2/4 299/2/4 301/2/4
f 301/2/4 300/2/4 302/2/4
f 302/2/4 300/2/4 304/2/4
f 295/2/4 297/2/4 305/2/4
f 303/2/4 304/2/4 306/2/4
f 304/2/4 300/2/4 307/2/4
f 306/2/4 304/2/4 307/2/4
f 307/2/4 300/2/4 308/2/4
f 295/2/4 305/2/4 309/2/4
f 305/2/4 306/2/4 309/2/4
f 306/2/4 307/2/4 309/2/4
f 309/2/4 307/2/4 310/2/4
f 311/2/4 312/2/4 313/2/4
f 311/2/4 313/2/4 315/2/4
f 313/2/4 314/2/4 315/2/4
f 315/2/4 314/2/4 316/2/4
f 311/2/4 315/2/4 317/2/4
f 317/2/4 315/2/4 318/2/4
f 321/9/5 320/9/5 319/9/5
f 322/9/5 320/9/5 321/9/5
f 328/3/5 324/3/5 323/3/5
f 329/7/5 325/7/5 324/7/5
f 329/3/5 324/3/5 328/3/5
f 330/3/5 326/3/5 325/3/5
f 330/7/5 325/7/5 329/7/5
f 331/3/5 326/3/5 330/3/5
f 333/1/5 328/1/5 327/1/5
f 334/3/5 329/3/5 328/3/5
f 334/1/5 328/1/5 333/1/5
f 335/3/5 329/3/5 334/3/5
f 336/3/5 331/3/5 330/3/5
f 337/1/5 332/1/5 331/1/5
f 337/3/5 331/3/5 336/3/5
f 338/1/5 332/1/5 337/1/5
f 339/3/5 336/3/5 335/3/5
f 339/3/5 335/3/5 334/3/5
f 339/3/5 337/3/5 336/3/5
f 340/3/5 337/3/5 339/3/5
f 345/2/5 342/2/5 341/2/5
f 345/2/5 344/2/5 343/2/5
f 345/2/5 343/2/5 342/2/5
f 346/2/5 344/2/5 345/2/5
f 351/2/5 348/2/5 347/2/5
f 352/2/5 348/2/5 351/2/5
f 353/2/5 350/2/5 349/2/5
f 354/2/5 350/2/5 353/2/5
f 359/2/5 356/2/5 355/2/5
f 360/2/5 356/2/5 359/2/5
f 361/2/5 358/2/5 357/2/5
f 362/2/5 358/2/5 361/2/5
f 365/2/5 364/2/5 363/2/5
f 366/2/5 364/2/5 365/2/5
f 371/2/5 368/2/5 367/2/5
f 372/2/5 368/2/5 371/2/5
f 373/2/5 370/2/5 369/2/5
f 374/2/5 370/2/5 373/2/5
f 377/1/5 376/1/5 375/1/5
f 378/1/5 376/1/5 377/1/5
f 379/1/5 377/1/5 375/1/5
f 380/1/5 377/1/5 379/1/5
f 381/1/5 376/1/5 378/1/5
f 382/1/5 376/1/5 381/1/5
f 385/2/5 384/2/5 383/2/5
f 386/2/5 384/2/5 385/2/5
f 387/2/5 384/2/5 386/2/5
f 388/2/5 384/2/5 387/2/5
f 389/3/6 390/3/6 393/3/6
f 390/7/6 391/7/6 393/7/6
f 391/3/6 392/3/6 394/3/6
f 393/7/6 391/7/6 394/7/6
f 389/3/6 393/3/6 395/3/6
f 395/3/6 393/3/6 396/3/6
f 394/3/6 392/3/6 397/3/6
f 397/3/6 392/3/6 398/3/6
f 399/2/6 400/2/6 403/2/6
f 403/2/6 400/2/6 404/2/6
f 401/2/6 402/2/6 405/2/6
f 405/2/6 402/2/6 406/2/6
f 407/2/6 408/2/6 411/2/6
f 411/2/6 408/2/6 412/2/6
f 409/2/6 410/2/6 415/2/6
f 415/2/6 410/2/6 416/2/6
f 412/2/6 413/2/6 417/2/6
f 417/2/6 413/2/6 418/2/6
f 414/2/6 415/2/6 421/2/6
f 421/2/6 415/2/6 422/2/6
f 419/2/6 420/2/6 423/2/6
f 423/2/6 420/2/6 424/2/6
f 425/2/6 426/2/6 428/2/6
f 428/2/6 426/2/6 429/2/6
f 429/2/6 426/2/6 430/2/6
f 430/2/6 426/2/6 431/2/6
f 427/2/6 428/2/6 433/2/6
f 428/2/6 429/2/6 433/2/6
f 433/2/6 429/2/6 434/2/6
f 431/2/6 432/2/6 435/2/6
f 430/2/6 431/2/6 435/2/6
f 435/2/6 432/2/6 436/2/6
f 427/2/6 433/2/6 437/2/6
f 436/2/6 432/2/6 440/2/6
f 437/2/6 438/2/6 441/2/6
f 427/2/6 437/2/6 441/2/6
f 441/2/6 438/2/6 442/2/6
f 442/2/6 438/2/6 443/2/6
f 439/2/6 440/2/6 444/2/6
f 440/2/6 432/2/6 445/2/6
f 444/2/6 440/2/6 445/2/6
f 445/2/6 432/2/6 446/2/6
f 442/2/6 443/2/6 447/2/6
f 443/2/6 444/2/6 447/2/6
f 444/2/6 445/2/6 447/2/6
f 447/2/6 445/2/6 448/2/6
f 449/2/6 450/2/6 452/2/6
f 452/2/6 450/2/6 453/2/6
f 451/2/6 452/2/6 455/2/6
f 453/2/6 454/2/6 455/2/6
f 452/2/6 453/2/6 455/2/6
f 455/2/6 454/2/6 456/2/6
f 456/2/6 454/2/6 457/2/6
f 457/2/6 454/2/6 458/2/6
f 456/2/6 457/2/6 459/2/6
f 459/2/6 457/2/6 460/2/6
