# MagicaVoxel @ Ephtracy

# group
o 

# material
mtllib Female1-0.mtl
usemtl palette

# normals
vn -1 0 0
vn 1 0 0
vn 0 0 1
vn 0 0 -1
vn 0 -1 0
vn 0 1 0

# texcoords
vt 0.0332031 0.5
vt 0.0605469 0.5
vt 0.587891 0.5
vt 0.919922 0.5
vt 0.923828 0.5
vt 0.931641 0.5
vt 0.943359 0.5
vt 0.955078 0.5
vt 0.978516 0.5
vt 0.994141 0.5

# verts
v 7.6 1.6 -2
v 7.6 1.6 -2.1
v 7.6 1.9 -2
v 7.6 1.9 -2.1
v 7.7 1.2 -1.9
v 7.7 1.2 -2
v 7.7 1.3 -1.9
v 7.7 1.3 -2
v 7.7 1.4 -1.9
v 7.7 1.4 -2
v 7.7 1.4 -2.1
v 7.7 1.4 -2.2
v 7.7 1.5 -1.8
v 7.7 1.5 -1.9
v 7.7 1.5 -2
v 7.7 1.5 -2.1
v 7.7 1.6 -1.9
v 7.7 1.6 -2
v 7.7 1.6 -2.1
v 7.7 1.8 -1.9
v 7.7 1.8 -2
v 7.7 1.9 -1.9
v 7.7 1.9 -2
v 7.7 1.9 -2.1
v 7.7 1.9 -2.2
v 7.7 2 -1.8
v 7.7 2 -2.1
v 7.8 1.2 -1.8
v 7.8 1.2 -1.9
v 7.8 1.2 -2
v 7.8 1.2 -2.1
v 7.8 1.3 -1.8
v 7.8 1.3 -1.9
v 7.8 1.3 -2
v 7.8 1.3 -2.1
v 7.8 1.4 -1.8
v 7.8 1.4 -1.9
v 7.8 1.4 -2
v 7.8 1.4 -2.1
v 7.8 1.5 -1.8
v 7.8 1.5 -1.9
v 7.8 1.5 -2
v 7.8 1.5 -2.1
v 7.8 1.5 -2.2
v 7.8 1.5 -2.3
v 7.8 1.8 -2.2
v 7.8 1.8 -2.3
v 7.8 1.9 -1.7
v 7.8 1.9 -1.8
v 7.8 1.9 -2.1
v 7.8 1.9 -2.2
v 7.8 2 -1.7
v 7.8 2 -1.8
v 7.8 2 -1.9
v 7.8 2 -2
v 7.8 2 -2.1
v 7.8 2 -2.2
v 7.8 2.1 -1.9
v 7.8 2.1 -2
v 7.9 1 -1.9
v 7.9 1 -2
v 7.9 1.1 -1.9
v 7.9 1.1 -2
v 7.9 1.2 -1.9
v 7.9 1.2 -2
v 7.9 1.6 -1.9
v 7.9 1.6 -2.1
v 7.9 1.7 -1.9
v 7.9 1.7 -2.1
v 7.9 1.8 -2.2
v 7.9 1.8 -2.3
v 7.9 1.9 -2.2
v 7.9 1.9 -2.3
v 7.9 2 -1.8
v 7.9 2 -1.9
v 7.9 2 -2
v 7.9 2 -2.1
v 7.9 2.1 -1.8
v 7.9 2.1 -1.9
v 7.9 2.1 -2
v 7.9 2.1 -2.1
v 8.2 1.6 -1.8
v 8.2 1.6 -1.9
v 8.2 1.6 -2.1
v 8.2 1.7 -1.8
v 8.2 1.7 -2.1
v 7.8 1.6 -1.8
v 7.8 1.6 -1.9
v 7.8 1.6 -2.1
v 7.8 1.7 -1.8
v 7.8 1.7 -2.1
v 8.1 1 -1.9
v 8.1 1 -2
v 8.1 1.1 -1.9
v 8.1 1.1 -2
v 8.1 1.2 -1.9
v 8.1 1.2 -2
v 8.1 1.6 -1.9
v 8.1 1.6 -2.1
v 8.1 1.7 -1.9
v 8.1 1.7 -2.1
v 8.1 1.8 -2.2
v 8.1 1.8 -2.3
v 8.1 1.9 -2.2
v 8.1 1.9 -2.3
v 8.1 2 -1.8
v 8.1 2 -1.9
v 8.1 2 -2
v 8.1 2 -2.1
v 8.1 2.1 -1.8
v 8.1 2.1 -1.9
v 8.1 2.1 -2
v 8.1 2.1 -2.1
v 8.2 1.2 -1.8
v 8.2 1.2 -1.9
v 8.2 1.2 -2
v 8.2 1.2 -2.1
v 8.2 1.3 -1.8
v 8.2 1.3 -1.9
v 8.2 1.3 -2
v 8.2 1.3 -2.1
v 8.2 1.4 -1.8
v 8.2 1.4 -1.9
v 8.2 1.4 -2
v 8.2 1.4 -2.1
v 8.2 1.5 -1.8
v 8.2 1.5 -1.9
v 8.2 1.5 -2
v 8.2 1.5 -2.1
v 8.2 1.5 -2.2
v 8.2 1.5 -2.3
v 8.2 1.8 -2.2
v 8.2 1.8 -2.3
v 8.2 1.9 -1.7
v 8.2 1.9 -1.8
v 8.2 1.9 -2.1
v 8.2 1.9 -2.2
v 8.2 2 -1.7
v 8.2 2 -1.8
v 8.2 2 -1.9
v 8.2 2 -2
v 8.2 2 -2.1
v 8.2 2 -2.2
v 8.2 2.1 -1.9
v 8.2 2.1 -2
v 8.3 1.2 -1.9
v 8.3 1.2 -2
v 8.3 1.3 -1.9
v 8.3 1.3 -2
v 8.3 1.4 -1.9
v 8.3 1.4 -2
v 8.3 1.4 -2.1
v 8.3 1.4 -2.2
v 8.3 1.5 -1.8
v 8.3 1.5 -1.9
v 8.3 1.5 -2
v 8.3 1.5 -2.1
v 8.3 1.6 -1.9
v 8.3 1.6 -2
v 8.3 1.6 -2.1
v 8.3 1.8 -1.9
v 8.3 1.8 -2
v 8.3 1.9 -1.9
v 8.3 1.9 -2
v 8.3 1.9 -2.1
v 8.3 1.9 -2.2
v 8.3 2 -1.8
v 8.3 2 -2.1
v 8.4 1.6 -2
v 8.4 1.6 -2.1
v 8.4 1.9 -2
v 8.4 1.9 -2.1
v 7.8 1.9 -1.7
v 7.8 2 -1.7
v 8.2 1.9 -1.7
v 8.2 2 -1.7
v 7.7 1.5 -1.8
v 7.7 2 -1.8
v 7.8 1.2 -1.8
v 7.8 1.3 -1.8
v 7.8 1.4 -1.8
v 7.8 1.5 -1.8
v 7.8 1.6 -1.8
v 7.8 1.7 -1.8
v 7.8 1.8 -1.8
v 7.8 1.9 -1.8
v 7.8 2 -1.8
v 7.9 1.2 -1.8
v 7.9 1.3 -1.8
v 7.9 1.4 -1.8
v 7.9 1.5 -1.8
v 7.9 1.6 -1.8
v 7.9 1.8 -1.8
v 7.9 1.9 -1.8
v 7.9 2 -1.8
v 7.9 2.1 -1.8
v 8.1 1.2 -1.8
v 8.1 1.3 -1.8
v 8.1 1.4 -1.8
v 8.1 1.5 -1.8
v 8.1 1.6 -1.8
v 8.1 1.8 -1.8
v 8.1 1.9 -1.8
v 8.1 2 -1.8
v 8.1 2.1 -1.8
v 8.2 1.2 -1.8
v 8.2 1.3 -1.8
v 8.2 1.4 -1.8
v 8.2 1.5 -1.8
v 8.2 1.6 -1.8
v 8.2 1.7 -1.8
v 8.2 1.8 -1.8
v 8.2 1.9 -1.8
v 8.2 2 -1.8
v 8.3 1.5 -1.8
v 8.3 2 -1.8
v 7.7 1.2 -1.9
v 7.7 1.3 -1.9
v 7.7 1.4 -1.9
v 7.7 1.5 -1.9
v 7.8 1.2 -1.9
v 7.8 1.3 -1.9
v 7.8 1.4 -1.9
v 7.8 1.5 -1.9
v 7.8 2 -1.9
v 7.8 2.1 -1.9
v 7.9 1 -1.9
v 7.9 1.1 -1.9
v 7.9 1.2 -1.9
v 7.9 1.6 -1.9
v 7.9 1.7 -1.9
v 7.9 2 -1.9
v 7.9 2.1 -1.9
v 8.1 1 -1.9
v 8.1 1.1 -1.9
v 8.1 1.2 -1.9
v 8.1 1.6 -1.9
v 8.1 1.7 -1.9
v 8.1 2 -1.9
v 8.1 2.1 -1.9
v 8.2 1.2 -1.9
v 8.2 1.3 -1.9
v 8.2 1.4 -1.9
v 8.2 1.5 -1.9
v 8.2 2 -1.9
v 8.2 2.1 -1.9
v 8.3 1.2 -1.9
v 8.3 1.3 -1.9
v 8.3 1.4 -1.9
v 8.3 1.5 -1.9
v 7.6 1.6 -2
v 7.6 1.9 -2
v 7.7 1.6 -2
v 7.7 1.8 -2
v 7.7 1.9 -2
v 8.3 1.6 -2
v 8.3 1.8 -2
v 8.3 1.9 -2
v 8.4 1.6 -2
v 8.4 1.9 -2
v 7.7 1.4 -2.1
v 7.7 1.5 -2.1
v 7.8 1.4 -2.1
v 7.8 1.5 -2.1
v 7.8 1.6 -2.1
v 7.8 1.7 -2.1
v 7.9 1.6 -2.1
v 7.9 1.7 -2.1
v 8.1 1.6 -2.1
v 8.1 1.7 -2.1
v 8.2 1.4 -2.1
v 8.2 1.5 -2.1
v 8.2 1.6 -2.1
v 8.2 1.7 -2.1
v 8.3 1.4 -2.1
v 8.3 1.5 -2.1
v 7.7 1.2 -2
v 7.7 1.3 -2
v 7.7 1.4 -2
v 7.7 1.5 -2
v 7.8 1.2 -2
v 7.8 1.3 -2
v 7.8 1.4 -2
v 7.8 1.5 -2
v 7.8 2 -2
v 7.8 2.1 -2
v 7.9 1 -2
v 7.9 1.1 -2
v 7.9 1.2 -2
v 7.9 2 -2
v 7.9 2.1 -2
v 8.1 1 -2
v 8.1 1.1 -2
v 8.1 1.2 -2
v 8.1 2 -2
v 8.1 2.1 -2
v 8.2 1.2 -2
v 8.2 1.3 -2
v 8.2 1.4 -2
v 8.2 1.5 -2
v 8.2 2 -2
v 8.2 2.1 -2
v 8.3 1.2 -2
v 8.3 1.3 -2
v 8.3 1.4 -2
v 8.3 1.5 -2
v 7.6 1.6 -2.1
v 7.6 1.9 -2.1
v 7.7 1.6 -2.1
v 7.7 1.9 -2.1
v 7.7 2 -2.1
v 7.8 1.2 -2.1
v 7.8 1.3 -2.1
v 7.8 1.4 -2.1
v 7.8 1.9 -2.1
v 7.8 2 -2.1
v 7.9 1.2 -2.1
v 7.9 1.3 -2.1
v 7.9 1.4 -2.1
v 7.9 2 -2.1
v 7.9 2.1 -2.1
v 8.1 1.2 -2.1
v 8.1 1.3 -2.1
v 8.1 1.4 -2.1
v 8.1 2 -2.1
v 8.1 2.1 -2.1
v 8.2 1.2 -2.1
v 8.2 1.3 -2.1
v 8.2 1.4 -2.1
v 8.2 1.9 -2.1
v 8.2 2 -2.1
v 8.3 1.6 -2.1
v 8.3 1.9 -2.1
v 8.3 2 -2.1
v 8.4 1.6 -2.1
v 8.4 1.9 -2.1
v 7.7 1.4 -2.2
v 7.7 1.9 -2.2
v 7.8 1.5 -2.2
v 7.8 1.8 -2.2
v 7.8 1.9 -2.2
v 7.8 2 -2.2
v 7.9 1.8 -2.2
v 7.9 1.9 -2.2
v 8.1 1.8 -2.2
v 8.1 1.9 -2.2
v 8.2 1.5 -2.2
v 8.2 1.8 -2.2
v 8.2 1.9 -2.2
v 8.2 2 -2.2
v 8.3 1.4 -2.2
v 8.3 1.9 -2.2
v 7.8 1.5 -2.3
v 7.8 1.8 -2.3
v 7.9 1.8 -2.3
v 7.9 1.9 -2.3
v 8.1 1.8 -2.3
v 8.1 1.9 -2.3
v 8.2 1.5 -2.3
v 8.2 1.8 -2.3
v 7.9 1 -1.9
v 8.1 1 -1.9
v 7.9 1 -2
v 8.1 1 -2
v 7.8 1.2 -1.8
v 7.9 1.2 -1.8
v 8.1 1.2 -1.8
v 8.2 1.2 -1.8
v 7.7 1.2 -1.9
v 7.8 1.2 -1.9
v 7.9 1.2 -1.9
v 8.1 1.2 -1.9
v 8.2 1.2 -1.9
v 8.3 1.2 -1.9
v 7.7 1.2 -2
v 7.8 1.2 -2
v 7.9 1.2 -2
v 8.1 1.2 -2
v 8.2 1.2 -2
v 8.3 1.2 -2
v 7.8 1.2 -2.1
v 7.9 1.2 -2.1
v 8.1 1.2 -2.1
v 8.2 1.2 -2.1
v 7.7 1.4 -2.1
v 7.8 1.4 -2.1
v 7.9 1.4 -2.1
v 8.1 1.4 -2.1
v 8.2 1.4 -2.1
v 8.3 1.4 -2.1
v 7.7 1.4 -2.2
v 8.3 1.4 -2.2
v 7.7 1.5 -1.8
v 7.8 1.5 -1.8
v 8.2 1.5 -1.8
v 8.3 1.5 -1.8
v 7.7 1.5 -1.9
v 7.8 1.5 -1.9
v 8.2 1.5 -1.9
v 8.3 1.5 -1.9
v 7.7 1.5 -2
v 7.8 1.5 -2
v 8.2 1.5 -2
v 8.3 1.5 -2
v 7.7 1.5 -2.1
v 7.8 1.5 -2.1
v 8.2 1.5 -2.1
v 8.3 1.5 -2.1
v 7.8 1.5 -2.2
v 8.2 1.5 -2.2
v 7.8 1.5 -2.3
v 8.2 1.5 -2.3
v 7.6 1.6 -2
v 7.7 1.6 -2
v 8.3 1.6 -2
v 8.4 1.6 -2
v 7.6 1.6 -2.1
v 7.7 1.6 -2.1
v 8.3 1.6 -2.1
v 8.4 1.6 -2.1
v 7.8 1.7 -1.8
v 8.2 1.7 -1.8
v 7.9 1.7 -1.9
v 8.1 1.7 -1.9
v 7.8 1.7 -2.1
v 7.9 1.7 -2.1
v 8.1 1.7 -2.1
v 8.2 1.7 -2.1
v 7.8 1.9 -1.7
v 8.2 1.9 -1.7
v 7.8 1.9 -1.8
v 7.9 1.9 -1.8
v 8.1 1.9 -1.8
v 8.2 1.9 -1.8
v 7.8 1.6 -1.8
v 7.9 1.6 -1.8
v 8.1 1.6 -1.8
v 8.2 1.6 -1.8
v 7.8 1.6 -1.9
v 7.9 1.6 -1.9
v 8.1 1.6 -1.9
v 8.2 1.6 -1.9
v 7.8 1.6 -2.1
v 7.9 1.6 -2.1
v 8.1 1.6 -2.1
v 8.2 1.6 -2.1
v 7.8 1.8 -2.2
v 7.9 1.8 -2.2
v 8.1 1.8 -2.2
v 8.2 1.8 -2.2
v 7.8 1.8 -2.3
v 7.9 1.8 -2.3
v 8.1 1.8 -2.3
v 8.2 1.8 -2.3
v 7.6 1.9 -2
v 7.7 1.9 -2
v 8.3 1.9 -2
v 8.4 1.9 -2
v 7.6 1.9 -2.1
v 7.7 1.9 -2.1
v 7.8 1.9 -2.1
v 8.2 1.9 -2.1
v 8.3 1.9 -2.1
v 8.4 1.9 -2.1
v 7.7 1.9 -2.2
v 7.8 1.9 -2.2
v 7.9 1.9 -2.2
v 8.1 1.9 -2.2
v 8.2 1.9 -2.2
v 8.3 1.9 -2.2
v 7.9 1.9 -2.3
v 8.1 1.9 -2.3
v 7.8 2 -1.7
v 8.2 2 -1.7
v 7.7 2 -1.8
v 7.8 2 -1.8
v 7.9 2 -1.8
v 8.1 2 -1.8
v 8.2 2 -1.8
v 8.3 2 -1.8
v 7.8 2 -1.9
v 7.9 2 -1.9
v 8.1 2 -1.9
v 8.2 2 -1.9
v 7.8 2 -2
v 7.9 2 -2
v 8.1 2 -2
v 8.2 2 -2
v 7.7 2 -2.1
v 7.8 2 -2.1
v 7.9 2 -2.1
v 8.1 2 -2.1
v 8.2 2 -2.1
v 8.3 2 -2.1
v 7.8 2 -2.2
v 8.2 2 -2.2
v 7.9 2.1 -1.8
v 8.1 2.1 -1.8
v 7.8 2.1 -1.9
v 7.9 2.1 -1.9
v 8.1 2.1 -1.9
v 8.2 2.1 -1.9
v 7.8 2.1 -2
v 7.9 2.1 -2
v 8.1 2.1 -2
v 8.2 2.1 -2
v 7.9 2.1 -2.1
v 8.1 2.1 -2.1

# faces
f 3/10/1 2/10/1 1/10/1
f 4/10/1 2/10/1 3/10/1
f 7/1/1 6/1/1 5/1/1
f 8/1/1 6/1/1 7/1/1
f 9/6/1 8/6/1 7/6/1
f 10/6/1 8/6/1 9/6/1
f 14/5/1 10/5/1 9/5/1
f 15/5/1 10/5/1 14/5/1
f 16/10/1 12/10/1 11/10/1
f 17/5/1 15/5/1 14/5/1
f 17/10/1 14/10/1 13/10/1
f 18/10/1 16/10/1 15/10/1
f 18/5/1 15/5/1 17/5/1
f 19/10/1 12/10/1 16/10/1
f 19/10/1 16/10/1 18/10/1
f 20/10/1 17/10/1 13/10/1
f 20/10/1 18/10/1 17/10/1
f 21/10/1 18/10/1 20/10/1
f 22/10/1 20/10/1 13/10/1
f 22/2/1 21/2/1 20/2/1
f 23/2/1 21/2/1 22/2/1
f 24/10/1 12/10/1 19/10/1
f 25/10/1 12/10/1 24/10/1
f 26/10/1 23/10/1 22/10/1
f 26/10/1 22/10/1 13/10/1
f 26/10/1 24/10/1 23/10/1
f 27/10/1 24/10/1 26/10/1
f 32/6/1 29/6/1 28/6/1
f 33/6/1 29/6/1 32/6/1
f 34/6/1 31/6/1 30/6/1
f 35/6/1 31/6/1 34/6/1
f 36/5/1 33/5/1 32/5/1
f 37/5/1 33/5/1 36/5/1
f 38/5/1 35/5/1 34/5/1
f 39/5/1 35/5/1 38/5/1
f 40/6/1 37/6/1 36/6/1
f 41/6/1 37/6/1 40/6/1
f 42/4/1 39/4/1 38/4/1
f 43/4/1 39/4/1 42/4/1
f 46/10/1 45/10/1 44/10/1
f 47/10/1 45/10/1 46/10/1
f 52/10/1 49/10/1 48/10/1
f 53/10/1 49/10/1 52/10/1
f 56/10/1 51/10/1 50/10/1
f 57/10/1 51/10/1 56/10/1
f 58/10/1 55/10/1 54/10/1
f 59/10/1 55/10/1 58/10/1
f 62/8/1 61/8/1 60/8/1
f 63/8/1 61/8/1 62/8/1
f 64/1/1 63/1/1 62/1/1
f 65/1/1 63/1/1 64/1/1
f 68/1/1 67/1/1 66/1/1
f 69/1/1 67/1/1 68/1/1
f 72/10/1 71/10/1 70/10/1
f 73/10/1 71/10/1 72/10/1
f 78/10/1 75/10/1 74/10/1
f 79/10/1 75/10/1 78/10/1
f 80/10/1 77/10/1 76/10/1
f 81/10/1 77/10/1 80/10/1
f 85/10/1 83/10/1 82/10/1
f 85/10/1 84/10/1 83/10/1
f 86/10/1 84/10/1 85/10/1
f 87/10/2 88/10/2 90/10/2
f 88/10/2 89/10/2 90/10/2
f 90/10/2 89/10/2 91/10/2
f 92/8/2 93/8/2 94/8/2
f 94/8/2 93/8/2 95/8/2
f 94/1/2 95/1/2 96/1/2
f 96/1/2 95/1/2 97/1/2
f 98/1/2 99/1/2 100/1/2
f 100/1/2 99/1/2 101/1/2
f 102/10/2 103/10/2 104/10/2
f 104/10/2 103/10/2 105/10/2
f 106/10/2 107/10/2 110/10/2
f 110/10/2 107/10/2 111/10/2
f 108/10/2 109/10/2 112/10/2
f 112/10/2 109/10/2 113/10/2
f 114/6/2 115/6/2 118/6/2
f 118/6/2 115/6/2 119/6/2
f 116/6/2 117/6/2 120/6/2
f 120/6/2 117/6/2 121/6/2
f 118/5/2 119/5/2 122/5/2
f 122/5/2 119/5/2 123/5/2
f 120/5/2 121/5/2 124/5/2
f 124/5/2 121/5/2 125/5/2
f 122/6/2 123/6/2 126/6/2
f 126/6/2 123/6/2 127/6/2
f 124/4/2 125/4/2 128/4/2
f 128/4/2 125/4/2 129/4/2
f 130/10/2 131/10/2 132/10/2
f 132/10/2 131/10/2 133/10/2
f 134/10/2 135/10/2 138/10/2
f 138/10/2 135/10/2 139/10/2
f 136/10/2 137/10/2 142/10/2
f 142/10/2 137/10/2 143/10/2
f 140/10/2 141/10/2 144/10/2
f 144/10/2 141/10/2 145/10/2
f 146/1/2 147/1/2 148/1/2
f 148/1/2 147/1/2 149/1/2
f 148/6/2 149/6/2 150/6/2
f 150/6/2 149/6/2 151/6/2
f 150/5/2 151/5/2 155/5/2
f 155/5/2 151/5/2 156/5/2
f 152/10/2 153/10/2 157/10/2
f 155/5/2 156/5/2 158/5/2
f 154/10/2 155/10/2 158/10/2
f 156/10/2 157/10/2 159/10/2
f 158/5/2 156/5/2 159/5/2
f 157/10/2 153/10/2 160/10/2
f 159/10/2 157/10/2 160/10/2
f 154/10/2 158/10/2 161/10/2
f 158/10/2 159/10/2 161/10/2
f 161/10/2 159/10/2 162/10/2
f 154/10/2 161/10/2 163/10/2
f 161/2/2 162/2/2 163/2/2
f 163/2/2 162/2/2 164/2/2
f 160/10/2 153/10/2 165/10/2
f 165/10/2 153/10/2 166/10/2
f 163/10/2 164/10/2 167/10/2
f 154/10/2 163/10/2 167/10/2
f 164/10/2 165/10/2 167/10/2
f 167/10/2 165/10/2 168/10/2
f 169/10/2 170/10/2 171/10/2
f 171/10/2 170/10/2 172/10/2
f 175/10/3 174/10/3 173/10/3
f 176/10/3 174/10/3 175/10/3
f 182/10/3 178/10/3 177/10/3
f 183/10/3 178/10/3 182/10/3
f 184/10/3 178/10/3 183/10/3
f 185/10/3 178/10/3 184/10/3
f 186/10/3 178/10/3 185/10/3
f 187/10/3 178/10/3 186/10/3
f 188/6/3 180/6/3 179/6/3
f 189/5/3 181/5/3 180/5/3
f 189/6/3 180/6/3 188/6/3
f 190/6/3 182/6/3 181/6/3
f 190/5/3 181/5/3 189/5/3
f 191/5/3 183/5/3 182/5/3
f 191/6/3 182/6/3 190/6/3
f 192/5/3 183/5/3 191/5/3
f 193/8/3 186/8/3 185/8/3
f 193/1/3 185/1/3 184/1/3
f 194/8/3 186/8/3 193/8/3
f 197/5/3 189/5/3 188/5/3
f 198/7/3 190/7/3 189/7/3
f 198/5/3 189/5/3 197/5/3
f 199/5/3 191/5/3 190/5/3
f 199/7/3 190/7/3 198/7/3
f 200/3/3 192/3/3 191/3/3
f 200/5/3 191/5/3 199/5/3
f 201/3/3 192/3/3 200/3/3
f 202/1/3 194/1/3 193/1/3
f 202/1/3 193/1/3 184/1/3
f 203/1/3 194/1/3 202/1/3
f 204/10/3 196/10/3 195/10/3
f 205/10/3 196/10/3 204/10/3
f 206/6/3 198/6/3 197/6/3
f 207/5/3 199/5/3 198/5/3
f 207/6/3 198/6/3 206/6/3
f 208/6/3 200/6/3 199/6/3
f 208/5/3 199/5/3 207/5/3
f 209/5/3 201/5/3 200/5/3
f 209/6/3 200/6/3 208/6/3
f 210/5/3 201/5/3 209/5/3
f 211/1/3 202/1/3 184/1/3
f 212/8/3 203/8/3 202/8/3
f 212/1/3 202/1/3 211/1/3
f 213/8/3 203/8/3 212/8/3
f 215/10/3 214/10/3 213/10/3
f 215/10/3 213/10/3 212/10/3
f 215/10/3 212/10/3 211/10/3
f 215/10/3 211/10/3 210/10/3
f 215/10/3 210/10/3 209/10/3
f 216/10/3 214/10/3 215/10/3
f 221/1/3 218/1/3 217/1/3
f 222/6/3 219/6/3 218/6/3
f 222/1/3 218/1/3 221/1/3
f 223/5/3 220/5/3 219/5/3
f 223/6/3 219/6/3 222/6/3
f 224/5/3 220/5/3 223/5/3
f 232/10/3 226/10/3 225/10/3
f 233/10/3 226/10/3 232/10/3
f 234/8/3 228/8/3 227/8/3
f 235/1/3 229/1/3 228/1/3
f 235/8/3 228/8/3 234/8/3
f 236/1/3 229/1/3 235/1/3
f 237/1/3 231/1/3 230/1/3
f 238/1/3 231/1/3 237/1/3
f 245/10/3 240/10/3 239/10/3
f 246/10/3 240/10/3 245/10/3
f 247/1/3 242/1/3 241/1/3
f 248/6/3 243/6/3 242/6/3
f 248/1/3 242/1/3 247/1/3
f 249/5/3 244/5/3 243/5/3
f 249/6/3 243/6/3 248/6/3
f 250/5/3 244/5/3 249/5/3
f 253/10/3 252/10/3 251/10/3
f 254/10/3 252/10/3 253/10/3
f 255/10/3 252/10/3 254/10/3
f 259/10/3 257/10/3 256/10/3
f 259/10/3 258/10/3 257/10/3
f 260/10/3 258/10/3 259/10/3
f 263/10/3 262/10/3 261/10/3
f 264/10/3 262/10/3 263/10/3
f 267/10/3 266/10/3 265/10/3
f 268/10/3 266/10/3 267/10/3
f 273/10/3 270/10/3 269/10/3
f 274/10/3 270/10/3 273/10/3
f 275/10/3 272/10/3 271/10/3
f 276/10/3 272/10/3 275/10/3
f 277/1/4 278/1/4 281/1/4
f 278/6/4 279/6/4 282/6/4
f 281/1/4 278/1/4 282/1/4
f 279/5/4 280/5/4 283/5/4
f 282/6/4 279/6/4 283/6/4
f 283/5/4 280/5/4 284/5/4
f 285/10/4 286/10/4 290/10/4
f 290/10/4 286/10/4 291/10/4
f 287/8/4 288/8/4 292/8/4
f 288/1/4 289/1/4 293/1/4
f 292/8/4 288/8/4 293/8/4
f 293/1/4 289/1/4 294/1/4
f 295/10/4 296/10/4 301/10/4
f 301/10/4 296/10/4 302/10/4
f 297/1/4 298/1/4 303/1/4
f 298/6/4 299/6/4 304/6/4
f 303/1/4 298/1/4 304/1/4
f 299/5/4 300/5/4 305/5/4
f 304/6/4 299/6/4 305/6/4
f 305/5/4 300/5/4 306/5/4
f 307/10/4 308/10/4 309/10/4
f 309/10/4 308/10/4 310/10/4
f 310/10/4 311/10/4 315/10/4
f 315/10/4 311/10/4 316/10/4
f 312/6/4 313/6/4 317/6/4
f 313/5/4 314/5/4 318/5/4
f 317/6/4 313/6/4 318/6/4
f 318/5/4 314/5/4 319/5/4
f 317/5/4 318/5/4 322/5/4
f 318/6/4 319/6/4 323/6/4
f 322/5/4 318/5/4 323/5/4
f 323/6/4 319/6/4 324/6/4
f 320/10/4 321/10/4 325/10/4
f 325/10/4 321/10/4 326/10/4
f 322/6/4 323/6/4 327/6/4
f 323/5/4 324/5/4 328/5/4
f 327/6/4 323/6/4 328/6/4
f 328/5/4 324/5/4 329/5/4
f 330/10/4 331/10/4 333/10/4
f 333/10/4 331/10/4 334/10/4
f 332/10/4 333/10/4 335/10/4
f 335/10/4 333/10/4 336/10/4
f 337/10/4 338/10/4 339/10/4
f 339/10/4 338/10/4 340/10/4
f 340/10/4 338/10/4 341/10/4
f 341/10/4 342/10/4 343/10/4
f 340/10/4 341/10/4 343/10/4
f 343/10/4 342/10/4 344/10/4
f 344/10/4 342/10/4 346/10/4
f 337/10/4 339/10/4 347/10/4
f 345/10/4 346/10/4 348/10/4
f 346/10/4 342/10/4 349/10/4
f 348/10/4 346/10/4 349/10/4
f 349/10/4 342/10/4 350/10/4
f 337/10/4 347/10/4 351/10/4
f 347/10/4 348/10/4 351/10/4
f 348/10/4 349/10/4 351/10/4
f 351/10/4 349/10/4 352/10/4
f 353/10/4 354/10/4 355/10/4
f 353/10/4 355/10/4 357/10/4
f 355/10/4 356/10/4 357/10/4
f 357/10/4 356/10/4 358/10/4
f 353/10/4 357/10/4 359/10/4
f 359/10/4 357/10/4 360/10/4
f 363/8/5 362/8/5 361/8/5
f 364/8/5 362/8/5 363/8/5
f 370/6/5 366/6/5 365/6/5
f 371/5/5 367/5/5 366/5/5
f 371/6/5 366/6/5 370/6/5
f 372/6/5 368/6/5 367/6/5
f 372/5/5 367/5/5 371/5/5
f 373/6/5 368/6/5 372/6/5
f 375/1/5 370/1/5 369/1/5
f 376/5/5 371/5/5 370/5/5
f 376/1/5 370/1/5 375/1/5
f 377/5/5 371/5/5 376/5/5
f 378/5/5 373/5/5 372/5/5
f 379/1/5 374/1/5 373/1/5
f 379/5/5 373/5/5 378/5/5
f 380/1/5 374/1/5 379/1/5
f 381/6/5 377/6/5 376/6/5
f 382/5/5 378/5/5 377/5/5
f 382/6/5 377/6/5 381/6/5
f 383/6/5 379/6/5 378/6/5
f 383/5/5 378/5/5 382/5/5
f 384/6/5 379/6/5 383/6/5
f 391/10/5 386/10/5 385/10/5
f 391/10/5 390/10/5 389/10/5
f 391/10/5 389/10/5 388/10/5
f 391/10/5 388/10/5 387/10/5
f 391/10/5 387/10/5 386/10/5
f 392/10/5 390/10/5 391/10/5
f 397/10/5 394/10/5 393/10/5
f 398/10/5 394/10/5 397/10/5
f 399/10/5 396/10/5 395/10/5
f 400/10/5 396/10/5 399/10/5
f 405/10/5 402/10/5 401/10/5
f 406/10/5 402/10/5 405/10/5
f 407/10/5 404/10/5 403/10/5
f 408/10/5 404/10/5 407/10/5
f 411/10/5 410/10/5 409/10/5
f 412/10/5 410/10/5 411/10/5
f 417/10/5 414/10/5 413/10/5
f 418/10/5 414/10/5 417/10/5
f 419/10/5 416/10/5 415/10/5
f 420/10/5 416/10/5 419/10/5
f 423/1/5 422/1/5 421/1/5
f 424/1/5 422/1/5 423/1/5
f 425/1/5 423/1/5 421/1/5
f 426/1/5 423/1/5 425/1/5
f 427/1/5 422/1/5 424/1/5
f 428/1/5 422/1/5 427/1/5
f 431/10/5 430/10/5 429/10/5
f 432/10/5 430/10/5 431/10/5
f 433/10/5 430/10/5 432/10/5
f 434/10/5 430/10/5 433/10/5
f 435/5/6 436/5/6 439/5/6
f 436/3/6 437/3/6 440/3/6
f 439/5/6 436/5/6 440/5/6
f 437/5/6 438/5/6 441/5/6
f 440/3/6 437/3/6 441/3/6
f 441/5/6 438/5/6 442/5/6
f 439/4/6 440/4/6 443/4/6
f 443/4/6 440/4/6 444/4/6
f 441/4/6 442/4/6 445/4/6
f 445/4/6 442/4/6 446/4/6
f 447/10/6 448/10/6 451/10/6
f 451/10/6 448/10/6 452/10/6
f 449/10/6 450/10/6 453/10/6
f 453/10/6 450/10/6 454/10/6
f 455/10/6 456/10/6 459/10/6
f 459/10/6 456/10/6 460/10/6
f 457/10/6 458/10/6 463/10/6
f 463/10/6 458/10/6 464/10/6
f 460/10/6 461/10/6 465/10/6
f 465/10/6 461/10/6 466/10/6
f 462/10/6 463/10/6 469/10/6
f 469/10/6 463/10/6 470/10/6
f 467/10/6 468/10/6 471/10/6
f 471/10/6 468/10/6 472/10/6
f 473/10/6 474/10/6 476/10/6
f 476/10/6 474/10/6 477/10/6
f 477/10/6 474/10/6 478/10/6
f 478/10/6 474/10/6 479/10/6
f 475/10/6 476/10/6 481/10/6
f 476/10/6 477/10/6 481/10/6
f 481/10/6 477/10/6 482/10/6
f 479/10/6 480/10/6 483/10/6
f 478/10/6 479/10/6 483/10/6
f 483/10/6 480/10/6 484/10/6
f 475/10/6 481/10/6 485/10/6
f 484/10/6 480/10/6 488/10/6
f 485/10/6 486/10/6 489/10/6
f 475/10/6 485/10/6 489/10/6
f 489/10/6 486/10/6 490/10/6
f 490/10/6 486/10/6 491/10/6
f 487/10/6 488/10/6 492/10/6
f 488/10/6 480/10/6 493/10/6
f 492/10/6 488/10/6 493/10/6
f 493/10/6 480/10/6 494/10/6
f 490/10/6 491/10/6 495/10/6
f 491/10/6 492/10/6 495/10/6
f 492/10/6 493/10/6 495/10/6
f 495/10/6 493/10/6 496/10/6
f 497/10/6 498/10/6 500/10/6
f 500/10/6 498/10/6 501/10/6
f 499/10/6 500/10/6 503/10/6
f 501/10/6 502/10/6 503/10/6
f 500/10/6 501/10/6 503/10/6
f 503/10/6 502/10/6 504/10/6
f 504/10/6 502/10/6 505/10/6
f 505/10/6 502/10/6 506/10/6
f 504/10/6 505/10/6 507/10/6
f 507/10/6 505/10/6 508/10/6
