# MagicaVoxel @ Ephtracy

# group
o 

# material
mtllib Female1-4.mtl
usemtl palette

# normals
vn -1 0 0
vn 1 0 0
vn 0 0 1
vn 0 0 -1
vn 0 -1 0
vn 0 1 0

# texcoords
vt 0.0332031 0.5
vt 0.0371094 0.5
vt 0.0605469 0.5
vt 0.841797 0.5
vt 0.845703 0.5
vt 0.853516 0.5
vt 0.955078 0.5
vt 0.978516 0.5

# verts
v 5.6 1.6 -2.98023e-008
v 5.6 1.6 -0.1
v 5.6 1.9 -2.98023e-008
v 5.6 1.9 -0.1
v 5.7 1.2 0.1
v 5.7 1.2 -2.98023e-008
v 5.7 1.3 0.1
v 5.7 1.3 -2.98023e-008
v 5.7 1.4 0.1
v 5.7 1.4 -2.98023e-008
v 5.7 1.4 -0.1
v 5.7 1.4 -0.2
v 5.7 1.5 0.2
v 5.7 1.5 0.1
v 5.7 1.5 -2.98023e-008
v 5.7 1.5 -0.1
v 5.7 1.6 0.1
v 5.7 1.6 -2.98023e-008
v 5.7 1.6 -0.1
v 5.7 1.8 0.1
v 5.7 1.8 -2.98023e-008
v 5.7 1.9 0.1
v 5.7 1.9 -2.98023e-008
v 5.7 1.9 -0.1
v 5.7 1.9 -0.2
v 5.7 2 0.2
v 5.7 2 -0.1
v 5.8 1.2 0.2
v 5.8 1.2 0.1
v 5.8 1.2 -2.98023e-008
v 5.8 1.2 -0.1
v 5.8 1.3 0.2
v 5.8 1.3 0.1
v 5.8 1.3 -2.98023e-008
v 5.8 1.3 -0.1
v 5.8 1.4 0.1
v 5.8 1.4 -2.98023e-008
v 5.8 1.4 -0.1
v 5.8 1.5 0.2
v 5.8 1.5 0.1
v 5.8 1.5 -2.98023e-008
v 5.8 1.5 -0.1
v 5.8 1.5 -0.2
v 5.8 1.5 -0.3
v 5.8 1.8 -0.2
v 5.8 1.8 -0.3
v 5.8 1.9 0.3
v 5.8 1.9 0.2
v 5.8 1.9 -0.1
v 5.8 1.9 -0.2
v 5.8 2 0.3
v 5.8 2 0.2
v 5.8 2 0.1
v 5.8 2 -2.98023e-008
v 5.8 2 -0.1
v 5.8 2 -0.2
v 5.8 2.1 0.1
v 5.8 2.1 -2.98023e-008
v 5.9 1 0.1
v 5.9 1 -2.98023e-008
v 5.9 1.1 0.1
v 5.9 1.1 -2.98023e-008
v 5.9 1.2 0.1
v 5.9 1.2 -2.98023e-008
v 5.9 1.6 0.1
v 5.9 1.6 -0.1
v 5.9 1.7 0.1
v 5.9 1.7 -0.1
v 5.9 1.8 -0.2
v 5.9 1.8 -0.3
v 5.9 1.9 -0.2
v 5.9 1.9 -0.3
v 5.9 2 0.2
v 5.9 2 0.1
v 5.9 2 -2.98023e-008
v 5.9 2 -0.1
v 5.9 2.1 0.2
v 5.9 2.1 0.1
v 5.9 2.1 -2.98023e-008
v 5.9 2.1 -0.1
v 6.2 1.6 0.2
v 6.2 1.6 0.1
v 6.2 1.6 -0.1
v 6.2 1.7 0.2
v 6.2 1.7 -0.1
v 5.8 1.6 0.2
v 5.8 1.6 0.1
v 5.8 1.6 -0.1
v 5.8 1.7 0.2
v 5.8 1.7 -0.1
v 6.1 1 0.1
v 6.1 1 -2.98023e-008
v 6.1 1.1 0.1
v 6.1 1.1 -2.98023e-008
v 6.1 1.2 0.1
v 6.1 1.2 -2.98023e-008
v 6.1 1.6 0.1
v 6.1 1.6 -0.1
v 6.1 1.7 0.1
v 6.1 1.7 -0.1
v 6.1 1.8 -0.2
v 6.1 1.8 -0.3
v 6.1 1.9 -0.2
v 6.1 1.9 -0.3
v 6.1 2 0.2
v 6.1 2 0.1
v 6.1 2 -2.98023e-008
v 6.1 2 -0.1
v 6.1 2.1 0.2
v 6.1 2.1 0.1
v 6.1 2.1 -2.98023e-008
v 6.1 2.1 -0.1
v 6.2 1.2 0.2
v 6.2 1.2 0.1
v 6.2 1.2 -2.98023e-008
v 6.2 1.2 -0.1
v 6.2 1.3 0.2
v 6.2 1.3 0.1
v 6.2 1.3 -2.98023e-008
v 6.2 1.4 0.1
v 6.2 1.4 -2.98023e-008
v 6.2 1.4 -0.1
v 6.2 1.5 0.2
v 6.2 1.5 0.1
v 6.2 1.5 -2.98023e-008
v 6.2 1.5 -0.1
v 6.2 1.5 -0.2
v 6.2 1.5 -0.3
v 6.2 1.8 -0.2
v 6.2 1.8 -0.3
v 6.2 1.9 0.3
v 6.2 1.9 0.2
v 6.2 1.9 -0.1
v 6.2 1.9 -0.2
v 6.2 2 0.3
v 6.2 2 0.2
v 6.2 2 0.1
v 6.2 2 -2.98023e-008
v 6.2 2 -0.1
v 6.2 2 -0.2
v 6.2 2.1 0.1
v 6.2 2.1 -2.98023e-008
v 6.3 1.2 0.1
v 6.3 1.2 -2.98023e-008
v 6.3 1.3 0.1
v 6.3 1.3 -2.98023e-008
v 6.3 1.4 0.1
v 6.3 1.4 -2.98023e-008
v 6.3 1.4 -0.1
v 6.3 1.4 -0.2
v 6.3 1.5 0.2
v 6.3 1.5 0.1
v 6.3 1.5 -2.98023e-008
v 6.3 1.5 -0.1
v 6.3 1.6 0.1
v 6.3 1.6 -2.98023e-008
v 6.3 1.6 -0.1
v 6.3 1.8 0.1
v 6.3 1.8 -2.98023e-008
v 6.3 1.9 0.1
v 6.3 1.9 -2.98023e-008
v 6.3 1.9 -0.1
v 6.3 1.9 -0.2
v 6.3 2 0.2
v 6.3 2 -0.1
v 6.4 1.6 -2.98023e-008
v 6.4 1.6 -0.1
v 6.4 1.9 -2.98023e-008
v 6.4 1.9 -0.1
v 5.8 1.9 0.3
v 5.8 2 0.3
v 6.2 1.9 0.3
v 6.2 2 0.3
v 5.7 1.5 0.2
v 5.7 2 0.2
v 5.8 1.2 0.2
v 5.8 1.3 0.2
v 5.8 1.5 0.2
v 5.8 1.6 0.2
v 5.8 1.7 0.2
v 5.8 1.8 0.2
v 5.8 1.9 0.2
v 5.8 2 0.2
v 5.9 1.2 0.2
v 5.9 1.3 0.2
v 5.9 1.4 0.2
v 5.9 1.5 0.2
v 5.9 1.6 0.2
v 5.9 1.8 0.2
v 5.9 1.9 0.2
v 5.9 2 0.2
v 5.9 2.1 0.2
v 6 1.3 0.2
v 6 1.4 0.2
v 6 1.5 0.2
v 6.1 1.2 0.2
v 6.1 1.3 0.2
v 6.1 1.4 0.2
v 6.1 1.5 0.2
v 6.1 1.6 0.2
v 6.1 1.8 0.2
v 6.1 1.9 0.2
v 6.1 2 0.2
v 6.1 2.1 0.2
v 6.2 1.2 0.2
v 6.2 1.3 0.2
v 6.2 1.5 0.2
v 6.2 1.6 0.2
v 6.2 1.7 0.2
v 6.2 1.8 0.2
v 6.2 1.9 0.2
v 6.2 2 0.2
v 6.3 1.5 0.2
v 6.3 2 0.2
v 5.7 1.2 0.1
v 5.7 1.3 0.1
v 5.7 1.4 0.1
v 5.7 1.5 0.1
v 5.8 1.2 0.1
v 5.8 1.3 0.1
v 5.8 1.4 0.1
v 5.8 1.5 0.1
v 5.8 2 0.1
v 5.8 2.1 0.1
v 5.9 1 0.1
v 5.9 1.1 0.1
v 5.9 1.2 0.1
v 5.9 1.6 0.1
v 5.9 1.7 0.1
v 5.9 2 0.1
v 5.9 2.1 0.1
v 6.1 1 0.1
v 6.1 1.1 0.1
v 6.1 1.2 0.1
v 6.1 1.6 0.1
v 6.1 1.7 0.1
v 6.1 2 0.1
v 6.1 2.1 0.1
v 6.2 1.2 0.1
v 6.2 1.3 0.1
v 6.2 1.4 0.1
v 6.2 1.5 0.1
v 6.2 2 0.1
v 6.2 2.1 0.1
v 6.3 1.2 0.1
v 6.3 1.3 0.1
v 6.3 1.4 0.1
v 6.3 1.5 0.1
v 5.6 1.6 -2.98023e-008
v 5.6 1.9 -2.98023e-008
v 5.7 1.6 -2.98023e-008
v 5.7 1.8 -2.98023e-008
v 5.7 1.9 -2.98023e-008
v 6.3 1.6 -2.98023e-008
v 6.3 1.8 -2.98023e-008
v 6.3 1.9 -2.98023e-008
v 6.4 1.6 -2.98023e-008
v 6.4 1.9 -2.98023e-008
v 5.7 1.4 -0.1
v 5.7 1.5 -0.1
v 5.8 1.4 -0.1
v 5.8 1.5 -0.1
v 5.8 1.6 -0.1
v 5.8 1.7 -0.1
v 5.9 1.6 -0.1
v 5.9 1.7 -0.1
v 6.1 1.6 -0.1
v 6.1 1.7 -0.1
v 6.2 1.4 -0.1
v 6.2 1.5 -0.1
v 6.2 1.6 -0.1
v 6.2 1.7 -0.1
v 6.3 1.4 -0.1
v 6.3 1.5 -0.1
v 5.7 1.2 -2.98023e-008
v 5.7 1.3 -2.98023e-008
v 5.7 1.4 -2.98023e-008
v 5.7 1.5 -2.98023e-008
v 5.8 1.2 -2.98023e-008
v 5.8 1.3 -2.98023e-008
v 5.8 1.4 -2.98023e-008
v 5.8 1.5 -2.98023e-008
v 5.8 2 -2.98023e-008
v 5.8 2.1 -2.98023e-008
v 5.9 1 -2.98023e-008
v 5.9 1.1 -2.98023e-008
v 5.9 1.2 -2.98023e-008
v 5.9 2 -2.98023e-008
v 5.9 2.1 -2.98023e-008
v 6 1.2 -2.98023e-008
v 6.1 1 -2.98023e-008
v 6.1 1.1 -2.98023e-008
v 6.1 1.2 -2.98023e-008
v 6.1 2 -2.98023e-008
v 6.1 2.1 -2.98023e-008
v 6.2 1.2 -2.98023e-008
v 6.2 1.3 -2.98023e-008
v 6.2 1.4 -2.98023e-008
v 6.2 1.5 -2.98023e-008
v 6.2 2 -2.98023e-008
v 6.2 2.1 -2.98023e-008
v 6.3 1.2 -2.98023e-008
v 6.3 1.3 -2.98023e-008
v 6.3 1.4 -2.98023e-008
v 6.3 1.5 -2.98023e-008
v 5.6 1.6 -0.1
v 5.6 1.9 -0.1
v 5.7 1.6 -0.1
v 5.7 1.9 -0.1
v 5.7 2 -0.1
v 5.8 1.2 -0.1
v 5.8 1.3 -0.1
v 5.8 1.4 -0.1
v 5.8 1.9 -0.1
v 5.8 2 -0.1
v 5.9 1.2 -0.1
v 5.9 1.3 -0.1
v 5.9 1.4 -0.1
v 5.9 2 -0.1
v 5.9 2.1 -0.1
v 6 1.2 -0.1
v 6 1.3 -0.1
v 6 1.4 -0.1
v 6.1 1.3 -0.1
v 6.1 1.4 -0.1
v 6.1 2 -0.1
v 6.1 2.1 -0.1
v 6.2 1.2 -0.1
v 6.2 1.4 -0.1
v 6.2 1.9 -0.1
v 6.2 2 -0.1
v 6.3 1.6 -0.1
v 6.3 1.9 -0.1
v 6.3 2 -0.1
v 6.4 1.6 -0.1
v 6.4 1.9 -0.1
v 5.7 1.4 -0.2
v 5.7 1.9 -0.2
v 5.8 1.5 -0.2
v 5.8 1.8 -0.2
v 5.8 1.9 -0.2
v 5.8 2 -0.2
v 5.9 1.8 -0.2
v 5.9 1.9 -0.2
v 6.1 1.8 -0.2
v 6.1 1.9 -0.2
v 6.2 1.5 -0.2
v 6.2 1.8 -0.2
v 6.2 1.9 -0.2
v 6.2 2 -0.2
v 6.3 1.4 -0.2
v 6.3 1.9 -0.2
v 5.8 1.5 -0.3
v 5.8 1.8 -0.3
v 5.9 1.8 -0.3
v 5.9 1.9 -0.3
v 6.1 1.8 -0.3
v 6.1 1.9 -0.3
v 6.2 1.5 -0.3
v 6.2 1.8 -0.3
v 5.9 1 0.1
v 6.1 1 0.1
v 5.9 1 -2.98023e-008
v 6.1 1 -2.98023e-008
v 5.8 1.2 0.2
v 5.9 1.2 0.2
v 6.1 1.2 0.2
v 6.2 1.2 0.2
v 5.7 1.2 0.1
v 5.8 1.2 0.1
v 5.9 1.2 0.1
v 6.1 1.2 0.1
v 6.2 1.2 0.1
v 6.3 1.2 0.1
v 5.7 1.2 -2.98023e-008
v 5.8 1.2 -2.98023e-008
v 5.9 1.2 -2.98023e-008
v 6 1.2 -2.98023e-008
v 6.1 1.2 -2.98023e-008
v 6.2 1.2 -2.98023e-008
v 6.3 1.2 -2.98023e-008
v 5.8 1.2 -0.1
v 5.9 1.2 -0.1
v 6 1.2 -0.1
v 6.2 1.2 -0.1
v 5.7 1.4 -0.1
v 5.8 1.4 -0.1
v 5.9 1.4 -0.1
v 6 1.4 -0.1
v 6.1 1.4 -0.1
v 6.2 1.4 -0.1
v 6.3 1.4 -0.1
v 5.7 1.4 -0.2
v 6.3 1.4 -0.2
v 5.7 1.5 0.2
v 5.8 1.5 0.2
v 6.2 1.5 0.2
v 6.3 1.5 0.2
v 5.7 1.5 0.1
v 5.8 1.5 0.1
v 6.2 1.5 0.1
v 6.3 1.5 0.1
v 5.7 1.5 -2.98023e-008
v 5.8 1.5 -2.98023e-008
v 6.2 1.5 -2.98023e-008
v 6.3 1.5 -2.98023e-008
v 5.7 1.5 -0.1
v 5.8 1.5 -0.1
v 6.2 1.5 -0.1
v 6.3 1.5 -0.1
v 5.8 1.5 -0.2
v 6.2 1.5 -0.2
v 5.8 1.5 -0.3
v 6.2 1.5 -0.3
v 5.6 1.6 -2.98023e-008
v 5.7 1.6 -2.98023e-008
v 6.3 1.6 -2.98023e-008
v 6.4 1.6 -2.98023e-008
v 5.6 1.6 -0.1
v 5.7 1.6 -0.1
v 6.3 1.6 -0.1
v 6.4 1.6 -0.1
v 5.8 1.7 0.2
v 6.2 1.7 0.2
v 5.9 1.7 0.1
v 6.1 1.7 0.1
v 5.8 1.7 -0.1
v 5.9 1.7 -0.1
v 6.1 1.7 -0.1
v 6.2 1.7 -0.1
v 5.8 1.9 0.3
v 6.2 1.9 0.3
v 5.8 1.9 0.2
v 5.9 1.9 0.2
v 6.1 1.9 0.2
v 6.2 1.9 0.2
v 5.8 1.6 0.2
v 5.9 1.6 0.2
v 6.1 1.6 0.2
v 6.2 1.6 0.2
v 5.8 1.6 0.1
v 5.9 1.6 0.1
v 6.1 1.6 0.1
v 6.2 1.6 0.1
v 5.8 1.6 -0.1
v 5.9 1.6 -0.1
v 6.1 1.6 -0.1
v 6.2 1.6 -0.1
v 5.8 1.8 -0.2
v 5.9 1.8 -0.2
v 6.1 1.8 -0.2
v 6.2 1.8 -0.2
v 5.8 1.8 -0.3
v 5.9 1.8 -0.3
v 6.1 1.8 -0.3
v 6.2 1.8 -0.3
v 5.6 1.9 -2.98023e-008
v 5.7 1.9 -2.98023e-008
v 6.3 1.9 -2.98023e-008
v 6.4 1.9 -2.98023e-008
v 5.6 1.9 -0.1
v 5.7 1.9 -0.1
v 5.8 1.9 -0.1
v 6.2 1.9 -0.1
v 6.3 1.9 -0.1
v 6.4 1.9 -0.1
v 5.7 1.9 -0.2
v 5.8 1.9 -0.2
v 5.9 1.9 -0.2
v 6.1 1.9 -0.2
v 6.2 1.9 -0.2
v 6.3 1.9 -0.2
v 5.9 1.9 -0.3
v 6.1 1.9 -0.3
v 5.8 2 0.3
v 6.2 2 0.3
v 5.7 2 0.2
v 5.8 2 0.2
v 5.9 2 0.2
v 6.1 2 0.2
v 6.2 2 0.2
v 6.3 2 0.2
v 5.8 2 0.1
v 5.9 2 0.1
v 6.1 2 0.1
v 6.2 2 0.1
v 5.8 2 -2.98023e-008
v 5.9 2 -2.98023e-008
v 6.1 2 -2.98023e-008
v 6.2 2 -2.98023e-008
v 5.7 2 -0.1
v 5.8 2 -0.1
v 5.9 2 -0.1
v 6.1 2 -0.1
v 6.2 2 -0.1
v 6.3 2 -0.1
v 5.8 2 -0.2
v 6.2 2 -0.2
v 5.9 2.1 0.2
v 6.1 2.1 0.2
v 5.8 2.1 0.1
v 5.9 2.1 0.1
v 6.1 2.1 0.1
v 6.2 2.1 0.1
v 5.8 2.1 -2.98023e-008
v 5.9 2.1 -2.98023e-008
v 6.1 2.1 -2.98023e-008
v 6.2 2.1 -2.98023e-008
v 5.9 2.1 -0.1
v 6.1 2.1 -0.1

# faces
f 3/2/1 2/2/1 1/2/1
f 4/2/1 2/2/1 3/2/1
f 7/1/1 6/1/1 5/1/1
f 8/1/1 6/1/1 7/1/1
f 9/6/1 8/6/1 7/6/1
f 10/6/1 8/6/1 9/6/1
f 14/5/1 10/5/1 9/5/1
f 15/5/1 10/5/1 14/5/1
f 16/2/1 12/2/1 11/2/1
f 17/6/1 15/6/1 14/6/1
f 17/2/1 14/2/1 13/2/1
f 18/2/1 16/2/1 15/2/1
f 18/6/1 15/6/1 17/6/1
f 19/2/1 12/2/1 16/2/1
f 19/2/1 16/2/1 18/2/1
f 20/2/1 17/2/1 13/2/1
f 20/2/1 18/2/1 17/2/1
f 21/2/1 18/2/1 20/2/1
f 22/2/1 20/2/1 13/2/1
f 22/3/1 21/3/1 20/3/1
f 23/3/1 21/3/1 22/3/1
f 24/2/1 12/2/1 19/2/1
f 25/2/1 12/2/1 24/2/1
f 26/2/1 23/2/1 22/2/1
f 26/2/1 22/2/1 13/2/1
f 26/2/1 24/2/1 23/2/1
f 27/2/1 24/2/1 26/2/1
f 32/5/1 29/5/1 28/5/1
f 33/5/1 29/5/1 32/5/1
f 34/6/1 31/6/1 30/6/1
f 35/6/1 31/6/1 34/6/1
f 36/6/1 33/6/1 32/6/1
f 37/5/1 35/5/1 34/5/1
f 38/5/1 35/5/1 37/5/1
f 39/6/1 36/6/1 32/6/1
f 40/6/1 36/6/1 39/6/1
f 41/6/1 38/6/1 37/6/1
f 42/6/1 38/6/1 41/6/1
f 45/2/1 44/2/1 43/2/1
f 46/2/1 44/2/1 45/2/1
f 51/2/1 48/2/1 47/2/1
f 52/2/1 48/2/1 51/2/1
f 55/2/1 50/2/1 49/2/1
f 56/2/1 50/2/1 55/2/1
f 57/2/1 54/2/1 53/2/1
f 58/2/1 54/2/1 57/2/1
f 61/4/1 60/4/1 59/4/1
f 62/4/1 60/4/1 61/4/1
f 63/1/1 62/1/1 61/1/1
f 64/1/1 62/1/1 63/1/1
f 67/1/1 66/1/1 65/1/1
f 68/1/1 66/1/1 67/1/1
f 71/2/1 70/2/1 69/2/1
f 72/2/1 70/2/1 71/2/1
f 77/2/1 74/2/1 73/2/1
f 78/2/1 74/2/1 77/2/1
f 79/2/1 76/2/1 75/2/1
f 80/2/1 76/2/1 79/2/1
f 84/2/1 82/2/1 81/2/1
f 84/2/1 83/2/1 82/2/1
f 85/2/1 83/2/1 84/2/1
f 86/2/2 87/2/2 89/2/2
f 87/2/2 88/2/2 89/2/2
f 89/2/2 88/2/2 90/2/2
f 91/4/2 92/4/2 93/4/2
f 93/4/2 92/4/2 94/4/2
f 93/1/2 94/1/2 95/1/2
f 95/1/2 94/1/2 96/1/2
f 97/1/2 98/1/2 99/1/2
f 99/1/2 98/1/2 100/1/2
f 101/2/2 102/2/2 103/2/2
f 103/2/2 102/2/2 104/2/2
f 105/2/2 106/2/2 109/2/2
f 109/2/2 106/2/2 110/2/2
f 107/2/2 108/2/2 111/2/2
f 111/2/2 108/2/2 112/2/2
f 113/5/2 114/5/2 117/5/2
f 117/5/2 114/5/2 118/5/2
f 115/6/2 116/6/2 119/6/2
f 117/6/2 118/6/2 120/6/2
f 119/6/2 116/6/2 121/6/2
f 121/6/2 116/6/2 122/6/2
f 117/6/2 120/6/2 123/6/2
f 123/6/2 120/6/2 124/6/2
f 121/5/2 122/5/2 125/5/2
f 125/5/2 122/5/2 126/5/2
f 127/2/2 128/2/2 129/2/2
f 129/2/2 128/2/2 130/2/2
f 131/2/2 132/2/2 135/2/2
f 135/2/2 132/2/2 136/2/2
f 133/2/2 134/2/2 139/2/2
f 139/2/2 134/2/2 140/2/2
f 137/2/2 138/2/2 141/2/2
f 141/2/2 138/2/2 142/2/2
f 143/1/2 144/1/2 145/1/2
f 145/1/2 144/1/2 146/1/2
f 145/5/2 146/5/2 147/5/2
f 147/5/2 146/5/2 148/5/2
f 147/6/2 148/6/2 152/6/2
f 152/6/2 148/6/2 153/6/2
f 149/2/2 150/2/2 154/2/2
f 152/5/2 153/5/2 155/5/2
f 151/2/2 152/2/2 155/2/2
f 153/2/2 154/2/2 156/2/2
f 155/5/2 153/5/2 156/5/2
f 154/2/2 150/2/2 157/2/2
f 156/2/2 154/2/2 157/2/2
f 151/2/2 155/2/2 158/2/2
f 155/2/2 156/2/2 158/2/2
f 158/2/2 156/2/2 159/2/2
f 151/2/2 158/2/2 160/2/2
f 158/3/2 159/3/2 160/3/2
f 160/3/2 159/3/2 161/3/2
f 157/2/2 150/2/2 162/2/2
f 162/2/2 150/2/2 163/2/2
f 160/2/2 161/2/2 164/2/2
f 151/2/2 160/2/2 164/2/2
f 161/2/2 162/2/2 164/2/2
f 164/2/2 162/2/2 165/2/2
f 166/2/2 167/2/2 168/2/2
f 168/2/2 167/2/2 169/2/2
f 172/2/3 171/2/3 170/2/3
f 173/2/3 171/2/3 172/2/3
f 178/2/3 175/2/3 174/2/3
f 179/2/3 175/2/3 178/2/3
f 180/2/3 175/2/3 179/2/3
f 181/2/3 175/2/3 180/2/3
f 182/2/3 175/2/3 181/2/3
f 183/2/3 175/2/3 182/2/3
f 184/5/3 177/5/3 176/5/3
f 185/6/3 178/6/3 177/6/3
f 185/5/3 177/5/3 184/5/3
f 186/6/3 178/6/3 185/6/3
f 187/5/3 179/5/3 178/5/3
f 187/6/3 178/6/3 186/6/3
f 188/5/3 179/5/3 187/5/3
f 189/7/3 182/7/3 181/7/3
f 189/1/3 181/1/3 180/1/3
f 190/7/3 182/7/3 189/7/3
f 193/5/3 186/5/3 185/5/3
f 193/6/3 185/6/3 184/6/3
f 194/6/3 188/6/3 187/6/3
f 194/5/3 186/5/3 193/5/3
f 194/6/3 187/6/3 186/6/3
f 195/6/3 188/6/3 194/6/3
f 196/6/3 193/6/3 184/6/3
f 196/6/3 194/6/3 193/6/3
f 197/6/3 194/6/3 196/6/3
f 198/5/3 195/5/3 194/5/3
f 198/6/3 194/6/3 197/6/3
f 199/6/3 188/6/3 195/6/3
f 199/5/3 195/5/3 198/5/3
f 200/6/3 188/6/3 199/6/3
f 201/1/3 190/1/3 189/1/3
f 201/1/3 189/1/3 180/1/3
f 202/1/3 190/1/3 201/1/3
f 203/2/3 192/2/3 191/2/3
f 204/2/3 192/2/3 203/2/3
f 205/5/3 197/5/3 196/5/3
f 206/6/3 198/6/3 197/6/3
f 206/5/3 197/5/3 205/5/3
f 206/6/3 199/6/3 198/6/3
f 207/5/3 200/5/3 199/5/3
f 207/6/3 199/6/3 206/6/3
f 208/5/3 200/5/3 207/5/3
f 209/1/3 201/1/3 180/1/3
f 210/7/3 202/7/3 201/7/3
f 210/1/3 201/1/3 209/1/3
f 211/7/3 202/7/3 210/7/3
f 213/2/3 212/2/3 211/2/3
f 213/2/3 211/2/3 210/2/3
f 213/2/3 210/2/3 209/2/3
f 213/2/3 209/2/3 208/2/3
f 213/2/3 208/2/3 207/2/3
f 214/2/3 212/2/3 213/2/3
f 219/1/3 216/1/3 215/1/3
f 220/6/3 217/6/3 216/6/3
f 220/1/3 216/1/3 219/1/3
f 221/5/3 218/5/3 217/5/3
f 221/6/3 217/6/3 220/6/3
f 222/5/3 218/5/3 221/5/3
f 230/2/3 224/2/3 223/2/3
f 231/2/3 224/2/3 230/2/3
f 232/4/3 226/4/3 225/4/3
f 233/1/3 227/1/3 226/1/3
f 233/4/3 226/4/3 232/4/3
f 234/1/3 227/1/3 233/1/3
f 235/1/3 229/1/3 228/1/3
f 236/1/3 229/1/3 235/1/3
f 243/2/3 238/2/3 237/2/3
f 244/2/3 238/2/3 243/2/3
f 245/1/3 240/1/3 239/1/3
f 246/5/3 241/5/3 240/5/3
f 246/1/3 240/1/3 245/1/3
f 247/6/3 242/6/3 241/6/3
f 247/5/3 241/5/3 246/5/3
f 248/6/3 242/6/3 247/6/3
f 251/2/3 250/2/3 249/2/3
f 252/2/3 250/2/3 251/2/3
f 253/2/3 250/2/3 252/2/3
f 257/2/3 255/2/3 254/2/3
f 257/2/3 256/2/3 255/2/3
f 258/2/3 256/2/3 257/2/3
f 261/2/3 260/2/3 259/2/3
f 262/2/3 260/2/3 261/2/3
f 265/2/3 264/2/3 263/2/3
f 266/2/3 264/2/3 265/2/3
f 271/2/3 268/2/3 267/2/3
f 272/2/3 268/2/3 271/2/3
f 273/2/3 270/2/3 269/2/3
f 274/2/3 270/2/3 273/2/3
f 275/1/4 276/1/4 279/1/4
f 276/6/4 277/6/4 280/6/4
f 279/1/4 276/1/4 280/1/4
f 277/5/4 278/5/4 281/5/4
f 280/6/4 277/6/4 281/6/4
f 281/5/4 278/5/4 282/5/4
f 283/2/4 284/2/4 288/2/4
f 288/2/4 284/2/4 289/2/4
f 286/1/4 287/1/4 290/1/4
f 285/4/4 286/4/4 291/4/4
f 286/1/4 290/1/4 292/1/4
f 291/4/4 286/4/4 292/4/4
f 292/1/4 290/1/4 293/1/4
f 294/2/4 295/2/4 300/2/4
f 300/2/4 295/2/4 301/2/4
f 296/1/4 297/1/4 302/1/4
f 297/5/4 298/5/4 303/5/4
f 302/1/4 297/1/4 303/1/4
f 298/6/4 299/6/4 304/6/4
f 303/5/4 298/5/4 304/5/4
f 304/6/4 299/6/4 305/6/4
f 306/2/4 307/2/4 308/2/4
f 308/2/4 307/2/4 309/2/4
f 309/2/4 310/2/4 314/2/4
f 314/2/4 310/2/4 315/2/4
f 311/6/4 312/6/4 316/6/4
f 312/5/4 313/5/4 317/5/4
f 316/6/4 312/6/4 317/6/4
f 317/5/4 313/5/4 318/5/4
f 316/5/4 317/5/4 321/5/4
f 317/6/4 318/6/4 322/6/4
f 321/5/4 317/5/4 322/5/4
f 322/6/4 318/6/4 323/6/4
f 321/6/4 322/6/4 324/6/4
f 322/5/4 323/5/4 324/5/4
f 324/5/4 323/5/4 325/5/4
f 319/2/4 320/2/4 326/2/4
f 326/2/4 320/2/4 327/2/4
f 324/6/4 325/6/4 328/6/4
f 321/6/4 324/6/4 328/6/4
f 328/6/4 325/6/4 329/6/4
f 330/2/4 331/2/4 333/2/4
f 333/2/4 331/2/4 334/2/4
f 332/2/4 333/2/4 335/2/4
f 335/2/4 333/2/4 336/2/4
f 337/2/4 338/2/4 339/2/4
f 339/2/4 338/2/4 340/2/4
f 340/2/4 338/2/4 341/2/4
f 341/2/4 342/2/4 343/2/4
f 340/2/4 341/2/4 343/2/4
f 343/2/4 342/2/4 344/2/4
f 344/2/4 342/2/4 346/2/4
f 337/2/4 339/2/4 347/2/4
f 345/2/4 346/2/4 348/2/4
f 346/2/4 342/2/4 349/2/4
f 348/2/4 346/2/4 349/2/4
f 349/2/4 342/2/4 350/2/4
f 337/2/4 347/2/4 351/2/4
f 347/2/4 348/2/4 351/2/4
f 348/2/4 349/2/4 351/2/4
f 351/2/4 349/2/4 352/2/4
f 353/2/4 354/2/4 355/2/4
f 353/2/4 355/2/4 357/2/4
f 355/2/4 356/2/4 357/2/4
f 357/2/4 356/2/4 358/2/4
f 353/2/4 357/2/4 359/2/4
f 359/2/4 357/2/4 360/2/4
f 363/4/5 362/4/5 361/4/5
f 364/4/5 362/4/5 363/4/5
f 370/5/5 366/5/5 365/5/5
f 371/6/5 367/6/5 366/6/5
f 371/5/5 366/5/5 370/5/5
f 372/5/5 368/5/5 367/5/5
f 372/6/5 367/6/5 371/6/5
f 373/5/5 368/5/5 372/5/5
f 375/1/5 370/1/5 369/1/5
f 376/6/5 371/6/5 370/6/5
f 376/1/5 370/1/5 375/1/5
f 377/6/5 371/6/5 376/6/5
f 379/5/5 373/5/5 372/5/5
f 380/1/5 374/1/5 373/1/5
f 380/5/5 373/5/5 379/5/5
f 381/1/5 374/1/5 380/1/5
f 382/6/5 377/6/5 376/6/5
f 383/5/5 378/5/5 377/5/5
f 383/6/5 377/6/5 382/6/5
f 384/6/5 379/6/5 378/6/5
f 384/5/5 378/5/5 383/5/5
f 384/6/5 380/6/5 379/6/5
f 385/6/5 380/6/5 384/6/5
f 393/2/5 387/2/5 386/2/5
f 393/2/5 392/2/5 391/2/5
f 393/2/5 391/2/5 390/2/5
f 393/2/5 390/2/5 389/2/5
f 393/2/5 389/2/5 388/2/5
f 393/2/5 388/2/5 387/2/5
f 394/2/5 392/2/5 393/2/5
f 399/2/5 396/2/5 395/2/5
f 400/2/5 396/2/5 399/2/5
f 401/2/5 398/2/5 397/2/5
f 402/2/5 398/2/5 401/2/5
f 407/2/5 404/2/5 403/2/5
f 408/2/5 404/2/5 407/2/5
f 409/2/5 406/2/5 405/2/5
f 410/2/5 406/2/5 409/2/5
f 413/2/5 412/2/5 411/2/5
f 414/2/5 412/2/5 413/2/5
f 419/2/5 416/2/5 415/2/5
f 420/2/5 416/2/5 419/2/5
f 421/2/5 418/2/5 417/2/5
f 422/2/5 418/2/5 421/2/5
f 425/1/5 424/1/5 423/1/5
f 426/1/5 424/1/5 425/1/5
f 427/1/5 425/1/5 423/1/5
f 428/1/5 425/1/5 427/1/5
f 429/1/5 424/1/5 426/1/5
f 430/1/5 424/1/5 429/1/5
f 433/2/5 432/2/5 431/2/5
f 434/2/5 432/2/5 433/2/5
f 435/2/5 432/2/5 434/2/5
f 436/2/5 432/2/5 435/2/5
f 437/5/6 438/5/6 441/5/6
f 438/6/6 439/6/6 442/6/6
f 441/5/6 438/5/6 442/5/6
f 439/5/6 440/5/6 443/5/6
f 442/6/6 439/6/6 443/6/6
f 443/5/6 440/5/6 444/5/6
f 441/6/6 442/6/6 445/6/6
f 445/6/6 442/6/6 446/6/6
f 443/6/6 444/6/6 447/6/6
f 447/6/6 444/6/6 448/6/6
f 449/2/6 450/2/6 453/2/6
f 453/2/6 450/2/6 454/2/6
f 451/2/6 452/2/6 455/2/6
f 455/2/6 452/2/6 456/2/6
f 457/2/6 458/2/6 461/2/6
f 461/2/6 458/2/6 462/2/6
f 459/2/6 460/2/6 465/2/6
f 465/2/6 460/2/6 466/2/6
f 462/2/6 463/2/6 467/2/6
f 467/2/6 463/2/6 468/2/6
f 464/2/6 465/2/6 471/2/6
f 471/2/6 465/2/6 472/2/6
f 469/2/6 470/2/6 473/2/6
f 473/2/6 470/2/6 474/2/6
f 475/2/6 476/2/6 478/2/6
f 478/2/6 476/2/6 479/2/6
f 479/2/6 476/2/6 480/2/6
f 480/2/6 476/2/6 481/2/6
f 477/2/6 478/2/6 483/2/6
f 478/2/6 479/2/6 483/2/6
f 483/2/6 479/2/6 484/2/6
f 481/2/6 482/2/6 485/2/6
f 480/2/6 481/2/6 485/2/6
f 485/2/6 482/2/6 486/2/6
f 477/2/6 483/2/6 487/2/6
f 486/2/6 482/2/6 490/2/6
f 487/2/6 488/2/6 491/2/6
f 477/2/6 487/2/6 491/2/6
f 491/2/6 488/2/6 492/2/6
f 492/2/6 488/2/6 493/2/6
f 489/2/6 490/2/6 494/2/6
f 490/2/6 482/2/6 495/2/6
f 494/2/6 490/2/6 495/2/6
f 495/2/6 482/2/6 496/2/6
f 492/2/6 493/2/6 497/2/6
f 493/2/6 494/2/6 497/2/6
f 494/2/6 495/2/6 497/2/6
f 497/2/6 495/2/6 498/2/6
f 499/2/6 500/2/6 502/2/6
f 502/2/6 500/2/6 503/2/6
f 501/2/6 502/2/6 505/2/6
f 503/2/6 504/2/6 505/2/6
f 502/2/6 503/2/6 505/2/6
f 505/2/6 504/2/6 506/2/6
f 506/2/6 504/2/6 507/2/6
f 507/2/6 504/2/6 508/2/6
f 506/2/6 507/2/6 509/2/6
f 509/2/6 507/2/6 510/2/6
