# MagicaVoxel @ Ephtracy

# group
o 

# material
mtllib Female1-1.mtl
usemtl palette

# normals
vn -1 0 0
vn 1 0 0
vn 0 0 1
vn 0 0 -1
vn 0 -1 0
vn 0 1 0

# texcoords
vt 0.0332031 0.5
vt 0.0605469 0.5
vt 0.841797 0.5
vt 0.845703 0.5
vt 0.853516 0.5
vt 0.955078 0.5
vt 0.978516 0.5
vt 0.994141 0.5

# verts
v 5.6 1.6 -2
v 5.6 1.6 -2.1
v 5.6 1.9 -2
v 5.6 1.9 -2.1
v 5.7 1.2 -1.9
v 5.7 1.2 -2
v 5.7 1.3 -1.9
v 5.7 1.3 -2
v 5.7 1.4 -1.9
v 5.7 1.4 -2
v 5.7 1.4 -2.1
v 5.7 1.4 -2.2
v 5.7 1.5 -1.8
v 5.7 1.5 -1.9
v 5.7 1.5 -2
v 5.7 1.5 -2.1
v 5.7 1.6 -1.9
v 5.7 1.6 -2
v 5.7 1.6 -2.1
v 5.7 1.8 -1.9
v 5.7 1.8 -2
v 5.7 1.9 -1.9
v 5.7 1.9 -2
v 5.7 1.9 -2.1
v 5.7 1.9 -2.2
v 5.7 2 -1.8
v 5.7 2 -2.1
v 5.8 1.2 -1.8
v 5.8 1.2 -1.9
v 5.8 1.2 -2
v 5.8 1.2 -2.1
v 5.8 1.3 -1.8
v 5.8 1.3 -1.9
v 5.8 1.3 -2
v 5.8 1.3 -2.1
v 5.8 1.4 -1.9
v 5.8 1.4 -2
v 5.8 1.4 -2.1
v 5.8 1.5 -1.8
v 5.8 1.5 -1.9
v 5.8 1.5 -2
v 5.8 1.5 -2.1
v 5.8 1.5 -2.2
v 5.8 1.5 -2.3
v 5.8 1.8 -2.2
v 5.8 1.8 -2.3
v 5.8 1.9 -1.7
v 5.8 1.9 -1.8
v 5.8 1.9 -2.1
v 5.8 1.9 -2.2
v 5.8 2 -1.7
v 5.8 2 -1.8
v 5.8 2 -1.9
v 5.8 2 -2
v 5.8 2 -2.1
v 5.8 2 -2.2
v 5.8 2.1 -1.9
v 5.8 2.1 -2
v 5.9 1 -1.9
v 5.9 1 -2
v 5.9 1.1 -1.9
v 5.9 1.1 -2
v 5.9 1.2 -1.9
v 5.9 1.2 -2
v 5.9 1.6 -1.9
v 5.9 1.6 -2.1
v 5.9 1.7 -1.9
v 5.9 1.7 -2.1
v 5.9 1.8 -2.2
v 5.9 1.8 -2.3
v 5.9 1.9 -2.2
v 5.9 1.9 -2.3
v 5.9 2 -1.8
v 5.9 2 -1.9
v 5.9 2 -2
v 5.9 2 -2.1
v 5.9 2.1 -1.8
v 5.9 2.1 -1.9
v 5.9 2.1 -2
v 5.9 2.1 -2.1
v 6.2 1.6 -1.8
v 6.2 1.6 -1.9
v 6.2 1.6 -2.1
v 6.2 1.7 -1.8
v 6.2 1.7 -2.1
v 5.8 1.6 -1.8
v 5.8 1.6 -1.9
v 5.8 1.6 -2.1
v 5.8 1.7 -1.8
v 5.8 1.7 -2.1
v 6.1 1 -1.9
v 6.1 1 -2
v 6.1 1.1 -1.9
v 6.1 1.1 -2
v 6.1 1.2 -1.9
v 6.1 1.2 -2
v 6.1 1.6 -1.9
v 6.1 1.6 -2.1
v 6.1 1.7 -1.9
v 6.1 1.7 -2.1
v 6.1 1.8 -2.2
v 6.1 1.8 -2.3
v 6.1 1.9 -2.2
v 6.1 1.9 -2.3
v 6.1 2 -1.8
v 6.1 2 -1.9
v 6.1 2 -2
v 6.1 2 -2.1
v 6.1 2.1 -1.8
v 6.1 2.1 -1.9
v 6.1 2.1 -2
v 6.1 2.1 -2.1
v 6.2 1.2 -1.8
v 6.2 1.2 -1.9
v 6.2 1.2 -2
v 6.2 1.2 -2.1
v 6.2 1.3 -1.8
v 6.2 1.3 -1.9
v 6.2 1.3 -2
v 6.2 1.4 -1.9
v 6.2 1.4 -2
v 6.2 1.4 -2.1
v 6.2 1.5 -1.8
v 6.2 1.5 -1.9
v 6.2 1.5 -2
v 6.2 1.5 -2.1
v 6.2 1.5 -2.2
v 6.2 1.5 -2.3
v 6.2 1.8 -2.2
v 6.2 1.8 -2.3
v 6.2 1.9 -1.7
v 6.2 1.9 -1.8
v 6.2 1.9 -2.1
v 6.2 1.9 -2.2
v 6.2 2 -1.7
v 6.2 2 -1.8
v 6.2 2 -1.9
v 6.2 2 -2
v 6.2 2 -2.1
v 6.2 2 -2.2
v 6.2 2.1 -1.9
v 6.2 2.1 -2
v 6.3 1.2 -1.9
v 6.3 1.2 -2
v 6.3 1.3 -1.9
v 6.3 1.3 -2
v 6.3 1.4 -1.9
v 6.3 1.4 -2
v 6.3 1.4 -2.1
v 6.3 1.4 -2.2
v 6.3 1.5 -1.8
v 6.3 1.5 -1.9
v 6.3 1.5 -2
v 6.3 1.5 -2.1
v 6.3 1.6 -1.9
v 6.3 1.6 -2
v 6.3 1.6 -2.1
v 6.3 1.8 -1.9
v 6.3 1.8 -2
v 6.3 1.9 -1.9
v 6.3 1.9 -2
v 6.3 1.9 -2.1
v 6.3 1.9 -2.2
v 6.3 2 -1.8
v 6.3 2 -2.1
v 6.4 1.6 -2
v 6.4 1.6 -2.1
v 6.4 1.9 -2
v 6.4 1.9 -2.1
v 5.8 1.9 -1.7
v 5.8 2 -1.7
v 6.2 1.9 -1.7
v 6.2 2 -1.7
v 5.7 1.5 -1.8
v 5.7 2 -1.8
v 5.8 1.2 -1.8
v 5.8 1.3 -1.8
v 5.8 1.5 -1.8
v 5.8 1.6 -1.8
v 5.8 1.7 -1.8
v 5.8 1.8 -1.8
v 5.8 1.9 -1.8
v 5.8 2 -1.8
v 5.9 1.2 -1.8
v 5.9 1.3 -1.8
v 5.9 1.4 -1.8
v 5.9 1.5 -1.8
v 5.9 1.6 -1.8
v 5.9 1.8 -1.8
v 5.9 1.9 -1.8
v 5.9 2 -1.8
v 5.9 2.1 -1.8
v 6 1.3 -1.8
v 6 1.4 -1.8
v 6 1.5 -1.8
v 6.1 1.2 -1.8
v 6.1 1.3 -1.8
v 6.1 1.4 -1.8
v 6.1 1.5 -1.8
v 6.1 1.6 -1.8
v 6.1 1.8 -1.8
v 6.1 1.9 -1.8
v 6.1 2 -1.8
v 6.1 2.1 -1.8
v 6.2 1.2 -1.8
v 6.2 1.3 -1.8
v 6.2 1.5 -1.8
v 6.2 1.6 -1.8
v 6.2 1.7 -1.8
v 6.2 1.8 -1.8
v 6.2 1.9 -1.8
v 6.2 2 -1.8
v 6.3 1.5 -1.8
v 6.3 2 -1.8
v 5.7 1.2 -1.9
v 5.7 1.3 -1.9
v 5.7 1.4 -1.9
v 5.7 1.5 -1.9
v 5.8 1.2 -1.9
v 5.8 1.3 -1.9
v 5.8 1.4 -1.9
v 5.8 1.5 -1.9
v 5.8 2 -1.9
v 5.8 2.1 -1.9
v 5.9 1 -1.9
v 5.9 1.1 -1.9
v 5.9 1.2 -1.9
v 5.9 1.6 -1.9
v 5.9 1.7 -1.9
v 5.9 2 -1.9
v 5.9 2.1 -1.9
v 6.1 1 -1.9
v 6.1 1.1 -1.9
v 6.1 1.2 -1.9
v 6.1 1.6 -1.9
v 6.1 1.7 -1.9
v 6.1 2 -1.9
v 6.1 2.1 -1.9
v 6.2 1.2 -1.9
v 6.2 1.3 -1.9
v 6.2 1.4 -1.9
v 6.2 1.5 -1.9
v 6.2 2 -1.9
v 6.2 2.1 -1.9
v 6.3 1.2 -1.9
v 6.3 1.3 -1.9
v 6.3 1.4 -1.9
v 6.3 1.5 -1.9
v 5.6 1.6 -2
v 5.6 1.9 -2
v 5.7 1.6 -2
v 5.7 1.8 -2
v 5.7 1.9 -2
v 6.3 1.6 -2
v 6.3 1.8 -2
v 6.3 1.9 -2
v 6.4 1.6 -2
v 6.4 1.9 -2
v 5.7 1.4 -2.1
v 5.7 1.5 -2.1
v 5.8 1.4 -2.1
v 5.8 1.5 -2.1
v 5.8 1.6 -2.1
v 5.8 1.7 -2.1
v 5.9 1.6 -2.1
v 5.9 1.7 -2.1
v 6.1 1.6 -2.1
v 6.1 1.7 -2.1
v 6.2 1.4 -2.1
v 6.2 1.5 -2.1
v 6.2 1.6 -2.1
v 6.2 1.7 -2.1
v 6.3 1.4 -2.1
v 6.3 1.5 -2.1
v 5.7 1.2 -2
v 5.7 1.3 -2
v 5.7 1.4 -2
v 5.7 1.5 -2
v 5.8 1.2 -2
v 5.8 1.3 -2
v 5.8 1.4 -2
v 5.8 1.5 -2
v 5.8 2 -2
v 5.8 2.1 -2
v 5.9 1 -2
v 5.9 1.1 -2
v 5.9 1.2 -2
v 5.9 2 -2
v 5.9 2.1 -2
v 6 1.2 -2
v 6.1 1 -2
v 6.1 1.1 -2
v 6.1 1.2 -2
v 6.1 2 -2
v 6.1 2.1 -2
v 6.2 1.2 -2
v 6.2 1.3 -2
v 6.2 1.4 -2
v 6.2 1.5 -2
v 6.2 2 -2
v 6.2 2.1 -2
v 6.3 1.2 -2
v 6.3 1.3 -2
v 6.3 1.4 -2
v 6.3 1.5 -2
v 5.6 1.6 -2.1
v 5.6 1.9 -2.1
v 5.7 1.6 -2.1
v 5.7 1.9 -2.1
v 5.7 2 -2.1
v 5.8 1.2 -2.1
v 5.8 1.3 -2.1
v 5.8 1.4 -2.1
v 5.8 1.9 -2.1
v 5.8 2 -2.1
v 5.9 1.2 -2.1
v 5.9 1.3 -2.1
v 5.9 1.4 -2.1
v 5.9 2 -2.1
v 5.9 2.1 -2.1
v 6 1.2 -2.1
v 6 1.3 -2.1
v 6 1.4 -2.1
v 6.1 1.3 -2.1
v 6.1 1.4 -2.1
v 6.1 2 -2.1
v 6.1 2.1 -2.1
v 6.2 1.2 -2.1
v 6.2 1.4 -2.1
v 6.2 1.9 -2.1
v 6.2 2 -2.1
v 6.3 1.6 -2.1
v 6.3 1.9 -2.1
v 6.3 2 -2.1
v 6.4 1.6 -2.1
v 6.4 1.9 -2.1
v 5.7 1.4 -2.2
v 5.7 1.9 -2.2
v 5.8 1.5 -2.2
v 5.8 1.8 -2.2
v 5.8 1.9 -2.2
v 5.8 2 -2.2
v 5.9 1.8 -2.2
v 5.9 1.9 -2.2
v 6.1 1.8 -2.2
v 6.1 1.9 -2.2
v 6.2 1.5 -2.2
v 6.2 1.8 -2.2
v 6.2 1.9 -2.2
v 6.2 2 -2.2
v 6.3 1.4 -2.2
v 6.3 1.9 -2.2
v 5.8 1.5 -2.3
v 5.8 1.8 -2.3
v 5.9 1.8 -2.3
v 5.9 1.9 -2.3
v 6.1 1.8 -2.3
v 6.1 1.9 -2.3
v 6.2 1.5 -2.3
v 6.2 1.8 -2.3
v 5.9 1 -1.9
v 6.1 1 -1.9
v 5.9 1 -2
v 6.1 1 -2
v 5.8 1.2 -1.8
v 5.9 1.2 -1.8
v 6.1 1.2 -1.8
v 6.2 1.2 -1.8
v 5.7 1.2 -1.9
v 5.8 1.2 -1.9
v 5.9 1.2 -1.9
v 6.1 1.2 -1.9
v 6.2 1.2 -1.9
v 6.3 1.2 -1.9
v 5.7 1.2 -2
v 5.8 1.2 -2
v 5.9 1.2 -2
v 6 1.2 -2
v 6.1 1.2 -2
v 6.2 1.2 -2
v 6.3 1.2 -2
v 5.8 1.2 -2.1
v 5.9 1.2 -2.1
v 6 1.2 -2.1
v 6.2 1.2 -2.1
v 5.7 1.4 -2.1
v 5.8 1.4 -2.1
v 5.9 1.4 -2.1
v 6 1.4 -2.1
v 6.1 1.4 -2.1
v 6.2 1.4 -2.1
v 6.3 1.4 -2.1
v 5.7 1.4 -2.2
v 6.3 1.4 -2.2
v 5.7 1.5 -1.8
v 5.8 1.5 -1.8
v 6.2 1.5 -1.8
v 6.3 1.5 -1.8
v 5.7 1.5 -1.9
v 5.8 1.5 -1.9
v 6.2 1.5 -1.9
v 6.3 1.5 -1.9
v 5.7 1.5 -2
v 5.8 1.5 -2
v 6.2 1.5 -2
v 6.3 1.5 -2
v 5.7 1.5 -2.1
v 5.8 1.5 -2.1
v 6.2 1.5 -2.1
v 6.3 1.5 -2.1
v 5.8 1.5 -2.2
v 6.2 1.5 -2.2
v 5.8 1.5 -2.3
v 6.2 1.5 -2.3
v 5.6 1.6 -2
v 5.7 1.6 -2
v 6.3 1.6 -2
v 6.4 1.6 -2
v 5.6 1.6 -2.1
v 5.7 1.6 -2.1
v 6.3 1.6 -2.1
v 6.4 1.6 -2.1
v 5.8 1.7 -1.8
v 6.2 1.7 -1.8
v 5.9 1.7 -1.9
v 6.1 1.7 -1.9
v 5.8 1.7 -2.1
v 5.9 1.7 -2.1
v 6.1 1.7 -2.1
v 6.2 1.7 -2.1
v 5.8 1.9 -1.7
v 6.2 1.9 -1.7
v 5.8 1.9 -1.8
v 5.9 1.9 -1.8
v 6.1 1.9 -1.8
v 6.2 1.9 -1.8
v 5.8 1.6 -1.8
v 5.9 1.6 -1.8
v 6.1 1.6 -1.8
v 6.2 1.6 -1.8
v 5.8 1.6 -1.9
v 5.9 1.6 -1.9
v 6.1 1.6 -1.9
v 6.2 1.6 -1.9
v 5.8 1.6 -2.1
v 5.9 1.6 -2.1
v 6.1 1.6 -2.1
v 6.2 1.6 -2.1
v 5.8 1.8 -2.2
v 5.9 1.8 -2.2
v 6.1 1.8 -2.2
v 6.2 1.8 -2.2
v 5.8 1.8 -2.3
v 5.9 1.8 -2.3
v 6.1 1.8 -2.3
v 6.2 1.8 -2.3
v 5.6 1.9 -2
v 5.7 1.9 -2
v 6.3 1.9 -2
v 6.4 1.9 -2
v 5.6 1.9 -2.1
v 5.7 1.9 -2.1
v 5.8 1.9 -2.1
v 6.2 1.9 -2.1
v 6.3 1.9 -2.1
v 6.4 1.9 -2.1
v 5.7 1.9 -2.2
v 5.8 1.9 -2.2
v 5.9 1.9 -2.2
v 6.1 1.9 -2.2
v 6.2 1.9 -2.2
v 6.3 1.9 -2.2
v 5.9 1.9 -2.3
v 6.1 1.9 -2.3
v 5.8 2 -1.7
v 6.2 2 -1.7
v 5.7 2 -1.8
v 5.8 2 -1.8
v 5.9 2 -1.8
v 6.1 2 -1.8
v 6.2 2 -1.8
v 6.3 2 -1.8
v 5.8 2 -1.9
v 5.9 2 -1.9
v 6.1 2 -1.9
v 6.2 2 -1.9
v 5.8 2 -2
v 5.9 2 -2
v 6.1 2 -2
v 6.2 2 -2
v 5.7 2 -2.1
v 5.8 2 -2.1
v 5.9 2 -2.1
v 6.1 2 -2.1
v 6.2 2 -2.1
v 6.3 2 -2.1
v 5.8 2 -2.2
v 6.2 2 -2.2
v 5.9 2.1 -1.8
v 6.1 2.1 -1.8
v 5.8 2.1 -1.9
v 5.9 2.1 -1.9
v 6.1 2.1 -1.9
v 6.2 2.1 -1.9
v 5.8 2.1 -2
v 5.9 2.1 -2
v 6.1 2.1 -2
v 6.2 2.1 -2
v 5.9 2.1 -2.1
v 6.1 2.1 -2.1

# faces
f 3/8/1 2/8/1 1/8/1
f 4/8/1 2/8/1 3/8/1
f 7/1/1 6/1/1 5/1/1
f 8/1/1 6/1/1 7/1/1
f 9/5/1 8/5/1 7/5/1
f 10/5/1 8/5/1 9/5/1
f 14/4/1 10/4/1 9/4/1
f 15/4/1 10/4/1 14/4/1
f 16/8/1 12/8/1 11/8/1
f 17/5/1 15/5/1 14/5/1
f 17/8/1 14/8/1 13/8/1
f 18/8/1 16/8/1 15/8/1
f 18/5/1 15/5/1 17/5/1
f 19/8/1 12/8/1 16/8/1
f 19/8/1 16/8/1 18/8/1
f 20/8/1 17/8/1 13/8/1
f 20/8/1 18/8/1 17/8/1
f 21/8/1 18/8/1 20/8/1
f 22/8/1 20/8/1 13/8/1
f 22/2/1 21/2/1 20/2/1
f 23/2/1 21/2/1 22/2/1
f 24/8/1 12/8/1 19/8/1
f 25/8/1 12/8/1 24/8/1
f 26/8/1 23/8/1 22/8/1
f 26/8/1 22/8/1 13/8/1
f 26/8/1 24/8/1 23/8/1
f 27/8/1 24/8/1 26/8/1
f 32/4/1 29/4/1 28/4/1
f 33/4/1 29/4/1 32/4/1
f 34/5/1 31/5/1 30/5/1
f 35/5/1 31/5/1 34/5/1
f 36/5/1 33/5/1 32/5/1
f 37/4/1 35/4/1 34/4/1
f 38/4/1 35/4/1 37/4/1
f 39/5/1 36/5/1 32/5/1
f 40/5/1 36/5/1 39/5/1
f 41/5/1 38/5/1 37/5/1
f 42/5/1 38/5/1 41/5/1
f 45/8/1 44/8/1 43/8/1
f 46/8/1 44/8/1 45/8/1
f 51/8/1 48/8/1 47/8/1
f 52/8/1 48/8/1 51/8/1
f 55/8/1 50/8/1 49/8/1
f 56/8/1 50/8/1 55/8/1
f 57/8/1 54/8/1 53/8/1
f 58/8/1 54/8/1 57/8/1
f 61/3/1 60/3/1 59/3/1
f 62/3/1 60/3/1 61/3/1
f 63/1/1 62/1/1 61/1/1
f 64/1/1 62/1/1 63/1/1
f 67/1/1 66/1/1 65/1/1
f 68/1/1 66/1/1 67/1/1
f 71/8/1 70/8/1 69/8/1
f 72/8/1 70/8/1 71/8/1
f 77/8/1 74/8/1 73/8/1
f 78/8/1 74/8/1 77/8/1
f 79/8/1 76/8/1 75/8/1
f 80/8/1 76/8/1 79/8/1
f 84/8/1 82/8/1 81/8/1
f 84/8/1 83/8/1 82/8/1
f 85/8/1 83/8/1 84/8/1
f 86/8/2 87/8/2 89/8/2
f 87/8/2 88/8/2 89/8/2
f 89/8/2 88/8/2 90/8/2
f 91/3/2 92/3/2 93/3/2
f 93/3/2 92/3/2 94/3/2
f 93/1/2 94/1/2 95/1/2
f 95/1/2 94/1/2 96/1/2
f 97/1/2 98/1/2 99/1/2
f 99/1/2 98/1/2 100/1/2
f 101/8/2 102/8/2 103/8/2
f 103/8/2 102/8/2 104/8/2
f 105/8/2 106/8/2 109/8/2
f 109/8/2 106/8/2 110/8/2
f 107/8/2 108/8/2 111/8/2
f 111/8/2 108/8/2 112/8/2
f 113/4/2 114/4/2 117/4/2
f 117/4/2 114/4/2 118/4/2
f 115/5/2 116/5/2 119/5/2
f 117/5/2 118/5/2 120/5/2
f 119/5/2 116/5/2 121/5/2
f 121/5/2 116/5/2 122/5/2
f 117/5/2 120/5/2 123/5/2
f 123/5/2 120/5/2 124/5/2
f 121/4/2 122/4/2 125/4/2
f 125/4/2 122/4/2 126/4/2
f 127/8/2 128/8/2 129/8/2
f 129/8/2 128/8/2 130/8/2
f 131/8/2 132/8/2 135/8/2
f 135/8/2 132/8/2 136/8/2
f 133/8/2 134/8/2 139/8/2
f 139/8/2 134/8/2 140/8/2
f 137/8/2 138/8/2 141/8/2
f 141/8/2 138/8/2 142/8/2
f 143/1/2 144/1/2 145/1/2
f 145/1/2 144/1/2 146/1/2
f 145/4/2 146/4/2 147/4/2
f 147/4/2 146/4/2 148/4/2
f 147/5/2 148/5/2 152/5/2
f 152/5/2 148/5/2 153/5/2
f 149/8/2 150/8/2 154/8/2
f 152/4/2 153/4/2 155/4/2
f 151/8/2 152/8/2 155/8/2
f 153/8/2 154/8/2 156/8/2
f 155/4/2 153/4/2 156/4/2
f 154/8/2 150/8/2 157/8/2
f 156/8/2 154/8/2 157/8/2
f 151/8/2 155/8/2 158/8/2
f 155/8/2 156/8/2 158/8/2
f 158/8/2 156/8/2 159/8/2
f 151/8/2 158/8/2 160/8/2
f 158/2/2 159/2/2 160/2/2
f 160/2/2 159/2/2 161/2/2
f 157/8/2 150/8/2 162/8/2
f 162/8/2 150/8/2 163/8/2
f 160/8/2 161/8/2 164/8/2
f 151/8/2 160/8/2 164/8/2
f 161/8/2 162/8/2 164/8/2
f 164/8/2 162/8/2 165/8/2
f 166/8/2 167/8/2 168/8/2
f 168/8/2 167/8/2 169/8/2
f 172/8/3 171/8/3 170/8/3
f 173/8/3 171/8/3 172/8/3
f 178/8/3 175/8/3 174/8/3
f 179/8/3 175/8/3 178/8/3
f 180/8/3 175/8/3 179/8/3
f 181/8/3 175/8/3 180/8/3
f 182/8/3 175/8/3 181/8/3
f 183/8/3 175/8/3 182/8/3
f 184/4/3 177/4/3 176/4/3
f 185/5/3 178/5/3 177/5/3
f 185/4/3 177/4/3 184/4/3
f 186/5/3 178/5/3 185/5/3
f 187/4/3 179/4/3 178/4/3
f 187/5/3 178/5/3 186/5/3
f 188/4/3 179/4/3 187/4/3
f 189/6/3 182/6/3 181/6/3
f 189/1/3 181/1/3 180/1/3
f 190/6/3 182/6/3 189/6/3
f 193/4/3 186/4/3 185/4/3
f 193/5/3 185/5/3 184/5/3
f 194/5/3 188/5/3 187/5/3
f 194/4/3 186/4/3 193/4/3
f 194/5/3 187/5/3 186/5/3
f 195/5/3 188/5/3 194/5/3
f 196/5/3 193/5/3 184/5/3
f 196/5/3 194/5/3 193/5/3
f 197/5/3 194/5/3 196/5/3
f 198/4/3 195/4/3 194/4/3
f 198/5/3 194/5/3 197/5/3
f 199/5/3 188/5/3 195/5/3
f 199/4/3 195/4/3 198/4/3
f 200/5/3 188/5/3 199/5/3
f 201/1/3 190/1/3 189/1/3
f 201/1/3 189/1/3 180/1/3
f 202/1/3 190/1/3 201/1/3
f 203/8/3 192/8/3 191/8/3
f 204/8/3 192/8/3 203/8/3
f 205/4/3 197/4/3 196/4/3
f 206/5/3 198/5/3 197/5/3
f 206/4/3 197/4/3 205/4/3
f 206/5/3 199/5/3 198/5/3
f 207/4/3 200/4/3 199/4/3
f 207/5/3 199/5/3 206/5/3
f 208/4/3 200/4/3 207/4/3
f 209/1/3 201/1/3 180/1/3
f 210/6/3 202/6/3 201/6/3
f 210/1/3 201/1/3 209/1/3
f 211/6/3 202/6/3 210/6/3
f 213/8/3 212/8/3 211/8/3
f 213/8/3 211/8/3 210/8/3
f 213/8/3 210/8/3 209/8/3
f 213/8/3 209/8/3 208/8/3
f 213/8/3 208/8/3 207/8/3
f 214/8/3 212/8/3 213/8/3
f 219/1/3 216/1/3 215/1/3
f 220/5/3 217/5/3 216/5/3
f 220/1/3 216/1/3 219/1/3
f 221/4/3 218/4/3 217/4/3
f 221/5/3 217/5/3 220/5/3
f 222/4/3 218/4/3 221/4/3
f 230/8/3 224/8/3 223/8/3
f 231/8/3 224/8/3 230/8/3
f 232/3/3 226/3/3 225/3/3
f 233/1/3 227/1/3 226/1/3
f 233/3/3 226/3/3 232/3/3
f 234/1/3 227/1/3 233/1/3
f 235/1/3 229/1/3 228/1/3
f 236/1/3 229/1/3 235/1/3
f 243/8/3 238/8/3 237/8/3
f 244/8/3 238/8/3 243/8/3
f 245/1/3 240/1/3 239/1/3
f 246/4/3 241/4/3 240/4/3
f 246/1/3 240/1/3 245/1/3
f 247/5/3 242/5/3 241/5/3
f 247/4/3 241/4/3 246/4/3
f 248/5/3 242/5/3 247/5/3
f 251/8/3 250/8/3 249/8/3
f 252/8/3 250/8/3 251/8/3
f 253/8/3 250/8/3 252/8/3
f 257/8/3 255/8/3 254/8/3
f 257/8/3 256/8/3 255/8/3
f 258/8/3 256/8/3 257/8/3
f 261/8/3 260/8/3 259/8/3
f 262/8/3 260/8/3 261/8/3
f 265/8/3 264/8/3 263/8/3
f 266/8/3 264/8/3 265/8/3
f 271/8/3 268/8/3 267/8/3
f 272/8/3 268/8/3 271/8/3
f 273/8/3 270/8/3 269/8/3
f 274/8/3 270/8/3 273/8/3
f 275/1/4 276/1/4 279/1/4
f 276/5/4 277/5/4 280/5/4
f 279/1/4 276/1/4 280/1/4
f 277/4/4 278/4/4 281/4/4
f 280/5/4 277/5/4 281/5/4
f 281/4/4 278/4/4 282/4/4
f 283/8/4 284/8/4 288/8/4
f 288/8/4 284/8/4 289/8/4
f 286/1/4 287/1/4 290/1/4
f 285/3/4 286/3/4 291/3/4
f 286/1/4 290/1/4 292/1/4
f 291/3/4 286/3/4 292/3/4
f 292/1/4 290/1/4 293/1/4
f 294/8/4 295/8/4 300/8/4
f 300/8/4 295/8/4 301/8/4
f 296/1/4 297/1/4 302/1/4
f 297/4/4 298/4/4 303/4/4
f 302/1/4 297/1/4 303/1/4
f 298/5/4 299/5/4 304/5/4
f 303/4/4 298/4/4 304/4/4
f 304/5/4 299/5/4 305/5/4
f 306/8/4 307/8/4 308/8/4
f 308/8/4 307/8/4 309/8/4
f 309/8/4 310/8/4 314/8/4
f 314/8/4 310/8/4 315/8/4
f 311/5/4 312/5/4 316/5/4
f 312/4/4 313/4/4 317/4/4
f 316/5/4 312/5/4 317/5/4
f 317/4/4 313/4/4 318/4/4
f 316/4/4 317/4/4 321/4/4
f 317/5/4 318/5/4 322/5/4
f 321/4/4 317/4/4 322/4/4
f 322/5/4 318/5/4 323/5/4
f 321/5/4 322/5/4 324/5/4
f 322/4/4 323/4/4 324/4/4
f 324/4/4 323/4/4 325/4/4
f 319/8/4 320/8/4 326/8/4
f 326/8/4 320/8/4 327/8/4
f 324/5/4 325/5/4 328/5/4
f 321/5/4 324/5/4 328/5/4
f 328/5/4 325/5/4 329/5/4
f 330/8/4 331/8/4 333/8/4
f 333/8/4 331/8/4 334/8/4
f 332/8/4 333/8/4 335/8/4
f 335/8/4 333/8/4 336/8/4
f 337/8/4 338/8/4 339/8/4
f 339/8/4 338/8/4 340/8/4
f 340/8/4 338/8/4 341/8/4
f 341/8/4 342/8/4 343/8/4
f 340/8/4 341/8/4 343/8/4
f 343/8/4 342/8/4 344/8/4
f 344/8/4 342/8/4 346/8/4
f 337/8/4 339/8/4 347/8/4
f 345/8/4 346/8/4 348/8/4
f 346/8/4 342/8/4 349/8/4
f 348/8/4 346/8/4 349/8/4
f 349/8/4 342/8/4 350/8/4
f 337/8/4 347/8/4 351/8/4
f 347/8/4 348/8/4 351/8/4
f 348/8/4 349/8/4 351/8/4
f 351/8/4 349/8/4 352/8/4
f 353/8/4 354/8/4 355/8/4
f 353/8/4 355/8/4 357/8/4
f 355/8/4 356/8/4 357/8/4
f 357/8/4 356/8/4 358/8/4
f 353/8/4 357/8/4 359/8/4
f 359/8/4 357/8/4 360/8/4
f 363/3/5 362/3/5 361/3/5
f 364/3/5 362/3/5 363/3/5
f 370/4/5 366/4/5 365/4/5
f 371/5/5 367/5/5 366/5/5
f 371/4/5 366/4/5 370/4/5
f 372/4/5 368/4/5 367/4/5
f 372/5/5 367/5/5 371/5/5
f 373/4/5 368/4/5 372/4/5
f 375/1/5 370/1/5 369/1/5
f 376/5/5 371/5/5 370/5/5
f 376/1/5 370/1/5 375/1/5
f 377/5/5 371/5/5 376/5/5
f 379/4/5 373/4/5 372/4/5
f 380/1/5 374/1/5 373/1/5
f 380/4/5 373/4/5 379/4/5
f 381/1/5 374/1/5 380/1/5
f 382/5/5 377/5/5 376/5/5
f 383/4/5 378/4/5 377/4/5
f 383/5/5 377/5/5 382/5/5
f 384/5/5 379/5/5 378/5/5
f 384/4/5 378/4/5 383/4/5
f 384/5/5 380/5/5 379/5/5
f 385/5/5 380/5/5 384/5/5
f 393/8/5 387/8/5 386/8/5
f 393/8/5 392/8/5 391/8/5
f 393/8/5 391/8/5 390/8/5
f 393/8/5 390/8/5 389/8/5
f 393/8/5 389/8/5 388/8/5
f 393/8/5 388/8/5 387/8/5
f 394/8/5 392/8/5 393/8/5
f 399/8/5 396/8/5 395/8/5
f 400/8/5 396/8/5 399/8/5
f 401/8/5 398/8/5 397/8/5
f 402/8/5 398/8/5 401/8/5
f 407/8/5 404/8/5 403/8/5
f 408/8/5 404/8/5 407/8/5
f 409/8/5 406/8/5 405/8/5
f 410/8/5 406/8/5 409/8/5
f 413/8/5 412/8/5 411/8/5
f 414/8/5 412/8/5 413/8/5
f 419/8/5 416/8/5 415/8/5
f 420/8/5 416/8/5 419/8/5
f 421/8/5 418/8/5 417/8/5
f 422/8/5 418/8/5 421/8/5
f 425/1/5 424/1/5 423/1/5
f 426/1/5 424/1/5 425/1/5
f 427/1/5 425/1/5 423/1/5
f 428/1/5 425/1/5 427/1/5
f 429/1/5 424/1/5 426/1/5
f 430/1/5 424/1/5 429/1/5
f 433/8/5 432/8/5 431/8/5
f 434/8/5 432/8/5 433/8/5
f 435/8/5 432/8/5 434/8/5
f 436/8/5 432/8/5 435/8/5
f 437/4/6 438/4/6 441/4/6
f 438/5/6 439/5/6 442/5/6
f 441/4/6 438/4/6 442/4/6
f 439/4/6 440/4/6 443/4/6
f 442/5/6 439/5/6 443/5/6
f 443/4/6 440/4/6 444/4/6
f 441/5/6 442/5/6 445/5/6
f 445/5/6 442/5/6 446/5/6
f 443/5/6 444/5/6 447/5/6
f 447/5/6 444/5/6 448/5/6
f 449/8/6 450/8/6 453/8/6
f 453/8/6 450/8/6 454/8/6
f 451/8/6 452/8/6 455/8/6
f 455/8/6 452/8/6 456/8/6
f 457/8/6 458/8/6 461/8/6
f 461/8/6 458/8/6 462/8/6
f 459/8/6 460/8/6 465/8/6
f 465/8/6 460/8/6 466/8/6
f 462/8/6 463/8/6 467/8/6
f 467/8/6 463/8/6 468/8/6
f 464/8/6 465/8/6 471/8/6
f 471/8/6 465/8/6 472/8/6
f 469/8/6 470/8/6 473/8/6
f 473/8/6 470/8/6 474/8/6
f 475/8/6 476/8/6 478/8/6
f 478/8/6 476/8/6 479/8/6
f 479/8/6 476/8/6 480/8/6
f 480/8/6 476/8/6 481/8/6
f 477/8/6 478/8/6 483/8/6
f 478/8/6 479/8/6 483/8/6
f 483/8/6 479/8/6 484/8/6
f 481/8/6 482/8/6 485/8/6
f 480/8/6 481/8/6 485/8/6
f 485/8/6 482/8/6 486/8/6
f 477/8/6 483/8/6 487/8/6
f 486/8/6 482/8/6 490/8/6
f 487/8/6 488/8/6 491/8/6
f 477/8/6 487/8/6 491/8/6
f 491/8/6 488/8/6 492/8/6
f 492/8/6 488/8/6 493/8/6
f 489/8/6 490/8/6 494/8/6
f 490/8/6 482/8/6 495/8/6
f 494/8/6 490/8/6 495/8/6
f 495/8/6 482/8/6 496/8/6
f 492/8/6 493/8/6 497/8/6
f 493/8/6 494/8/6 497/8/6
f 494/8/6 495/8/6 497/8/6
f 497/8/6 495/8/6 498/8/6
f 499/8/6 500/8/6 502/8/6
f 502/8/6 500/8/6 503/8/6
f 501/8/6 502/8/6 505/8/6
f 503/8/6 504/8/6 505/8/6
f 502/8/6 503/8/6 505/8/6
f 505/8/6 504/8/6 506/8/6
f 506/8/6 504/8/6 507/8/6
f 507/8/6 504/8/6 508/8/6
f 506/8/6 507/8/6 509/8/6
f 509/8/6 507/8/6 510/8/6
