# MagicaVoxel @ Ephtracy

# group
o 

# material
mtllib Dude3-1.mtl
usemtl palette

# normals
vn -1 0 0
vn 1 0 0
vn 0 0 1
vn 0 0 -1
vn 0 -1 0
vn 0 1 0

# texcoords
vt 0.0332031 0.5
vt 0.0605469 0.5
vt 0.537109 0.5
vt 0.978516 0.5
vt 0.990234 0.5
vt 0.994141 0.5

# verts
v 3.7 1.2 0.1
v 3.7 1.2 -2.98023e-008
v 3.7 1.3 0.1
v 3.7 1.3 -2.98023e-008
v 3.7 1.4 0.1
v 3.7 1.4 -2.98023e-008
v 3.7 1.5 0.1
v 3.7 1.5 -2.98023e-008
v 3.7 1.6 0.1
v 3.7 1.6 -2.98023e-008
v 3.7 1.8 0.1
v 3.7 1.8 -2.98023e-008
v 3.7 1.9 0.3
v 3.7 1.9 0.2
v 3.7 1.9 0.1
v 3.7 1.9 -2.98023e-008
v 3.7 1.9 -0.1
v 3.7 1.9 -0.2
v 3.7 2 0.3
v 3.7 2 0.2
v 3.7 2 0.1
v 3.7 2 -2.98023e-008
v 3.7 2 -0.1
v 3.7 2 -0.2
v 3.8 1 0.1
v 3.8 1 -2.98023e-008
v 3.8 1.1 0.1
v 3.8 1.1 -2.98023e-008
v 3.8 1.2 0.2
v 3.8 1.2 0.1
v 3.8 1.2 -2.98023e-008
v 3.8 1.2 -0.1
v 3.8 1.3 0.2
v 3.8 1.3 0.1
v 3.8 1.3 -2.98023e-008
v 3.8 1.3 -0.1
v 3.8 1.4 0.2
v 3.8 1.4 0.1
v 3.8 1.4 -2.98023e-008
v 3.8 1.4 -0.1
v 3.8 1.5 0.2
v 3.8 1.5 0.1
v 3.8 1.5 -2.98023e-008
v 3.8 1.5 -0.1
v 3.8 1.6 0.2
v 3.8 1.6 0.1
v 3.8 1.6 -2.98023e-008
v 3.8 1.6 -0.1
v 3.8 1.7 0.2
v 3.8 1.7 -0.1
v 3.8 1.8 0.2
v 3.8 1.8 0.1
v 3.8 1.8 -2.98023e-008
v 3.8 1.9 0.2
v 3.8 1.9 0.1
v 3.8 1.9 -2.98023e-008
v 3.8 1.9 -0.1
v 3.8 2 0.1
v 3.8 2 -2.98023e-008
v 3.8 2.1 0.1
v 3.8 2.1 -2.98023e-008
v 3.9 1.6 0.1
v 3.9 1.6 -2.98023e-008
v 3.9 1.6 -0.1
v 3.9 1.7 0.1
v 3.9 1.7 -0.1
v 3.9 2 0.2
v 3.9 2 0.1
v 3.9 2 -2.98023e-008
v 3.9 2 -0.1
v 3.9 2.1 0.2
v 3.9 2.1 0.1
v 3.9 2.1 -2.98023e-008
v 3.9 2.1 -0.1
v 4.1 1 0.1
v 4.1 1 -2.98023e-008
v 4.1 1.1 0.1
v 4.1 1.1 -2.98023e-008
v 4.1 1.2 0.1
v 4.1 1.2 -2.98023e-008
v 3.9 1 0.1
v 3.9 1 -2.98023e-008
v 3.9 1.1 0.1
v 3.9 1.1 -2.98023e-008
v 3.9 1.2 0.1
v 3.9 1.2 -2.98023e-008
v 4.1 1.6 0.1
v 4.1 1.6 -2.98023e-008
v 4.1 1.6 -0.1
v 4.1 1.7 0.1
v 4.1 1.7 -0.1
v 4.1 2 0.2
v 4.1 2 0.1
v 4.1 2 -2.98023e-008
v 4.1 2 -0.1
v 4.1 2.1 0.2
v 4.1 2.1 0.1
v 4.1 2.1 -2.98023e-008
v 4.1 2.1 -0.1
v 4.2 1 0.1
v 4.2 1 -2.98023e-008
v 4.2 1.1 0.1
v 4.2 1.1 -2.98023e-008
v 4.2 1.2 0.2
v 4.2 1.2 0.1
v 4.2 1.2 -2.98023e-008
v 4.2 1.2 -0.1
v 4.2 1.3 0.2
v 4.2 1.3 0.1
v 4.2 1.3 -2.98023e-008
v 4.2 1.3 -0.1
v 4.2 1.4 0.2
v 4.2 1.4 0.1
v 4.2 1.4 -2.98023e-008
v 4.2 1.4 -0.1
v 4.2 1.5 0.2
v 4.2 1.5 0.1
v 4.2 1.5 -2.98023e-008
v 4.2 1.5 -0.1
v 4.2 1.6 0.2
v 4.2 1.6 0.1
v 4.2 1.6 -2.98023e-008
v 4.2 1.6 -0.1
v 4.2 1.7 0.2
v 4.2 1.7 -0.1
v 4.2 1.8 0.2
v 4.2 1.8 0.1
v 4.2 1.8 -2.98023e-008
v 4.2 1.9 0.2
v 4.2 1.9 0.1
v 4.2 1.9 -2.98023e-008
v 4.2 1.9 -0.1
v 4.2 2 0.1
v 4.2 2 -2.98023e-008
v 4.2 2.1 0.1
v 4.2 2.1 -2.98023e-008
v 4.3 1.2 0.1
v 4.3 1.2 -2.98023e-008
v 4.3 1.3 0.1
v 4.3 1.3 -2.98023e-008
v 4.3 1.4 0.1
v 4.3 1.4 -2.98023e-008
v 4.3 1.5 0.1
v 4.3 1.5 -2.98023e-008
v 4.3 1.6 0.1
v 4.3 1.6 -2.98023e-008
v 4.3 1.8 0.1
v 4.3 1.8 -2.98023e-008
v 4.3 1.9 0.3
v 4.3 1.9 0.2
v 4.3 1.9 0.1
v 4.3 1.9 -2.98023e-008
v 4.3 1.9 -0.1
v 4.3 1.9 -0.2
v 4.3 2 0.3
v 4.3 2 0.2
v 4.3 2 0.1
v 4.3 2 -2.98023e-008
v 4.3 2 -0.1
v 4.3 2 -0.2
v 3.7 1.9 0.3
v 3.7 2 0.3
v 3.8 1.9 0.3
v 3.8 2 0.3
v 3.9 1.9 0.3
v 3.9 2 0.3
v 4 1.9 0.3
v 4 2 0.3
v 4.1 1.9 0.3
v 4.1 2 0.3
v 4.2 1.9 0.3
v 4.2 2 0.3
v 4.3 1.9 0.3
v 4.3 2 0.3
v 3.8 1.2 0.2
v 3.8 1.3 0.2
v 3.8 1.4 0.2
v 3.8 1.5 0.2
v 3.8 1.6 0.2
v 3.8 1.7 0.2
v 3.8 1.8 0.2
v 3.8 1.9 0.2
v 3.9 1.2 0.2
v 3.9 1.3 0.2
v 3.9 1.4 0.2
v 3.9 1.5 0.2
v 3.9 1.6 0.2
v 3.9 1.8 0.2
v 3.9 1.9 0.2
v 3.9 2 0.2
v 3.9 2.1 0.2
v 4 1.2 0.2
v 4 1.3 0.2
v 4 1.4 0.2
v 4 1.5 0.2
v 4 1.6 0.2
v 4 1.9 0.2
v 4 2 0.2
v 4 2.1 0.2
v 4.1 1.2 0.2
v 4.1 1.3 0.2
v 4.1 1.4 0.2
v 4.1 1.5 0.2
v 4.1 1.6 0.2
v 4.1 1.8 0.2
v 4.1 1.9 0.2
v 4.1 2 0.2
v 4.1 2.1 0.2
v 4.2 1.2 0.2
v 4.2 1.3 0.2
v 4.2 1.4 0.2
v 4.2 1.5 0.2
v 4.2 1.6 0.2
v 4.2 1.7 0.2
v 4.2 1.8 0.2
v 4.2 1.9 0.2
v 3.7 1.2 0.1
v 3.7 1.3 0.1
v 3.7 1.4 0.1
v 3.7 1.5 0.1
v 3.7 1.6 0.1
v 3.7 1.8 0.1
v 3.7 1.9 0.1
v 3.8 1 0.1
v 3.8 1.1 0.1
v 3.8 1.2 0.1
v 3.8 1.3 0.1
v 3.8 1.4 0.1
v 3.8 1.5 0.1
v 3.8 1.6 0.1
v 3.8 1.8 0.1
v 3.8 1.9 0.1
v 3.8 2 0.1
v 3.8 2.1 0.1
v 3.9 1 0.1
v 3.9 1.1 0.1
v 3.9 1.2 0.1
v 3.9 1.6 0.1
v 3.9 1.7 0.1
v 3.9 2 0.1
v 3.9 2.1 0.1
v 4 1.6 0.1
v 4.1 1 0.1
v 4.1 1.1 0.1
v 4.1 1.2 0.1
v 4.1 1.6 0.1
v 4.1 1.7 0.1
v 4.1 2 0.1
v 4.1 2.1 0.1
v 4.2 1 0.1
v 4.2 1.1 0.1
v 4.2 1.2 0.1
v 4.2 1.3 0.1
v 4.2 1.4 0.1
v 4.2 1.5 0.1
v 4.2 1.6 0.1
v 4.2 1.8 0.1
v 4.2 1.9 0.1
v 4.2 2 0.1
v 4.2 2.1 0.1
v 4.3 1.2 0.1
v 4.3 1.3 0.1
v 4.3 1.4 0.1
v 4.3 1.5 0.1
v 4.3 1.6 0.1
v 4.3 1.8 0.1
v 4.3 1.9 0.1
v 3.7 1.2 -2.98023e-008
v 3.7 1.3 -2.98023e-008
v 3.7 1.4 -2.98023e-008
v 3.7 1.5 -2.98023e-008
v 3.7 1.6 -2.98023e-008
v 3.7 1.8 -2.98023e-008
v 3.7 1.9 -2.98023e-008
v 3.8 1 -2.98023e-008
v 3.8 1.1 -2.98023e-008
v 3.8 1.2 -2.98023e-008
v 3.8 1.3 -2.98023e-008
v 3.8 1.4 -2.98023e-008
v 3.8 1.5 -2.98023e-008
v 3.8 1.6 -2.98023e-008
v 3.8 1.8 -2.98023e-008
v 3.8 1.9 -2.98023e-008
v 3.8 2 -2.98023e-008
v 3.8 2.1 -2.98023e-008
v 3.9 1 -2.98023e-008
v 3.9 1.1 -2.98023e-008
v 3.9 1.2 -2.98023e-008
v 3.9 2 -2.98023e-008
v 3.9 2.1 -2.98023e-008
v 4.1 1 -2.98023e-008
v 4.1 1.1 -2.98023e-008
v 4.1 1.2 -2.98023e-008
v 4.1 2 -2.98023e-008
v 4.1 2.1 -2.98023e-008
v 4.2 1 -2.98023e-008
v 4.2 1.1 -2.98023e-008
v 4.2 1.2 -2.98023e-008
v 4.2 1.3 -2.98023e-008
v 4.2 1.4 -2.98023e-008
v 4.2 1.5 -2.98023e-008
v 4.2 1.6 -2.98023e-008
v 4.2 1.8 -2.98023e-008
v 4.2 1.9 -2.98023e-008
v 4.2 2 -2.98023e-008
v 4.2 2.1 -2.98023e-008
v 4.3 1.2 -2.98023e-008
v 4.3 1.3 -2.98023e-008
v 4.3 1.4 -2.98023e-008
v 4.3 1.5 -2.98023e-008
v 4.3 1.6 -2.98023e-008
v 4.3 1.8 -2.98023e-008
v 4.3 1.9 -2.98023e-008
v 3.8 1.2 -0.1
v 3.8 1.3 -0.1
v 3.8 1.4 -0.1
v 3.8 1.5 -0.1
v 3.8 1.6 -0.1
v 3.8 1.7 -0.1
v 3.8 1.9 -0.1
v 3.9 1.2 -0.1
v 3.9 1.3 -0.1
v 3.9 1.4 -0.1
v 3.9 1.5 -0.1
v 3.9 1.6 -0.1
v 3.9 1.7 -0.1
v 3.9 1.9 -0.1
v 3.9 2 -0.1
v 3.9 2.1 -0.1
v 4 1.2 -0.1
v 4 1.3 -0.1
v 4 1.4 -0.1
v 4 1.5 -0.1
v 4 1.6 -0.1
v 4 1.9 -0.1
v 4 2 -0.1
v 4 2.1 -0.1
v 4.1 1.2 -0.1
v 4.1 1.3 -0.1
v 4.1 1.4 -0.1
v 4.1 1.5 -0.1
v 4.1 1.6 -0.1
v 4.1 1.7 -0.1
v 4.1 1.9 -0.1
v 4.1 2 -0.1
v 4.1 2.1 -0.1
v 4.2 1.2 -0.1
v 4.2 1.3 -0.1
v 4.2 1.4 -0.1
v 4.2 1.5 -0.1
v 4.2 1.6 -0.1
v 4.2 1.7 -0.1
v 4.2 1.9 -0.1
v 3.7 1.9 -0.2
v 3.7 2 -0.2
v 3.8 1.9 -0.2
v 3.8 2 -0.2
v 3.9 1.9 -0.2
v 3.9 2 -0.2
v 4 1.9 -0.2
v 4 2 -0.2
v 4.1 1.9 -0.2
v 4.1 2 -0.2
v 4.2 1.9 -0.2
v 4.2 2 -0.2
v 4.3 1.9 -0.2
v 4.3 2 -0.2
v 3.8 1 0.1
v 3.9 1 0.1
v 4.1 1 0.1
v 4.2 1 0.1
v 3.8 1 -2.98023e-008
v 3.9 1 -2.98023e-008
v 4.1 1 -2.98023e-008
v 4.2 1 -2.98023e-008
v 3.8 1.2 0.2
v 3.9 1.2 0.2
v 4 1.2 0.2
v 4.1 1.2 0.2
v 4.2 1.2 0.2
v 3.7 1.2 0.1
v 3.8 1.2 0.1
v 3.9 1.2 0.1
v 4 1.2 0.1
v 4.1 1.2 0.1
v 4.2 1.2 0.1
v 4.3 1.2 0.1
v 3.7 1.2 -2.98023e-008
v 3.8 1.2 -2.98023e-008
v 3.9 1.2 -2.98023e-008
v 4 1.2 -2.98023e-008
v 4.1 1.2 -2.98023e-008
v 4.2 1.2 -2.98023e-008
v 4.3 1.2 -2.98023e-008
v 3.8 1.2 -0.1
v 3.9 1.2 -0.1
v 4 1.2 -0.1
v 4.1 1.2 -0.1
v 4.2 1.2 -0.1
v 3.8 1.7 0.2
v 4.2 1.7 0.2
v 3.9 1.7 0.1
v 4.1 1.7 0.1
v 3.8 1.7 -0.1
v 3.9 1.7 -0.1
v 4.1 1.7 -0.1
v 4.2 1.7 -0.1
v 3.7 1.8 0.1
v 3.8 1.8 0.1
v 4.2 1.8 0.1
v 4.3 1.8 0.1
v 3.7 1.8 -2.98023e-008
v 3.8 1.8 -2.98023e-008
v 4.2 1.8 -2.98023e-008
v 4.3 1.8 -2.98023e-008
v 3.7 1.9 0.3
v 3.8 1.9 0.3
v 3.9 1.9 0.3
v 4 1.9 0.3
v 4.1 1.9 0.3
v 4.2 1.9 0.3
v 4.3 1.9 0.3
v 3.7 1.9 0.2
v 3.8 1.9 0.2
v 3.9 1.9 0.2
v 4 1.9 0.2
v 4.1 1.9 0.2
v 4.2 1.9 0.2
v 4.3 1.9 0.2
v 3.7 1.9 0.1
v 3.8 1.9 0.1
v 4.2 1.9 0.1
v 4.3 1.9 0.1
v 3.7 1.9 -2.98023e-008
v 3.8 1.9 -2.98023e-008
v 4.2 1.9 -2.98023e-008
v 4.3 1.9 -2.98023e-008
v 3.7 1.9 -0.1
v 3.8 1.9 -0.1
v 3.9 1.9 -0.1
v 4 1.9 -0.1
v 4.1 1.9 -0.1
v 4.2 1.9 -0.1
v 4.3 1.9 -0.1
v 3.7 1.9 -0.2
v 3.8 1.9 -0.2
v 3.9 1.9 -0.2
v 4 1.9 -0.2
v 4.1 1.9 -0.2
v 4.2 1.9 -0.2
v 4.3 1.9 -0.2
v 3.8 1.6 0.2
v 3.9 1.6 0.2
v 4 1.6 0.2
v 4.1 1.6 0.2
v 4.2 1.6 0.2
v 3.7 1.6 0.1
v 3.8 1.6 0.1
v 3.9 1.6 0.1
v 4 1.6 0.1
v 4.1 1.6 0.1
v 4.2 1.6 0.1
v 4.3 1.6 0.1
v 3.7 1.6 -2.98023e-008
v 3.8 1.6 -2.98023e-008
v 3.9 1.6 -2.98023e-008
v 4.1 1.6 -2.98023e-008
v 4.2 1.6 -2.98023e-008
v 4.3 1.6 -2.98023e-008
v 3.8 1.6 -0.1
v 3.9 1.6 -0.1
v 4.1 1.6 -0.1
v 4.2 1.6 -0.1
v 3.7 2 0.3
v 3.8 2 0.3
v 3.9 2 0.3
v 4 2 0.3
v 4.1 2 0.3
v 4.2 2 0.3
v 4.3 2 0.3
v 3.7 2 0.2
v 3.8 2 0.2
v 3.9 2 0.2
v 4 2 0.2
v 4.1 2 0.2
v 4.2 2 0.2
v 4.3 2 0.2
v 3.7 2 0.1
v 3.8 2 0.1
v 3.9 2 0.1
v 4.1 2 0.1
v 4.2 2 0.1
v 4.3 2 0.1
v 3.7 2 -2.98023e-008
v 3.8 2 -2.98023e-008
v 3.9 2 -2.98023e-008
v 4.1 2 -2.98023e-008
v 4.2 2 -2.98023e-008
v 4.3 2 -2.98023e-008
v 3.7 2 -0.1
v 3.8 2 -0.1
v 3.9 2 -0.1
v 4 2 -0.1
v 4.1 2 -0.1
v 4.2 2 -0.1
v 4.3 2 -0.1
v 3.7 2 -0.2
v 3.8 2 -0.2
v 3.9 2 -0.2
v 4 2 -0.2
v 4.1 2 -0.2
v 4.2 2 -0.2
v 4.3 2 -0.2
v 3.9 2.1 0.2
v 4 2.1 0.2
v 4.1 2.1 0.2
v 3.8 2.1 0.1
v 3.9 2.1 0.1
v 4 2.1 0.1
v 4.1 2.1 0.1
v 4.2 2.1 0.1
v 3.8 2.1 -2.98023e-008
v 3.9 2.1 -2.98023e-008
v 4 2.1 -2.98023e-008
v 4.1 2.1 -2.98023e-008
v 4.2 2.1 -2.98023e-008
v 3.9 2.1 -0.1
v 4 2.1 -0.1
v 4.1 2.1 -0.1

# faces
f 3/1/1 2/1/1 1/1/1
f 4/1/1 2/1/1 3/1/1
f 5/5/1 4/5/1 3/5/1
f 6/5/1 4/5/1 5/5/1
f 7/6/1 6/6/1 5/6/1
f 8/6/1 6/6/1 7/6/1
f 9/5/1 8/5/1 7/5/1
f 10/5/1 8/5/1 9/5/1
f 15/2/1 12/2/1 11/2/1
f 16/2/1 12/2/1 15/2/1
f 19/6/1 14/6/1 13/6/1
f 20/5/1 15/5/1 14/5/1
f 20/6/1 14/6/1 19/6/1
f 21/6/1 16/6/1 15/6/1
f 21/5/1 15/5/1 20/5/1
f 22/5/1 17/5/1 16/5/1
f 22/6/1 16/6/1 21/6/1
f 23/6/1 18/6/1 17/6/1
f 23/5/1 17/5/1 22/5/1
f 24/6/1 18/6/1 23/6/1
f 27/3/1 26/3/1 25/3/1
f 28/3/1 26/3/1 27/3/1
f 30/6/1 28/6/1 27/6/1
f 31/6/1 28/6/1 30/6/1
f 33/5/1 30/5/1 29/5/1
f 34/5/1 30/5/1 33/5/1
f 35/5/1 32/5/1 31/5/1
f 36/5/1 32/5/1 35/5/1
f 37/6/1 34/6/1 33/6/1
f 38/6/1 34/6/1 37/6/1
f 39/6/1 36/6/1 35/6/1
f 40/6/1 36/6/1 39/6/1
f 41/5/1 38/5/1 37/5/1
f 42/5/1 38/5/1 41/5/1
f 43/5/1 40/5/1 39/5/1
f 44/5/1 40/5/1 43/5/1
f 45/6/1 42/6/1 41/6/1
f 46/6/1 42/6/1 45/6/1
f 47/6/1 44/6/1 43/6/1
f 48/6/1 44/6/1 47/6/1
f 51/1/1 50/1/1 49/1/1
f 52/1/1 50/1/1 51/1/1
f 53/1/1 50/1/1 52/1/1
f 54/5/1 52/5/1 51/5/1
f 55/5/1 52/5/1 54/5/1
f 56/1/1 50/1/1 53/1/1
f 57/1/1 50/1/1 56/1/1
f 60/5/1 59/5/1 58/5/1
f 61/5/1 59/5/1 60/5/1
f 65/1/1 63/1/1 62/1/1
f 65/1/1 64/1/1 63/1/1
f 66/1/1 64/1/1 65/1/1
f 71/5/1 68/5/1 67/5/1
f 72/5/1 68/5/1 71/5/1
f 73/5/1 70/5/1 69/5/1
f 74/5/1 70/5/1 73/5/1
f 77/3/1 76/3/1 75/3/1
f 78/3/1 76/3/1 77/3/1
f 79/5/1 78/5/1 77/5/1
f 80/5/1 78/5/1 79/5/1
f 81/3/2 82/3/2 83/3/2
f 83/3/2 82/3/2 84/3/2
f 83/6/2 84/6/2 85/6/2
f 85/6/2 84/6/2 86/6/2
f 87/1/2 88/1/2 90/1/2
f 88/1/2 89/1/2 90/1/2
f 90/1/2 89/1/2 91/1/2
f 92/6/2 93/6/2 96/6/2
f 96/6/2 93/6/2 97/6/2
f 94/6/2 95/6/2 98/6/2
f 98/6/2 95/6/2 99/6/2
f 100/3/2 101/3/2 102/3/2
f 102/3/2 101/3/2 103/3/2
f 102/5/2 103/5/2 105/5/2
f 105/5/2 103/5/2 106/5/2
f 104/6/2 105/6/2 108/6/2
f 108/6/2 105/6/2 109/6/2
f 106/6/2 107/6/2 110/6/2
f 110/6/2 107/6/2 111/6/2
f 108/5/2 109/5/2 112/5/2
f 112/5/2 109/5/2 113/5/2
f 110/5/2 111/5/2 114/5/2
f 114/5/2 111/5/2 115/5/2
f 112/6/2 113/6/2 116/6/2
f 116/6/2 113/6/2 117/6/2
f 114/6/2 115/6/2 118/6/2
f 118/6/2 115/6/2 119/6/2
f 116/5/2 117/5/2 120/5/2
f 120/5/2 117/5/2 121/5/2
f 118/5/2 119/5/2 122/5/2
f 122/5/2 119/5/2 123/5/2
f 124/1/2 125/1/2 126/1/2
f 126/1/2 125/1/2 127/1/2
f 127/1/2 125/1/2 128/1/2
f 126/5/2 127/5/2 129/5/2
f 129/5/2 127/5/2 130/5/2
f 128/1/2 125/1/2 131/1/2
f 131/1/2 125/1/2 132/1/2
f 133/6/2 134/6/2 135/6/2
f 135/6/2 134/6/2 136/6/2
f 137/1/2 138/1/2 139/1/2
f 139/1/2 138/1/2 140/1/2
f 139/6/2 140/6/2 141/6/2
f 141/6/2 140/6/2 142/6/2
f 141/5/2 142/5/2 143/5/2
f 143/5/2 142/5/2 144/5/2
f 143/6/2 144/6/2 145/6/2
f 145/6/2 144/6/2 146/6/2
f 147/2/2 148/2/2 151/2/2
f 151/2/2 148/2/2 152/2/2
f 149/5/2 150/5/2 155/5/2
f 150/6/2 151/6/2 156/6/2
f 155/5/2 150/5/2 156/5/2
f 151/5/2 152/5/2 157/5/2
f 156/6/2 151/6/2 157/6/2
f 152/6/2 153/6/2 158/6/2
f 157/5/2 152/5/2 158/5/2
f 153/5/2 154/5/2 159/5/2
f 158/6/2 153/6/2 159/6/2
f 159/5/2 154/5/2 160/5/2
f 163/6/3 162/6/3 161/6/3
f 164/6/3 162/6/3 163/6/3
f 165/5/3 164/5/3 163/5/3
f 166/5/3 164/5/3 165/5/3
f 167/6/3 166/6/3 165/6/3
f 168/6/3 166/6/3 167/6/3
f 169/5/3 168/5/3 167/5/3
f 170/5/3 168/5/3 169/5/3
f 171/6/3 170/6/3 169/6/3
f 172/6/3 170/6/3 171/6/3
f 173/5/3 172/5/3 171/5/3
f 174/5/3 172/5/3 173/5/3
f 183/5/3 176/5/3 175/5/3
f 184/6/3 177/6/3 176/6/3
f 184/5/3 176/5/3 183/5/3
f 185/5/3 178/5/3 177/5/3
f 185/6/3 177/6/3 184/6/3
f 186/6/3 179/6/3 178/6/3
f 186/5/3 178/5/3 185/5/3
f 187/6/3 179/6/3 186/6/3
f 188/5/3 182/5/3 181/5/3
f 188/1/3 181/1/3 180/1/3
f 189/5/3 182/5/3 188/5/3
f 192/6/3 184/6/3 183/6/3
f 193/5/3 185/5/3 184/5/3
f 193/6/3 184/6/3 192/6/3
f 194/6/3 186/6/3 185/6/3
f 194/5/3 185/5/3 193/5/3
f 195/5/3 187/5/3 186/5/3
f 195/6/3 186/6/3 194/6/3
f 196/5/3 187/5/3 195/5/3
f 197/1/3 189/1/3 188/1/3
f 198/5/3 191/5/3 190/5/3
f 199/5/3 191/5/3 198/5/3
f 200/5/3 193/5/3 192/5/3
f 201/6/3 194/6/3 193/6/3
f 201/5/3 193/5/3 200/5/3
f 202/5/3 195/5/3 194/5/3
f 202/6/3 194/6/3 201/6/3
f 203/6/3 196/6/3 195/6/3
f 203/5/3 195/5/3 202/5/3
f 204/6/3 196/6/3 203/6/3
f 205/1/3 197/1/3 188/1/3
f 205/1/3 188/1/3 180/1/3
f 206/1/3 197/1/3 205/1/3
f 207/6/3 199/6/3 198/6/3
f 208/6/3 199/6/3 207/6/3
f 209/6/3 201/6/3 200/6/3
f 210/5/3 202/5/3 201/5/3
f 210/6/3 201/6/3 209/6/3
f 211/6/3 203/6/3 202/6/3
f 211/5/3 202/5/3 210/5/3
f 212/5/3 204/5/3 203/5/3
f 212/6/3 203/6/3 211/6/3
f 213/5/3 204/5/3 212/5/3
f 214/1/3 205/1/3 180/1/3
f 215/5/3 206/5/3 205/5/3
f 215/1/3 205/1/3 214/1/3
f 216/5/3 206/5/3 215/5/3
f 226/1/3 218/1/3 217/1/3
f 227/5/3 219/5/3 218/5/3
f 227/1/3 218/1/3 226/1/3
f 228/6/3 220/6/3 219/6/3
f 228/5/3 219/5/3 227/5/3
f 229/5/3 221/5/3 220/5/3
f 229/6/3 220/6/3 228/6/3
f 230/5/3 221/5/3 229/5/3
f 231/2/3 223/2/3 222/2/3
f 232/2/3 223/2/3 231/2/3
f 235/3/3 225/3/3 224/3/3
f 236/6/3 226/6/3 225/6/3
f 236/3/3 225/3/3 235/3/3
f 237/6/3 226/6/3 236/6/3
f 240/5/3 234/5/3 233/5/3
f 241/5/3 234/5/3 240/5/3
f 242/1/3 239/1/3 238/1/3
f 246/1/3 239/1/3 242/1/3
f 247/1/3 239/1/3 246/1/3
f 250/3/3 244/3/3 243/3/3
f 251/5/3 245/5/3 244/5/3
f 251/3/3 244/3/3 250/3/3
f 252/5/3 245/5/3 251/5/3
f 259/6/3 249/6/3 248/6/3
f 260/6/3 249/6/3 259/6/3
f 261/1/3 253/1/3 252/1/3
f 262/6/3 254/6/3 253/6/3
f 262/1/3 253/1/3 261/1/3
f 263/5/3 255/5/3 254/5/3
f 263/6/3 254/6/3 262/6/3
f 264/6/3 256/6/3 255/6/3
f 264/5/3 255/5/3 263/5/3
f 265/6/3 256/6/3 264/6/3
f 266/2/3 258/2/3 257/2/3
f 267/2/3 258/2/3 266/2/3
f 268/1/4 269/1/4 277/1/4
f 269/5/4 270/5/4 278/5/4
f 277/1/4 269/1/4 278/1/4
f 270/6/4 271/6/4 279/6/4
f 278/5/4 270/5/4 279/5/4
f 271/5/4 272/5/4 280/5/4
f 279/6/4 271/6/4 280/6/4
f 280/5/4 272/5/4 281/5/4
f 273/2/4 274/2/4 282/2/4
f 282/2/4 274/2/4 283/2/4
f 275/3/4 276/3/4 286/3/4
f 276/6/4 277/6/4 287/6/4
f 286/3/4 276/3/4 287/3/4
f 287/6/4 277/6/4 288/6/4
f 284/5/4 285/5/4 289/5/4
f 289/5/4 285/5/4 290/5/4
f 291/3/4 292/3/4 296/3/4
f 292/5/4 293/5/4 297/5/4
f 296/3/4 292/3/4 297/3/4
f 297/5/4 293/5/4 298/5/4
f 294/6/4 295/6/4 305/6/4
f 305/6/4 295/6/4 306/6/4
f 298/1/4 299/1/4 307/1/4
f 299/6/4 300/6/4 308/6/4
f 307/1/4 299/1/4 308/1/4
f 300/5/4 301/5/4 309/5/4
f 308/6/4 300/6/4 309/6/4
f 301/6/4 302/6/4 310/6/4
f 309/5/4 301/5/4 310/5/4
f 310/6/4 302/6/4 311/6/4
f 303/2/4 304/2/4 312/2/4
f 312/2/4 304/2/4 313/2/4
f 314/5/4 315/5/4 321/5/4
f 315/6/4 316/6/4 322/6/4
f 321/5/4 315/5/4 322/5/4
f 316/5/4 317/5/4 323/5/4
f 322/6/4 316/6/4 323/6/4
f 317/6/4 318/6/4 324/6/4
f 323/5/4 317/5/4 324/5/4
f 324/6/4 318/6/4 325/6/4
f 319/1/4 320/1/4 326/1/4
f 326/1/4 320/1/4 327/1/4
f 321/6/4 322/6/4 330/6/4
f 322/5/4 323/5/4 331/5/4
f 330/6/4 322/6/4 331/6/4
f 323/6/4 324/6/4 332/6/4
f 331/5/4 323/5/4 332/5/4
f 324/5/4 325/5/4 333/5/4
f 332/6/4 324/6/4 333/6/4
f 325/1/4 326/1/4 334/1/4
f 333/5/4 325/5/4 334/5/4
f 326/1/4 327/1/4 334/1/4
f 334/1/4 327/1/4 335/1/4
f 328/5/4 329/5/4 336/5/4
f 336/5/4 329/5/4 337/5/4
f 330/5/4 331/5/4 338/5/4
f 331/6/4 332/6/4 339/6/4
f 338/5/4 331/5/4 339/5/4
f 332/5/4 333/5/4 340/5/4
f 339/6/4 332/6/4 340/6/4
f 333/6/4 334/6/4 341/6/4
f 340/5/4 333/5/4 341/5/4
f 334/1/4 335/1/4 342/1/4
f 341/6/4 334/6/4 342/6/4
f 342/1/4 335/1/4 343/1/4
f 343/1/4 335/1/4 344/1/4
f 336/6/4 337/6/4 345/6/4
f 345/6/4 337/6/4 346/6/4
f 338/6/4 339/6/4 347/6/4
f 339/5/4 340/5/4 348/5/4
f 347/6/4 339/6/4 348/6/4
f 340/6/4 341/6/4 349/6/4
f 348/5/4 340/5/4 349/5/4
f 341/5/4 342/5/4 350/5/4
f 349/6/4 341/6/4 350/6/4
f 350/5/4 342/5/4 351/5/4
f 343/1/4 344/1/4 352/1/4
f 352/1/4 344/1/4 353/1/4
f 354/6/4 355/6/4 356/6/4
f 356/6/4 355/6/4 357/6/4
f 356/5/4 357/5/4 358/5/4
f 358/5/4 357/5/4 359/5/4
f 358/6/4 359/6/4 360/6/4
f 360/6/4 359/6/4 361/6/4
f 360/5/4 361/5/4 362/5/4
f 362/5/4 361/5/4 363/5/4
f 362/6/4 363/6/4 364/6/4
f 364/6/4 363/6/4 365/6/4
f 364/5/4 365/5/4 366/5/4
f 366/5/4 365/5/4 367/5/4
f 372/3/5 369/3/5 368/3/5
f 373/3/5 369/3/5 372/3/5
f 374/3/5 371/3/5 370/3/5
f 375/3/5 371/3/5 374/3/5
f 382/5/5 377/5/5 376/5/5
f 383/6/5 378/6/5 377/6/5
f 383/5/5 377/5/5 382/5/5
f 384/5/5 379/5/5 378/5/5
f 384/6/5 378/6/5 383/6/5
f 385/6/5 380/6/5 379/6/5
f 385/5/5 379/5/5 384/5/5
f 386/6/5 380/6/5 385/6/5
f 388/1/5 382/1/5 381/1/5
f 389/1/5 382/1/5 388/1/5
f 390/5/5 384/5/5 383/5/5
f 391/4/5 385/4/5 384/4/5
f 391/5/5 384/5/5 390/5/5
f 392/4/5 385/4/5 391/4/5
f 393/1/5 387/1/5 386/1/5
f 394/1/5 387/1/5 393/1/5
f 395/5/5 390/5/5 389/5/5
f 396/6/5 391/6/5 390/6/5
f 396/5/5 390/5/5 395/5/5
f 397/5/5 392/5/5 391/5/5
f 397/6/5 391/6/5 396/6/5
f 398/6/5 393/6/5 392/6/5
f 398/5/5 392/5/5 397/5/5
f 399/6/5 393/6/5 398/6/5
f 402/1/5 401/1/5 400/1/5
f 403/1/5 401/1/5 402/1/5
f 404/1/5 402/1/5 400/1/5
f 405/1/5 402/1/5 404/1/5
f 406/1/5 401/1/5 403/1/5
f 407/1/5 401/1/5 406/1/5
f 412/2/5 409/2/5 408/2/5
f 413/2/5 409/2/5 412/2/5
f 414/2/5 411/2/5 410/2/5
f 415/2/5 411/2/5 414/2/5
f 423/6/5 417/6/5 416/6/5
f 424/5/5 418/5/5 417/5/5
f 424/6/5 417/6/5 423/6/5
f 425/6/5 419/6/5 418/6/5
f 425/5/5 418/5/5 424/5/5
f 426/5/5 420/5/5 419/5/5
f 426/6/5 419/6/5 425/6/5
f 427/6/5 421/6/5 420/6/5
f 427/5/5 420/5/5 426/5/5
f 428/5/5 422/5/5 421/5/5
f 428/6/5 421/6/5 427/6/5
f 429/5/5 422/5/5 428/5/5
f 430/5/5 424/5/5 423/5/5
f 431/5/5 424/5/5 430/5/5
f 432/6/5 429/6/5 428/6/5
f 433/6/5 429/6/5 432/6/5
f 438/5/5 435/5/5 434/5/5
f 439/5/5 435/5/5 438/5/5
f 443/6/5 437/6/5 436/6/5
f 444/6/5 437/6/5 443/6/5
f 445/6/5 439/6/5 438/6/5
f 446/5/5 440/5/5 439/5/5
f 446/6/5 439/6/5 445/6/5
f 447/6/5 441/6/5 440/6/5
f 447/5/5 440/5/5 446/5/5
f 448/5/5 442/5/5 441/5/5
f 448/6/5 441/6/5 447/6/5
f 449/6/5 443/6/5 442/6/5
f 449/5/5 442/5/5 448/5/5
f 450/5/5 444/5/5 443/5/5
f 450/6/5 443/6/5 449/6/5
f 451/5/5 444/5/5 450/5/5
f 452/6/6 453/6/6 458/6/6
f 453/5/6 454/5/6 459/5/6
f 458/6/6 453/6/6 459/6/6
f 454/6/6 455/6/6 460/6/6
f 459/5/6 454/5/6 460/5/6
f 455/5/6 456/5/6 461/5/6
f 460/6/6 455/6/6 461/6/6
f 461/5/6 456/5/6 462/5/6
f 457/5/6 458/5/6 464/5/6
f 458/5/6 459/5/6 464/5/6
f 464/5/6 459/5/6 465/5/6
f 465/5/6 459/5/6 466/5/6
f 462/6/6 463/6/6 467/6/6
f 461/6/6 462/6/6 467/6/6
f 467/6/6 463/6/6 468/6/6
f 468/6/6 463/6/6 469/6/6
f 465/6/6 466/6/6 470/6/6
f 470/6/6 466/6/6 471/6/6
f 467/5/6 468/5/6 472/5/6
f 472/5/6 468/5/6 473/5/6
f 474/6/6 475/6/6 481/6/6
f 475/5/6 476/5/6 482/5/6
f 481/6/6 475/6/6 482/6/6
f 476/6/6 477/6/6 483/6/6
f 482/5/6 476/5/6 483/5/6
f 477/5/6 478/5/6 484/5/6
f 483/6/6 477/6/6 484/6/6
f 478/6/6 479/6/6 485/6/6
f 484/5/6 478/5/6 485/5/6
f 479/5/6 480/5/6 486/5/6
f 485/6/6 479/6/6 486/6/6
f 486/5/6 480/5/6 487/5/6
f 481/5/6 482/5/6 488/5/6
f 482/6/6 483/6/6 489/6/6
f 488/5/6 482/5/6 489/5/6
f 489/6/6 483/6/6 490/6/6
f 485/5/6 486/5/6 491/5/6
f 486/6/6 487/6/6 492/6/6
f 491/5/6 486/5/6 492/5/6
f 492/6/6 487/6/6 493/6/6
f 488/6/6 489/6/6 494/6/6
f 494/6/6 489/6/6 495/6/6
f 492/5/6 493/5/6 498/5/6
f 498/5/6 493/5/6 499/5/6
f 494/5/6 495/5/6 500/5/6
f 495/6/6 496/6/6 501/6/6
f 500/5/6 495/5/6 501/5/6
f 501/6/6 496/6/6 502/6/6
f 497/5/6 498/5/6 504/5/6
f 498/6/6 499/6/6 505/6/6
f 504/5/6 498/5/6 505/5/6
f 505/6/6 499/6/6 506/6/6
f 500/6/6 501/6/6 507/6/6
f 501/5/6 502/5/6 508/5/6
f 507/6/6 501/6/6 508/6/6
f 502/6/6 503/6/6 509/6/6
f 508/5/6 502/5/6 509/5/6
f 503/5/6 504/5/6 510/5/6
f 509/6/6 503/6/6 510/6/6
f 504/6/6 505/6/6 511/6/6
f 510/5/6 504/5/6 511/5/6
f 505/5/6 506/5/6 512/5/6
f 511/6/6 505/6/6 512/6/6
f 512/5/6 506/5/6 513/5/6
f 514/5/6 515/5/6 518/5/6
f 515/6/6 516/6/6 519/6/6
f 518/5/6 515/5/6 519/5/6
f 519/6/6 516/6/6 520/6/6
f 517/5/6 518/5/6 522/5/6
f 518/6/6 519/6/6 523/6/6
f 522/5/6 518/5/6 523/5/6
f 519/5/6 520/5/6 524/5/6
f 523/6/6 519/6/6 524/6/6
f 520/6/6 521/6/6 525/6/6
f 524/5/6 520/5/6 525/5/6
f 525/6/6 521/6/6 526/6/6
f 523/5/6 524/5/6 527/5/6
f 524/6/6 525/6/6 528/6/6
f 527/5/6 524/5/6 528/5/6
f 528/6/6 525/6/6 529/6/6
