# MagicaVoxel @ Ephtracy

# group
g Watermelon-2

# material
mtllib Watermelon-2.mtl
usemtl palette

# normals
vn -1 0 0
vn 1 0 0
vn 0 0 1
vn 0 0 -1
vn 0 -1 0
vn 0 1 0

# texcoords
vt 0.0683594 0.5
vt 0.513672 0.5
vt 0.560547 0.5
vt 0.650391 0.5
vt 0.654297 0.5

# verts
v -6 8 5
v -6 8 4
v -6 8 3
v -6 8 1
v -6 9 5
v -6 9 4
v -6 9 3
v -6 9 1
v -4 8 7
v -4 8 6
v -4 8 4
v -4 8 3
v -4 9 7
v -4 9 6
v -4 9 4
v -4 9 3
v -3 8 6
v -3 8 5
v -3 8 3
v -3 8 2
v -3 8 1
v -3 9 6
v -3 9 5
v -3 9 3
v -3 9 2
v -3 9 1
v -1 0 9
v -1 0 8
v -1 0 7
v -1 1 9
v -1 1 8
v -1 5 7
v -1 5 6
v -1 6 8
v -1 6 6
v -1 7 7
v -1 7 6
v -1 8 7
v -1 8 6
v -1 8 4
v -1 8 3
v -1 9 4
v -1 9 3
v 0 6 7
v 0 6 6
v 0 7 7
v 0 7 6
v 1 7 7
v 1 7 6
v 1 8 7
v 1 8 6
v 1 8 5
v 1 9 6
v 1 9 5
v 1 12 6
v 1 12 5
v 1 15 6
v 1 15 5
v 2 9 6
v 2 9 5
v 2 10 6
v 2 10 5
v 2 11 6
v 2 11 5
v 2 12 7
v 2 12 6
v 2 12 5
v 2 12 4
v 2 14 7
v 2 14 6
v 2 14 5
v 2 14 4
v 3 10 6
v 3 10 5
v 3 11 7
v 3 11 6
v 3 11 5
v 3 11 4
v 3 12 8
v 3 12 7
v 3 12 6
v 3 12 5
v 3 12 4
v 3 12 3
v 3 14 7
v 3 14 4
v 3 15 8
v 3 15 7
v 3 15 4
v 3 15 3
v 4 12 6
v 4 12 5
v 4 13 7
v 4 13 6
v 4 13 5
v 4 13 4
v 4 14 7
v 4 14 6
v 4 14 5
v 4 14 4
v 5 13 6
v 5 13 5
v 5 14 6
v 5 14 5
v 5 15 6
v 5 15 5
v -4 8 3
v -4 8 2
v -4 8 1
v -4 9 3
v -4 9 2
v -4 9 1
v -2 8 4
v -2 8 2
v -2 8 1
v -2 9 4
v -2 9 2
v -2 9 1
v 0 5 8
v 0 5 7
v 0 6 8
v 0 6 7
v 0 7 7
v 0 7 6
v 0 8 7
v 0 8 6
v 0 8 3
v 0 9 7
v 0 9 3
v 1 0 9
v 1 0 7
v 1 1 9
v 1 1 8
v 1 5 8
v 1 5 7
v 1 5 6
v 1 7 7
v 1 7 6
v 2 7 7
v 2 7 6
v 2 8 7
v 2 8 6
v 2 8 5
v 2 9 6
v 2 9 5
v 2 13 6
v 2 13 5
v 2 14 6
v 2 14 5
v 2 15 6
v 2 15 5
v 3 9 6
v 3 9 5
v 3 10 6
v 3 10 5
v 3 12 6
v 3 12 5
v 3 13 7
v 3 13 6
v 3 13 5
v 3 13 4
v 3 14 7
v 3 14 6
v 3 14 5
v 3 14 4
v 4 10 6
v 4 10 5
v 4 11 7
v 4 11 6
v 4 11 5
v 4 11 4
v 4 12 8
v 4 12 7
v 4 12 6
v 4 12 5
v 4 12 4
v 4 12 3
v 4 14 7
v 4 14 4
v 4 15 8
v 4 15 7
v 4 15 4
v 4 15 3
v 5 11 6
v 5 11 5
v 5 12 7
v 5 12 6
v 5 12 5
v 5 12 4
v 5 14 7
v 5 14 6
v 5 14 5
v 5 14 4
v 6 12 6
v 6 12 5
v 6 15 6
v 6 15 5
v -1 0 9
v -1 1 9
v 0 0 9
v 0 1 9
v 1 0 9
v 1 1 9
v -1 1 8
v -1 6 8
v 0 1 8
v 0 5 8
v 0 6 8
v 1 1 8
v 1 5 8
v 3 12 8
v 3 15 8
v 4 12 8
v 4 15 8
v -4 8 7
v -4 9 7
v -1 7 7
v -1 8 7
v 0 5 7
v 0 6 7
v 0 7 7
v 0 8 7
v 0 9 7
v 1 5 7
v 1 7 7
v 1 8 7
v 2 7 7
v 2 8 7
v 2 12 7
v 2 14 7
v 3 11 7
v 3 12 7
v 3 14 7
v 4 11 7
v 4 12 7
v 4 14 7
v 5 12 7
v 5 14 7
v 1 8 6
v 1 9 6
v 1 12 6
v 1 15 6
v 2 8 6
v 2 9 6
v 2 10 6
v 2 11 6
v 2 12 6
v 2 14 6
v 2 15 6
v 3 9 6
v 3 10 6
v 3 11 6
v 3 12 6
v 4 10 6
v 4 11 6
v 4 12 6
v 5 11 6
v 5 12 6
v 5 14 6
v 5 15 6
v 6 12 6
v 6 15 6
v -6 8 5
v -6 9 5
v -5 8 5
v -5 9 5
v -3 8 5
v -3 9 5
v 2 13 5
v 2 14 5
v 3 12 5
v 3 13 5
v 3 14 5
v 4 12 5
v 4 13 5
v 4 14 5
v 5 13 5
v 5 14 5
v 3 13 4
v 3 14 4
v 3 15 4
v 4 13 4
v 4 14 4
v 4 15 4
v -6 8 3
v -6 9 3
v -5 8 3
v -5 9 3
v -4 8 3
v -4 9 3
v -1 0 7
v -1 5 7
v 1 0 7
v 1 5 7
v 3 13 7
v 3 14 7
v 3 15 7
v 4 13 7
v 4 14 7
v 4 15 7
v -4 8 6
v -4 9 6
v -3 8 6
v -3 9 6
v -1 5 6
v -1 6 6
v -1 7 6
v -1 8 6
v 0 6 6
v 0 7 6
v 0 8 6
v 1 5 6
v 1 7 6
v 1 8 6
v 2 7 6
v 2 8 6
v 2 13 6
v 2 14 6
v 3 12 6
v 3 13 6
v 3 14 6
v 4 12 6
v 4 13 6
v 4 14 6
v 5 13 6
v 5 14 6
v 1 8 5
v 1 9 5
v 1 12 5
v 1 15 5
v 2 8 5
v 2 9 5
v 2 10 5
v 2 11 5
v 2 12 5
v 2 14 5
v 2 15 5
v 3 9 5
v 3 10 5
v 3 11 5
v 3 12 5
v 4 10 5
v 4 11 5
v 4 12 5
v 5 11 5
v 5 12 5
v 5 14 5
v 5 15 5
v 6 12 5
v 6 15 5
v -6 8 4
v -6 9 4
v -5 8 4
v -5 9 4
v -4 8 4
v -4 9 4
v -2 8 4
v -2 9 4
v -1 8 4
v -1 9 4
v 2 12 4
v 2 14 4
v 3 11 4
v 3 12 4
v 3 14 4
v 4 11 4
v 4 12 4
v 4 14 4
v 5 12 4
v 5 14 4
v -4 8 3
v -4 9 3
v -3 8 3
v -3 9 3
v -1 8 3
v -1 9 3
v 0 8 3
v 0 9 3
v 3 12 3
v 3 15 3
v 4 12 3
v 4 15 3
v -6 8 1
v -6 9 1
v -4 8 1
v -4 9 1
v -3 8 1
v -3 9 1
v -2 8 1
v -2 9 1
v -1 0 9
v 0 0 9
v 1 0 9
v -1 0 8
v 0 0 8
v -1 0 7
v 1 0 7
v -1 5 7
v 1 5 7
v -1 5 6
v 1 5 6
v -1 7 7
v 0 7 7
v 1 7 7
v 2 7 7
v -1 7 6
v 0 7 6
v 1 7 6
v 2 7 6
v -4 8 7
v -1 8 7
v -4 8 6
v -3 8 6
v -2 8 6
v -1 8 6
v 0 8 6
v 1 8 6
v 2 8 6
v -6 8 5
v -5 8 5
v -3 8 5
v -2 8 5
v -1 8 5
v 1 8 5
v 2 8 5
v -6 8 4
v -5 8 4
v -4 8 4
v -2 8 4
v -1 8 4
v -6 8 3
v -5 8 3
v -4 8 3
v -3 8 3
v -1 8 3
v 0 8 3
v -5 8 2
v -4 8 2
v -3 8 2
v -2 8 2
v -6 8 1
v -4 8 1
v -3 8 1
v -2 8 1
v 2 9 6
v 3 9 6
v 2 9 5
v 3 9 5
v 3 10 6
v 4 10 6
v 3 10 5
v 4 10 5
v 3 11 7
v 4 11 7
v 2 11 6
v 3 11 6
v 4 11 6
v 5 11 6
v 2 11 5
v 3 11 5
v 4 11 5
v 5 11 5
v 3 11 4
v 4 11 4
v 3 12 8
v 4 12 8
v 2 12 7
v 3 12 7
v 4 12 7
v 5 12 7
v 1 12 6
v 2 12 6
v 3 12 6
v 4 12 6
v 5 12 6
v 6 12 6
v 1 12 5
v 2 12 5
v 3 12 5
v 4 12 5
v 5 12 5
v 6 12 5
v 2 12 4
v 3 12 4
v 4 12 4
v 5 12 4
v 3 12 3
v 4 12 3
v -1 1 9
v 0 1 9
v 1 1 9
v -1 1 8
v 0 1 8
v 1 1 8
v 0 5 8
v 1 5 8
v 0 5 7
v 1 5 7
v -1 6 8
v 0 6 8
v 0 6 7
v -1 6 6
v 0 6 6
v 0 7 7
v 1 7 7
v 0 7 6
v 1 7 6
v 1 8 7
v 2 8 7
v 1 8 6
v 2 8 6
v -4 9 7
v 0 9 7
v -4 9 6
v -3 9 6
v -2 9 6
v -1 9 6
v 1 9 6
v 2 9 6
v -6 9 5
v -5 9 5
v -3 9 5
v -2 9 5
v -1 9 5
v 1 9 5
v 2 9 5
v -6 9 4
v -5 9 4
v -4 9 4
v -2 9 4
v -1 9 4
v -6 9 3
v -5 9 3
v -4 9 3
v -3 9 3
v -1 9 3
v 0 9 3
v -5 9 2
v -4 9 2
v -3 9 2
v -2 9 2
v -6 9 1
v -4 9 1
v -3 9 1
v -2 9 1
v 2 10 6
v 3 10 6
v 2 10 5
v 3 10 5
v 3 12 6
v 4 12 6
v 3 12 5
v 4 12 5
v 3 13 7
v 4 13 7
v 2 13 6
v 3 13 6
v 4 13 6
v 5 13 6
v 2 13 5
v 3 13 5
v 4 13 5
v 5 13 5
v 3 13 4
v 4 13 4
v 2 14 7
v 3 14 7
v 4 14 7
v 5 14 7
v 2 14 6
v 3 14 6
v 4 14 6
v 5 14 6
v 2 14 5
v 3 14 5
v 4 14 5
v 5 14 5
v 2 14 4
v 3 14 4
v 4 14 4
v 5 14 4
v 3 15 8
v 4 15 8
v 3 15 7
v 4 15 7
v 1 15 6
v 2 15 6
v 5 15 6
v 6 15 6
v 1 15 5
v 2 15 5
v 5 15 5
v 6 15 5
v 3 15 4
v 4 15 4
v 3 15 3
v 4 15 3

# faces
f 5/5/1 2/5/1 1/5/1
f 6/5/1 2/5/1 5/5/1
f 7/5/1 4/5/1 3/5/1
f 8/5/1 4/5/1 7/5/1
f 13/5/1 10/5/1 9/5/1
f 14/5/1 10/5/1 13/5/1
f 15/4/1 12/4/1 11/4/1
f 16/4/1 12/4/1 15/4/1
f 22/5/1 18/5/1 17/5/1
f 23/5/1 18/5/1 22/5/1
f 24/4/1 20/4/1 19/4/1
f 25/5/1 21/5/1 20/5/1
f 25/4/1 20/4/1 24/4/1
f 26/5/1 21/5/1 25/5/1
f 30/4/1 28/4/1 27/4/1
f 31/5/1 29/5/1 28/5/1
f 31/4/1 28/4/1 30/4/1
f 32/5/1 29/5/1 31/5/1
f 34/5/1 32/5/1 31/5/1
f 34/5/1 33/5/1 32/5/1
f 35/5/1 33/5/1 34/5/1
f 38/4/1 37/4/1 36/4/1
f 39/4/1 37/4/1 38/4/1
f 42/5/1 41/5/1 40/5/1
f 43/5/1 41/5/1 42/5/1
f 46/5/1 45/5/1 44/5/1
f 47/5/1 45/5/1 46/5/1
f 50/4/1 49/4/1 48/4/1
f 51/4/1 49/4/1 50/4/1
f 53/4/1 52/4/1 51/4/1
f 54/4/1 52/4/1 53/4/1
f 57/3/1 56/3/1 55/3/1
f 58/3/1 56/3/1 57/3/1
f 61/4/1 60/4/1 59/4/1
f 62/4/1 60/4/1 61/4/1
f 66/3/1 64/3/1 63/3/1
f 67/3/1 64/3/1 66/3/1
f 69/3/1 66/3/1 65/3/1
f 70/3/1 66/3/1 69/3/1
f 71/3/1 68/3/1 67/3/1
f 72/3/1 68/3/1 71/3/1
f 76/3/1 74/3/1 73/3/1
f 77/3/1 74/3/1 76/3/1
f 80/3/1 76/3/1 75/3/1
f 81/3/1 76/3/1 80/3/1
f 82/3/1 78/3/1 77/3/1
f 83/3/1 78/3/1 82/3/1
f 85/3/1 80/3/1 79/3/1
f 86/3/1 84/3/1 83/3/1
f 87/3/1 85/3/1 79/3/1
f 88/3/1 85/3/1 87/3/1
f 89/3/1 84/3/1 86/3/1
f 90/3/1 84/3/1 89/3/1
f 94/1/1 92/1/1 91/1/1
f 95/1/1 92/1/1 94/1/1
f 97/3/1 94/3/1 93/3/1
f 98/3/1 94/3/1 97/3/1
f 99/3/1 96/3/1 95/3/1
f 100/3/1 96/3/1 99/3/1
f 103/3/1 102/3/1 101/3/1
f 104/3/1 102/3/1 103/3/1
f 105/3/1 104/3/1 103/3/1
f 106/3/1 104/3/1 105/3/1
f 107/4/2 108/4/2 110/4/2
f 108/5/2 109/5/2 111/5/2
f 110/4/2 108/4/2 111/4/2
f 111/5/2 109/5/2 112/5/2
f 113/4/2 114/4/2 116/4/2
f 114/5/2 115/5/2 117/5/2
f 116/4/2 114/4/2 117/4/2
f 117/5/2 115/5/2 118/5/2
f 119/5/2 120/5/2 121/5/2
f 121/5/2 120/5/2 122/5/2
f 123/4/2 124/4/2 125/4/2
f 125/4/2 124/4/2 126/4/2
f 125/5/2 126/5/2 128/5/2
f 126/5/2 127/5/2 128/5/2
f 128/5/2 127/5/2 129/5/2
f 130/5/2 131/5/2 132/5/2
f 132/5/2 131/5/2 133/5/2
f 133/5/2 131/5/2 134/5/2
f 134/5/2 131/5/2 135/5/2
f 135/5/2 136/5/2 137/5/2
f 137/5/2 136/5/2 138/5/2
f 139/4/2 140/4/2 141/4/2
f 141/4/2 140/4/2 142/4/2
f 142/4/2 143/4/2 144/4/2
f 144/4/2 143/4/2 145/4/2
f 146/3/2 147/3/2 148/3/2
f 148/3/2 147/3/2 149/3/2
f 148/3/2 149/3/2 150/3/2
f 150/3/2 149/3/2 151/3/2
f 152/4/2 153/4/2 154/4/2
f 154/4/2 153/4/2 155/4/2
f 156/1/2 157/1/2 159/1/2
f 159/1/2 157/1/2 160/1/2
f 158/3/2 159/3/2 162/3/2
f 162/3/2 159/3/2 163/3/2
f 160/3/2 161/3/2 164/3/2
f 164/3/2 161/3/2 165/3/2
f 166/3/2 167/3/2 169/3/2
f 169/3/2 167/3/2 170/3/2
f 168/3/2 169/3/2 173/3/2
f 173/3/2 169/3/2 174/3/2
f 170/3/2 171/3/2 175/3/2
f 175/3/2 171/3/2 176/3/2
f 172/3/2 173/3/2 178/3/2
f 176/3/2 177/3/2 179/3/2
f 172/3/2 178/3/2 180/3/2
f 180/3/2 178/3/2 181/3/2
f 179/3/2 177/3/2 182/3/2
f 182/3/2 177/3/2 183/3/2
f 184/3/2 185/3/2 187/3/2
f 187/3/2 185/3/2 188/3/2
f 186/3/2 187/3/2 190/3/2
f 190/3/2 187/3/2 191/3/2
f 188/3/2 189/3/2 192/3/2
f 192/3/2 189/3/2 193/3/2
f 194/3/2 195/3/2 196/3/2
f 196/3/2 195/3/2 197/3/2
f 200/4/3 199/4/3 198/4/3
f 201/4/3 199/4/3 200/4/3
f 202/5/3 201/5/3 200/5/3
f 203/5/3 201/5/3 202/5/3
f 206/5/3 205/5/3 204/5/3
f 207/5/3 205/5/3 206/5/3
f 208/5/3 205/5/3 207/5/3
f 209/5/3 207/5/3 206/5/3
f 210/5/3 207/5/3 209/5/3
f 213/3/3 212/3/3 211/3/3
f 214/3/3 212/3/3 213/3/3
f 218/5/3 216/5/3 215/5/3
f 221/4/3 218/4/3 217/4/3
f 222/5/3 216/5/3 218/5/3
f 222/4/3 218/4/3 221/4/3
f 223/5/3 216/5/3 222/5/3
f 224/5/3 221/5/3 220/5/3
f 224/5/3 220/5/3 219/5/3
f 225/5/3 221/5/3 224/5/3
f 227/4/3 226/4/3 225/4/3
f 228/4/3 226/4/3 227/4/3
f 232/3/3 230/3/3 229/3/3
f 233/3/3 230/3/3 232/3/3
f 234/3/3 232/3/3 231/3/3
f 235/3/3 232/3/3 234/3/3
f 237/3/3 236/3/3 235/3/3
f 238/3/3 236/3/3 237/3/3
f 243/4/3 240/4/3 239/4/3
f 244/4/3 240/4/3 243/4/3
f 247/3/3 242/3/3 241/3/3
f 248/3/3 242/3/3 247/3/3
f 249/3/3 242/3/3 248/3/3
f 250/4/3 245/4/3 244/4/3
f 251/4/3 245/4/3 250/4/3
f 252/3/3 247/3/3 246/3/3
f 253/3/3 247/3/3 252/3/3
f 254/3/3 252/3/3 251/3/3
f 255/3/3 252/3/3 254/3/3
f 257/3/3 256/3/3 255/3/3
f 258/3/3 256/3/3 257/3/3
f 261/3/3 260/3/3 259/3/3
f 261/3/3 259/3/3 258/3/3
f 262/3/3 260/3/3 261/3/3
f 265/5/3 264/5/3 263/5/3
f 266/5/3 264/5/3 265/5/3
f 267/4/3 266/4/3 265/4/3
f 268/4/3 266/4/3 267/4/3
f 272/3/3 270/3/3 269/3/3
f 273/3/3 270/3/3 272/3/3
f 274/1/3 272/1/3 271/1/3
f 275/1/3 272/1/3 274/1/3
f 277/3/3 276/3/3 275/3/3
f 278/3/3 276/3/3 277/3/3
f 282/3/3 280/3/3 279/3/3
f 282/3/3 281/3/3 280/3/3
f 283/3/3 281/3/3 282/3/3
f 284/3/3 281/3/3 283/3/3
f 287/5/3 286/5/3 285/5/3
f 288/5/3 286/5/3 287/5/3
f 289/4/3 288/4/3 287/4/3
f 290/4/3 288/4/3 289/4/3
f 291/5/4 292/5/4 293/5/4
f 293/5/4 292/5/4 294/5/4
f 295/3/4 296/3/4 298/3/4
f 296/3/4 297/3/4 298/3/4
f 298/3/4 297/3/4 299/3/4
f 299/3/4 297/3/4 300/3/4
f 301/5/4 302/5/4 303/5/4
f 303/5/4 302/5/4 304/5/4
f 305/5/4 306/5/4 309/5/4
f 307/4/4 308/4/4 310/4/4
f 310/4/4 308/4/4 311/4/4
f 305/5/4 309/5/4 312/5/4
f 309/5/4 310/5/4 312/5/4
f 312/5/4 310/5/4 313/5/4
f 313/4/4 314/4/4 315/4/4
f 315/4/4 314/4/4 316/4/4
f 317/3/4 318/3/4 320/3/4
f 320/3/4 318/3/4 321/3/4
f 319/1/4 320/1/4 322/1/4
f 322/1/4 320/1/4 323/1/4
f 323/3/4 324/3/4 325/3/4
f 325/3/4 324/3/4 326/3/4
f 327/4/4 328/4/4 331/4/4
f 331/4/4 328/4/4 332/4/4
f 329/3/4 330/3/4 335/3/4
f 335/3/4 330/3/4 336/3/4
f 336/3/4 330/3/4 337/3/4
f 332/4/4 333/4/4 338/4/4
f 338/4/4 333/4/4 339/4/4
f 334/3/4 335/3/4 340/3/4
f 340/3/4 335/3/4 341/3/4
f 339/3/4 340/3/4 342/3/4
f 342/3/4 340/3/4 343/3/4
f 343/3/4 344/3/4 345/3/4
f 345/3/4 344/3/4 346/3/4
f 347/3/4 348/3/4 349/3/4
f 346/3/4 347/3/4 349/3/4
f 349/3/4 348/3/4 350/3/4
f 351/5/4 352/5/4 353/5/4
f 353/5/4 352/5/4 354/5/4
f 353/4/4 354/4/4 355/4/4
f 355/4/4 354/4/4 356/4/4
f 357/5/4 358/5/4 359/5/4
f 359/5/4 358/5/4 360/5/4
f 361/3/4 362/3/4 364/3/4
f 364/3/4 362/3/4 365/3/4
f 363/3/4 364/3/4 366/3/4
f 366/3/4 364/3/4 367/3/4
f 367/3/4 368/3/4 369/3/4
f 369/3/4 368/3/4 370/3/4
f 371/4/4 372/4/4 373/4/4
f 373/4/4 372/4/4 374/4/4
f 375/5/4 376/5/4 377/5/4
f 377/5/4 376/5/4 378/5/4
f 379/3/4 380/3/4 381/3/4
f 381/3/4 380/3/4 382/3/4
f 383/5/4 384/5/4 385/5/4
f 385/5/4 384/5/4 386/5/4
f 387/5/4 388/5/4 389/5/4
f 389/5/4 388/5/4 390/5/4
f 394/4/5 392/4/5 391/4/5
f 395/5/5 393/5/5 392/5/5
f 395/4/5 392/4/5 394/4/5
f 396/5/5 395/5/5 394/5/5
f 397/5/5 393/5/5 395/5/5
f 397/5/5 395/5/5 396/5/5
f 400/5/5 399/5/5 398/5/5
f 401/5/5 399/5/5 400/5/5
f 406/4/5 403/4/5 402/4/5
f 407/4/5 403/4/5 406/4/5
f 408/4/5 405/4/5 404/4/5
f 409/4/5 405/4/5 408/4/5
f 412/5/5 411/5/5 410/5/5
f 413/5/5 411/5/5 412/5/5
f 414/5/5 411/5/5 413/5/5
f 415/5/5 411/5/5 414/5/5
f 421/5/5 414/5/5 413/5/5
f 422/4/5 415/4/5 414/4/5
f 422/5/5 414/5/5 421/5/5
f 423/5/5 416/5/5 415/5/5
f 423/4/5 415/4/5 422/4/5
f 424/4/5 418/4/5 417/4/5
f 425/4/5 418/4/5 424/4/5
f 426/5/5 420/5/5 419/5/5
f 427/4/5 421/4/5 420/4/5
f 427/5/5 420/5/5 426/5/5
f 427/4/5 422/4/5 421/4/5
f 428/4/5 422/4/5 427/4/5
f 429/5/5 423/5/5 422/5/5
f 429/4/5 422/4/5 428/4/5
f 430/5/5 416/5/5 423/5/5
f 430/5/5 423/5/5 429/5/5
f 433/4/5 429/4/5 428/4/5
f 434/4/5 429/4/5 433/4/5
f 435/5/5 416/5/5 430/5/5
f 436/5/5 416/5/5 435/5/5
f 437/5/5 432/5/5 431/5/5
f 437/4/5 433/4/5 432/4/5
f 438/4/5 433/4/5 437/4/5
f 439/4/5 429/4/5 434/4/5
f 440/4/5 429/4/5 439/4/5
f 441/5/5 438/5/5 437/5/5
f 441/5/5 437/5/5 431/5/5
f 442/5/5 438/5/5 441/5/5
f 443/5/5 440/5/5 439/5/5
f 444/5/5 440/5/5 443/5/5
f 447/4/5 446/4/5 445/4/5
f 448/4/5 446/4/5 447/4/5
f 451/3/5 450/3/5 449/3/5
f 452/3/5 450/3/5 451/3/5
f 456/3/5 454/3/5 453/3/5
f 457/3/5 454/3/5 456/3/5
f 459/3/5 456/3/5 455/3/5
f 460/3/5 456/3/5 459/3/5
f 461/3/5 458/3/5 457/3/5
f 462/3/5 458/3/5 461/3/5
f 463/3/5 461/3/5 460/3/5
f 464/3/5 461/3/5 463/3/5
f 468/3/5 466/3/5 465/3/5
f 469/3/5 466/3/5 468/3/5
f 472/3/5 468/3/5 467/3/5
f 473/3/5 468/3/5 472/3/5
f 474/3/5 470/3/5 469/3/5
f 475/3/5 470/3/5 474/3/5
f 477/3/5 472/3/5 471/3/5
f 478/3/5 472/3/5 477/3/5
f 481/3/5 476/3/5 475/3/5
f 482/3/5 476/3/5 481/3/5
f 483/3/5 479/3/5 478/3/5
f 484/3/5 479/3/5 483/3/5
f 485/3/5 481/3/5 480/3/5
f 486/3/5 481/3/5 485/3/5
f 487/3/5 485/3/5 484/3/5
f 488/3/5 485/3/5 487/3/5
f 489/4/6 490/4/6 492/4/6
f 490/5/6 491/5/6 493/5/6
f 492/4/6 490/4/6 493/4/6
f 493/5/6 491/5/6 494/5/6
f 495/5/6 496/5/6 497/5/6
f 497/5/6 496/5/6 498/5/6
f 499/5/6 500/5/6 501/5/6
f 499/5/6 501/5/6 502/5/6
f 502/5/6 501/5/6 503/5/6
f 504/5/6 505/5/6 506/5/6
f 506/5/6 505/5/6 507/5/6
f 508/4/6 509/4/6 510/4/6
f 510/4/6 509/4/6 511/4/6
f 512/5/6 513/5/6 514/5/6
f 514/5/6 513/5/6 515/5/6
f 515/5/6 513/5/6 516/5/6
f 516/5/6 513/5/6 517/5/6
f 515/5/6 516/5/6 522/5/6
f 516/4/6 517/4/6 523/4/6
f 522/5/6 516/5/6 523/5/6
f 517/5/6 513/5/6 524/5/6
f 523/4/6 517/4/6 524/4/6
f 518/4/6 519/4/6 525/4/6
f 525/4/6 519/4/6 526/4/6
f 520/5/6 521/5/6 527/5/6
f 521/4/6 522/4/6 528/4/6
f 527/5/6 521/5/6 528/5/6
f 522/4/6 523/4/6 528/4/6
f 528/4/6 523/4/6 529/4/6
f 523/5/6 524/5/6 530/5/6
f 529/4/6 523/4/6 530/4/6
f 524/5/6 513/5/6 531/5/6
f 530/5/6 524/5/6 531/5/6
f 529/4/6 530/4/6 534/4/6
f 534/4/6 530/4/6 535/4/6
f 531/5/6 513/5/6 536/5/6
f 536/5/6 513/5/6 537/5/6
f 532/5/6 533/5/6 538/5/6
f 533/4/6 534/4/6 538/4/6
f 538/4/6 534/4/6 539/4/6
f 535/4/6 530/4/6 540/4/6
f 540/4/6 530/4/6 541/4/6
f 538/5/6 539/5/6 542/5/6
f 532/5/6 538/5/6 542/5/6
f 542/5/6 539/5/6 543/5/6
f 540/5/6 541/5/6 544/5/6
f 544/5/6 541/5/6 545/5/6
f 546/4/6 547/4/6 548/4/6
f 548/4/6 547/4/6 549/4/6
f 550/2/6 551/2/6 552/2/6
f 552/2/6 551/2/6 553/2/6
f 554/1/6 555/1/6 557/1/6
f 557/1/6 555/1/6 558/1/6
f 556/1/6 557/1/6 560/1/6
f 560/1/6 557/1/6 561/1/6
f 558/1/6 559/1/6 562/1/6
f 562/1/6 559/1/6 563/1/6
f 561/1/6 562/1/6 564/1/6
f 564/1/6 562/1/6 565/1/6
f 566/3/6 567/3/6 570/3/6
f 570/3/6 567/3/6 571/3/6
f 568/3/6 569/3/6 572/3/6
f 572/3/6 569/3/6 573/3/6
f 574/3/6 575/3/6 578/3/6
f 578/3/6 575/3/6 579/3/6
f 576/3/6 577/3/6 580/3/6
f 580/3/6 577/3/6 581/3/6
f 582/3/6 583/3/6 584/3/6
f 584/3/6 583/3/6 585/3/6
f 586/3/6 587/3/6 590/3/6
f 590/3/6 587/3/6 591/3/6
f 588/3/6 589/3/6 592/3/6
f 592/3/6 589/3/6 593/3/6
f 594/3/6 595/3/6 596/3/6
f 596/3/6 595/3/6 597/3/6
