# MagicaVoxel @ Ephtracy

# group
o 

# material
mtllib Dude1-1.mtl
usemtl palette

# normals
vn -1 0 0
vn 1 0 0
vn 0 0 1
vn 0 0 -1
vn 0 -1 0
vn 0 1 0

# texcoords
vt 0.0332031 0.5
vt 0.0605469 0.5
vt 0.537109 0.5
vt 0.955078 0.5
vt 0.958984 0.5
vt 0.970703 0.5
vt 0.978516 0.5
vt 0.990234 0.5
vt 0.994141 0.5

# verts
v 3.1 0.6 0.1
v 3.1 0.6 -0.2
v 3.1 0.8 0.1
v 3.1 0.8 0
v 3.1 0.9 0.1
v 3.1 0.9 0
v 3.1 1 0.1
v 3.1 1 -0.2
v 3.2 0.2 0.1
v 3.2 0.2 0
v 3.2 0.3 0.1
v 3.2 0.3 0
v 3.2 0.6 0.1
v 3.2 0.6 0
v 3.2 0.8 0.2
v 3.2 0.8 0.1
v 3.2 0.9 0.2
v 3.2 0.9 0.1
v 3.2 1 0.1
v 3.2 1 -0.2
v 3.2 1.1 0.2
v 3.2 1.1 -0.2
v 3.3 0 0.1
v 3.3 0 0
v 3.3 0.1 0.1
v 3.3 0.1 0
v 3.3 0.2 0.2
v 3.3 0.2 0.1
v 3.3 0.2 0
v 3.3 0.2 -0.1
v 3.3 0.3 0.1
v 3.3 0.3 0
v 3.3 0.6 0.2
v 3.3 0.6 0.1
v 3.3 0.6 0
v 3.3 0.6 -0.1
v 3.3 0.6 -0.2
v 3.3 0.6 -0.3
v 3.3 0.7 0.2
v 3.3 0.7 0.1
v 3.3 0.8 0.2
v 3.3 0.8 0.1
v 3.3 1.1 0.1
v 3.3 1.1 -0.1
v 3.3 1.1 -0.2
v 3.3 1.1 -0.3
v 3.3 1.2 0.1
v 3.3 1.2 -0.1
v 3.4 0.6 0.1
v 3.4 0.6 -0.1
v 3.4 0.7 0.1
v 3.4 0.7 -0.1
v 3.4 1.1 0.2
v 3.4 1.1 0.1
v 3.4 1.1 -0.1
v 3.4 1.1 -0.2
v 3.4 1.2 0.2
v 3.4 1.2 0.1
v 3.4 1.2 -0.1
v 3.4 1.2 -0.2
v 3.6 0 0.1
v 3.6 0 0
v 3.6 0.1 0.1
v 3.6 0.1 0
v 3.6 0.2 0.1
v 3.6 0.2 0
v 3.7 0.6 -0.1
v 3.7 0.6 -0.2
v 3.7 0.7 -0.1
v 3.7 0.7 -0.2
v 3.8 0.6 0.1
v 3.8 0.6 0
v 3.8 0.6 -0.1
v 3.8 0.7 0.1
v 3.8 0.7 -0.1
v 3.2 0.6 0.1
v 3.2 0.6 0
v 3.2 0.6 -0.1
v 3.2 0.7 0.1
v 3.2 0.7 -0.1
v 3.3 0.6 -0.1
v 3.3 0.6 -0.2
v 3.3 0.7 -0.1
v 3.3 0.7 -0.2
v 3.4 0 0.1
v 3.4 0 0
v 3.4 0.1 0.1
v 3.4 0.1 0
v 3.4 0.2 0.1
v 3.4 0.2 0
v 3.6 0.6 0.1
v 3.6 0.6 -0.1
v 3.6 0.7 0.1
v 3.6 0.7 -0.1
v 3.7 0 0.1
v 3.7 0 0
v 3.7 0.1 0.1
v 3.7 0.1 0
v 3.7 0.2 0.2
v 3.7 0.2 0.1
v 3.7 0.2 0
v 3.7 0.2 -0.1
v 3.7 0.3 0.1
v 3.7 0.3 0
v 3.7 0.6 0.2
v 3.7 0.6 0.1
v 3.7 0.6 0
v 3.7 0.6 -0.1
v 3.7 0.6 -0.2
v 3.7 0.6 -0.3
v 3.7 0.7 0.2
v 3.7 0.7 0.1
v 3.7 0.8 0.2
v 3.7 0.8 0.1
v 3.7 1.1 0.2
v 3.7 1.1 0.1
v 3.7 1.1 -0.1
v 3.7 1.1 -0.2
v 3.7 1.1 -0.3
v 3.7 1.2 0.2
v 3.7 1.2 0.1
v 3.7 1.2 -0.1
v 3.7 1.2 -0.2
v 3.8 0.2 0.1
v 3.8 0.2 0
v 3.8 0.3 0.1
v 3.8 0.3 0
v 3.8 0.6 0.1
v 3.8 0.6 0
v 3.8 0.8 0.2
v 3.8 0.8 0.1
v 3.8 0.9 0.2
v 3.8 0.9 0.1
v 3.8 1 0.1
v 3.8 1 -0.2
v 3.8 1.1 0.2
v 3.8 1.1 0.1
v 3.8 1.1 -0.1
v 3.8 1.1 -0.2
v 3.8 1.2 0.1
v 3.8 1.2 -0.1
v 3.9 0.6 0.1
v 3.9 0.6 -0.2
v 3.9 0.8 0.1
v 3.9 0.8 0
v 3.9 0.9 0.1
v 3.9 0.9 0
v 3.9 1 0.1
v 3.9 1 -0.2
v 3.2 0.8 0.2
v 3.2 0.9 0.2
v 3.2 1.1 0.2
v 3.3 0.2 0.2
v 3.3 0.6 0.2
v 3.3 0.7 0.2
v 3.3 0.8 0.2
v 3.3 0.9 0.2
v 3.3 1 0.2
v 3.4 0.2 0.2
v 3.4 0.6 0.2
v 3.4 0.8 0.2
v 3.4 0.9 0.2
v 3.4 1 0.2
v 3.4 1.1 0.2
v 3.4 1.2 0.2
v 3.6 0.2 0.2
v 3.6 0.6 0.2
v 3.6 0.8 0.2
v 3.6 0.9 0.2
v 3.6 1 0.2
v 3.7 0.2 0.2
v 3.7 0.6 0.2
v 3.7 0.7 0.2
v 3.7 0.8 0.2
v 3.7 0.9 0.2
v 3.7 1 0.2
v 3.7 1.1 0.2
v 3.7 1.2 0.2
v 3.8 0.8 0.2
v 3.8 0.9 0.2
v 3.8 1.1 0.2
v 3.1 0.6 0.1
v 3.1 0.8 0.1
v 3.1 0.9 0.1
v 3.1 1 0.1
v 3.2 0.2 0.1
v 3.2 0.3 0.1
v 3.2 0.6 0.1
v 3.2 0.7 0.1
v 3.2 0.8 0.1
v 3.2 0.9 0.1
v 3.2 1 0.1
v 3.3 0 0.1
v 3.3 0.1 0.1
v 3.3 0.2 0.1
v 3.3 0.3 0.1
v 3.3 0.6 0.1
v 3.3 0.7 0.1
v 3.3 0.8 0.1
v 3.3 1.1 0.1
v 3.3 1.2 0.1
v 3.4 0 0.1
v 3.4 0.1 0.1
v 3.4 0.2 0.1
v 3.4 0.6 0.1
v 3.4 0.7 0.1
v 3.4 1.1 0.1
v 3.4 1.2 0.1
v 3.6 0 0.1
v 3.6 0.1 0.1
v 3.6 0.2 0.1
v 3.6 0.6 0.1
v 3.6 0.7 0.1
v 3.7 0 0.1
v 3.7 0.1 0.1
v 3.7 0.2 0.1
v 3.7 0.3 0.1
v 3.7 0.6 0.1
v 3.7 0.7 0.1
v 3.7 0.8 0.1
v 3.7 1.1 0.1
v 3.7 1.2 0.1
v 3.8 0.2 0.1
v 3.8 0.3 0.1
v 3.8 0.6 0.1
v 3.8 0.7 0.1
v 3.8 0.8 0.1
v 3.8 0.9 0.1
v 3.8 1 0.1
v 3.8 1.1 0.1
v 3.8 1.2 0.1
v 3.9 0.6 0.1
v 3.9 0.8 0.1
v 3.9 0.9 0.1
v 3.9 1 0.1
v 3.2 0.6 -0.1
v 3.2 0.7 -0.1
v 3.3 0.6 -0.1
v 3.3 0.7 -0.1
v 3.7 0.6 -0.1
v 3.7 0.7 -0.1
v 3.8 0.6 -0.1
v 3.8 0.7 -0.1
v 3.3 0.6 -0.2
v 3.3 0.7 -0.2
v 3.7 0.6 -0.2
v 3.7 0.7 -0.2
v 3.2 0.2 0
v 3.2 0.3 0
v 3.2 0.6 0
v 3.3 0 0
v 3.3 0.1 0
v 3.3 0.2 0
v 3.3 0.3 0
v 3.3 0.6 0
v 3.4 0 0
v 3.4 0.1 0
v 3.4 0.2 0
v 3.6 0 0
v 3.6 0.1 0
v 3.6 0.2 0
v 3.7 0 0
v 3.7 0.1 0
v 3.7 0.2 0
v 3.7 0.3 0
v 3.7 0.6 0
v 3.8 0.2 0
v 3.8 0.3 0
v 3.8 0.6 0
v 3.3 0.2 -0.1
v 3.3 0.6 -0.1
v 3.3 1.1 -0.1
v 3.3 1.2 -0.1
v 3.4 0.6 -0.1
v 3.4 0.7 -0.1
v 3.4 1.1 -0.1
v 3.4 1.2 -0.1
v 3.6 0.6 -0.1
v 3.6 0.7 -0.1
v 3.7 0.2 -0.1
v 3.7 0.6 -0.1
v 3.7 1.1 -0.1
v 3.7 1.2 -0.1
v 3.8 1.1 -0.1
v 3.8 1.2 -0.1
v 3.1 0.6 -0.2
v 3.1 1 -0.2
v 3.2 1 -0.2
v 3.2 1.1 -0.2
v 3.3 0.6 -0.2
v 3.3 1.1 -0.2
v 3.4 1.1 -0.2
v 3.4 1.2 -0.2
v 3.7 0.6 -0.2
v 3.7 1.1 -0.2
v 3.7 1.2 -0.2
v 3.8 1 -0.2
v 3.8 1.1 -0.2
v 3.9 0.6 -0.2
v 3.9 1 -0.2
v 3.3 0.6 -0.3
v 3.3 1.1 -0.3
v 3.7 0.6 -0.3
v 3.7 1.1 -0.3
v 3.3 0 0.1
v 3.4 0 0.1
v 3.6 0 0.1
v 3.7 0 0.1
v 3.3 0 0
v 3.4 0 0
v 3.6 0 0
v 3.7 0 0
v 3.3 0.2 0.2
v 3.4 0.2 0.2
v 3.6 0.2 0.2
v 3.7 0.2 0.2
v 3.2 0.2 0.1
v 3.3 0.2 0.1
v 3.4 0.2 0.1
v 3.6 0.2 0.1
v 3.7 0.2 0.1
v 3.8 0.2 0.1
v 3.2 0.2 0
v 3.3 0.2 0
v 3.4 0.2 0
v 3.6 0.2 0
v 3.7 0.2 0
v 3.8 0.2 0
v 3.3 0.2 -0.1
v 3.7 0.2 -0.1
v 3.1 0.6 0.1
v 3.2 0.6 0.1
v 3.8 0.6 0.1
v 3.9 0.6 0.1
v 3.2 0.6 0
v 3.8 0.6 0
v 3.2 0.6 -0.1
v 3.3 0.6 -0.1
v 3.7 0.6 -0.1
v 3.8 0.6 -0.1
v 3.1 0.6 -0.2
v 3.3 0.6 -0.2
v 3.7 0.6 -0.2
v 3.9 0.6 -0.2
v 3.3 0.6 -0.3
v 3.7 0.6 -0.3
v 3.3 0.7 0.2
v 3.7 0.7 0.2
v 3.2 0.7 0.1
v 3.3 0.7 0.1
v 3.4 0.7 0.1
v 3.6 0.7 0.1
v 3.7 0.7 0.1
v 3.8 0.7 0.1
v 3.2 0.7 -0.1
v 3.3 0.7 -0.1
v 3.4 0.7 -0.1
v 3.6 0.7 -0.1
v 3.7 0.7 -0.1
v 3.8 0.7 -0.1
v 3.3 0.7 -0.2
v 3.7 0.7 -0.2
v 3.2 0.8 0.2
v 3.3 0.8 0.2
v 3.7 0.8 0.2
v 3.8 0.8 0.2
v 3.2 0.8 0.1
v 3.3 0.8 0.1
v 3.7 0.8 0.1
v 3.8 0.8 0.1
v 3.3 0.6 0.2
v 3.4 0.6 0.2
v 3.6 0.6 0.2
v 3.7 0.6 0.2
v 3.2 0.6 0.1
v 3.3 0.6 0.1
v 3.4 0.6 0.1
v 3.6 0.6 0.1
v 3.7 0.6 0.1
v 3.8 0.6 0.1
v 3.2 0.6 0
v 3.3 0.6 0
v 3.7 0.6 0
v 3.8 0.6 0
v 3.3 0.6 -0.1
v 3.4 0.6 -0.1
v 3.6 0.6 -0.1
v 3.7 0.6 -0.1
v 3.1 1 0.1
v 3.2 1 0.1
v 3.8 1 0.1
v 3.9 1 0.1
v 3.1 1 -0.2
v 3.2 1 -0.2
v 3.8 1 -0.2
v 3.9 1 -0.2
v 3.2 1.1 0.2
v 3.4 1.1 0.2
v 3.7 1.1 0.2
v 3.8 1.1 0.2
v 3.3 1.1 0.1
v 3.4 1.1 0.1
v 3.7 1.1 0.1
v 3.8 1.1 0.1
v 3.3 1.1 -0.1
v 3.4 1.1 -0.1
v 3.7 1.1 -0.1
v 3.8 1.1 -0.1
v 3.2 1.1 -0.2
v 3.3 1.1 -0.2
v 3.4 1.1 -0.2
v 3.7 1.1 -0.2
v 3.8 1.1 -0.2
v 3.3 1.1 -0.3
v 3.7 1.1 -0.3
v 3.4 1.2 0.2
v 3.7 1.2 0.2
v 3.3 1.2 0.1
v 3.4 1.2 0.1
v 3.7 1.2 0.1
v 3.8 1.2 0.1
v 3.3 1.2 -0.1
v 3.4 1.2 -0.1
v 3.7 1.2 -0.1
v 3.8 1.2 -0.1
v 3.4 1.2 -0.2
v 3.7 1.2 -0.2

# faces
f 3/9/1 2/9/1 1/9/1
f 4/9/1 2/9/1 3/9/1
f 5/2/1 4/2/1 3/2/1
f 6/9/1 2/9/1 4/9/1
f 6/2/1 4/2/1 5/2/1
f 7/9/1 6/9/1 5/9/1
f 8/9/1 2/9/1 6/9/1
f 8/9/1 6/9/1 7/9/1
f 11/1/1 10/1/1 9/1/1
f 12/1/1 10/1/1 11/1/1
f 13/7/1 12/7/1 11/7/1
f 14/7/1 12/7/1 13/7/1
f 17/8/1 16/8/1 15/8/1
f 18/8/1 16/8/1 17/8/1
f 19/9/1 18/9/1 17/9/1
f 21/9/1 19/9/1 17/9/1
f 21/9/1 20/9/1 19/9/1
f 22/9/1 20/9/1 21/9/1
f 25/3/1 24/3/1 23/3/1
f 26/3/1 24/3/1 25/3/1
f 28/7/1 26/7/1 25/7/1
f 29/7/1 26/7/1 28/7/1
f 31/7/1 28/7/1 27/7/1
f 32/7/1 30/7/1 29/7/1
f 33/7/1 31/7/1 27/7/1
f 34/7/1 31/7/1 33/7/1
f 35/7/1 30/7/1 32/7/1
f 36/7/1 30/7/1 35/7/1
f 41/1/1 40/1/1 39/1/1
f 42/1/1 40/1/1 41/1/1
f 45/9/1 38/9/1 37/9/1
f 46/9/1 38/9/1 45/9/1
f 47/9/1 44/9/1 43/9/1
f 48/9/1 44/9/1 47/9/1
f 51/6/1 50/6/1 49/6/1
f 52/6/1 50/6/1 51/6/1
f 57/9/1 54/9/1 53/9/1
f 58/9/1 54/9/1 57/9/1
f 59/9/1 56/9/1 55/9/1
f 60/9/1 56/9/1 59/9/1
f 63/3/1 62/3/1 61/3/1
f 64/3/1 62/3/1 63/3/1
f 65/7/1 64/7/1 63/7/1
f 66/7/1 64/7/1 65/7/1
f 69/9/1 68/9/1 67/9/1
f 70/9/1 68/9/1 69/9/1
f 74/9/1 72/9/1 71/9/1
f 74/9/1 73/9/1 72/9/1
f 75/9/1 73/9/1 74/9/1
f 76/9/2 77/9/2 79/9/2
f 77/9/2 78/9/2 79/9/2
f 79/9/2 78/9/2 80/9/2
f 81/9/2 82/9/2 83/9/2
f 83/9/2 82/9/2 84/9/2
f 85/3/2 86/3/2 87/3/2
f 87/3/2 86/3/2 88/3/2
f 87/7/2 88/7/2 89/7/2
f 89/7/2 88/7/2 90/7/2
f 91/6/2 92/6/2 93/6/2
f 93/6/2 92/6/2 94/6/2
f 95/3/2 96/3/2 97/3/2
f 97/3/2 96/3/2 98/3/2
f 97/7/2 98/7/2 100/7/2
f 100/7/2 98/7/2 101/7/2
f 99/7/2 100/7/2 103/7/2
f 101/7/2 102/7/2 104/7/2
f 99/7/2 103/7/2 105/7/2
f 105/7/2 103/7/2 106/7/2
f 104/7/2 102/7/2 107/7/2
f 107/7/2 102/7/2 108/7/2
f 111/1/2 112/1/2 113/1/2
f 113/1/2 112/1/2 114/1/2
f 109/9/2 110/9/2 118/9/2
f 118/9/2 110/9/2 119/9/2
f 115/9/2 116/9/2 120/9/2
f 120/9/2 116/9/2 121/9/2
f 117/9/2 118/9/2 122/9/2
f 122/9/2 118/9/2 123/9/2
f 124/1/2 125/1/2 126/1/2
f 126/1/2 125/1/2 127/1/2
f 126/7/2 127/7/2 128/7/2
f 128/7/2 127/7/2 129/7/2
f 130/8/2 131/8/2 132/8/2
f 132/8/2 131/8/2 133/8/2
f 132/9/2 133/9/2 134/9/2
f 132/9/2 134/9/2 136/9/2
f 134/9/2 135/9/2 136/9/2
f 136/9/2 135/9/2 137/9/2
f 137/9/2 135/9/2 138/9/2
f 138/9/2 135/9/2 139/9/2
f 137/9/2 138/9/2 140/9/2
f 140/9/2 138/9/2 141/9/2
f 142/9/2 143/9/2 144/9/2
f 144/9/2 143/9/2 145/9/2
f 144/2/2 145/2/2 146/2/2
f 145/9/2 143/9/2 147/9/2
f 146/2/2 145/2/2 147/2/2
f 146/9/2 147/9/2 148/9/2
f 147/9/2 143/9/2 149/9/2
f 148/9/2 147/9/2 149/9/2
f 156/8/3 151/8/3 150/8/3
f 157/9/3 152/9/3 151/9/3
f 157/8/3 151/8/3 156/8/3
f 158/9/3 152/9/3 157/9/3
f 159/7/3 154/7/3 153/7/3
f 160/7/3 154/7/3 159/7/3
f 161/1/3 156/1/3 155/1/3
f 161/4/3 157/4/3 156/4/3
f 162/5/3 158/5/3 157/5/3
f 162/4/3 157/4/3 161/4/3
f 163/9/3 152/9/3 158/9/3
f 163/5/3 158/5/3 162/5/3
f 164/9/3 152/9/3 163/9/3
f 166/6/3 160/6/3 159/6/3
f 167/6/3 160/6/3 166/6/3
f 168/1/3 162/1/3 161/1/3
f 168/1/3 161/1/3 155/1/3
f 168/1/3 163/1/3 162/1/3
f 169/1/3 163/1/3 168/1/3
f 170/9/3 165/9/3 164/9/3
f 170/1/3 163/1/3 169/1/3
f 170/9/3 164/9/3 163/9/3
f 171/7/3 167/7/3 166/7/3
f 172/7/3 167/7/3 171/7/3
f 173/1/3 168/1/3 155/1/3
f 174/4/3 169/4/3 168/4/3
f 174/1/3 168/1/3 173/1/3
f 175/5/3 170/5/3 169/5/3
f 175/4/3 169/4/3 174/4/3
f 176/9/3 165/9/3 170/9/3
f 176/5/3 170/5/3 175/5/3
f 177/9/3 165/9/3 176/9/3
f 178/9/3 165/9/3 177/9/3
f 179/8/3 175/8/3 174/8/3
f 180/9/3 177/9/3 176/9/3
f 180/8/3 175/8/3 179/8/3
f 180/9/3 176/9/3 175/9/3
f 181/9/3 177/9/3 180/9/3
f 188/9/3 183/9/3 182/9/3
f 189/9/3 183/9/3 188/9/3
f 190/2/3 184/2/3 183/2/3
f 190/9/3 183/9/3 189/9/3
f 191/9/3 185/9/3 184/9/3
f 191/2/3 184/2/3 190/2/3
f 192/9/3 185/9/3 191/9/3
f 195/1/3 187/1/3 186/1/3
f 196/7/3 188/7/3 187/7/3
f 196/1/3 187/1/3 195/1/3
f 197/7/3 188/7/3 196/7/3
f 198/9/3 190/9/3 189/9/3
f 199/9/3 190/9/3 198/9/3
f 202/3/3 194/3/3 193/3/3
f 203/7/3 195/7/3 194/7/3
f 203/3/3 194/3/3 202/3/3
f 204/7/3 195/7/3 203/7/3
f 207/9/3 201/9/3 200/9/3
f 208/9/3 201/9/3 207/9/3
f 212/6/3 206/6/3 205/6/3
f 213/6/3 206/6/3 212/6/3
f 214/3/3 210/3/3 209/3/3
f 215/7/3 211/7/3 210/7/3
f 215/3/3 210/3/3 214/3/3
f 216/7/3 211/7/3 215/7/3
f 223/1/3 217/1/3 216/1/3
f 224/7/3 218/7/3 217/7/3
f 224/1/3 217/1/3 223/1/3
f 225/7/3 218/7/3 224/7/3
f 226/9/3 220/9/3 219/9/3
f 227/9/3 220/9/3 226/9/3
f 230/9/3 222/9/3 221/9/3
f 231/9/3 222/9/3 230/9/3
f 232/9/3 226/9/3 225/9/3
f 232/9/3 227/9/3 226/9/3
f 233/2/3 228/2/3 227/2/3
f 233/9/3 227/9/3 232/9/3
f 234/9/3 229/9/3 228/9/3
f 234/2/3 228/2/3 233/2/3
f 235/9/3 229/9/3 234/9/3
f 238/9/3 237/9/3 236/9/3
f 239/9/3 237/9/3 238/9/3
f 242/9/3 241/9/3 240/9/3
f 243/9/3 241/9/3 242/9/3
f 246/9/3 245/9/3 244/9/3
f 247/9/3 245/9/3 246/9/3
f 248/1/4 249/1/4 253/1/4
f 249/7/4 250/7/4 254/7/4
f 253/1/4 249/1/4 254/1/4
f 254/7/4 250/7/4 255/7/4
f 251/3/4 252/3/4 256/3/4
f 252/7/4 253/7/4 257/7/4
f 256/3/4 252/3/4 257/3/4
f 257/7/4 253/7/4 258/7/4
f 259/3/4 260/3/4 262/3/4
f 260/7/4 261/7/4 263/7/4
f 262/3/4 260/3/4 263/3/4
f 263/7/4 261/7/4 264/7/4
f 264/1/4 265/1/4 267/1/4
f 265/7/4 266/7/4 268/7/4
f 267/1/4 265/1/4 268/1/4
f 268/7/4 266/7/4 269/7/4
f 270/7/4 271/7/4 274/7/4
f 272/9/4 273/9/4 276/9/4
f 276/9/4 273/9/4 277/9/4
f 274/6/4 275/6/4 278/6/4
f 270/7/4 274/7/4 278/7/4
f 278/6/4 275/6/4 279/6/4
f 270/7/4 278/7/4 280/7/4
f 280/7/4 278/7/4 281/7/4
f 282/9/4 283/9/4 284/9/4
f 284/9/4 283/9/4 285/9/4
f 286/9/4 287/9/4 288/9/4
f 286/9/4 288/9/4 290/9/4
f 288/9/4 289/9/4 290/9/4
f 290/9/4 289/9/4 291/9/4
f 292/9/4 293/9/4 295/9/4
f 295/9/4 293/9/4 296/9/4
f 294/9/4 295/9/4 297/9/4
f 297/9/4 295/9/4 298/9/4
f 294/9/4 297/9/4 299/9/4
f 299/9/4 297/9/4 300/9/4
f 301/9/4 302/9/4 303/9/4
f 303/9/4 302/9/4 304/9/4
f 309/3/5 306/3/5 305/3/5
f 310/3/5 306/3/5 309/3/5
f 311/3/5 308/3/5 307/3/5
f 312/3/5 308/3/5 311/3/5
f 318/7/5 314/7/5 313/7/5
f 319/6/5 315/6/5 314/6/5
f 319/7/5 314/7/5 318/7/5
f 320/7/5 316/7/5 315/7/5
f 320/6/5 315/6/5 319/6/5
f 321/7/5 316/7/5 320/7/5
f 323/1/5 318/1/5 317/1/5
f 324/1/5 318/1/5 323/1/5
f 325/7/5 320/7/5 319/7/5
f 326/7/5 320/7/5 325/7/5
f 327/1/5 322/1/5 321/1/5
f 328/1/5 322/1/5 327/1/5
f 329/7/5 326/7/5 325/7/5
f 329/7/5 327/7/5 326/7/5
f 329/7/5 325/7/5 324/7/5
f 330/7/5 327/7/5 329/7/5
f 335/9/5 332/9/5 331/9/5
f 336/9/5 334/9/5 333/9/5
f 337/9/5 335/9/5 331/9/5
f 340/9/5 334/9/5 336/9/5
f 341/9/5 338/9/5 337/9/5
f 341/9/5 337/9/5 331/9/5
f 342/9/5 338/9/5 341/9/5
f 343/9/5 340/9/5 339/9/5
f 344/9/5 334/9/5 340/9/5
f 344/9/5 340/9/5 343/9/5
f 345/9/5 343/9/5 342/9/5
f 346/9/5 343/9/5 345/9/5
f 350/1/5 348/1/5 347/1/5
f 351/1/5 348/1/5 350/1/5
f 352/1/5 348/1/5 351/1/5
f 353/1/5 348/1/5 352/1/5
f 355/9/5 350/9/5 349/9/5
f 355/9/5 351/9/5 350/9/5
f 356/9/5 351/9/5 355/9/5
f 357/9/5 351/9/5 356/9/5
f 358/9/5 354/9/5 353/9/5
f 358/9/5 353/9/5 352/9/5
f 359/9/5 354/9/5 358/9/5
f 360/9/5 354/9/5 359/9/5
f 361/9/5 357/9/5 356/9/5
f 361/9/5 359/9/5 358/9/5
f 361/9/5 358/9/5 357/9/5
f 362/9/5 359/9/5 361/9/5
f 367/8/5 364/8/5 363/8/5
f 368/8/5 364/8/5 367/8/5
f 369/8/5 366/8/5 365/8/5
f 370/8/5 366/8/5 369/8/5
f 371/7/6 372/7/6 376/7/6
f 372/6/6 373/6/6 377/6/6
f 376/7/6 372/7/6 377/7/6
f 373/7/6 374/7/6 378/7/6
f 377/6/6 373/6/6 378/6/6
f 378/7/6 374/7/6 379/7/6
f 376/7/6 377/7/6 381/7/6
f 375/7/6 376/7/6 381/7/6
f 381/7/6 377/7/6 382/7/6
f 379/7/6 380/7/6 383/7/6
f 378/7/6 379/7/6 383/7/6
f 383/7/6 380/7/6 384/7/6
f 382/7/6 377/7/6 385/7/6
f 385/7/6 377/7/6 386/7/6
f 378/7/6 383/7/6 387/7/6
f 387/7/6 383/7/6 388/7/6
f 389/9/6 390/9/6 393/9/6
f 393/9/6 390/9/6 394/9/6
f 391/9/6 392/9/6 395/9/6
f 395/9/6 392/9/6 396/9/6
f 397/9/6 398/9/6 401/9/6
f 401/9/6 398/9/6 402/9/6
f 399/9/6 400/9/6 403/9/6
f 403/9/6 400/9/6 404/9/6
f 397/9/6 401/9/6 405/9/6
f 397/9/6 405/9/6 409/9/6
f 405/9/6 406/9/6 409/9/6
f 409/9/6 406/9/6 410/9/6
f 410/9/6 406/9/6 411/9/6
f 407/9/6 408/9/6 412/9/6
f 412/9/6 408/9/6 413/9/6
f 410/9/6 411/9/6 414/9/6
f 411/9/6 412/9/6 414/9/6
f 414/9/6 412/9/6 415/9/6
f 416/9/6 417/9/6 419/9/6
f 419/9/6 417/9/6 420/9/6
f 418/9/6 419/9/6 422/9/6
f 420/9/6 421/9/6 422/9/6
f 419/9/6 420/9/6 422/9/6
f 422/9/6 421/9/6 423/9/6
f 423/9/6 421/9/6 424/9/6
f 424/9/6 421/9/6 425/9/6
f 423/9/6 424/9/6 426/9/6
f 426/9/6 424/9/6 427/9/6
