# MagicaVoxel @ Ephtracy

# group
o 

# material
mtllib Dude1-2.mtl
usemtl palette

# normals
vn -1 0 0
vn 1 0 0
vn 0 0 1
vn 0 0 -1
vn 0 -1 0
vn 0 1 0

# texcoords
vt 0.0332031 0.5
vt 0.0605469 0.5
vt 0.955078 0.5
vt 0.958984 0.5
vt 0.990234 0.5
vt 0.994141 0.5

# verts
v 1.1 0.6 0.1
v 1.1 0.6 -0.2
v 1.1 0.8 0.1
v 1.1 0.8 0
v 1.1 0.9 0.1
v 1.1 0.9 0
v 1.1 1 0.1
v 1.1 1 -0.2
v 1.2 0.2 0.1
v 1.2 0.2 0
v 1.2 0.3 0.1
v 1.2 0.3 0
v 1.2 0.6 0.1
v 1.2 0.6 0
v 1.2 0.8 0.2
v 1.2 0.8 0.1
v 1.2 0.9 0.2
v 1.2 0.9 0.1
v 1.2 1 0.1
v 1.2 1 -0.2
v 1.2 1.1 0.2
v 1.2 1.1 -0.2
v 1.3 0 0.1
v 1.3 0 0
v 1.3 0.1 0.1
v 1.3 0.1 0
v 1.3 0.2 0.2
v 1.3 0.2 0.1
v 1.3 0.2 0
v 1.3 0.2 -0.1
v 1.3 0.3 0.1
v 1.3 0.3 0
v 1.3 0.6 0.2
v 1.3 0.6 0.1
v 1.3 0.6 0
v 1.3 0.6 -0.1
v 1.3 0.6 -0.2
v 1.3 0.6 -0.3
v 1.3 0.7 0.2
v 1.3 0.7 0.1
v 1.3 0.8 0.2
v 1.3 0.8 0.1
v 1.3 1.1 0.1
v 1.3 1.1 -0.1
v 1.3 1.1 -0.2
v 1.3 1.1 -0.3
v 1.3 1.2 0.1
v 1.3 1.2 -0.1
v 1.4 0.6 0.1
v 1.4 0.6 -0.1
v 1.4 0.7 0.1
v 1.4 0.7 -0.1
v 1.4 1.1 0.2
v 1.4 1.1 0.1
v 1.4 1.1 -0.1
v 1.4 1.1 -0.2
v 1.4 1.2 0.2
v 1.4 1.2 0.1
v 1.4 1.2 -0.1
v 1.4 1.2 -0.2
v 1.6 0 0.1
v 1.6 0 0
v 1.6 0.1 0.1
v 1.6 0.1 0
v 1.6 0.2 0.1
v 1.6 0.2 0
v 1.7 0.6 -0.1
v 1.7 0.6 -0.2
v 1.7 0.7 -0.1
v 1.7 0.7 -0.2
v 1.8 0.6 0.1
v 1.8 0.6 0
v 1.8 0.6 -0.1
v 1.8 0.7 0.1
v 1.8 0.7 -0.1
v 1.2 0.6 0.1
v 1.2 0.6 0
v 1.2 0.6 -0.1
v 1.2 0.7 0.1
v 1.2 0.7 -0.1
v 1.3 0.6 -0.1
v 1.3 0.6 -0.2
v 1.3 0.7 -0.1
v 1.3 0.7 -0.2
v 1.4 0 0.1
v 1.4 0 0
v 1.4 0.1 0.1
v 1.4 0.1 0
v 1.4 0.2 0.1
v 1.4 0.2 0
v 1.6 0.6 0.1
v 1.6 0.6 -0.1
v 1.6 0.7 0.1
v 1.6 0.7 -0.1
v 1.7 0 0.1
v 1.7 0 0
v 1.7 0.1 0.1
v 1.7 0.1 0
v 1.7 0.2 0.2
v 1.7 0.2 0.1
v 1.7 0.2 0
v 1.7 0.2 -0.1
v 1.7 0.3 0.1
v 1.7 0.3 0
v 1.7 0.6 0.2
v 1.7 0.6 0.1
v 1.7 0.6 0
v 1.7 0.6 -0.1
v 1.7 0.6 -0.2
v 1.7 0.6 -0.3
v 1.7 0.7 0.2
v 1.7 0.7 0.1
v 1.7 0.8 0.2
v 1.7 0.8 0.1
v 1.7 1.1 0.2
v 1.7 1.1 0.1
v 1.7 1.1 -0.1
v 1.7 1.1 -0.2
v 1.7 1.1 -0.3
v 1.7 1.2 0.2
v 1.7 1.2 0.1
v 1.7 1.2 -0.1
v 1.7 1.2 -0.2
v 1.8 0.2 0.1
v 1.8 0.2 0
v 1.8 0.3 0.1
v 1.8 0.3 0
v 1.8 0.6 0.1
v 1.8 0.6 0
v 1.8 0.8 0.2
v 1.8 0.8 0.1
v 1.8 0.9 0.2
v 1.8 0.9 0.1
v 1.8 1 0.1
v 1.8 1 -0.2
v 1.8 1.1 0.2
v 1.8 1.1 0.1
v 1.8 1.1 -0.1
v 1.8 1.1 -0.2
v 1.8 1.2 0.1
v 1.8 1.2 -0.1
v 1.9 0.6 0.1
v 1.9 0.6 -0.2
v 1.9 0.8 0.1
v 1.9 0.8 0
v 1.9 0.9 0.1
v 1.9 0.9 0
v 1.9 1 0.1
v 1.9 1 -0.2
v 1.2 0.8 0.2
v 1.2 0.9 0.2
v 1.2 1.1 0.2
v 1.3 0.2 0.2
v 1.3 0.6 0.2
v 1.3 0.7 0.2
v 1.3 0.8 0.2
v 1.3 0.9 0.2
v 1.3 1 0.2
v 1.4 0.2 0.2
v 1.4 0.6 0.2
v 1.4 0.8 0.2
v 1.4 0.9 0.2
v 1.4 1 0.2
v 1.4 1.1 0.2
v 1.4 1.2 0.2
v 1.6 0.2 0.2
v 1.6 0.6 0.2
v 1.6 0.8 0.2
v 1.6 0.9 0.2
v 1.6 1 0.2
v 1.7 0.2 0.2
v 1.7 0.6 0.2
v 1.7 0.7 0.2
v 1.7 0.8 0.2
v 1.7 0.9 0.2
v 1.7 1 0.2
v 1.7 1.1 0.2
v 1.7 1.2 0.2
v 1.8 0.8 0.2
v 1.8 0.9 0.2
v 1.8 1.1 0.2
v 1.1 0.6 0.1
v 1.1 0.8 0.1
v 1.1 0.9 0.1
v 1.1 1 0.1
v 1.2 0.2 0.1
v 1.2 0.3 0.1
v 1.2 0.6 0.1
v 1.2 0.7 0.1
v 1.2 0.8 0.1
v 1.2 0.9 0.1
v 1.2 1 0.1
v 1.3 0 0.1
v 1.3 0.1 0.1
v 1.3 0.2 0.1
v 1.3 0.3 0.1
v 1.3 0.6 0.1
v 1.3 0.7 0.1
v 1.3 0.8 0.1
v 1.3 1.1 0.1
v 1.3 1.2 0.1
v 1.4 0 0.1
v 1.4 0.1 0.1
v 1.4 0.2 0.1
v 1.4 0.6 0.1
v 1.4 0.7 0.1
v 1.4 1.1 0.1
v 1.4 1.2 0.1
v 1.6 0 0.1
v 1.6 0.1 0.1
v 1.6 0.2 0.1
v 1.6 0.6 0.1
v 1.6 0.7 0.1
v 1.7 0 0.1
v 1.7 0.1 0.1
v 1.7 0.2 0.1
v 1.7 0.3 0.1
v 1.7 0.6 0.1
v 1.7 0.7 0.1
v 1.7 0.8 0.1
v 1.7 1.1 0.1
v 1.7 1.2 0.1
v 1.8 0.2 0.1
v 1.8 0.3 0.1
v 1.8 0.6 0.1
v 1.8 0.7 0.1
v 1.8 0.8 0.1
v 1.8 0.9 0.1
v 1.8 1 0.1
v 1.8 1.1 0.1
v 1.8 1.2 0.1
v 1.9 0.6 0.1
v 1.9 0.8 0.1
v 1.9 0.9 0.1
v 1.9 1 0.1
v 1.2 0.6 -0.1
v 1.2 0.7 -0.1
v 1.3 0.6 -0.1
v 1.3 0.7 -0.1
v 1.7 0.6 -0.1
v 1.7 0.7 -0.1
v 1.8 0.6 -0.1
v 1.8 0.7 -0.1
v 1.3 0.6 -0.2
v 1.3 0.7 -0.2
v 1.7 0.6 -0.2
v 1.7 0.7 -0.2
v 1.2 0.2 0
v 1.2 0.3 0
v 1.2 0.6 0
v 1.3 0 0
v 1.3 0.1 0
v 1.3 0.2 0
v 1.3 0.3 0
v 1.3 0.6 0
v 1.4 0 0
v 1.4 0.1 0
v 1.4 0.2 0
v 1.6 0 0
v 1.6 0.1 0
v 1.6 0.2 0
v 1.7 0 0
v 1.7 0.1 0
v 1.7 0.2 0
v 1.7 0.3 0
v 1.7 0.6 0
v 1.8 0.2 0
v 1.8 0.3 0
v 1.8 0.6 0
v 1.3 0.2 -0.1
v 1.3 0.6 -0.1
v 1.3 1.1 -0.1
v 1.3 1.2 -0.1
v 1.4 0.6 -0.1
v 1.4 0.7 -0.1
v 1.4 1.1 -0.1
v 1.4 1.2 -0.1
v 1.6 0.6 -0.1
v 1.6 0.7 -0.1
v 1.7 0.2 -0.1
v 1.7 0.6 -0.1
v 1.7 1.1 -0.1
v 1.7 1.2 -0.1
v 1.8 1.1 -0.1
v 1.8 1.2 -0.1
v 1.1 0.6 -0.2
v 1.1 1 -0.2
v 1.2 1 -0.2
v 1.2 1.1 -0.2
v 1.3 0.6 -0.2
v 1.3 1.1 -0.2
v 1.4 1.1 -0.2
v 1.4 1.2 -0.2
v 1.7 0.6 -0.2
v 1.7 1.1 -0.2
v 1.7 1.2 -0.2
v 1.8 1 -0.2
v 1.8 1.1 -0.2
v 1.9 0.6 -0.2
v 1.9 1 -0.2
v 1.3 0.6 -0.3
v 1.3 1.1 -0.3
v 1.7 0.6 -0.3
v 1.7 1.1 -0.3
v 1.3 0 0.1
v 1.4 0 0.1
v 1.6 0 0.1
v 1.7 0 0.1
v 1.3 0 0
v 1.4 0 0
v 1.6 0 0
v 1.7 0 0
v 1.3 0.2 0.2
v 1.4 0.2 0.2
v 1.6 0.2 0.2
v 1.7 0.2 0.2
v 1.2 0.2 0.1
v 1.3 0.2 0.1
v 1.4 0.2 0.1
v 1.6 0.2 0.1
v 1.7 0.2 0.1
v 1.8 0.2 0.1
v 1.2 0.2 0
v 1.3 0.2 0
v 1.4 0.2 0
v 1.6 0.2 0
v 1.7 0.2 0
v 1.8 0.2 0
v 1.3 0.2 -0.1
v 1.7 0.2 -0.1
v 1.1 0.6 0.1
v 1.2 0.6 0.1
v 1.8 0.6 0.1
v 1.9 0.6 0.1
v 1.2 0.6 0
v 1.8 0.6 0
v 1.2 0.6 -0.1
v 1.3 0.6 -0.1
v 1.7 0.6 -0.1
v 1.8 0.6 -0.1
v 1.1 0.6 -0.2
v 1.3 0.6 -0.2
v 1.7 0.6 -0.2
v 1.9 0.6 -0.2
v 1.3 0.6 -0.3
v 1.7 0.6 -0.3
v 1.3 0.7 0.2
v 1.7 0.7 0.2
v 1.2 0.7 0.1
v 1.3 0.7 0.1
v 1.4 0.7 0.1
v 1.6 0.7 0.1
v 1.7 0.7 0.1
v 1.8 0.7 0.1
v 1.2 0.7 -0.1
v 1.3 0.7 -0.1
v 1.4 0.7 -0.1
v 1.6 0.7 -0.1
v 1.7 0.7 -0.1
v 1.8 0.7 -0.1
v 1.3 0.7 -0.2
v 1.7 0.7 -0.2
v 1.2 0.8 0.2
v 1.3 0.8 0.2
v 1.7 0.8 0.2
v 1.8 0.8 0.2
v 1.2 0.8 0.1
v 1.3 0.8 0.1
v 1.7 0.8 0.1
v 1.8 0.8 0.1
v 1.3 0.6 0.2
v 1.4 0.6 0.2
v 1.6 0.6 0.2
v 1.7 0.6 0.2
v 1.2 0.6 0.1
v 1.3 0.6 0.1
v 1.4 0.6 0.1
v 1.6 0.6 0.1
v 1.7 0.6 0.1
v 1.8 0.6 0.1
v 1.2 0.6 0
v 1.3 0.6 0
v 1.7 0.6 0
v 1.8 0.6 0
v 1.3 0.6 -0.1
v 1.4 0.6 -0.1
v 1.6 0.6 -0.1
v 1.7 0.6 -0.1
v 1.1 1 0.1
v 1.2 1 0.1
v 1.8 1 0.1
v 1.9 1 0.1
v 1.1 1 -0.2
v 1.2 1 -0.2
v 1.8 1 -0.2
v 1.9 1 -0.2
v 1.2 1.1 0.2
v 1.4 1.1 0.2
v 1.7 1.1 0.2
v 1.8 1.1 0.2
v 1.3 1.1 0.1
v 1.4 1.1 0.1
v 1.7 1.1 0.1
v 1.8 1.1 0.1
v 1.3 1.1 -0.1
v 1.4 1.1 -0.1
v 1.7 1.1 -0.1
v 1.8 1.1 -0.1
v 1.2 1.1 -0.2
v 1.3 1.1 -0.2
v 1.4 1.1 -0.2
v 1.7 1.1 -0.2
v 1.8 1.1 -0.2
v 1.3 1.1 -0.3
v 1.7 1.1 -0.3
v 1.4 1.2 0.2
v 1.7 1.2 0.2
v 1.3 1.2 0.1
v 1.4 1.2 0.1
v 1.7 1.2 0.1
v 1.8 1.2 0.1
v 1.3 1.2 -0.1
v 1.4 1.2 -0.1
v 1.7 1.2 -0.1
v 1.8 1.2 -0.1
v 1.4 1.2 -0.2
v 1.7 1.2 -0.2

# faces
f 3/6/1 2/6/1 1/6/1
f 4/6/1 2/6/1 3/6/1
f 5/2/1 4/2/1 3/2/1
f 6/6/1 2/6/1 4/6/1
f 6/2/1 4/2/1 5/2/1
f 7/6/1 6/6/1 5/6/1
f 8/6/1 2/6/1 6/6/1
f 8/6/1 6/6/1 7/6/1
f 11/1/1 10/1/1 9/1/1
f 12/1/1 10/1/1 11/1/1
f 13/5/1 12/5/1 11/5/1
f 14/5/1 12/5/1 13/5/1
f 17/5/1 16/5/1 15/5/1
f 18/5/1 16/5/1 17/5/1
f 19/6/1 18/6/1 17/6/1
f 21/6/1 19/6/1 17/6/1
f 21/6/1 20/6/1 19/6/1
f 22/6/1 20/6/1 21/6/1
f 25/3/1 24/3/1 23/3/1
f 26/3/1 24/3/1 25/3/1
f 28/5/1 26/5/1 25/5/1
f 29/5/1 26/5/1 28/5/1
f 31/5/1 28/5/1 27/5/1
f 32/5/1 30/5/1 29/5/1
f 33/5/1 31/5/1 27/5/1
f 34/5/1 31/5/1 33/5/1
f 35/5/1 30/5/1 32/5/1
f 36/5/1 30/5/1 35/5/1
f 41/1/1 40/1/1 39/1/1
f 42/1/1 40/1/1 41/1/1
f 45/6/1 38/6/1 37/6/1
f 46/6/1 38/6/1 45/6/1
f 47/6/1 44/6/1 43/6/1
f 48/6/1 44/6/1 47/6/1
f 51/6/1 50/6/1 49/6/1
f 52/6/1 50/6/1 51/6/1
f 57/6/1 54/6/1 53/6/1
f 58/6/1 54/6/1 57/6/1
f 59/6/1 56/6/1 55/6/1
f 60/6/1 56/6/1 59/6/1
f 63/3/1 62/3/1 61/3/1
f 64/3/1 62/3/1 63/3/1
f 65/5/1 64/5/1 63/5/1
f 66/5/1 64/5/1 65/5/1
f 69/6/1 68/6/1 67/6/1
f 70/6/1 68/6/1 69/6/1
f 74/6/1 72/6/1 71/6/1
f 74/6/1 73/6/1 72/6/1
f 75/6/1 73/6/1 74/6/1
f 76/6/2 77/6/2 79/6/2
f 77/6/2 78/6/2 79/6/2
f 79/6/2 78/6/2 80/6/2
f 81/6/2 82/6/2 83/6/2
f 83/6/2 82/6/2 84/6/2
f 85/3/2 86/3/2 87/3/2
f 87/3/2 86/3/2 88/3/2
f 87/5/2 88/5/2 89/5/2
f 89/5/2 88/5/2 90/5/2
f 91/6/2 92/6/2 93/6/2
f 93/6/2 92/6/2 94/6/2
f 95/3/2 96/3/2 97/3/2
f 97/3/2 96/3/2 98/3/2
f 97/5/2 98/5/2 100/5/2
f 100/5/2 98/5/2 101/5/2
f 99/5/2 100/5/2 103/5/2
f 101/5/2 102/5/2 104/5/2
f 99/5/2 103/5/2 105/5/2
f 105/5/2 103/5/2 106/5/2
f 104/5/2 102/5/2 107/5/2
f 107/5/2 102/5/2 108/5/2
f 111/1/2 112/1/2 113/1/2
f 113/1/2 112/1/2 114/1/2
f 109/6/2 110/6/2 118/6/2
f 118/6/2 110/6/2 119/6/2
f 115/6/2 116/6/2 120/6/2
f 120/6/2 116/6/2 121/6/2
f 117/6/2 118/6/2 122/6/2
f 122/6/2 118/6/2 123/6/2
f 124/1/2 125/1/2 126/1/2
f 126/1/2 125/1/2 127/1/2
f 126/5/2 127/5/2 128/5/2
f 128/5/2 127/5/2 129/5/2
f 130/5/2 131/5/2 132/5/2
f 132/5/2 131/5/2 133/5/2
f 132/6/2 133/6/2 134/6/2
f 132/6/2 134/6/2 136/6/2
f 134/6/2 135/6/2 136/6/2
f 136/6/2 135/6/2 137/6/2
f 137/6/2 135/6/2 138/6/2
f 138/6/2 135/6/2 139/6/2
f 137/6/2 138/6/2 140/6/2
f 140/6/2 138/6/2 141/6/2
f 142/6/2 143/6/2 144/6/2
f 144/6/2 143/6/2 145/6/2
f 144/2/2 145/2/2 146/2/2
f 145/6/2 143/6/2 147/6/2
f 146/2/2 145/2/2 147/2/2
f 146/6/2 147/6/2 148/6/2
f 147/6/2 143/6/2 149/6/2
f 148/6/2 147/6/2 149/6/2
f 156/5/3 151/5/3 150/5/3
f 157/6/3 152/6/3 151/6/3
f 157/5/3 151/5/3 156/5/3
f 158/6/3 152/6/3 157/6/3
f 159/5/3 154/5/3 153/5/3
f 160/5/3 154/5/3 159/5/3
f 161/1/3 156/1/3 155/1/3
f 161/3/3 157/3/3 156/3/3
f 162/4/3 158/4/3 157/4/3
f 162/3/3 157/3/3 161/3/3
f 163/6/3 152/6/3 158/6/3
f 163/4/3 158/4/3 162/4/3
f 164/6/3 152/6/3 163/6/3
f 166/6/3 160/6/3 159/6/3
f 167/6/3 160/6/3 166/6/3
f 168/1/3 162/1/3 161/1/3
f 168/1/3 161/1/3 155/1/3
f 168/1/3 163/1/3 162/1/3
f 169/1/3 163/1/3 168/1/3
f 170/6/3 165/6/3 164/6/3
f 170/1/3 163/1/3 169/1/3
f 170/6/3 164/6/3 163/6/3
f 171/5/3 167/5/3 166/5/3
f 172/5/3 167/5/3 171/5/3
f 173/1/3 168/1/3 155/1/3
f 174/3/3 169/3/3 168/3/3
f 174/1/3 168/1/3 173/1/3
f 175/4/3 170/4/3 169/4/3
f 175/3/3 169/3/3 174/3/3
f 176/6/3 165/6/3 170/6/3
f 176/4/3 170/4/3 175/4/3
f 177/6/3 165/6/3 176/6/3
f 178/6/3 165/6/3 177/6/3
f 179/5/3 175/5/3 174/5/3
f 180/6/3 177/6/3 176/6/3
f 180/5/3 175/5/3 179/5/3
f 180/6/3 176/6/3 175/6/3
f 181/6/3 177/6/3 180/6/3
f 188/6/3 183/6/3 182/6/3
f 189/6/3 183/6/3 188/6/3
f 190/2/3 184/2/3 183/2/3
f 190/6/3 183/6/3 189/6/3
f 191/6/3 185/6/3 184/6/3
f 191/2/3 184/2/3 190/2/3
f 192/6/3 185/6/3 191/6/3
f 195/1/3 187/1/3 186/1/3
f 196/5/3 188/5/3 187/5/3
f 196/1/3 187/1/3 195/1/3
f 197/5/3 188/5/3 196/5/3
f 198/6/3 190/6/3 189/6/3
f 199/6/3 190/6/3 198/6/3
f 202/3/3 194/3/3 193/3/3
f 203/5/3 195/5/3 194/5/3
f 203/3/3 194/3/3 202/3/3
f 204/5/3 195/5/3 203/5/3
f 207/6/3 201/6/3 200/6/3
f 208/6/3 201/6/3 207/6/3
f 212/6/3 206/6/3 205/6/3
f 213/6/3 206/6/3 212/6/3
f 214/3/3 210/3/3 209/3/3
f 215/5/3 211/5/3 210/5/3
f 215/3/3 210/3/3 214/3/3
f 216/5/3 211/5/3 215/5/3
f 223/1/3 217/1/3 216/1/3
f 224/5/3 218/5/3 217/5/3
f 224/1/3 217/1/3 223/1/3
f 225/5/3 218/5/3 224/5/3
f 226/6/3 220/6/3 219/6/3
f 227/6/3 220/6/3 226/6/3
f 230/6/3 222/6/3 221/6/3
f 231/6/3 222/6/3 230/6/3
f 232/6/3 226/6/3 225/6/3
f 232/6/3 227/6/3 226/6/3
f 233/2/3 228/2/3 227/2/3
f 233/6/3 227/6/3 232/6/3
f 234/6/3 229/6/3 228/6/3
f 234/2/3 228/2/3 233/2/3
f 235/6/3 229/6/3 234/6/3
f 238/6/3 237/6/3 236/6/3
f 239/6/3 237/6/3 238/6/3
f 242/6/3 241/6/3 240/6/3
f 243/6/3 241/6/3 242/6/3
f 246/6/3 245/6/3 244/6/3
f 247/6/3 245/6/3 246/6/3
f 248/1/4 249/1/4 253/1/4
f 249/5/4 250/5/4 254/5/4
f 253/1/4 249/1/4 254/1/4
f 254/5/4 250/5/4 255/5/4
f 251/3/4 252/3/4 256/3/4
f 252/5/4 253/5/4 257/5/4
f 256/3/4 252/3/4 257/3/4
f 257/5/4 253/5/4 258/5/4
f 259/3/4 260/3/4 262/3/4
f 260/5/4 261/5/4 263/5/4
f 262/3/4 260/3/4 263/3/4
f 263/5/4 261/5/4 264/5/4
f 264/1/4 265/1/4 267/1/4
f 265/5/4 266/5/4 268/5/4
f 267/1/4 265/1/4 268/1/4
f 268/5/4 266/5/4 269/5/4
f 270/5/4 271/5/4 274/5/4
f 272/6/4 273/6/4 276/6/4
f 276/6/4 273/6/4 277/6/4
f 274/6/4 275/6/4 278/6/4
f 270/5/4 274/5/4 278/5/4
f 278/6/4 275/6/4 279/6/4
f 270/5/4 278/5/4 280/5/4
f 280/5/4 278/5/4 281/5/4
f 282/6/4 283/6/4 284/6/4
f 284/6/4 283/6/4 285/6/4
f 286/6/4 287/6/4 288/6/4
f 286/6/4 288/6/4 290/6/4
f 288/6/4 289/6/4 290/6/4
f 290/6/4 289/6/4 291/6/4
f 292/6/4 293/6/4 295/6/4
f 295/6/4 293/6/4 296/6/4
f 294/6/4 295/6/4 297/6/4
f 297/6/4 295/6/4 298/6/4
f 294/6/4 297/6/4 299/6/4
f 299/6/4 297/6/4 300/6/4
f 301/6/4 302/6/4 303/6/4
f 303/6/4 302/6/4 304/6/4
f 309/3/5 306/3/5 305/3/5
f 310/3/5 306/3/5 309/3/5
f 311/3/5 308/3/5 307/3/5
f 312/3/5 308/3/5 311/3/5
f 318/5/5 314/5/5 313/5/5
f 319/6/5 315/6/5 314/6/5
f 319/5/5 314/5/5 318/5/5
f 320/5/5 316/5/5 315/5/5
f 320/6/5 315/6/5 319/6/5
f 321/5/5 316/5/5 320/5/5
f 323/1/5 318/1/5 317/1/5
f 324/1/5 318/1/5 323/1/5
f 325/5/5 320/5/5 319/5/5
f 326/5/5 320/5/5 325/5/5
f 327/1/5 322/1/5 321/1/5
f 328/1/5 322/1/5 327/1/5
f 329/5/5 326/5/5 325/5/5
f 329/5/5 327/5/5 326/5/5
f 329/5/5 325/5/5 324/5/5
f 330/5/5 327/5/5 329/5/5
f 335/6/5 332/6/5 331/6/5
f 336/6/5 334/6/5 333/6/5
f 337/6/5 335/6/5 331/6/5
f 340/6/5 334/6/5 336/6/5
f 341/6/5 338/6/5 337/6/5
f 341/6/5 337/6/5 331/6/5
f 342/6/5 338/6/5 341/6/5
f 343/6/5 340/6/5 339/6/5
f 344/6/5 334/6/5 340/6/5
f 344/6/5 340/6/5 343/6/5
f 345/6/5 343/6/5 342/6/5
f 346/6/5 343/6/5 345/6/5
f 350/1/5 348/1/5 347/1/5
f 351/1/5 348/1/5 350/1/5
f 352/1/5 348/1/5 351/1/5
f 353/1/5 348/1/5 352/1/5
f 355/6/5 350/6/5 349/6/5
f 355/6/5 351/6/5 350/6/5
f 356/6/5 351/6/5 355/6/5
f 357/6/5 351/6/5 356/6/5
f 358/6/5 354/6/5 353/6/5
f 358/6/5 353/6/5 352/6/5
f 359/6/5 354/6/5 358/6/5
f 360/6/5 354/6/5 359/6/5
f 361/6/5 357/6/5 356/6/5
f 361/6/5 359/6/5 358/6/5
f 361/6/5 358/6/5 357/6/5
f 362/6/5 359/6/5 361/6/5
f 367/5/5 364/5/5 363/5/5
f 368/5/5 364/5/5 367/5/5
f 369/5/5 366/5/5 365/5/5
f 370/5/5 366/5/5 369/5/5
f 371/5/6 372/5/6 376/5/6
f 372/6/6 373/6/6 377/6/6
f 376/5/6 372/5/6 377/5/6
f 373/5/6 374/5/6 378/5/6
f 377/6/6 373/6/6 378/6/6
f 378/5/6 374/5/6 379/5/6
f 376/5/6 377/5/6 381/5/6
f 375/5/6 376/5/6 381/5/6
f 381/5/6 377/5/6 382/5/6
f 379/5/6 380/5/6 383/5/6
f 378/5/6 379/5/6 383/5/6
f 383/5/6 380/5/6 384/5/6
f 382/5/6 377/5/6 385/5/6
f 385/5/6 377/5/6 386/5/6
f 378/5/6 383/5/6 387/5/6
f 387/5/6 383/5/6 388/5/6
f 389/6/6 390/6/6 393/6/6
f 393/6/6 390/6/6 394/6/6
f 391/6/6 392/6/6 395/6/6
f 395/6/6 392/6/6 396/6/6
f 397/6/6 398/6/6 401/6/6
f 401/6/6 398/6/6 402/6/6
f 399/6/6 400/6/6 403/6/6
f 403/6/6 400/6/6 404/6/6
f 397/6/6 401/6/6 405/6/6
f 397/6/6 405/6/6 409/6/6
f 405/6/6 406/6/6 409/6/6
f 409/6/6 406/6/6 410/6/6
f 410/6/6 406/6/6 411/6/6
f 407/6/6 408/6/6 412/6/6
f 412/6/6 408/6/6 413/6/6
f 410/6/6 411/6/6 414/6/6
f 411/6/6 412/6/6 414/6/6
f 414/6/6 412/6/6 415/6/6
f 416/6/6 417/6/6 419/6/6
f 419/6/6 417/6/6 420/6/6
f 418/6/6 419/6/6 422/6/6
f 420/6/6 421/6/6 422/6/6
f 419/6/6 420/6/6 422/6/6
f 422/6/6 421/6/6 423/6/6
f 423/6/6 421/6/6 424/6/6
f 424/6/6 421/6/6 425/6/6
f 423/6/6 424/6/6 426/6/6
f 426/6/6 424/6/6 427/6/6
